<?xml version="1.0" encoding="UTF-8" standalone="no"?>
<!DOCTYPE svg PUBLIC "-//W3C//DTD SVG 1.1//EN"
 "http://www.w3.org/Graphics/SVG/1.1/DTD/svg11.dtd">
<!-- Generated by graphviz version 7.0.5 (20221223.1930)
 -->
<!-- Title: CDListCmd Pages: 1 -->
<!--zoomable 1803 -->
<svg id="main" version="1.1" xmlns="http://www.w3.org/2000/svg" xmlns:xlink="http://www.w3.org/1999/xlink" xml:space="preserve" onload="init(evt)">
<style type="text/css"><![CDATA[
.edge:hover path { stroke: red; }
.edge:hover polygon { stroke: red; fill: red; }
]]></style>
<script type="text/javascript"><![CDATA[
var edges = document.getElementsByTagName('g');
if (edges && edges.length) {
  for (var i=0;i<edges.length;i++) {
    if (edges[i].id.substr(0,4)=='edge') {
      edges[i].setAttribute('class','edge');
    }
  }
}
]]></script>
        <defs>
                <circle id="rim" cx="0" cy="0" r="7"/>
                <circle id="rim2" cx="0" cy="0" r="3.5"/>
                <g id="zoomPlus">
                        <use xlink:href="#rim" fill="#404040">
                                <set attributeName="fill" to="#808080" begin="zoomplus.mouseover" end="zoomplus.mouseout"/>
                        </use>
                        <path d="M-4,0h8M0,-4v8" fill="none" stroke="white" stroke-width="1.5" pointer-events="none"/>
                </g>
                <g id="zoomMin">
                        <use xlink:href="#rim" fill="#404040">
                                <set attributeName="fill" to="#808080" begin="zoomminus.mouseover" end="zoomminus.mouseout"/>
                        </use>
                        <path d="M-4,0h8" fill="none" stroke="white" stroke-width="1.5" pointer-events="none"/>
                </g>
                <g id="dirArrow">
                        <path fill="none" stroke="white" stroke-width="1.5" d="M0,-3.0v7 M-2.5,-0.5L0,-3.0L2.5,-0.5"/>
                </g>
               <g id="resetDef">
                       <use xlink:href="#rim2" fill="#404040">
                               <set attributeName="fill" to="#808080" begin="reset.mouseover" end="reset.mouseout"/>
                       </use>
               </g>
        </defs>

<script type="text/javascript">
var viewWidth = 269;
var viewHeight = 1803;
var sectionId = 'dynsection-0';
</script>
<script xlink:href="svgpan.js"/>
<svg id="graph" class="graph">
<g id="viewport">
<title>CDListCmd</title>
<!-- Node1 -->
<g id="node1" class="node">
<title>Node1</title>
<g id="a_node1"><a xlink:title=" ">
<polygon fill="#999999" stroke="#666666" points="67,-907 0,-907 0,-888 67,-888 67,-907"/>
<text text-anchor="middle" x="33.5" y="-895" font-family="Helvetica,sans-Serif" font-size="10.00">CDListCmd</text>
</a>
</g>
</g>
<!-- Node2 -->
<g id="node2" class="node">
<title>Node2</title>
<g id="a_node2"><a xlink:href="class_c_bind_texture_cmd.html" target="_top" xlink:title=" ">
<polygon fill="white" stroke="#bfbfbf" points="229.5,-1795 134.5,-1795 134.5,-1776 229.5,-1776 229.5,-1795"/>
<text text-anchor="middle" x="182" y="-1783" font-family="Helvetica,sans-Serif" font-size="10.00">CBindTextureCmd</text>
</a>
</g>
</g>
<!-- Node1&#45;&gt;Node2 -->
<g id="edge1" class="edge">
<title>Node1&#45;&gt;Node2</title>
<path fill="none" stroke="#63b8ff" d="M34.7,-918.75C36.06,-1045.77 45.86,-1701.2 103,-1767.5 110.89,-1776.66 122.43,-1781.67 134.22,-1784.3"/>
<polygon fill="#63b8ff" stroke="#63b8ff" points="38.2,-918.78 34.6,-908.82 31.2,-918.85 38.2,-918.78"/>
</g>
<!-- Node3 -->
<g id="node3" class="node">
<title>Node3</title>
<g id="a_node3"><a xlink:href="class_c_call_list_cmd.html" target="_top" xlink:title=" ">
<polygon fill="white" stroke="#bfbfbf" points="220.5,-1758 143.5,-1758 143.5,-1739 220.5,-1739 220.5,-1758"/>
<text text-anchor="middle" x="182" y="-1746" font-family="Helvetica,sans-Serif" font-size="10.00">CCallListCmd</text>
</a>
</g>
</g>
<!-- Node1&#45;&gt;Node3 -->
<g id="edge2" class="edge">
<title>Node1&#45;&gt;Node3</title>
<path fill="none" stroke="#63b8ff" d="M34.77,-918.62C36.56,-1042.1 48.28,-1667.23 103,-1730.5 112.91,-1741.96 128.52,-1746.92 143.18,-1748.84"/>
<polygon fill="#63b8ff" stroke="#63b8ff" points="38.28,-918.91 34.64,-908.96 31.28,-919.01 38.28,-918.91"/>
</g>
<!-- Node4 -->
<g id="node4" class="node">
<title>Node4</title>
<g id="a_node4"><a xlink:href="class_c_color_cmd.html" target="_top" xlink:title=" ">
<polygon fill="white" stroke="#bfbfbf" points="215,-1721 149,-1721 149,-1702 215,-1702 215,-1721"/>
<text text-anchor="middle" x="182" y="-1709" font-family="Helvetica,sans-Serif" font-size="10.00">CColorCmd</text>
</a>
</g>
</g>
<!-- Node1&#45;&gt;Node4 -->
<g id="edge3" class="edge">
<title>Node1&#45;&gt;Node4</title>
<path fill="none" stroke="#63b8ff" d="M34.86,-918.79C37.1,-1039.35 50.74,-1633.3 103,-1693.5 114.21,-1706.41 132.65,-1711.07 148.79,-1712.43"/>
<polygon fill="#63b8ff" stroke="#63b8ff" points="38.36,-918.72 34.68,-908.79 31.36,-918.85 38.36,-918.72"/>
</g>
<!-- Node5 -->
<g id="node5" class="node">
<title>Node5</title>
<g id="a_node5"><a xlink:href="class_c_disable_custom_cmd.html" target="_top" xlink:title=" ">
<polygon fill="white" stroke="#bfbfbf" points="237,-1684 127,-1684 127,-1665 237,-1665 237,-1684"/>
<text text-anchor="middle" x="182" y="-1672" font-family="Helvetica,sans-Serif" font-size="10.00">CDisableCustomCmd</text>
</a>
</g>
</g>
<!-- Node1&#45;&gt;Node5 -->
<g id="edge4" class="edge">
<title>Node1&#45;&gt;Node5</title>
<path fill="none" stroke="#63b8ff" d="M34.95,-918.53C37.63,-1035.15 53.14,-1599.3 103,-1656.5 109.21,-1663.62 117.62,-1668.23 126.63,-1671.16"/>
<polygon fill="#63b8ff" stroke="#63b8ff" points="38.46,-918.78 34.73,-908.86 31.46,-918.94 38.46,-918.78"/>
</g>
<!-- Node6 -->
<g id="node6" class="node">
<title>Node6</title>
<g id="a_node6"><a xlink:href="class_c_draw_arrays_cmd.html" target="_top" xlink:title=" ">
<polygon fill="white" stroke="#bfbfbf" points="229,-1647 135,-1647 135,-1628 229,-1628 229,-1647"/>
<text text-anchor="middle" x="182" y="-1635" font-family="Helvetica,sans-Serif" font-size="10.00">CDrawArraysCmd</text>
</a>
</g>
</g>
<!-- Node1&#45;&gt;Node6 -->
<g id="edge5" class="edge">
<title>Node1&#45;&gt;Node6</title>
<path fill="none" stroke="#63b8ff" d="M35.05,-918.55C38.22,-1031.79 55.57,-1565.35 103,-1619.5 111.06,-1628.7 122.79,-1633.7 134.72,-1636.31"/>
<polygon fill="#63b8ff" stroke="#63b8ff" points="38.56,-918.8 34.79,-908.9 31.56,-918.99 38.56,-918.8"/>
</g>
<!-- Node7 -->
<g id="node7" class="node">
<title>Node7</title>
<g id="a_node7"><a xlink:href="class_c_draw_indexed_arrays_cmd.html" target="_top" xlink:title=" ">
<polygon fill="white" stroke="#bfbfbf" points="246,-1610 118,-1610 118,-1591 246,-1591 246,-1610"/>
<text text-anchor="middle" x="182" y="-1598" font-family="Helvetica,sans-Serif" font-size="10.00">CDrawIndexedArraysCmd</text>
</a>
</g>
</g>
<!-- Node1&#45;&gt;Node7 -->
<g id="edge6" class="edge">
<title>Node1&#45;&gt;Node7</title>
<path fill="none" stroke="#63b8ff" d="M35.18,-918.83C38.86,-1029.1 58.04,-1531.42 103,-1582.5 107.13,-1587.19 112.22,-1590.79 117.8,-1593.54"/>
<polygon fill="#63b8ff" stroke="#63b8ff" points="38.68,-918.77 34.85,-908.89 31.68,-919 38.68,-918.77"/>
</g>
<!-- Node8 -->
<g id="node8" class="node">
<title>Node8</title>
<g id="a_node8"><a xlink:href="class_c_empty_list_cmd.html" target="_top" xlink:title=" ">
<polygon fill="white" stroke="#bfbfbf" points="225.5,-1573 138.5,-1573 138.5,-1554 225.5,-1554 225.5,-1573"/>
<text text-anchor="middle" x="182" y="-1561" font-family="Helvetica,sans-Serif" font-size="10.00">CEmptyListCmd</text>
</a>
</g>
</g>
<!-- Node1&#45;&gt;Node8 -->
<g id="edge7" class="edge">
<title>Node1&#45;&gt;Node8</title>
<path fill="none" stroke="#63b8ff" d="M35.3,-918.67C39.49,-1024.98 60.44,-1497.43 103,-1545.5 111.84,-1555.49 125.02,-1560.52 138.04,-1562.9"/>
<polygon fill="#63b8ff" stroke="#63b8ff" points="38.8,-918.7 34.92,-908.85 31.81,-918.98 38.8,-918.7"/>
</g>
<!-- Node9 -->
<g id="node9" class="node">
<title>Node9</title>
<g id="a_node9"><a xlink:href="class_c_enable_cmd.html" target="_top" xlink:title=" ">
<polygon fill="white" stroke="#bfbfbf" points="218.5,-1536 145.5,-1536 145.5,-1517 218.5,-1517 218.5,-1536"/>
<text text-anchor="middle" x="182" y="-1524" font-family="Helvetica,sans-Serif" font-size="10.00">CEnableCmd</text>
</a>
</g>
</g>
<!-- Node1&#45;&gt;Node9 -->
<g id="edge8" class="edge">
<title>Node1&#45;&gt;Node9</title>
<path fill="none" stroke="#63b8ff" d="M35.44,-918.73C40.19,-1021.41 62.86,-1463.45 103,-1508.5 113.54,-1520.33 130.16,-1525.19 145.36,-1526.95"/>
<polygon fill="#63b8ff" stroke="#63b8ff" points="38.94,-918.59 34.99,-908.76 31.95,-918.9 38.94,-918.59"/>
</g>
<!-- Node10 -->
<g id="node10" class="node">
<title>Node10</title>
<g id="a_node10"><a xlink:href="class_c_enable_custom_cmd.html" target="_top" xlink:title=" ">
<polygon fill="white" stroke="#bfbfbf" points="235.5,-1499 128.5,-1499 128.5,-1480 235.5,-1480 235.5,-1499"/>
<text text-anchor="middle" x="182" y="-1487" font-family="Helvetica,sans-Serif" font-size="10.00">CEnableCustomCmd</text>
</a>
</g>
</g>
<!-- Node1&#45;&gt;Node10 -->
<g id="edge9" class="edge">
<title>Node1&#45;&gt;Node10</title>
<path fill="none" stroke="#63b8ff" d="M35.58,-918.36C40.87,-1016.53 65.23,-1429.41 103,-1471.5 109.68,-1478.95 118.78,-1483.63 128.4,-1486.51"/>
<polygon fill="#63b8ff" stroke="#63b8ff" points="39.09,-918.42 35.07,-908.62 32.1,-918.79 39.09,-918.42"/>
</g>
<!-- Node11 -->
<g id="node11" class="node">
<title>Node11</title>
<g id="a_node11"><a xlink:href="class_c_end_list_cmd.html" target="_top" xlink:title=" ">
<polygon fill="white" stroke="#bfbfbf" points="220.5,-1462 143.5,-1462 143.5,-1443 220.5,-1443 220.5,-1462"/>
<text text-anchor="middle" x="182" y="-1450" font-family="Helvetica,sans-Serif" font-size="10.00">CEndListCmd</text>
</a>
</g>
</g>
<!-- Node1&#45;&gt;Node11 -->
<g id="edge10" class="edge">
<title>Node1&#45;&gt;Node11</title>
<path fill="none" stroke="#63b8ff" d="M34.11,-918.63C32.9,-1008.38 32.83,-1356.95 103,-1434.5 113.07,-1445.63 128.53,-1450.57 143.03,-1452.57"/>
<polygon fill="#63b8ff" stroke="#63b8ff" points="37.61,-918.9 34.26,-908.84 30.61,-918.79 37.61,-918.9"/>
</g>
<!-- Node12 -->
<g id="node12" class="node">
<title>Node12</title>
<g id="a_node12"><a xlink:href="class_c_light_prop_cmd.html" target="_top" xlink:title=" ">
<polygon fill="white" stroke="#bfbfbf" points="225,-1425 139,-1425 139,-1406 225,-1406 225,-1425"/>
<text text-anchor="middle" x="182" y="-1413" font-family="Helvetica,sans-Serif" font-size="10.00">CLightPropCmd</text>
</a>
</g>
</g>
<!-- Node1&#45;&gt;Node12 -->
<g id="edge11" class="edge">
<title>Node1&#45;&gt;Node12</title>
<path fill="none" stroke="#63b8ff" d="M34.33,-918.8C34.09,-1004.9 37.67,-1325.96 103,-1397.5 112.09,-1407.45 125.49,-1412.45 138.63,-1414.81"/>
<polygon fill="#63b8ff" stroke="#63b8ff" points="37.83,-919 34.38,-908.98 30.83,-918.96 37.83,-919"/>
</g>
<!-- Node13 -->
<g id="node13" class="node">
<title>Node13</title>
<g id="a_node13"><a xlink:href="class_c_matrix_concat_cmd.html" target="_top" xlink:title=" ">
<polygon fill="white" stroke="#bfbfbf" points="232.5,-1388 131.5,-1388 131.5,-1369 232.5,-1369 232.5,-1388"/>
<text text-anchor="middle" x="182" y="-1376" font-family="Helvetica,sans-Serif" font-size="10.00">CMatrixConcatCmd</text>
</a>
</g>
</g>
<!-- Node1&#45;&gt;Node13 -->
<g id="edge12" class="edge">
<title>Node1&#45;&gt;Node13</title>
<path fill="none" stroke="#63b8ff" d="M34.59,-918.51C35.36,-1000.11 42.37,-1294.82 103,-1360.5 110.45,-1368.57 120.73,-1373.37 131.38,-1376.15"/>
<polygon fill="#63b8ff" stroke="#63b8ff" points="38.09,-918.61 34.52,-908.63 31.09,-918.66 38.09,-918.61"/>
</g>
<!-- Node14 -->
<g id="node14" class="node">
<title>Node14</title>
<g id="a_node14"><a xlink:href="class_c_matrix_pop_cmd.html" target="_top" xlink:title=" ">
<polygon fill="white" stroke="#bfbfbf" points="225.5,-1351 138.5,-1351 138.5,-1332 225.5,-1332 225.5,-1351"/>
<text text-anchor="middle" x="182" y="-1339" font-family="Helvetica,sans-Serif" font-size="10.00">CMatrixPopCmd</text>
</a>
</g>
</g>
<!-- Node1&#45;&gt;Node14 -->
<g id="edge13" class="edge">
<title>Node1&#45;&gt;Node14</title>
<path fill="none" stroke="#63b8ff" d="M34.89,-918.56C36.74,-996.03 47.15,-1263.76 103,-1323.5 112.11,-1333.25 125.36,-1338.21 138.36,-1340.62"/>
<polygon fill="#63b8ff" stroke="#63b8ff" points="38.39,-918.9 34.68,-908.97 31.39,-919.05 38.39,-918.9"/>
</g>
<!-- Node15 -->
<g id="node15" class="node">
<title>Node15</title>
<g id="a_node15"><a xlink:href="class_c_matrix_push_cmd.html" target="_top" xlink:title=" ">
<polygon fill="white" stroke="#bfbfbf" points="228,-1314 136,-1314 136,-1295 228,-1295 228,-1314"/>
<text text-anchor="middle" x="182" y="-1302" font-family="Helvetica,sans-Serif" font-size="10.00">CMatrixPushCmd</text>
</a>
</g>
</g>
<!-- Node1&#45;&gt;Node15 -->
<g id="edge14" class="edge">
<title>Node1&#45;&gt;Node15</title>
<path fill="none" stroke="#63b8ff" d="M35.24,-918.58C38.24,-991.66 51.91,-1232.65 103,-1286.5 111.51,-1295.47 123.53,-1300.38 135.6,-1302.97"/>
<polygon fill="#63b8ff" stroke="#63b8ff" points="38.75,-918.68 34.87,-908.82 31.75,-918.95 38.75,-918.68"/>
</g>
<!-- Node16 -->
<g id="node16" class="node">
<title>Node16</title>
<g id="a_node16"><a xlink:href="class_c_matrix_set_top_cmd.html" target="_top" xlink:title=" ">
<polygon fill="white" stroke="#bfbfbf" points="232.5,-1277 131.5,-1277 131.5,-1258 232.5,-1258 232.5,-1277"/>
<text text-anchor="middle" x="182" y="-1265" font-family="Helvetica,sans-Serif" font-size="10.00">CMatrixSetTopCmd</text>
</a>
</g>
</g>
<!-- Node1&#45;&gt;Node16 -->
<g id="edge15" class="edge">
<title>Node1&#45;&gt;Node16</title>
<path fill="none" stroke="#63b8ff" d="M35.68,-918.76C39.92,-987.41 56.68,-1201.54 103,-1249.5 110.53,-1257.3 120.71,-1262.01 131.23,-1264.8"/>
<polygon fill="#63b8ff" stroke="#63b8ff" points="39.18,-918.67 35.1,-908.89 32.19,-919.08 39.18,-918.67"/>
</g>
<!-- Node17 -->
<g id="node17" class="node">
<title>Node17</title>
<g id="a_node17"><a xlink:href="class_c_next_block_cmd.html" target="_top" xlink:title=" ">
<polygon fill="white" stroke="#bfbfbf" points="226.5,-1240 137.5,-1240 137.5,-1221 226.5,-1221 226.5,-1240"/>
<text text-anchor="middle" x="182" y="-1228" font-family="Helvetica,sans-Serif" font-size="10.00">CNextBlockCmd</text>
</a>
</g>
</g>
<!-- Node1&#45;&gt;Node17 -->
<g id="edge16" class="edge">
<title>Node1&#45;&gt;Node17</title>
<path fill="none" stroke="#63b8ff" d="M36.19,-918.57C41.71,-982.14 61.34,-1170.31 103,-1212.5 111.98,-1221.6 124.58,-1226.48 137.04,-1229"/>
<polygon fill="#63b8ff" stroke="#63b8ff" points="39.69,-918.47 35.37,-908.8 32.72,-919.05 39.69,-918.47"/>
</g>
<!-- Node18 -->
<g id="node18" class="node">
<title>Node18</title>
<g id="a_node18"><a xlink:href="class_c_set_alpha_func_cmd.html" target="_top" xlink:title=" ">
<polygon fill="white" stroke="#bfbfbf" points="234.5,-1203 129.5,-1203 129.5,-1184 234.5,-1184 234.5,-1203"/>
<text text-anchor="middle" x="182" y="-1191" font-family="Helvetica,sans-Serif" font-size="10.00">CSetAlphaFuncCmd</text>
</a>
</g>
</g>
<!-- Node1&#45;&gt;Node18 -->
<g id="edge17" class="edge">
<title>Node1&#45;&gt;Node18</title>
<path fill="none" stroke="#63b8ff" d="M36.87,-918.72C43.82,-977.26 66.05,-1139.09 103,-1175.5 110.13,-1182.52 119.42,-1187.02 129.09,-1189.85"/>
<polygon fill="#63b8ff" stroke="#63b8ff" points="40.35,-918.35 35.72,-908.82 33.39,-919.15 40.35,-918.35"/>
</g>
<!-- Node19 -->
<g id="node19" class="node">
<title>Node19</title>
<g id="a_node19"><a xlink:href="class_c_set_alpha_test_enabled_cmd.html" target="_top" xlink:title=" ">
<polygon fill="white" stroke="#bfbfbf" points="250.5,-1166 113.5,-1166 113.5,-1147 250.5,-1147 250.5,-1166"/>
<text text-anchor="middle" x="182" y="-1154" font-family="Helvetica,sans-Serif" font-size="10.00">CSetAlphaTestEnabledCmd</text>
</a>
</g>
</g>
<!-- Node1&#45;&gt;Node19 -->
<g id="edge18" class="edge">
<title>Node1&#45;&gt;Node19</title>
<path fill="none" stroke="#63b8ff" d="M33.85,-918.64C33.63,-965.49 40.05,-1078.63 103,-1138.5 106.32,-1141.66 110.09,-1144.31 114.12,-1146.52"/>
<polygon fill="#63b8ff" stroke="#63b8ff" points="37.35,-918.85 34.02,-908.8 30.35,-918.73 37.35,-918.85"/>
</g>
<!-- Node20 -->
<g id="node20" class="node">
<title>Node20</title>
<g id="a_node20"><a xlink:href="class_c_set_blend_enabled_cmd.html" target="_top" xlink:title=" ">
<polygon fill="white" stroke="#bfbfbf" points="241,-1129 123,-1129 123,-1110 241,-1110 241,-1129"/>
<text text-anchor="middle" x="182" y="-1117" font-family="Helvetica,sans-Serif" font-size="10.00">CSetBlendEnabledCmd</text>
</a>
</g>
</g>
<!-- Node1&#45;&gt;Node20 -->
<g id="edge19" class="edge">
<title>Node1&#45;&gt;Node20</title>
<path fill="none" stroke="#63b8ff" d="M35.15,-918.76C37.61,-960.36 49.2,-1052.69 103,-1101.5 108.66,-1106.64 115.49,-1110.4 122.72,-1113.13"/>
<polygon fill="#63b8ff" stroke="#63b8ff" points="38.65,-918.71 34.7,-908.88 31.65,-919.03 38.65,-918.71"/>
</g>
<!-- Node21 -->
<g id="node21" class="node">
<title>Node21</title>
<g id="a_node21"><a xlink:href="class_c_set_blend_mode.html" target="_top" xlink:title=" ">
<polygon fill="white" stroke="#bfbfbf" points="225.5,-1092 138.5,-1092 138.5,-1073 225.5,-1073 225.5,-1092"/>
<text text-anchor="middle" x="182" y="-1080" font-family="Helvetica,sans-Serif" font-size="10.00">CSetBlendMode</text>
</a>
</g>
</g>
<!-- Node1&#45;&gt;Node21 -->
<g id="edge20" class="edge">
<title>Node1&#45;&gt;Node21</title>
<path fill="none" stroke="#63b8ff" d="M36.93,-918.56C42.22,-954.23 58.12,-1026.37 103,-1064.5 112.85,-1072.87 125.84,-1077.53 138.38,-1080.08"/>
<polygon fill="#63b8ff" stroke="#63b8ff" points="40.41,-918.15 35.63,-908.7 33.47,-919.07 40.41,-918.15"/>
</g>
<!-- Node22 -->
<g id="node22" class="node">
<title>Node22</title>
<g id="a_node22"><a xlink:href="class_c_set_color_mat_mode_cmd.html" target="_top" xlink:title=" ">
<polygon fill="white" stroke="#bfbfbf" points="243,-1055 121,-1055 121,-1036 243,-1036 243,-1055"/>
<text text-anchor="middle" x="182" y="-1043" font-family="Helvetica,sans-Serif" font-size="10.00">CSetColorMatModeCmd</text>
</a>
</g>
</g>
<!-- Node1&#45;&gt;Node22 -->
<g id="edge21" class="edge">
<title>Node1&#45;&gt;Node22</title>
<path fill="none" stroke="#63b8ff" d="M39.61,-918.39C47.85,-947.47 66.92,-999.71 103,-1027.5 108.28,-1031.57 114.33,-1034.75 120.66,-1037.22"/>
<polygon fill="#63b8ff" stroke="#63b8ff" points="43.06,-917.72 37.11,-908.94 36.29,-919.51 43.06,-917.72"/>
</g>
<!-- Node23 -->
<g id="node23" class="node">
<title>Node23</title>
<g id="a_node23"><a xlink:href="class_c_set_cull_face_dir.html" target="_top" xlink:title=" ">
<polygon fill="white" stroke="#bfbfbf" points="226.5,-1018 137.5,-1018 137.5,-999 226.5,-999 226.5,-1018"/>
<text text-anchor="middle" x="182" y="-1006" font-family="Helvetica,sans-Serif" font-size="10.00">CSetCullFaceDir</text>
</a>
</g>
</g>
<!-- Node1&#45;&gt;Node23 -->
<g id="edge22" class="edge">
<title>Node1&#45;&gt;Node23</title>
<path fill="none" stroke="#63b8ff" d="M43.94,-917.73C55.02,-939.17 75.44,-972.39 103,-990.5 113.1,-997.14 125.35,-1001.35 137.11,-1004"/>
<polygon fill="#63b8ff" stroke="#63b8ff" points="47.11,-916.24 39.56,-908.82 40.83,-919.34 47.11,-916.24"/>
</g>
<!-- Node24 -->
<g id="node24" class="node">
<title>Node24</title>
<g id="a_node24"><a xlink:href="class_c_set_cur_clut_cmd.html" target="_top" xlink:title=" ">
<polygon fill="white" stroke="#bfbfbf" points="227.5,-981 136.5,-981 136.5,-962 227.5,-962 227.5,-981"/>
<text text-anchor="middle" x="182" y="-969" font-family="Helvetica,sans-Serif" font-size="10.00">CSetCurClutCmd</text>
</a>
</g>
</g>
<!-- Node1&#45;&gt;Node24 -->
<g id="edge23" class="edge">
<title>Node1&#45;&gt;Node24</title>
<path fill="none" stroke="#63b8ff" d="M51.68,-915.37C64.65,-927.86 83.5,-943.94 103,-953.5 113.23,-958.52 124.91,-962.17 136.06,-964.81"/>
<polygon fill="#63b8ff" stroke="#63b8ff" points="54.33,-913.07 44.77,-908.5 49.39,-918.04 54.33,-913.07"/>
</g>
<!-- Node25 -->
<g id="node25" class="node">
<title>Node25</title>
<g id="a_node25"><a xlink:href="class_c_set_cur_tex_image_cmd.html" target="_top" xlink:title=" ">
<polygon fill="white" stroke="#bfbfbf" points="240,-944 124,-944 124,-925 240,-925 240,-944"/>
<text text-anchor="middle" x="182" y="-932" font-family="Helvetica,sans-Serif" font-size="10.00">CSetCurTexImageCmd</text>
</a>
</g>
</g>
<!-- Node1&#45;&gt;Node25 -->
<g id="edge24" class="edge">
<title>Node1&#45;&gt;Node25</title>
<path fill="none" stroke="#63b8ff" d="M78.14,-909.91C86.38,-912.17 94.94,-914.45 103,-916.5 113.78,-919.24 125.43,-922.02 136.37,-924.56"/>
<polygon fill="#63b8ff" stroke="#63b8ff" points="79.2,-906.58 68.63,-907.28 77.34,-913.32 79.2,-906.58"/>
</g>
<!-- Node26 -->
<g id="node26" class="node">
<title>Node26</title>
<g id="a_node26"><a xlink:href="class_c_set_cur_tex_param_cmd.html" target="_top" xlink:title=" ">
<polygon fill="white" stroke="#bfbfbf" points="241,-907 123,-907 123,-888 241,-888 241,-907"/>
<text text-anchor="middle" x="182" y="-895" font-family="Helvetica,sans-Serif" font-size="10.00">CSetCurTexParamCmd</text>
</a>
</g>
</g>
<!-- Node1&#45;&gt;Node26 -->
<g id="edge25" class="edge">
<title>Node1&#45;&gt;Node26</title>
<path fill="none" stroke="#63b8ff" d="M78.56,-897.5C92.41,-897.5 107.92,-897.5 122.6,-897.5"/>
<polygon fill="#63b8ff" stroke="#63b8ff" points="78.89,-894 68.89,-897.5 78.89,-901 78.89,-894"/>
</g>
<!-- Node27 -->
<g id="node27" class="node">
<title>Node27</title>
<g id="a_node27"><a xlink:href="class_c_set_depth_func_cmd.html" target="_top" xlink:title=" ">
<polygon fill="white" stroke="#bfbfbf" points="235,-870 129,-870 129,-851 235,-851 235,-870"/>
<text text-anchor="middle" x="182" y="-858" font-family="Helvetica,sans-Serif" font-size="10.00">CSetDepthFuncCmd</text>
</a>
</g>
</g>
<!-- Node1&#45;&gt;Node27 -->
<g id="edge26" class="edge">
<title>Node1&#45;&gt;Node27</title>
<path fill="none" stroke="#63b8ff" d="M78.18,-885.9C86.42,-883.74 94.97,-881.53 103,-879.5 114.89,-876.49 127.82,-873.3 139.68,-870.42"/>
<polygon fill="#63b8ff" stroke="#63b8ff" points="77.47,-882.46 68.69,-888.39 79.25,-889.23 77.47,-882.46"/>
</g>
<!-- Node28 -->
<g id="node28" class="node">
<title>Node28</title>
<g id="a_node28"><a xlink:href="class_c_set_depth_test_enabled_cmd.html" target="_top" xlink:title=" ">
<polygon fill="white" stroke="#bfbfbf" points="251,-833 113,-833 113,-814 251,-814 251,-833"/>
<text text-anchor="middle" x="182" y="-821" font-family="Helvetica,sans-Serif" font-size="10.00">CSetDepthTestEnabledCmd</text>
</a>
</g>
</g>
<!-- Node1&#45;&gt;Node28 -->
<g id="edge27" class="edge">
<title>Node1&#45;&gt;Node28</title>
<path fill="none" stroke="#63b8ff" d="M51.77,-880.03C64.79,-867.81 83.66,-852.03 103,-842.5 110.38,-838.87 118.5,-835.9 126.62,-833.48"/>
<polygon fill="#63b8ff" stroke="#63b8ff" points="49.58,-877.27 44.84,-886.74 54.46,-882.29 49.58,-877.27"/>
</g>
<!-- Node29 -->
<g id="node29" class="node">
<title>Node29</title>
<g id="a_node29"><a xlink:href="class_c_set_depth_write_enabled_cmd.html" target="_top" xlink:title=" ">
<polygon fill="white" stroke="#bfbfbf" points="252.5,-796 111.5,-796 111.5,-777 252.5,-777 252.5,-796"/>
<text text-anchor="middle" x="182" y="-784" font-family="Helvetica,sans-Serif" font-size="10.00">CSetDepthWriteEnabledCmd</text>
</a>
</g>
</g>
<!-- Node1&#45;&gt;Node29 -->
<g id="edge28" class="edge">
<title>Node1&#45;&gt;Node29</title>
<path fill="none" stroke="#63b8ff" d="M44.04,-877.55C55.21,-856.39 75.7,-823.58 103,-805.5 108.58,-801.81 114.81,-798.83 121.25,-796.43"/>
<polygon fill="#63b8ff" stroke="#63b8ff" points="40.99,-875.82 39.62,-886.33 47.25,-878.97 40.99,-875.82"/>
</g>
<!-- Node30 -->
<g id="node30" class="node">
<title>Node30</title>
<g id="a_node30"><a xlink:href="class_c_set_do_clipping_cmd.html" target="_top" xlink:title=" ">
<polygon fill="white" stroke="#bfbfbf" points="234.5,-759 129.5,-759 129.5,-740 234.5,-740 234.5,-759"/>
<text text-anchor="middle" x="182" y="-747" font-family="Helvetica,sans-Serif" font-size="10.00">CSetDoClippingCmd</text>
</a>
</g>
</g>
<!-- Node1&#45;&gt;Node30 -->
<g id="edge29" class="edge">
<title>Node1&#45;&gt;Node30</title>
<path fill="none" stroke="#63b8ff" d="M39.71,-876.83C48.06,-848.04 67.26,-796.28 103,-768.5 110.59,-762.6 119.76,-758.5 129.1,-755.65"/>
<polygon fill="#63b8ff" stroke="#63b8ff" points="36.42,-875.6 37.17,-886.16 43.17,-877.43 36.42,-875.6"/>
</g>
<!-- Node31 -->
<g id="node31" class="node">
<title>Node31</title>
<g id="a_node31"><a xlink:href="class_c_set_do_cull_face_cmd.html" target="_top" xlink:title=" ">
<polygon fill="white" stroke="#bfbfbf" points="236.5,-722 127.5,-722 127.5,-703 236.5,-703 236.5,-722"/>
<text text-anchor="middle" x="182" y="-710" font-family="Helvetica,sans-Serif" font-size="10.00">CSetDoCullFaceCmd</text>
</a>
</g>
</g>
<!-- Node1&#45;&gt;Node31 -->
<g id="edge30" class="edge">
<title>Node1&#45;&gt;Node31</title>
<path fill="none" stroke="#63b8ff" d="M37.02,-876.62C42.44,-841.24 58.54,-769.65 103,-731.5 109.88,-725.6 118.29,-721.47 127.01,-718.6"/>
<polygon fill="#63b8ff" stroke="#63b8ff" points="33.58,-876 35.68,-886.39 40.51,-876.96 33.58,-876"/>
</g>
<!-- Node32 -->
<g id="node32" class="node">
<title>Node32</title>
<g id="a_node32"><a xlink:href="class_c_set_do_smooth_shading_cmd.html" target="_top" xlink:title=" ">
<polygon fill="white" stroke="#bfbfbf" points="252,-685 112,-685 112,-666 252,-666 252,-685"/>
<text text-anchor="middle" x="182" y="-673" font-family="Helvetica,sans-Serif" font-size="10.00">CSetDoSmoothShadingCmd</text>
</a>
</g>
</g>
<!-- Node1&#45;&gt;Node32 -->
<g id="edge31" class="edge">
<title>Node1&#45;&gt;Node32</title>
<path fill="none" stroke="#63b8ff" d="M35.23,-876.4C37.85,-835.1 49.7,-743.38 103,-694.5 107.01,-690.83 111.6,-687.83 116.51,-685.39"/>
<polygon fill="#63b8ff" stroke="#63b8ff" points="31.75,-876.03 34.75,-886.19 38.74,-876.38 31.75,-876.03"/>
</g>
<!-- Node33 -->
<g id="node33" class="node">
<title>Node33</title>
<g id="a_node33"><a xlink:href="class_c_set_draw_buffers.html" target="_top" xlink:title=" ">
<polygon fill="white" stroke="#bfbfbf" points="228,-648 136,-648 136,-629 228,-629 228,-648"/>
<text text-anchor="middle" x="182" y="-636" font-family="Helvetica,sans-Serif" font-size="10.00">CSetDrawBuffers</text>
</a>
</g>
</g>
<!-- Node1&#45;&gt;Node33 -->
<g id="edge32" class="edge">
<title>Node1&#45;&gt;Node33</title>
<path fill="none" stroke="#63b8ff" d="M33.93,-876.18C33.91,-829.44 40.76,-717.35 103,-657.5 111.84,-649 123.82,-644.1 135.74,-641.32"/>
<polygon fill="#63b8ff" stroke="#63b8ff" points="30.43,-876.07 34.06,-886.02 37.43,-875.98 30.43,-876.07"/>
</g>
<!-- Node34 -->
<g id="node34" class="node">
<title>Node34</title>
<g id="a_node34"><a xlink:href="class_c_set_frame_buffer_draw_mask_cmd.html" target="_top" xlink:title=" ">
<polygon fill="white" stroke="#bfbfbf" points="261,-611 103,-611 103,-592 261,-592 261,-611"/>
<text text-anchor="middle" x="182" y="-599" font-family="Helvetica,sans-Serif" font-size="10.00">CSetFrameBufferDrawMaskCmd</text>
</a>
</g>
</g>
<!-- Node1&#45;&gt;Node34 -->
<g id="edge33" class="edge">
<title>Node1&#45;&gt;Node34</title>
<path fill="none" stroke="#63b8ff" d="M36.9,-876.37C43.94,-818.1 66.38,-656.99 103,-620.5 106.65,-616.86 110.88,-613.88 115.44,-611.43"/>
<polygon fill="#63b8ff" stroke="#63b8ff" points="33.43,-875.89 35.74,-886.23 40.38,-876.71 33.43,-875.89"/>
</g>
<!-- Node35 -->
<g id="node35" class="node">
<title>Node35</title>
<g id="a_node35"><a xlink:href="class_c_set_global_ambient_cmd.html" target="_top" xlink:title=" ">
<polygon fill="white" stroke="#bfbfbf" points="243,-574 121,-574 121,-555 243,-555 243,-574"/>
<text text-anchor="middle" x="182" y="-562" font-family="Helvetica,sans-Serif" font-size="10.00">CSetGlobalAmbientCmd</text>
</a>
</g>
</g>
<!-- Node1&#45;&gt;Node35 -->
<g id="edge34" class="edge">
<title>Node1&#45;&gt;Node35</title>
<path fill="none" stroke="#63b8ff" d="M36.22,-876.52C41.84,-813.21 61.71,-625.8 103,-583.5 107.97,-578.41 114.05,-574.6 120.61,-571.75"/>
<polygon fill="#63b8ff" stroke="#63b8ff" points="32.76,-875.98 35.39,-886.25 39.73,-876.58 32.76,-875.98"/>
</g>
<!-- Node36 -->
<g id="node36" class="node">
<title>Node36</title>
<g id="a_node36"><a xlink:href="class_c_set_gs_texture_cmd.html" target="_top" xlink:title=" ">
<polygon fill="white" stroke="#bfbfbf" points="234,-537 130,-537 130,-518 234,-518 234,-537"/>
<text text-anchor="middle" x="182" y="-525" font-family="Helvetica,sans-Serif" font-size="10.00">CSetGsTextureCmd</text>
</a>
</g>
</g>
<!-- Node1&#45;&gt;Node36 -->
<g id="edge35" class="edge">
<title>Node1&#45;&gt;Node36</title>
<path fill="none" stroke="#63b8ff" d="M35.71,-876.32C40.05,-807.93 57.08,-594.59 103,-546.5 110.12,-539.04 119.64,-534.31 129.58,-531.34"/>
<polygon fill="#63b8ff" stroke="#63b8ff" points="32.23,-875.96 35.12,-886.15 39.21,-876.38 32.23,-875.96"/>
</g>
<!-- Node37 -->
<g id="node37" class="node">
<title>Node37</title>
<g id="a_node37"><a xlink:href="class_c_set_interlacing_offset_cmd.html" target="_top" xlink:title=" ">
<polygon fill="white" stroke="#bfbfbf" points="247,-500 117,-500 117,-481 247,-481 247,-500"/>
<text text-anchor="middle" x="182" y="-488" font-family="Helvetica,sans-Serif" font-size="10.00">CSetInterlacingOffsetCmd</text>
</a>
</g>
</g>
<!-- Node1&#45;&gt;Node37 -->
<g id="edge36" class="edge">
<title>Node1&#45;&gt;Node37</title>
<path fill="none" stroke="#63b8ff" d="M35.27,-876.5C38.38,-803.67 52.35,-563.51 103,-509.5 106.91,-505.33 111.57,-502.01 116.63,-499.37"/>
<polygon fill="#63b8ff" stroke="#63b8ff" points="31.79,-876.08 34.88,-886.22 38.78,-876.36 31.79,-876.08"/>
</g>
<!-- Node38 -->
<g id="node38" class="node">
<title>Node38</title>
<g id="a_node38"><a xlink:href="class_c_set_lighting_enabled_cmd.html" target="_top" xlink:title=" ">
<polygon fill="white" stroke="#bfbfbf" points="246,-463 118,-463 118,-444 246,-444 246,-463"/>
<text text-anchor="middle" x="182" y="-451" font-family="Helvetica,sans-Serif" font-size="10.00">CSetLightingEnabledCmd</text>
</a>
</g>
</g>
<!-- Node1&#45;&gt;Node38 -->
<g id="edge37" class="edge">
<title>Node1&#45;&gt;Node38</title>
<path fill="none" stroke="#63b8ff" d="M34.92,-876.51C36.88,-799.3 47.63,-532.43 103,-472.5 107.16,-468 112.2,-464.48 117.68,-461.74"/>
<polygon fill="#63b8ff" stroke="#63b8ff" points="31.43,-875.98 34.7,-886.06 38.43,-876.14 31.43,-875.98"/>
</g>
<!-- Node39 -->
<g id="node39" class="node">
<title>Node39</title>
<g id="a_node39"><a xlink:href="class_c_set_material_prop_cmd.html" target="_top" xlink:title=" ">
<polygon fill="white" stroke="#bfbfbf" points="238.5,-426 125.5,-426 125.5,-407 238.5,-407 238.5,-426"/>
<text text-anchor="middle" x="182" y="-414" font-family="Helvetica,sans-Serif" font-size="10.00">CSetMaterialPropCmd</text>
</a>
</g>
</g>
<!-- Node1&#45;&gt;Node39 -->
<g id="edge38" class="edge">
<title>Node1&#45;&gt;Node39</title>
<path fill="none" stroke="#63b8ff" d="M34.62,-876.03C35.54,-793.95 43.02,-501.25 103,-435.5 109.01,-428.91 116.89,-424.43 125.33,-421.41"/>
<polygon fill="#63b8ff" stroke="#63b8ff" points="31.12,-875.98 34.54,-886.01 38.12,-876.04 31.12,-875.98"/>
</g>
<!-- Node40 -->
<g id="node40" class="node">
<title>Node40</title>
<g id="a_node40"><a xlink:href="class_c_set_matrix_mode_cmd.html" target="_top" xlink:title=" ">
<polygon fill="white" stroke="#bfbfbf" points="236.5,-389 127.5,-389 127.5,-370 236.5,-370 236.5,-389"/>
<text text-anchor="middle" x="182" y="-377" font-family="Helvetica,sans-Serif" font-size="10.00">CSetMatrixModeCmd</text>
</a>
</g>
</g>
<!-- Node1&#45;&gt;Node40 -->
<g id="edge39" class="edge">
<title>Node1&#45;&gt;Node40</title>
<path fill="none" stroke="#63b8ff" d="M34.36,-876.26C34.24,-790.42 38.22,-470.28 103,-398.5 109.44,-391.36 118.08,-386.69 127.26,-383.67"/>
<polygon fill="#63b8ff" stroke="#63b8ff" points="30.86,-876.06 34.4,-886.05 37.86,-876.04 30.86,-876.06"/>
</g>
<!-- Node41 -->
<g id="node41" class="node">
<title>Node41</title>
<g id="a_node41"><a xlink:href="class_c_set_normal_cmd.html" target="_top" xlink:title=" ">
<polygon fill="white" stroke="#bfbfbf" points="227,-352 137,-352 137,-333 227,-333 227,-352"/>
<text text-anchor="middle" x="182" y="-340" font-family="Helvetica,sans-Serif" font-size="10.00">CSetNormalCmd</text>
</a>
</g>
</g>
<!-- Node1&#45;&gt;Node41 -->
<g id="edge40" class="edge">
<title>Node1&#45;&gt;Node41</title>
<path fill="none" stroke="#63b8ff" d="M34.14,-876.43C33.05,-786.93 33.42,-439.33 103,-361.5 111.55,-351.94 124.02,-346.8 136.5,-344.13"/>
<polygon fill="#63b8ff" stroke="#63b8ff" points="30.64,-876.24 34.28,-886.19 37.64,-876.14 30.64,-876.24"/>
</g>
<!-- Node42 -->
<g id="node42" class="node">
<title>Node42</title>
<g id="a_node42"><a xlink:href="class_c_set_rescale_normals_cmd.html" target="_top" xlink:title=" ">
<polygon fill="white" stroke="#bfbfbf" points="247.5,-315 116.5,-315 116.5,-296 247.5,-296 247.5,-315"/>
<text text-anchor="middle" x="182" y="-303" font-family="Helvetica,sans-Serif" font-size="10.00">CSetRescaleNormalsCmd</text>
</a>
</g>
</g>
<!-- Node1&#45;&gt;Node42 -->
<g id="edge41" class="edge">
<title>Node1&#45;&gt;Node42</title>
<path fill="none" stroke="#63b8ff" d="M35.6,-876.68C40.95,-778.73 65.55,-366.74 103,-324.5 106.7,-320.33 111.15,-317 116.02,-314.34"/>
<polygon fill="#63b8ff" stroke="#63b8ff" points="32.12,-876.23 35.08,-886.4 39.11,-876.61 32.12,-876.23"/>
</g>
<!-- Node43 -->
<g id="node43" class="node">
<title>Node43</title>
<g id="a_node43"><a xlink:href="class_c_set_tex_coord_cmd.html" target="_top" xlink:title=" ">
<polygon fill="white" stroke="#bfbfbf" points="232,-278 132,-278 132,-259 232,-259 232,-278"/>
<text text-anchor="middle" x="182" y="-266" font-family="Helvetica,sans-Serif" font-size="10.00">CSetTexCoordCmd</text>
</a>
</g>
</g>
<!-- Node1&#45;&gt;Node43 -->
<g id="edge42" class="edge">
<title>Node1&#45;&gt;Node43</title>
<path fill="none" stroke="#63b8ff" d="M35.46,-876.32C40.27,-773.85 63.2,-332.71 103,-287.5 110.37,-279.13 120.75,-274.14 131.54,-271.23"/>
<polygon fill="#63b8ff" stroke="#63b8ff" points="31.96,-876.11 35,-886.26 38.96,-876.44 31.96,-876.11"/>
</g>
<!-- Node44 -->
<g id="node44" class="node">
<title>Node44</title>
<g id="a_node44"><a xlink:href="class_c_set_tex_enabled_cmd.html" target="_top" xlink:title=" ">
<polygon fill="white" stroke="#bfbfbf" points="236.5,-241 127.5,-241 127.5,-222 236.5,-222 236.5,-241"/>
<text text-anchor="middle" x="182" y="-229" font-family="Helvetica,sans-Serif" font-size="10.00">CSetTexEnabledCmd</text>
</a>
</g>
</g>
<!-- Node1&#45;&gt;Node44 -->
<g id="edge43" class="edge">
<title>Node1&#45;&gt;Node44</title>
<path fill="none" stroke="#63b8ff" d="M35.31,-876.37C39.57,-770.28 60.79,-298.75 103,-250.5 109.33,-243.26 117.92,-238.54 127.08,-235.52"/>
<polygon fill="#63b8ff" stroke="#63b8ff" points="31.82,-876.04 34.93,-886.17 38.82,-876.32 31.82,-876.04"/>
</g>
<!-- Node45 -->
<g id="node45" class="node">
<title>Node45</title>
<g id="a_node45"><a xlink:href="class_c_set_tex_mode_cmd.html" target="_top" xlink:title=" ">
<polygon fill="white" stroke="#bfbfbf" points="231,-204 133,-204 133,-185 231,-185 231,-204"/>
<text text-anchor="middle" x="182" y="-192" font-family="Helvetica,sans-Serif" font-size="10.00">CSetTexModeCmd</text>
</a>
</g>
</g>
<!-- Node1&#45;&gt;Node45 -->
<g id="edge44" class="edge">
<title>Node1&#45;&gt;Node45</title>
<path fill="none" stroke="#63b8ff" d="M35.19,-876.21C38.94,-766.15 58.41,-264.77 103,-213.5 110.59,-204.77 121.46,-199.71 132.68,-196.84"/>
<polygon fill="#63b8ff" stroke="#63b8ff" points="31.69,-876.01 34.86,-886.12 38.69,-876.25 31.69,-876.01"/>
</g>
<!-- Node46 -->
<g id="node46" class="node">
<title>Node46</title>
<g id="a_node46"><a xlink:href="class_c_set_use_color_material_cmd.html" target="_top" xlink:title=" ">
<polygon fill="white" stroke="#bfbfbf" points="249,-167 115,-167 115,-148 249,-148 249,-167"/>
<text text-anchor="middle" x="182" y="-155" font-family="Helvetica,sans-Serif" font-size="10.00">CSetUseColorMaterialCmd</text>
</a>
</g>
</g>
<!-- Node1&#45;&gt;Node46 -->
<g id="edge45" class="edge">
<title>Node1&#45;&gt;Node46</title>
<path fill="none" stroke="#63b8ff" d="M35.08,-876.14C38.34,-762.38 56.01,-230.81 103,-176.5 106.37,-172.6 110.4,-169.43 114.83,-166.86"/>
<polygon fill="#63b8ff" stroke="#63b8ff" points="31.58,-876.03 34.8,-886.12 38.58,-876.22 31.58,-876.03"/>
</g>
<!-- Node47 -->
<g id="node47" class="node">
<title>Node47</title>
<g id="a_node47"><a xlink:href="class_c_update_gs_context_cmd.html" target="_top" xlink:title=" ">
<polygon fill="white" stroke="#bfbfbf" points="242.5,-130 121.5,-130 121.5,-111 242.5,-111 242.5,-130"/>
<text text-anchor="middle" x="182" y="-118" font-family="Helvetica,sans-Serif" font-size="10.00">CUpdateGsContextCmd</text>
</a>
</g>
</g>
<!-- Node1&#45;&gt;Node47 -->
<g id="edge46" class="edge">
<title>Node1&#45;&gt;Node47</title>
<path fill="none" stroke="#63b8ff" d="M34.96,-876.51C37.72,-760.1 53.55,-196.92 103,-139.5 107.91,-133.8 114.22,-129.65 121.12,-126.67"/>
<polygon fill="#63b8ff" stroke="#63b8ff" points="31.47,-876.08 34.74,-886.16 38.47,-876.24 31.47,-876.08"/>
</g>
<!-- Node48 -->
<g id="node48" class="node">
<title>Node48</title>
<g id="a_node48"><a xlink:href="class_c_update_prim_cmd.html" target="_top" xlink:title=" ">
<polygon fill="white" stroke="#bfbfbf" points="229.5,-93 134.5,-93 134.5,-74 229.5,-74 229.5,-93"/>
<text text-anchor="middle" x="182" y="-81" font-family="Helvetica,sans-Serif" font-size="10.00">CUpdatePrimCmd</text>
</a>
</g>
</g>
<!-- Node1&#45;&gt;Node48 -->
<g id="edge47" class="edge">
<title>Node1&#45;&gt;Node48</title>
<path fill="none" stroke="#63b8ff" d="M34.88,-876.25C37.19,-755.89 51.17,-162.93 103,-102.5 110.89,-93.3 122.43,-88.15 134.22,-85.37"/>
<polygon fill="#63b8ff" stroke="#63b8ff" points="31.38,-876.17 34.69,-886.23 38.37,-876.29 31.38,-876.17"/>
</g>
<!-- Node49 -->
<g id="node49" class="node">
<title>Node49</title>
<g id="a_node49"><a xlink:href="class_c_update_renderer_cmd.html" target="_top" xlink:title=" ">
<polygon fill="white" stroke="#bfbfbf" points="239,-56 125,-56 125,-37 239,-37 239,-56"/>
<text text-anchor="middle" x="182" y="-44" font-family="Helvetica,sans-Serif" font-size="10.00">CUpdateRendererCmd</text>
</a>
</g>
</g>
<!-- Node1&#45;&gt;Node49 -->
<g id="edge48" class="edge">
<title>Node1&#45;&gt;Node49</title>
<path fill="none" stroke="#63b8ff" d="M34.79,-876.41C36.65,-753.14 48.73,-129.02 103,-65.5 108.7,-58.82 116.32,-54.28 124.57,-51.23"/>
<polygon fill="#63b8ff" stroke="#63b8ff" points="31.29,-876.01 34.65,-886.06 38.29,-876.11 31.29,-876.01"/>
</g>
<!-- Node50 -->
<g id="node50" class="node">
<title>Node50</title>
<g id="a_node50"><a xlink:href="class_c_update_renderer_context_cmd.html" target="_top" xlink:title=" ">
<polygon fill="white" stroke="#bfbfbf" points="255.5,-19 108.5,-19 108.5,0 255.5,0 255.5,-19"/>
<text text-anchor="middle" x="182" y="-7" font-family="Helvetica,sans-Serif" font-size="10.00">CUpdateRendererContextCmd</text>
</a>
</g>
</g>
<!-- Node1&#45;&gt;Node50 -->
<g id="edge49" class="edge">
<title>Node1&#45;&gt;Node50</title>
<path fill="none" stroke="#63b8ff" d="M34.71,-876.28C36.15,-749.47 46.33,-95.07 103,-28.5 106.07,-24.89 109.7,-21.91 113.69,-19.44"/>
<polygon fill="#63b8ff" stroke="#63b8ff" points="31.21,-876.16 34.6,-886.2 38.21,-876.24 31.21,-876.16"/>
</g>
</g>
</svg>
        <g id="navigator" transform="translate(0 0)" fill="#404254">
                <rect fill="#f2f5e9" fill-opacity="0.5" stroke="#606060" stroke-width=".5" x="0" y="0" width="60" height="60"/>
                <use id="zoomplus" xlink:href="#zoomPlus" x="17" y="9" onmousedown="handleZoom(evt,'in')"/>
                <use id="zoomminus" xlink:href="#zoomMin" x="42" y="9" onmousedown="handleZoom(evt,'out')"/>
                <use id="reset" xlink:href="#resetDef" x="30" y="36" onmousedown="handleReset()"/>
                <g id="arrowUp" xlink:href="#dirArrow" transform="translate(30 24)" onmousedown="handlePan(0,-1)">
                  <use xlink:href="#rim" fill="#404040">
                        <set attributeName="fill" to="#808080" begin="arrowUp.mouseover" end="arrowUp.mouseout"/>
                  </use>
                  <path fill="none" stroke="white" stroke-width="1.5" d="M0,-3.0v7 M-2.5,-0.5L0,-3.0L2.5,-0.5"/>
                </g>
                <g id="arrowRight" xlink:href="#dirArrow" transform="rotate(90) translate(36 -43)" onmousedown="handlePan(1,0)">
                  <use xlink:href="#rim" fill="#404040">
                        <set attributeName="fill" to="#808080" begin="arrowRight.mouseover" end="arrowRight.mouseout"/>
                  </use>
                  <path fill="none" stroke="white" stroke-width="1.5" d="M0,-3.0v7 M-2.5,-0.5L0,-3.0L2.5,-0.5"/>
                </g>
                <g id="arrowDown" xlink:href="#dirArrow" transform="rotate(180) translate(-30 -48)" onmousedown="handlePan(0,1)">
                  <use xlink:href="#rim" fill="#404040">
                        <set attributeName="fill" to="#808080" begin="arrowDown.mouseover" end="arrowDown.mouseout"/>
                  </use>
                  <path fill="none" stroke="white" stroke-width="1.5" d="M0,-3.0v7 M-2.5,-0.5L0,-3.0L2.5,-0.5"/>
                </g>
                <g id="arrowLeft" xlink:href="#dirArrow" transform="rotate(270) translate(-36 17)" onmousedown="handlePan(-1,0)">
                  <use xlink:href="#rim" fill="#404040">
                        <set attributeName="fill" to="#808080" begin="arrowLeft.mouseover" end="arrowLeft.mouseout"/>
                  </use>
                  <path fill="none" stroke="white" stroke-width="1.5" d="M0,-3.0v7 M-2.5,-0.5L0,-3.0L2.5,-0.5"/>
                </g>
        </g>
        <svg viewBox="0 0 15 15" width="100%" height="30px" preserveAspectRatio="xMaxYMin meet">
         <g id="arrow_out" transform="scale(0.3 0.3)">
          <a xlink:href="class_c_d_list_cmd__inherit__graph_org.svg" target="_base">
           <rect id="button" ry="5" rx="5" y="6" x="6" height="38" width="38"
                fill="#f2f5e9" fill-opacity="0.5" stroke="#606060" stroke-width="1.0"/>
           <path id="arrow"
             d="M 11.500037,31.436501 C 11.940474,20.09759 22.043105,11.32322 32.158766,21.979434 L 37.068811,17.246167 C 37.068811,17.246167 37.088388,32 37.088388,32 L 22.160133,31.978069 C 22.160133,31.978069 26.997745,27.140456 26.997745,27.140456 C 18.528582,18.264221 13.291696,25.230495 11.500037,31.436501 z"
             style="fill:#404040;"/>
          </a>
         </g>
        </svg>
</svg>
