<?xml version="1.0" encoding="UTF-8" standalone="no"?>
<!DOCTYPE svg PUBLIC "-//W3C//DTD SVG 1.1//EN"
 "http://www.w3.org/Graphics/SVG/1.1/DTD/svg11.dtd">
<!-- Generated by graphviz version 7.0.5 (20221223.1930)
 -->
<!-- Title: CGeomManager Pages: 1 -->
<svg width="1359pt" height="1079pt"
 viewBox="0.00 0.00 1359.00 1079.00" xmlns="http://www.w3.org/2000/svg" xmlns:xlink="http://www.w3.org/1999/xlink">
<g id="graph0" class="graph" transform="scale(1 1) rotate(0) translate(4 1075)">
<title>CGeomManager</title>
<!-- Node1 -->
<g id="node1" class="node">
<title>Node1</title>
<g id="a_node1"><a xlink:title=" ">
<polygon fill="#999999" stroke="#666666" points="286.5,-490.5 199.5,-490.5 199.5,-471.5 286.5,-471.5 286.5,-490.5"/>
<text text-anchor="middle" x="243" y="-478.5" font-family="Helvetica,sans-Serif" font-size="10.00">CGeomManager</text>
</a>
</g>
</g>
<!-- Node2 -->
<g id="node2" class="node">
<title>Node2</title>
<g id="a_node2"><a xlink:href="class_c_g_l_context.html" target="_top" xlink:title=" ">
<polygon fill="white" stroke="#bfbfbf" points="690,-581.5 620,-581.5 620,-562.5 690,-562.5 690,-581.5"/>
<text text-anchor="middle" x="655" y="-569.5" font-family="Helvetica,sans-Serif" font-size="10.00">CGLContext</text>
</a>
</g>
</g>
<!-- Node1&#45;&gt;Node2 -->
<g id="edge33" class="edge">
<title>Node1&#45;&gt;Node2</title>
<path fill="none" stroke="#9a32cd" stroke-dasharray="5,2" d="M277.09,-495.25C286.36,-498.99 296.5,-502.86 306,-506 417.51,-542.89 556.34,-561.47 619.65,-568.53"/>
<polygon fill="#9a32cd" stroke="#9a32cd" points="278.69,-492.12 268.11,-491.54 276.02,-498.59 278.69,-492.12"/>
<text text-anchor="middle" x="449" y="-555" font-family="Helvetica,sans-Serif" font-size="10.00"> CurGManager</text>
</g>
<!-- Node12 -->
<g id="node12" class="node">
<title>Node12</title>
<g id="a_node12"><a xlink:href="class_c_imm_geom_manager.html" target="_top" xlink:title=" ">
<polygon fill="white" stroke="#bfbfbf" points="1159,-125.5 1052,-125.5 1052,-106.5 1159,-106.5 1159,-125.5"/>
<text text-anchor="middle" x="1105.5" y="-113.5" font-family="Helvetica,sans-Serif" font-size="10.00">CImmGeomManager</text>
</a>
</g>
</g>
<!-- Node1&#45;&gt;Node12 -->
<g id="edge20" class="edge">
<title>Node1&#45;&gt;Node12</title>
<path fill="none" stroke="#63b8ff" d="M246.05,-460.1C254.69,-384.84 295.08,-132 448,-132 448,-132 448,-132 888,-132 943.97,-132 1007.86,-126.62 1051.64,-122.09"/>
<polygon fill="#63b8ff" stroke="#63b8ff" points="242.6,-459.48 245.01,-469.8 249.56,-460.22 242.6,-459.48"/>
</g>
<!-- Node18 -->
<g id="node18" class="node">
<title>Node18</title>
<g id="a_node18"><a xlink:href="class_c_d_list_geom_manager.html" target="_top" xlink:title=" ">
<polygon fill="white" stroke="#bfbfbf" points="504,-467.5 394,-467.5 394,-448.5 504,-448.5 504,-467.5"/>
<text text-anchor="middle" x="449" y="-455.5" font-family="Helvetica,sans-Serif" font-size="10.00">CDListGeomManager</text>
</a>
</g>
</g>
<!-- Node1&#45;&gt;Node18 -->
<g id="edge28" class="edge">
<title>Node1&#45;&gt;Node18</title>
<path fill="none" stroke="#63b8ff" d="M298.12,-474.9C327.64,-471.57 364.07,-467.46 393.63,-464.13"/>
<polygon fill="#63b8ff" stroke="#63b8ff" points="297.81,-471.41 288.27,-476.01 298.6,-478.37 297.81,-471.41"/>
</g>
<!-- Node2&#45;&gt;Node1 -->
<g id="edge1" class="edge">
<title>Node2&#45;&gt;Node1</title>
<path fill="none" stroke="#9a32cd" stroke-dasharray="5,2" d="M629.98,-555.9C619.08,-549.22 605.79,-541.9 593,-537 537.7,-515.83 367.42,-494.75 286.96,-485.66"/>
<polygon fill="#9a32cd" stroke="#9a32cd" points="628.01,-558.8 638.32,-561.21 631.76,-552.89 628.01,-558.8"/>
<text text-anchor="middle" x="449" y="-518" font-family="Helvetica,sans-Serif" font-size="10.00"> GLContext</text>
</g>
<!-- Node4 -->
<g id="node4" class="node">
<title>Node4</title>
<g id="a_node4"><a xlink:href="class_c_matrix_stack.html" target="_top" xlink:title=" ">
<polygon fill="white" stroke="#bfbfbf" points="924.5,-704.5 849.5,-704.5 849.5,-685.5 924.5,-685.5 924.5,-704.5"/>
<text text-anchor="middle" x="887" y="-692.5" font-family="Helvetica,sans-Serif" font-size="10.00">CMatrixStack</text>
</a>
</g>
</g>
<!-- Node2&#45;&gt;Node4 -->
<g id="edge4" class="edge">
<title>Node2&#45;&gt;Node4</title>
<path fill="none" stroke="#9a32cd" stroke-dasharray="5,2" d="M666.12,-591.91C676.42,-610.14 694.13,-636.42 717,-651 756.19,-675.98 774.12,-661.93 819,-674 831.24,-677.29 844.6,-681.38 856.14,-685.06"/>
<polygon fill="#9a32cd" stroke="#9a32cd" points="669.21,-590.27 661.39,-583.12 663.04,-593.58 669.21,-590.27"/>
<text text-anchor="middle" x="768" y="-677" font-family="Helvetica,sans-Serif" font-size="10.00"> GLContext</text>
</g>
<!-- Node7 -->
<g id="node7" class="node">
<title>Node7</title>
<g id="a_node7"><a xlink:href="class_c_lighting.html" target="_top" xlink:title=" ">
<polygon fill="white" stroke="#bfbfbf" points="1023.5,-505.5 965.5,-505.5 965.5,-486.5 1023.5,-486.5 1023.5,-505.5"/>
<text text-anchor="middle" x="994.5" y="-493.5" font-family="Helvetica,sans-Serif" font-size="10.00">CLighting</text>
</a>
</g>
</g>
<!-- Node2&#45;&gt;Node7 -->
<g id="edge10" class="edge">
<title>Node2&#45;&gt;Node7</title>
<path fill="none" stroke="#9a32cd" stroke-dasharray="5,2" d="M660.81,-551.27C668.06,-525.34 684.54,-482.03 717,-463 801.87,-413.24 926.53,-463.44 974.09,-486.13"/>
<polygon fill="#9a32cd" stroke="#9a32cd" points="657.5,-550.1 658.41,-560.65 664.28,-551.84 657.5,-550.1"/>
<text text-anchor="middle" x="768" y="-466" font-family="Helvetica,sans-Serif" font-size="10.00"> GLContext</text>
</g>
<!-- Node9 -->
<g id="node9" class="node">
<title>Node9</title>
<g id="a_node9"><a xlink:href="class_c_light.html" target="_top" xlink:title=" ">
<polygon fill="white" stroke="#bfbfbf" points="909.5,-429.5 864.5,-429.5 864.5,-410.5 909.5,-410.5 909.5,-429.5"/>
<text text-anchor="middle" x="887" y="-417.5" font-family="Helvetica,sans-Serif" font-size="10.00">CLight</text>
</a>
</g>
</g>
<!-- Node2&#45;&gt;Node9 -->
<g id="edge13" class="edge">
<title>Node2&#45;&gt;Node9</title>
<path fill="none" stroke="#9a32cd" stroke-dasharray="5,2" d="M657.74,-551.22C661.75,-518.08 674.84,-454.06 717,-425 761.59,-394.26 829.69,-405.23 864.25,-413.76"/>
<polygon fill="#9a32cd" stroke="#9a32cd" points="654.3,-550.46 656.76,-560.76 661.26,-551.17 654.3,-550.46"/>
<text text-anchor="middle" x="768" y="-428" font-family="Helvetica,sans-Serif" font-size="10.00"> GLContext</text>
</g>
<!-- Node13 -->
<g id="node13" class="node">
<title>Node13</title>
<g id="a_node13"><a xlink:href="class_c_renderer_manager.html" target="_top" xlink:title=" ">
<polygon fill="white" stroke="#bfbfbf" points="937,-103.5 837,-103.5 837,-84.5 937,-84.5 937,-103.5"/>
<text text-anchor="middle" x="887" y="-91.5" font-family="Helvetica,sans-Serif" font-size="10.00">CRendererManager</text>
</a>
</g>
</g>
<!-- Node2&#45;&gt;Node13 -->
<g id="edge22" class="edge">
<title>Node2&#45;&gt;Node13</title>
<path fill="none" stroke="#9a32cd" stroke-dasharray="5,2" d="M657.22,-551.03C661.3,-488.61 676.52,-305.76 717,-265 749.61,-232.16 782.92,-272.99 819,-244 865.25,-206.84 880.57,-131.04 884.69,-103.92"/>
<polygon fill="#9a32cd" stroke="#9a32cd" points="653.75,-550.43 656.63,-560.62 660.74,-550.86 653.75,-550.43"/>
<text text-anchor="middle" x="768" y="-268" font-family="Helvetica,sans-Serif" font-size="10.00"> GLContext</text>
</g>
<!-- Node21 -->
<g id="node21" class="node">
<title>Node21</title>
<g id="a_node21"><a xlink:href="class_c_material_manager.html" target="_top" xlink:title=" ">
<polygon fill="white" stroke="#bfbfbf" points="1351,-977.5 1256,-977.5 1256,-958.5 1351,-958.5 1351,-977.5"/>
<text text-anchor="middle" x="1303.5" y="-965.5" font-family="Helvetica,sans-Serif" font-size="10.00">CMaterialManager</text>
</a>
</g>
</g>
<!-- Node2&#45;&gt;Node21 -->
<g id="edge35" class="edge">
<title>Node2&#45;&gt;Node21</title>
<path fill="none" stroke="#9a32cd" stroke-dasharray="5,2" d="M701.59,-583.69C706.77,-584.87 711.99,-586.01 717,-587 814.45,-606.33 1079.69,-594.17 1159,-654 1265.94,-734.67 1295.53,-913.82 1301.32,-958"/>
<polygon fill="#9a32cd" stroke="#9a32cd" points="702.41,-580.28 691.87,-581.39 700.79,-587.1 702.41,-580.28"/>
<text text-anchor="middle" x="994.5" y="-617" font-family="Helvetica,sans-Serif" font-size="10.00"> GLContext</text>
</g>
<!-- Node23 -->
<g id="node23" class="node">
<title>Node23</title>
<g id="a_node23"><a xlink:href="class_c_material.html" target="_top" xlink:title=" ">
<polygon fill="white" stroke="#bfbfbf" points="916,-973.5 858,-973.5 858,-954.5 916,-954.5 916,-973.5"/>
<text text-anchor="middle" x="887" y="-961.5" font-family="Helvetica,sans-Serif" font-size="10.00">CMaterial</text>
</a>
</g>
</g>
<!-- Node2&#45;&gt;Node23 -->
<g id="edge38" class="edge">
<title>Node2&#45;&gt;Node23</title>
<path fill="none" stroke="#9a32cd" stroke-dasharray="5,2" d="M656.46,-593.1C658.43,-663.15 668.48,-886.31 717,-935 753.98,-972.11 819.99,-971.9 857.64,-968.15"/>
<polygon fill="#9a32cd" stroke="#9a32cd" points="659.96,-593.3 656.21,-583.39 652.97,-593.47 659.96,-593.3"/>
<text text-anchor="middle" x="768" y="-972" font-family="Helvetica,sans-Serif" font-size="10.00"> GLContext</text>
</g>
<!-- Node26 -->
<g id="node26" class="node">
<title>Node26</title>
<g id="a_node26"><a xlink:href="class_c_tex_manager.html" target="_top" xlink:title=" ">
<polygon fill="white" stroke="#bfbfbf" points="925.5,-260.5 848.5,-260.5 848.5,-241.5 925.5,-241.5 925.5,-260.5"/>
<text text-anchor="middle" x="887" y="-248.5" font-family="Helvetica,sans-Serif" font-size="10.00">CTexManager</text>
</a>
</g>
</g>
<!-- Node2&#45;&gt;Node26 -->
<g id="edge45" class="edge">
<title>Node2&#45;&gt;Node26</title>
<path fill="none" stroke="#9a32cd" stroke-dasharray="5,2" d="M658.61,-550.86C665.5,-498.57 685.8,-365.27 717,-335 750.35,-302.64 777.78,-333.47 819,-312 843.83,-299.07 866.53,-274.63 878.05,-260.94"/>
<polygon fill="#9a32cd" stroke="#9a32cd" points="655.17,-550.17 657.38,-560.53 662.12,-551.06 655.17,-550.17"/>
<text text-anchor="middle" x="768" y="-338" font-family="Helvetica,sans-Serif" font-size="10.00"> GLContext</text>
</g>
<!-- Node32 -->
<g id="node32" class="node">
<title>Node32</title>
<g id="a_node32"><a xlink:href="class_c_draw_context.html" target="_top" xlink:title=" ">
<polygon fill="white" stroke="#bfbfbf" points="926.5,-847.5 847.5,-847.5 847.5,-828.5 926.5,-828.5 926.5,-847.5"/>
<text text-anchor="middle" x="887" y="-835.5" font-family="Helvetica,sans-Serif" font-size="10.00">CDrawContext</text>
</a>
</g>
</g>
<!-- Node2&#45;&gt;Node32 -->
<g id="edge52" class="edge">
<title>Node2&#45;&gt;Node32</title>
<path fill="none" stroke="#9a32cd" stroke-dasharray="5,2" d="M657.44,-593.18C661.89,-651.54 677.57,-812.44 717,-844 758.37,-877.12 825.42,-860.55 861.37,-847.9"/>
<polygon fill="#9a32cd" stroke="#9a32cd" points="660.94,-593.03 656.73,-583.31 653.96,-593.53 660.94,-593.03"/>
<text text-anchor="middle" x="768" y="-866" font-family="Helvetica,sans-Serif" font-size="10.00"> GLContext</text>
</g>
<!-- Node35 -->
<g id="node35" class="node">
<title>Node35</title>
<g id="a_node35"><a xlink:href="class_c_display_context.html" target="_top" xlink:title=" ">
<polygon fill="white" stroke="#bfbfbf" points="931,-581.5 843,-581.5 843,-562.5 931,-562.5 931,-581.5"/>
<text text-anchor="middle" x="887" y="-569.5" font-family="Helvetica,sans-Serif" font-size="10.00">CDisplayContext</text>
</a>
</g>
</g>
<!-- Node2&#45;&gt;Node35 -->
<g id="edge58" class="edge">
<title>Node2&#45;&gt;Node35</title>
<path fill="none" stroke="#9a32cd" stroke-dasharray="5,2" d="M701.73,-572C742.73,-572 802.44,-572 842.68,-572"/>
<polygon fill="#9a32cd" stroke="#9a32cd" points="701.95,-568.5 691.95,-572 701.95,-575.5 701.95,-568.5"/>
<text text-anchor="middle" x="768" y="-575" font-family="Helvetica,sans-Serif" font-size="10.00"> GLContext</text>
</g>
<!-- Node3 -->
<g id="node3" class="node">
<title>Node3</title>
<g id="a_node3"><a xlink:href="class_c_imm_matrix_stack.html" target="_top" xlink:title=" ">
<polygon fill="white" stroke="#bfbfbf" points="1153,-729.5 1058,-729.5 1058,-710.5 1153,-710.5 1153,-729.5"/>
<text text-anchor="middle" x="1105.5" y="-717.5" font-family="Helvetica,sans-Serif" font-size="10.00">CImmMatrixStack</text>
</a>
</g>
</g>
<!-- Node3&#45;&gt;Node2 -->
<g id="edge2" class="edge">
<title>Node3&#45;&gt;Node2</title>
<path fill="none" stroke="#9a32cd" stroke-dasharray="5,2" d="M1046.75,-729.51C952.02,-743.82 768.93,-765.62 717,-730 665.84,-694.91 657.57,-610.33 656.25,-581.68"/>
<polygon fill="#9a32cd" stroke="#9a32cd" points="1047,-733.01 1056.35,-728.04 1045.94,-726.1 1047,-733.01"/>
<text text-anchor="middle" x="887" y="-763" font-family="Helvetica,sans-Serif" font-size="10.00"> ModelViewMatStack</text>
<text text-anchor="middle" x="887" y="-752" font-family="Helvetica,sans-Serif" font-size="10.00">ProjectionMatStack</text>
</g>
<!-- Node4&#45;&gt;Node2 -->
<g id="edge7" class="edge">
<title>Node4&#45;&gt;Node2</title>
<path fill="none" stroke="#9a32cd" stroke-dasharray="5,2" d="M838.04,-703.96C801.96,-708.07 752.78,-707.81 717,-685 679.02,-660.79 663,-604.43 657.93,-581.73"/>
<polygon fill="#9a32cd" stroke="#9a32cd" points="838.29,-707.46 847.76,-702.7 837.39,-700.52 838.29,-707.46"/>
<text text-anchor="middle" x="768" y="-719" font-family="Helvetica,sans-Serif" font-size="10.00"> CurMatrixStack</text>
<text text-anchor="middle" x="768" y="-708" font-family="Helvetica,sans-Serif" font-size="10.00">SavedCurMatStack</text>
</g>
<!-- Node4&#45;&gt;Node3 -->
<g id="edge3" class="edge">
<title>Node4&#45;&gt;Node3</title>
<path fill="none" stroke="#63b8ff" d="M936,-700.54C972.28,-704.73 1021.79,-710.45 1057.76,-714.6"/>
<polygon fill="#63b8ff" stroke="#63b8ff" points="936.57,-697.08 926.23,-699.41 935.76,-704.04 936.57,-697.08"/>
</g>
<!-- Node5 -->
<g id="node5" class="node">
<title>Node5</title>
<g id="a_node5"><a xlink:href="class_c_d_list_matrix_stack.html" target="_top" xlink:title=" ">
<polygon fill="white" stroke="#bfbfbf" points="1154.5,-681.5 1056.5,-681.5 1056.5,-662.5 1154.5,-662.5 1154.5,-681.5"/>
<text text-anchor="middle" x="1105.5" y="-669.5" font-family="Helvetica,sans-Serif" font-size="10.00">CDListMatrixStack</text>
</a>
</g>
</g>
<!-- Node4&#45;&gt;Node5 -->
<g id="edge6" class="edge">
<title>Node4&#45;&gt;Node5</title>
<path fill="none" stroke="#63b8ff" d="M935.85,-689.92C971.61,-686.12 1020.3,-680.94 1056.17,-677.13"/>
<polygon fill="#63b8ff" stroke="#63b8ff" points="935.81,-686.4 926.23,-690.94 936.55,-693.36 935.81,-686.4"/>
</g>
<!-- Node5&#45;&gt;Node2 -->
<g id="edge5" class="edge">
<title>Node5&#45;&gt;Node2</title>
<path fill="none" stroke="#9a32cd" stroke-dasharray="5,2" d="M1044.86,-669.27C951.15,-664.24 774.19,-651.64 717,-626 694.54,-615.93 674.43,-594.6 663.85,-581.97"/>
<polygon fill="#9a32cd" stroke="#9a32cd" points="1044.46,-672.75 1054.62,-669.78 1044.82,-665.76 1044.46,-672.75"/>
<text text-anchor="middle" x="887" y="-664" font-family="Helvetica,sans-Serif" font-size="10.00"> DListMatStack</text>
</g>
<!-- Node6 -->
<g id="node6" class="node">
<title>Node6</title>
<g id="a_node6"><a xlink:href="class_c_imm_lighting.html" target="_top" xlink:title=" ">
<polygon fill="white" stroke="#bfbfbf" points="1342,-543.5 1265,-543.5 1265,-524.5 1342,-524.5 1342,-543.5"/>
<text text-anchor="middle" x="1303.5" y="-531.5" font-family="Helvetica,sans-Serif" font-size="10.00">CImmLighting</text>
</a>
</g>
</g>
<!-- Node6&#45;&gt;Node2 -->
<g id="edge8" class="edge">
<title>Node6&#45;&gt;Node2</title>
<path fill="none" stroke="#9a32cd" stroke-dasharray="5,2" d="M1253.42,-539.82C1248.22,-540.29 1243.01,-540.7 1238,-541 1006.84,-554.84 943.94,-500.94 717,-547 702.31,-549.98 686.68,-556.46 674.92,-562.07"/>
<polygon fill="#9a32cd" stroke="#9a32cd" points="1253.58,-543.33 1263.19,-538.87 1252.89,-536.36 1253.58,-543.33"/>
<text text-anchor="middle" x="994.5" y="-539" font-family="Helvetica,sans-Serif" font-size="10.00"> ImmLighting</text>
</g>
<!-- Node7&#45;&gt;Node2 -->
<g id="edge18" class="edge">
<title>Node7&#45;&gt;Node2</title>
<path fill="none" stroke="#9a32cd" stroke-dasharray="5,2" d="M954.17,-492.07C888.02,-486.14 757.76,-477.52 717,-497 688.38,-510.68 668.77,-545.04 660.47,-562.09"/>
<polygon fill="#9a32cd" stroke="#9a32cd" points="953.57,-495.53 963.85,-492.97 954.21,-488.56 953.57,-495.53"/>
<text text-anchor="middle" x="768" y="-500" font-family="Helvetica,sans-Serif" font-size="10.00"> CurLighting</text>
</g>
<!-- Node7&#45;&gt;Node6 -->
<g id="edge9" class="edge">
<title>Node7&#45;&gt;Node6</title>
<path fill="none" stroke="#63b8ff" d="M1034.65,-506.49C1040.44,-507.81 1046.35,-509.04 1052,-510 1126.72,-522.76 1215.22,-529.25 1264.5,-532.11"/>
<polygon fill="#63b8ff" stroke="#63b8ff" points="1035.79,-503.17 1025.25,-504.23 1034.16,-509.97 1035.79,-503.17"/>
</g>
<!-- Node10 -->
<g id="node10" class="node">
<title>Node10</title>
<g id="a_node10"><a xlink:href="class_c_d_list_lighting.html" target="_top" xlink:title=" ">
<polygon fill="white" stroke="#bfbfbf" points="1344,-282.5 1263,-282.5 1263,-263.5 1344,-263.5 1344,-282.5"/>
<text text-anchor="middle" x="1303.5" y="-270.5" font-family="Helvetica,sans-Serif" font-size="10.00">CDListLighting</text>
</a>
</g>
</g>
<!-- Node7&#45;&gt;Node10 -->
<g id="edge15" class="edge">
<title>Node7&#45;&gt;Node10</title>
<path fill="none" stroke="#63b8ff" d="M1035.16,-501.37C1095.63,-508.66 1207.12,-518.29 1238,-495 1273.41,-468.3 1295.75,-322.25 1301.2,-282.82"/>
<polygon fill="#63b8ff" stroke="#63b8ff" points="1035.65,-497.9 1025.29,-500.14 1034.78,-504.85 1035.65,-497.9"/>
</g>
<!-- Node8 -->
<g id="node8" class="node">
<title>Node8</title>
<g id="a_node8"><a xlink:href="class_c_imm_light.html" target="_top" xlink:title=" ">
<polygon fill="white" stroke="#bfbfbf" points="1138,-422.5 1073,-422.5 1073,-403.5 1138,-403.5 1138,-422.5"/>
<text text-anchor="middle" x="1105.5" y="-410.5" font-family="Helvetica,sans-Serif" font-size="10.00">CImmLight</text>
</a>
</g>
</g>
<!-- Node8&#45;&gt;Node6 -->
<g id="edge11" class="edge">
<title>Node8&#45;&gt;Node6</title>
<path fill="none" stroke="#9a32cd" stroke-dasharray="5,2" d="M1149.44,-405.73C1176.78,-403.36 1211.83,-404.72 1238,-421 1276.75,-445.1 1294.5,-501.52 1300.27,-524.25"/>
<polygon fill="#9a32cd" stroke="#9a32cd" points="1149.32,-402.22 1139.75,-406.78 1150.07,-409.18 1149.32,-402.22"/>
<text text-anchor="middle" x="1207.5" y="-512" font-family="Helvetica,sans-Serif" font-size="10.00"> Light0</text>
<text text-anchor="middle" x="1207.5" y="-501" font-family="Helvetica,sans-Serif" font-size="10.00">Light1</text>
<text text-anchor="middle" x="1207.5" y="-490" font-family="Helvetica,sans-Serif" font-size="10.00">Light2</text>
<text text-anchor="middle" x="1207.5" y="-479" font-family="Helvetica,sans-Serif" font-size="10.00">Light3</text>
<text text-anchor="middle" x="1207.5" y="-468" font-family="Helvetica,sans-Serif" font-size="10.00">Light4</text>
<text text-anchor="middle" x="1207.5" y="-457" font-family="Helvetica,sans-Serif" font-size="10.00">Light5</text>
<text text-anchor="middle" x="1207.5" y="-446" font-family="Helvetica,sans-Serif" font-size="10.00">Light6</text>
<text text-anchor="middle" x="1207.5" y="-435" font-family="Helvetica,sans-Serif" font-size="10.00">Light7</text>
<text text-anchor="middle" x="1207.5" y="-424" font-family="Helvetica,sans-Serif" font-size="10.00">Lights</text>
</g>
<!-- Node9&#45;&gt;Node8 -->
<g id="edge12" class="edge">
<title>Node9&#45;&gt;Node8</title>
<path fill="none" stroke="#63b8ff" d="M921.27,-418.92C962.49,-417.59 1032.22,-415.34 1072.73,-414.03"/>
<polygon fill="#63b8ff" stroke="#63b8ff" points="921.35,-415.42 911.46,-419.24 921.57,-422.42 921.35,-415.42"/>
</g>
<!-- Node11 -->
<g id="node11" class="node">
<title>Node11</title>
<g id="a_node11"><a xlink:href="class_c_d_list_light.html" target="_top" xlink:title=" ">
<polygon fill="white" stroke="#bfbfbf" points="1139.5,-329.5 1071.5,-329.5 1071.5,-310.5 1139.5,-310.5 1139.5,-329.5"/>
<text text-anchor="middle" x="1105.5" y="-317.5" font-family="Helvetica,sans-Serif" font-size="10.00">CDListLight</text>
</a>
</g>
</g>
<!-- Node9&#45;&gt;Node11 -->
<g id="edge17" class="edge">
<title>Node9&#45;&gt;Node11</title>
<path fill="none" stroke="#63b8ff" d="M921.2,-417.9C952.01,-414.79 998.35,-407.08 1034,-388 1061.44,-373.31 1085.67,-344.87 1097.26,-329.85"/>
<polygon fill="#63b8ff" stroke="#63b8ff" points="920.97,-414.41 911.32,-418.78 921.59,-421.38 920.97,-414.41"/>
</g>
<!-- Node10&#45;&gt;Node2 -->
<g id="edge14" class="edge">
<title>Node10&#45;&gt;Node2</title>
<path fill="none" stroke="#9a32cd" stroke-dasharray="5,2" d="M1251.59,-263.72C1228.71,-260.89 1201.41,-259.37 1177,-263 1119.57,-271.54 1106.35,-280.55 1052,-301 999.5,-320.75 990.25,-335.37 937,-353 889.5,-368.73 754.57,-367.95 717,-401 667.06,-444.93 658.01,-532.61 656.36,-562.08"/>
<polygon fill="#9a32cd" stroke="#9a32cd" points="1250.9,-267.16 1261.28,-265.04 1251.84,-260.22 1250.9,-267.16"/>
<text text-anchor="middle" x="994.5" y="-350" font-family="Helvetica,sans-Serif" font-size="10.00"> DListLighting</text>
</g>
<!-- Node11&#45;&gt;Node10 -->
<g id="edge16" class="edge">
<title>Node11&#45;&gt;Node10</title>
<path fill="none" stroke="#9a32cd" stroke-dasharray="5,2" d="M1128.61,-303.6C1145.21,-291.67 1166.77,-277.09 1177,-274 1204.74,-265.63 1237.53,-265.69 1262.64,-267.67"/>
<polygon fill="#9a32cd" stroke="#9a32cd" points="1126.78,-300.6 1120.75,-309.32 1130.9,-306.26 1126.78,-300.6"/>
<text text-anchor="middle" x="1207.5" y="-365" font-family="Helvetica,sans-Serif" font-size="10.00"> Light0</text>
<text text-anchor="middle" x="1207.5" y="-354" font-family="Helvetica,sans-Serif" font-size="10.00">Light1</text>
<text text-anchor="middle" x="1207.5" y="-343" font-family="Helvetica,sans-Serif" font-size="10.00">Light2</text>
<text text-anchor="middle" x="1207.5" y="-332" font-family="Helvetica,sans-Serif" font-size="10.00">Light3</text>
<text text-anchor="middle" x="1207.5" y="-321" font-family="Helvetica,sans-Serif" font-size="10.00">Light4</text>
<text text-anchor="middle" x="1207.5" y="-310" font-family="Helvetica,sans-Serif" font-size="10.00">Light5</text>
<text text-anchor="middle" x="1207.5" y="-299" font-family="Helvetica,sans-Serif" font-size="10.00">Light6</text>
<text text-anchor="middle" x="1207.5" y="-288" font-family="Helvetica,sans-Serif" font-size="10.00">Light7</text>
<text text-anchor="middle" x="1207.5" y="-277" font-family="Helvetica,sans-Serif" font-size="10.00">Lights</text>
</g>
<!-- Node12&#45;&gt;Node2 -->
<g id="edge19" class="edge">
<title>Node12&#45;&gt;Node2</title>
<path fill="none" stroke="#9a32cd" stroke-dasharray="5,2" d="M1087.04,-133.72C1057.48,-163.32 995.09,-223.99 937,-269 887.5,-307.35 876.1,-320.29 819,-346 776.13,-365.3 750.75,-341.28 717,-374 661.74,-427.58 656.24,-529.94 655.92,-562.09"/>
<polygon fill="#9a32cd" stroke="#9a32cd" points="1089.17,-136.54 1093.74,-126.98 1084.21,-131.61 1089.17,-136.54"/>
<text text-anchor="middle" x="887" y="-341" font-family="Helvetica,sans-Serif" font-size="10.00"> ImmGManager</text>
</g>
<!-- Node13&#45;&gt;Node12 -->
<g id="edge21" class="edge">
<title>Node13&#45;&gt;Node12</title>
<path fill="none" stroke="#9a32cd" stroke-dasharray="5,2" d="M948.69,-98.88C974.95,-101.13 1006.01,-103.97 1034,-107 1039.77,-107.62 1045.79,-108.32 1051.78,-109.05"/>
<polygon fill="#9a32cd" stroke="#9a32cd" points="949.15,-95.41 938.89,-98.05 948.56,-102.38 949.15,-95.41"/>
<text text-anchor="middle" x="994.5" y="-110" font-family="Helvetica,sans-Serif" font-size="10.00"> RendererManager</text>
</g>
<!-- Node14 -->
<g id="node14" class="node">
<title>Node14</title>
<g id="a_node14"><a xlink:href="class_c_renderer_props.html" target="_top" xlink:title=" ">
<polygon fill="white" stroke="#bfbfbf" points="699,-103.5 611,-103.5 611,-84.5 699,-84.5 699,-103.5"/>
<text text-anchor="middle" x="655" y="-91.5" font-family="Helvetica,sans-Serif" font-size="10.00">CRendererProps</text>
</a>
</g>
</g>
<!-- Node14&#45;&gt;Node13 -->
<g id="edge23" class="edge">
<title>Node14&#45;&gt;Node13</title>
<path fill="none" stroke="#9a32cd" stroke-dasharray="5,2" d="M710.7,-94C748.92,-94 799.53,-94 836.54,-94"/>
<polygon fill="#9a32cd" stroke="#9a32cd" points="710.77,-90.5 700.77,-94 710.77,-97.5 710.77,-90.5"/>
<text text-anchor="middle" x="768" y="-97" font-family="Helvetica,sans-Serif" font-size="10.00"> RendererRequirements</text>
</g>
<!-- Node15 -->
<g id="node15" class="node">
<title>Node15</title>
<g id="a_node15"><a xlink:href="structt_renderer.html" target="_top" xlink:title=" ">
<polygon fill="white" stroke="#bfbfbf" points="684.5,-48.5 625.5,-48.5 625.5,-29.5 684.5,-29.5 684.5,-48.5"/>
<text text-anchor="middle" x="655" y="-36.5" font-family="Helvetica,sans-Serif" font-size="10.00">tRenderer</text>
</a>
</g>
</g>
<!-- Node15&#45;&gt;Node13 -->
<g id="edge24" class="edge">
<title>Node15&#45;&gt;Node13</title>
<path fill="none" stroke="#9a32cd" stroke-dasharray="5,2" d="M696.15,-34.47C729.89,-32.12 778.88,-32.16 819,-46 841.99,-53.94 864,-72.5 876.18,-84.08"/>
<polygon fill="#9a32cd" stroke="#9a32cd" points="696.09,-30.96 686.4,-35.26 696.65,-37.94 696.09,-30.96"/>
<text text-anchor="middle" x="768" y="-82" font-family="Helvetica,sans-Serif" font-size="10.00"> CurrentRenderer</text>
<text text-anchor="middle" x="768" y="-71" font-family="Helvetica,sans-Serif" font-size="10.00">DefaultRenderers</text>
<text text-anchor="middle" x="768" y="-60" font-family="Helvetica,sans-Serif" font-size="10.00">NewRenderer</text>
<text text-anchor="middle" x="768" y="-49" font-family="Helvetica,sans-Serif" font-size="10.00">UserRenderers</text>
</g>
<!-- Node16 -->
<g id="node16" class="node">
<title>Node16</title>
<g id="a_node16"><a xlink:href="class_c_renderer.html" target="_top" xlink:title=" ">
<polygon fill="white" stroke="#666666" points="480,-48.5 418,-48.5 418,-29.5 480,-29.5 480,-48.5"/>
<text text-anchor="middle" x="449" y="-36.5" font-family="Helvetica,sans-Serif" font-size="10.00">CRenderer</text>
</a>
</g>
</g>
<!-- Node16&#45;&gt;Node15 -->
<g id="edge25" class="edge">
<title>Node16&#45;&gt;Node15</title>
<path fill="none" stroke="#9a32cd" stroke-dasharray="5,2" d="M491.52,-39C531.27,-39 590.21,-39 625.1,-39"/>
<polygon fill="#9a32cd" stroke="#9a32cd" points="491.61,-35.5 481.61,-39 491.61,-42.5 491.61,-35.5"/>
<text text-anchor="middle" x="557.5" y="-42" font-family="Helvetica,sans-Serif" font-size="10.00"> renderer</text>
</g>
<!-- Node17 -->
<g id="node17" class="node">
<title>Node17</title>
<g id="a_node17"><a xlink:href="class_c_geometry_block.html" target="_top" xlink:title=" ">
<polygon fill="white" stroke="#bfbfbf" points="288,-44.5 198,-44.5 198,-25.5 288,-25.5 288,-44.5"/>
<text text-anchor="middle" x="243" y="-32.5" font-family="Helvetica,sans-Serif" font-size="10.00">CGeometryBlock</text>
</a>
</g>
</g>
<!-- Node17&#45;&gt;Node12 -->
<g id="edge26" class="edge">
<title>Node17&#45;&gt;Node12</title>
<path fill="none" stroke="#9a32cd" stroke-dasharray="5,2" d="M290.82,-22.31C331.92,-12.3 393.48,0 448,0 448,0 448,0 888,0 977.55,0 1065.87,-78.06 1094.72,-106.11"/>
<polygon fill="#9a32cd" stroke="#9a32cd" points="290.12,-18.88 281.26,-24.7 291.81,-25.67 290.12,-18.88"/>
<text text-anchor="middle" x="655" y="-3" font-family="Helvetica,sans-Serif" font-size="10.00"> Geometry</text>
</g>
<!-- Node17&#45;&gt;Node18 -->
<g id="edge32" class="edge">
<title>Node17&#45;&gt;Node18</title>
<path fill="none" stroke="#9a32cd" stroke-dasharray="5,2" d="M253.43,-54.55C289.36,-129.06 417.06,-393.84 443.27,-448.2"/>
<polygon fill="#9a32cd" stroke="#9a32cd" points="256.8,-53.48 249.3,-45.99 250.49,-56.52 256.8,-53.48"/>
<text text-anchor="middle" x="341" y="-300" font-family="Helvetica,sans-Serif" font-size="10.00"> Geometry</text>
</g>
<!-- Node18&#45;&gt;Node2 -->
<g id="edge27" class="edge">
<title>Node18&#45;&gt;Node2</title>
<path fill="none" stroke="#9a32cd" stroke-dasharray="5,2" d="M515.52,-456.35C541.36,-458.45 570.24,-464.48 593,-479 624.74,-499.26 643.52,-542.61 650.67,-562.13"/>
<polygon fill="#9a32cd" stroke="#9a32cd" points="515.98,-452.87 505.79,-455.75 515.55,-459.86 515.98,-452.87"/>
<text text-anchor="middle" x="557.5" y="-482" font-family="Helvetica,sans-Serif" font-size="10.00"> DListGManager</text>
</g>
<!-- Node19 -->
<g id="node19" class="node">
<title>Node19</title>
<g id="a_node19"><a xlink:href="class_c_d_list.html" target="_top" xlink:title=" ">
<polygon fill="white" stroke="#bfbfbf" points="266.5,-610.5 219.5,-610.5 219.5,-591.5 266.5,-591.5 266.5,-610.5"/>
<text text-anchor="middle" x="243" y="-598.5" font-family="Helvetica,sans-Serif" font-size="10.00">CDList</text>
</a>
</g>
</g>
<!-- Node19&#45;&gt;Node18 -->
<g id="edge29" class="edge">
<title>Node19&#45;&gt;Node18</title>
<path fill="none" stroke="#9a32cd" stroke-dasharray="5,2" d="M262.83,-583.46C290.17,-558.61 343.16,-512.78 394,-482 402.78,-476.69 412.94,-471.86 422.06,-467.96"/>
<polygon fill="#9a32cd" stroke="#9a32cd" points="260.7,-580.66 255.7,-590 265.43,-585.82 260.7,-580.66"/>
<text text-anchor="middle" x="341" y="-545" font-family="Helvetica,sans-Serif" font-size="10.00"> CurDList</text>
</g>
<!-- Node25 -->
<g id="node25" class="node">
<title>Node25</title>
<g id="a_node25"><a xlink:href="class_c_d_list_manager.html" target="_top" xlink:title=" ">
<polygon fill="white" stroke="#bfbfbf" points="491,-619.5 407,-619.5 407,-600.5 491,-600.5 491,-619.5"/>
<text text-anchor="middle" x="449" y="-607.5" font-family="Helvetica,sans-Serif" font-size="10.00">CDListManager</text>
</a>
</g>
</g>
<!-- Node19&#45;&gt;Node25 -->
<g id="edge43" class="edge">
<title>Node19&#45;&gt;Node25</title>
<path fill="none" stroke="#9a32cd" stroke-dasharray="5,2" d="M277.77,-602.49C313.1,-604.05 368.62,-606.5 406.58,-608.17"/>
<polygon fill="#9a32cd" stroke="#9a32cd" points="278.27,-599.01 268.12,-602.06 277.96,-606 278.27,-599.01"/>
<text text-anchor="middle" x="341" y="-631" font-family="Helvetica,sans-Serif" font-size="10.00"> Lists</text>
<text text-anchor="middle" x="341" y="-620" font-family="Helvetica,sans-Serif" font-size="10.00">ListsToBeFreed</text>
<text text-anchor="middle" x="341" y="-609" font-family="Helvetica,sans-Serif" font-size="10.00">OpenList</text>
</g>
<!-- Node20 -->
<g id="node20" class="node">
<title>Node20</title>
<g id="a_node20"><a xlink:href="class_c_d_list_cmd_block.html" target="_top" xlink:title=" ">
<polygon fill="white" stroke="#bfbfbf" points="92,-610.5 0,-610.5 0,-591.5 92,-591.5 92,-610.5"/>
<text text-anchor="middle" x="46" y="-598.5" font-family="Helvetica,sans-Serif" font-size="10.00">CDListCmdBlock</text>
</a>
</g>
</g>
<!-- Node20&#45;&gt;Node19 -->
<g id="edge30" class="edge">
<title>Node20&#45;&gt;Node19</title>
<path fill="none" stroke="#9a32cd" stroke-dasharray="5,2" d="M103.3,-601C141.83,-601 190.88,-601 219.13,-601"/>
<polygon fill="#9a32cd" stroke="#9a32cd" points="103.74,-597.5 93.74,-601 103.74,-604.5 103.74,-597.5"/>
<text text-anchor="middle" x="145" y="-615" font-family="Helvetica,sans-Serif" font-size="10.00"> CurCmdBlock</text>
<text text-anchor="middle" x="145" y="-604" font-family="Helvetica,sans-Serif" font-size="10.00">FirstCmdBlock</text>
</g>
<!-- Node20&#45;&gt;Node20 -->
<g id="edge31" class="edge">
<title>Node20&#45;&gt;Node20</title>
<path fill="none" stroke="#9a32cd" stroke-dasharray="5,2" d="M28.43,-621.93C30.63,-625.79 36.48,-628.5 46,-628.5 63.4,-628.5 68.57,-619.44 61.5,-610.87"/>
<polygon fill="#9a32cd" stroke="#9a32cd" points="31.82,-622.83 30.22,-612.36 24.94,-621.54 31.82,-622.83"/>
<text text-anchor="middle" x="46" y="-631.5" font-family="Helvetica,sans-Serif" font-size="10.00"> NextBlock</text>
</g>
<!-- Node21&#45;&gt;Node2 -->
<g id="edge34" class="edge">
<title>Node21&#45;&gt;Node2</title>
<path fill="none" stroke="#9a32cd" stroke-dasharray="5,2" d="M1280.17,-984.41C1268.19,-992.54 1252.86,-1001.9 1238,-1008 1204.69,-1021.68 1194.79,-1021.97 1159,-1026 962.91,-1048.06 858.08,-1121.97 717,-984 657.42,-925.73 655.68,-638.38 655.92,-581.71"/>
<polygon fill="#9a32cd" stroke="#9a32cd" points="1281.95,-987.44 1288.13,-978.84 1277.93,-981.71 1281.95,-987.44"/>
<text text-anchor="middle" x="994.5" y="-1063" font-family="Helvetica,sans-Serif" font-size="10.00"> MaterialManager</text>
</g>
<!-- Node22 -->
<g id="node22" class="node">
<title>Node22</title>
<g id="a_node22"><a xlink:href="class_c_imm_material.html" target="_top" xlink:title=" ">
<polygon fill="white" stroke="#bfbfbf" points="1144,-1016.5 1067,-1016.5 1067,-997.5 1144,-997.5 1144,-1016.5"/>
<text text-anchor="middle" x="1105.5" y="-1004.5" font-family="Helvetica,sans-Serif" font-size="10.00">CImmMaterial</text>
</a>
</g>
</g>
<!-- Node22&#45;&gt;Node21 -->
<g id="edge36" class="edge">
<title>Node22&#45;&gt;Node21</title>
<path fill="none" stroke="#9a32cd" stroke-dasharray="5,2" d="M1155.54,-997.99C1180.29,-993.36 1210.77,-987.54 1238,-982 1244.29,-980.72 1250.91,-979.33 1257.42,-977.94"/>
<polygon fill="#9a32cd" stroke="#9a32cd" points="1154.92,-994.54 1145.73,-999.81 1156.2,-1001.42 1154.92,-994.54"/>
<text text-anchor="middle" x="1207.5" y="-996" font-family="Helvetica,sans-Serif" font-size="10.00"> ImmMaterial</text>
</g>
<!-- Node23&#45;&gt;Node21 -->
<g id="edge41" class="edge">
<title>Node23&#45;&gt;Node21</title>
<path fill="none" stroke="#9a32cd" stroke-dasharray="5,2" d="M927.57,-964.38C1004.4,-965.12 1173.44,-966.75 1255.69,-967.55"/>
<polygon fill="#9a32cd" stroke="#9a32cd" points="928.04,-960.89 918,-964.29 927.97,-967.89 928.04,-960.89"/>
<text text-anchor="middle" x="1105.5" y="-969" font-family="Helvetica,sans-Serif" font-size="10.00"> CurMaterial</text>
</g>
<!-- Node23&#45;&gt;Node22 -->
<g id="edge37" class="edge">
<title>Node23&#45;&gt;Node22</title>
<path fill="none" stroke="#63b8ff" d="M927.3,-975.24C936.36,-977.64 945.98,-980.04 955,-982 992.67,-990.19 1036.19,-997.19 1066.52,-1001.69"/>
<polygon fill="#63b8ff" stroke="#63b8ff" points="928.24,-971.87 917.67,-972.63 926.41,-978.62 928.24,-971.87"/>
</g>
<!-- Node24 -->
<g id="node24" class="node">
<title>Node24</title>
<g id="a_node24"><a xlink:href="class_c_d_list_material.html" target="_top" xlink:title=" ">
<polygon fill="white" stroke="#bfbfbf" points="1146,-931.5 1065,-931.5 1065,-912.5 1146,-912.5 1146,-931.5"/>
<text text-anchor="middle" x="1105.5" y="-919.5" font-family="Helvetica,sans-Serif" font-size="10.00">CDListMaterial</text>
</a>
</g>
</g>
<!-- Node23&#45;&gt;Node24 -->
<g id="edge40" class="edge">
<title>Node23&#45;&gt;Node24</title>
<path fill="none" stroke="#63b8ff" d="M927.46,-956.35C966.44,-948.78 1025.73,-937.28 1064.79,-929.7"/>
<polygon fill="#63b8ff" stroke="#63b8ff" points="926.94,-952.88 917.79,-958.22 928.27,-959.75 926.94,-952.88"/>
</g>
<!-- Node24&#45;&gt;Node21 -->
<g id="edge39" class="edge">
<title>Node24&#45;&gt;Node21</title>
<path fill="none" stroke="#9a32cd" stroke-dasharray="5,2" d="M1157.63,-927.61C1182.19,-930.95 1211.89,-935.94 1238,-943 1252.38,-946.89 1267.96,-952.87 1280.2,-958.01"/>
<polygon fill="#9a32cd" stroke="#9a32cd" points="1158.25,-924.16 1147.88,-926.34 1157.34,-931.1 1158.25,-924.16"/>
<text text-anchor="middle" x="1207.5" y="-946" font-family="Helvetica,sans-Serif" font-size="10.00"> DListMaterial</text>
</g>
<!-- Node25&#45;&gt;Node2 -->
<g id="edge42" class="edge">
<title>Node25&#45;&gt;Node2</title>
<path fill="none" stroke="#9a32cd" stroke-dasharray="5,2" d="M502.32,-600.25C539.17,-593.39 587.46,-584.39 619.55,-578.42"/>
<polygon fill="#9a32cd" stroke="#9a32cd" points="501.96,-596.76 492.77,-602.03 503.24,-603.64 501.96,-596.76"/>
<text text-anchor="middle" x="557.5" y="-598" font-family="Helvetica,sans-Serif" font-size="10.00"> DListManager</text>
</g>
<!-- Node26&#45;&gt;Node2 -->
<g id="edge44" class="edge">
<title>Node26&#45;&gt;Node2</title>
<path fill="none" stroke="#9a32cd" stroke-dasharray="5,2" d="M853.67,-265.25C842.79,-269.72 830.49,-274.41 819,-278 774.64,-291.84 749.85,-268.13 717,-301 678.81,-339.2 660.75,-518.03 656.83,-562.15"/>
<polygon fill="#9a32cd" stroke="#9a32cd" points="854.74,-268.6 862.6,-261.5 852.02,-262.15 854.74,-268.6"/>
<text text-anchor="middle" x="768" y="-304" font-family="Helvetica,sans-Serif" font-size="10.00"> TexManager</text>
</g>
<!-- Node27 -->
<g id="node27" class="node">
<title>Node27</title>
<g id="a_node27"><a xlink:href="class_c_m_m_texture.html" target="_top" xlink:title=" ">
<polygon fill="white" stroke="#bfbfbf" points="691,-216.5 619,-216.5 619,-197.5 691,-197.5 691,-216.5"/>
<text text-anchor="middle" x="655" y="-204.5" font-family="Helvetica,sans-Serif" font-size="10.00">CMMTexture</text>
</a>
</g>
</g>
<!-- Node27&#45;&gt;Node26 -->
<g id="edge46" class="edge">
<title>Node27&#45;&gt;Node26</title>
<path fill="none" stroke="#9a32cd" stroke-dasharray="5,2" d="M702.61,-196.24C735.91,-190.63 781.31,-187.29 819,-200 843.1,-208.13 865.39,-228.77 877.2,-241.16"/>
<polygon fill="#9a32cd" stroke="#9a32cd" points="702.07,-192.78 692.86,-198.02 703.33,-199.66 702.07,-192.78"/>
<text text-anchor="middle" x="768" y="-236" font-family="Helvetica,sans-Serif" font-size="10.00"> CurTexture</text>
<text text-anchor="middle" x="768" y="-225" font-family="Helvetica,sans-Serif" font-size="10.00">DefaultTex</text>
<text text-anchor="middle" x="768" y="-214" font-family="Helvetica,sans-Serif" font-size="10.00">LastTexSent</text>
<text text-anchor="middle" x="768" y="-203" font-family="Helvetica,sans-Serif" font-size="10.00">TexNames</text>
</g>
<!-- Node28 -->
<g id="node28" class="node">
<title>Node28</title>
<g id="a_node28"><a xlink:title=" ">
<polygon fill="white" stroke="#bfbfbf" points="486,-216.5 412,-216.5 412,-197.5 486,-197.5 486,-216.5"/>
<text text-anchor="middle" x="449" y="-204.5" font-family="Helvetica,sans-Serif" font-size="10.00">GS::CTexture</text>
</a>
</g>
</g>
<!-- Node28&#45;&gt;Node27 -->
<g id="edge47" class="edge">
<title>Node28&#45;&gt;Node27</title>
<path fill="none" stroke="#63b8ff" d="M497.96,-207C534.9,-207 585.15,-207 618.53,-207"/>
<polygon fill="#63b8ff" stroke="#63b8ff" points="497.98,-203.5 487.98,-207 497.98,-210.5 497.98,-203.5"/>
</g>
<!-- Node29 -->
<g id="node29" class="node">
<title>Node29</title>
<g id="a_node29"><a xlink:href="class_c_m_m_clut.html" target="_top" xlink:title=" ">
<polygon fill="white" stroke="#666666" points="683.5,-179.5 626.5,-179.5 626.5,-160.5 683.5,-160.5 683.5,-179.5"/>
<text text-anchor="middle" x="655" y="-167.5" font-family="Helvetica,sans-Serif" font-size="10.00">CMMClut</text>
</a>
</g>
</g>
<!-- Node29&#45;&gt;Node26 -->
<g id="edge48" class="edge">
<title>Node29&#45;&gt;Node26</title>
<path fill="none" stroke="#9a32cd" stroke-dasharray="5,2" d="M694.75,-163.56C729.09,-159.68 779.72,-158.56 819,-177 848.49,-190.85 870.8,-224.27 880.57,-241.04"/>
<polygon fill="#9a32cd" stroke="#9a32cd" points="694.75,-160.03 685.27,-164.76 695.64,-166.97 694.75,-160.03"/>
<text text-anchor="middle" x="768" y="-180" font-family="Helvetica,sans-Serif" font-size="10.00"> CurClut</text>
</g>
<!-- Node30 -->
<g id="node30" class="node">
<title>Node30</title>
<g id="a_node30"><a xlink:title=" ">
<polygon fill="white" stroke="#bfbfbf" points="478.5,-179.5 419.5,-179.5 419.5,-160.5 478.5,-160.5 478.5,-179.5"/>
<text text-anchor="middle" x="449" y="-167.5" font-family="Helvetica,sans-Serif" font-size="10.00">GS::CClut</text>
</a>
</g>
</g>
<!-- Node30&#45;&gt;Node29 -->
<g id="edge49" class="edge">
<title>Node30&#45;&gt;Node29</title>
<path fill="none" stroke="#63b8ff" d="M490.28,-170C530.38,-170 590.88,-170 626.01,-170"/>
<polygon fill="#63b8ff" stroke="#63b8ff" points="490.31,-166.5 480.31,-170 490.31,-173.5 490.31,-166.5"/>
</g>
<!-- Node31 -->
<g id="node31" class="node">
<title>Node31</title>
<g id="a_node31"><a xlink:href="class_c_imm_draw_context.html" target="_top" xlink:title=" ">
<polygon fill="white" stroke="#bfbfbf" points="1154.5,-891.5 1056.5,-891.5 1056.5,-872.5 1154.5,-872.5 1154.5,-891.5"/>
<text text-anchor="middle" x="1105.5" y="-879.5" font-family="Helvetica,sans-Serif" font-size="10.00">CImmDrawContext</text>
</a>
</g>
</g>
<!-- Node31&#45;&gt;Node2 -->
<g id="edge50" class="edge">
<title>Node31&#45;&gt;Node2</title>
<path fill="none" stroke="#9a32cd" stroke-dasharray="5,2" d="M1068.54,-895.6C992.43,-921.79 814.06,-969.02 717,-878 672.35,-836.13 658.99,-629.7 656.48,-581.9"/>
<polygon fill="#9a32cd" stroke="#9a32cd" points="1069.32,-899.04 1077.58,-892.41 1066.99,-892.44 1069.32,-899.04"/>
<text text-anchor="middle" x="887" y="-934" font-family="Helvetica,sans-Serif" font-size="10.00"> ImmDrawContext</text>
</g>
<!-- Node32&#45;&gt;Node2 -->
<g id="edge56" class="edge">
<title>Node32&#45;&gt;Node2</title>
<path fill="none" stroke="#9a32cd" stroke-dasharray="5,2" d="M836.07,-832.51C789.45,-826.95 725.76,-818.03 717,-810 682.1,-778 661.86,-622.52 657.1,-581.79"/>
<polygon fill="#9a32cd" stroke="#9a32cd" points="835.37,-835.96 845.71,-833.64 836.19,-829 835.37,-835.96"/>
<text text-anchor="middle" x="768" y="-833" font-family="Helvetica,sans-Serif" font-size="10.00"> CurDrawContext</text>
</g>
<!-- Node32&#45;&gt;Node31 -->
<g id="edge51" class="edge">
<title>Node32&#45;&gt;Node31</title>
<path fill="none" stroke="#63b8ff" d="M938.07,-848.18C973.67,-855.41 1021.23,-865.08 1056.39,-872.22"/>
<polygon fill="#63b8ff" stroke="#63b8ff" points="938.94,-844.78 928.44,-846.22 937.54,-851.64 938.94,-844.78"/>
</g>
<!-- Node34 -->
<g id="node34" class="node">
<title>Node34</title>
<g id="a_node34"><a xlink:href="class_c_d_list_draw_context.html" target="_top" xlink:title=" ">
<polygon fill="white" stroke="#bfbfbf" points="1156.5,-821.5 1054.5,-821.5 1054.5,-802.5 1156.5,-802.5 1156.5,-821.5"/>
<text text-anchor="middle" x="1105.5" y="-809.5" font-family="Helvetica,sans-Serif" font-size="10.00">CDListDrawContext</text>
</a>
</g>
</g>
<!-- Node32&#45;&gt;Node34 -->
<g id="edge55" class="edge">
<title>Node32&#45;&gt;Node34</title>
<path fill="none" stroke="#63b8ff" d="M938.29,-831.96C973.07,-827.78 1019.19,-822.25 1054.02,-818.06"/>
<polygon fill="#63b8ff" stroke="#63b8ff" points="937.97,-828.47 928.46,-833.14 938.8,-835.42 937.97,-828.47"/>
</g>
<!-- Node33 -->
<g id="node33" class="node">
<title>Node33</title>
<g id="a_node33"><a xlink:href="class_c_clear_env.html" target="_top" xlink:title=" ">
<polygon fill="white" stroke="#bfbfbf" points="918,-884.5 856,-884.5 856,-865.5 918,-865.5 918,-884.5"/>
<text text-anchor="middle" x="887" y="-872.5" font-family="Helvetica,sans-Serif" font-size="10.00">CClearEnv</text>
</a>
</g>
</g>
<!-- Node33&#45;&gt;Node31 -->
<g id="edge53" class="edge">
<title>Node33&#45;&gt;Node31</title>
<path fill="none" stroke="#9a32cd" stroke-dasharray="5,2" d="M929.25,-876.33C965.47,-877.5 1018.2,-879.21 1056.35,-880.44"/>
<polygon fill="#9a32cd" stroke="#9a32cd" points="929.72,-872.85 919.62,-876.02 929.5,-879.84 929.72,-872.85"/>
<text text-anchor="middle" x="994.5" y="-882" font-family="Helvetica,sans-Serif" font-size="10.00"> ClearEnv</text>
</g>
<!-- Node34&#45;&gt;Node2 -->
<g id="edge54" class="edge">
<title>Node34&#45;&gt;Node2</title>
<path fill="none" stroke="#9a32cd" stroke-dasharray="5,2" d="M1042.94,-810.42C946.2,-806.69 764.65,-794.25 717,-753 663.6,-706.77 656.83,-612.17 656.07,-581.69"/>
<polygon fill="#9a32cd" stroke="#9a32cd" points="1042.67,-813.92 1052.79,-810.78 1042.93,-806.92 1042.67,-813.92"/>
<text text-anchor="middle" x="887" y="-806" font-family="Helvetica,sans-Serif" font-size="10.00"> DListDrawContext</text>
</g>
<!-- Node35&#45;&gt;Node2 -->
<g id="edge57" class="edge">
<title>Node35&#45;&gt;Node2</title>
<path fill="none" stroke="#9a32cd" stroke-dasharray="5,2" d="M840.02,-559.53C833.02,-558.06 825.85,-556.81 819,-556 773.98,-550.7 761.96,-550.2 717,-556 707.34,-557.25 697.02,-559.56 687.67,-562.05"/>
<polygon fill="#9a32cd" stroke="#9a32cd" points="839.16,-562.92 849.68,-561.71 840.7,-556.09 839.16,-562.92"/>
<text text-anchor="middle" x="768" y="-559" font-family="Helvetica,sans-Serif" font-size="10.00"> DisplayContext</text>
</g>
<!-- Node36 -->
<g id="node36" class="node">
<title>Node36</title>
<g id="a_node36"><a xlink:href="class_c_vert_array.html" target="_top" xlink:title=" ">
<polygon fill="white" stroke="#bfbfbf" points="78,-472.5 14,-472.5 14,-453.5 78,-453.5 78,-472.5"/>
<text text-anchor="middle" x="46" y="-460.5" font-family="Helvetica,sans-Serif" font-size="10.00">CVertArray</text>
</a>
</g>
</g>
<!-- Node36&#45;&gt;Node1 -->
<g id="edge59" class="edge">
<title>Node36&#45;&gt;Node1</title>
<path fill="none" stroke="#9a32cd" stroke-dasharray="5,2" d="M89.72,-462.21C115.88,-462.24 149.99,-463.2 180,-467 187.55,-467.96 195.54,-469.42 203.18,-471.04"/>
<polygon fill="#9a32cd" stroke="#9a32cd" points="89.8,-458.71 79.82,-462.25 89.83,-465.71 89.8,-458.71"/>
<text text-anchor="middle" x="145" y="-470" font-family="Helvetica,sans-Serif" font-size="10.00"> VertArray</text>
</g>
<!-- Node37 -->
<g id="node37" class="node">
<title>Node37</title>
<g id="a_node37"><a xlink:href="structt_user_prim_entry.html" target="_top" xlink:title=" ">
<polygon fill="white" stroke="#bfbfbf" points="87.5,-509.5 4.5,-509.5 4.5,-490.5 87.5,-490.5 87.5,-509.5"/>
<text text-anchor="middle" x="46" y="-497.5" font-family="Helvetica,sans-Serif" font-size="10.00">tUserPrimEntry</text>
</a>
</g>
</g>
<!-- Node37&#45;&gt;Node1 -->
<g id="edge60" class="edge">
<title>Node37&#45;&gt;Node1</title>
<path fill="none" stroke="#9a32cd" stroke-dasharray="5,2" d="M99.01,-494.93C130.3,-491.88 169.65,-488.05 199.15,-485.18"/>
<polygon fill="#9a32cd" stroke="#9a32cd" points="99,-491.42 89.38,-495.87 99.68,-498.38 99,-491.42"/>
<text text-anchor="middle" x="145" y="-496" font-family="Helvetica,sans-Serif" font-size="10.00"> UserPrimTypes</text>
</g>
</g>
</svg>
