<?xml version="1.0" encoding="UTF-8" standalone="no"?>
<!DOCTYPE svg PUBLIC "-//W3C//DTD SVG 1.1//EN"
 "http://www.w3.org/Graphics/SVG/1.1/DTD/svg11.dtd">
<!-- Generated by graphviz version 7.0.5 (20221223.1930)
 -->
<!-- Title: CLight Pages: 1 -->
<svg width="160pt" height="82pt"
 viewBox="0.00 0.00 159.50 82.00" xmlns="http://www.w3.org/2000/svg" xmlns:xlink="http://www.w3.org/1999/xlink">
<g id="graph0" class="graph" transform="scale(1 1) rotate(0) translate(4 78)">
<title>CLight</title>
<!-- Node1 -->
<g id="node1" class="node">
<title>Node1</title>
<g id="a_node1"><a xlink:title=" ">
<polygon fill="#999999" stroke="#666666" points="98.5,-74 53.5,-74 53.5,-55 98.5,-55 98.5,-74"/>
<text text-anchor="middle" x="76" y="-62" font-family="Helvetica,sans-Serif" font-size="10.00">CLight</text>
</a>
</g>
</g>
<!-- Node2 -->
<g id="node2" class="node">
<title>Node2</title>
<g id="a_node2"><a xlink:href="class_c_d_list_light.html" target="_top" xlink:title=" ">
<polygon fill="white" stroke="#bfbfbf" points="68,-19 0,-19 0,0 68,0 68,-19"/>
<text text-anchor="middle" x="34" y="-7" font-family="Helvetica,sans-Serif" font-size="10.00">CDListLight</text>
</a>
</g>
</g>
<!-- Node1&#45;&gt;Node2 -->
<g id="edge1" class="edge">
<title>Node1&#45;&gt;Node2</title>
<path fill="none" stroke="#63b8ff" d="M62.08,-45.93C55.04,-37.06 46.81,-26.67 41.09,-19.44"/>
<polygon fill="#63b8ff" stroke="#63b8ff" points="59.17,-47.9 68.12,-53.56 64.66,-43.55 59.17,-47.9"/>
</g>
<!-- Node3 -->
<g id="node3" class="node">
<title>Node3</title>
<g id="a_node3"><a xlink:href="class_c_imm_light.html" target="_top" xlink:title=" ">
<polygon fill="white" stroke="#bfbfbf" points="151.5,-19 86.5,-19 86.5,0 151.5,0 151.5,-19"/>
<text text-anchor="middle" x="119" y="-7" font-family="Helvetica,sans-Serif" font-size="10.00">CImmLight</text>
</a>
</g>
</g>
<!-- Node1&#45;&gt;Node3 -->
<g id="edge2" class="edge">
<title>Node1&#45;&gt;Node3</title>
<path fill="none" stroke="#63b8ff" d="M90.25,-45.93C97.45,-37.06 105.88,-26.67 111.75,-19.44"/>
<polygon fill="#63b8ff" stroke="#63b8ff" points="87.64,-43.6 84.05,-53.57 93.07,-48.01 87.64,-43.6"/>
</g>
</g>
</svg>
