<?xml version="1.0" encoding="UTF-8" standalone="no"?>
<!DOCTYPE svg PUBLIC "-//W3C//DTD SVG 1.1//EN"
 "http://www.w3.org/Graphics/SVG/1.1/DTD/svg11.dtd">
<!-- Generated by graphviz version 7.0.5 (20221223.1930)
 -->
<!-- Title: CMaterial Pages: 1 -->
<svg width="1292pt" height="1031pt"
 viewBox="0.00 0.00 1292.00 1030.50" xmlns="http://www.w3.org/2000/svg" xmlns:xlink="http://www.w3.org/1999/xlink">
<g id="graph0" class="graph" transform="scale(1 1) rotate(0) translate(4 1026.5)">
<title>CMaterial</title>
<!-- Node1 -->
<g id="node1" class="node">
<title>Node1</title>
<g id="a_node1"><a xlink:title=" ">
<polygon fill="#999999" stroke="#666666" points="75,-507 17,-507 17,-488 75,-488 75,-507"/>
<text text-anchor="middle" x="46" y="-495" font-family="Helvetica,sans-Serif" font-size="10.00">CMaterial</text>
</a>
</g>
</g>
<!-- Node24 -->
<g id="node24" class="node">
<title>Node24</title>
<g id="a_node24"><a xlink:href="class_c_material_manager.html" target="_top" xlink:title=" ">
<polygon fill="white" stroke="#bfbfbf" points="475,-497 380,-497 380,-478 475,-478 475,-497"/>
<text text-anchor="middle" x="427.5" y="-485" font-family="Helvetica,sans-Serif" font-size="10.00">CMaterialManager</text>
</a>
</g>
</g>
<!-- Node1&#45;&gt;Node24 -->
<g id="edge43" class="edge">
<title>Node1&#45;&gt;Node24</title>
<path fill="none" stroke="#9a32cd" stroke-dasharray="5,2" d="M86.66,-494.44C116.01,-492.32 156.97,-489.69 193,-488.5 257.62,-486.37 332.36,-486.51 379.53,-486.91"/>
<polygon fill="#9a32cd" stroke="#9a32cd" points="86.47,-490.94 76.75,-495.17 86.98,-497.93 86.47,-490.94"/>
<text text-anchor="middle" x="233.5" y="-491.5" font-family="Helvetica,sans-Serif" font-size="10.00"> CurMaterial</text>
</g>
<!-- Node25 -->
<g id="node25" class="node">
<title>Node25</title>
<g id="a_node25"><a xlink:href="class_c_imm_material.html" target="_top" xlink:title=" ">
<polygon fill="white" stroke="#bfbfbf" points="272,-527 195,-527 195,-508 272,-508 272,-527"/>
<text text-anchor="middle" x="233.5" y="-515" font-family="Helvetica,sans-Serif" font-size="10.00">CImmMaterial</text>
</a>
</g>
</g>
<!-- Node1&#45;&gt;Node25 -->
<g id="edge40" class="edge">
<title>Node1&#45;&gt;Node25</title>
<path fill="none" stroke="#63b8ff" d="M86.33,-501.74C118.32,-505.19 163.17,-510.02 194.73,-513.43"/>
<polygon fill="#63b8ff" stroke="#63b8ff" points="87,-498.29 76.68,-500.7 86.25,-505.25 87,-498.29"/>
</g>
<!-- Node26 -->
<g id="node26" class="node">
<title>Node26</title>
<g id="a_node26"><a xlink:href="class_c_d_list_material.html" target="_top" xlink:title=" ">
<polygon fill="white" stroke="#bfbfbf" points="274,-442 193,-442 193,-423 274,-423 274,-442"/>
<text text-anchor="middle" x="233.5" y="-430" font-family="Helvetica,sans-Serif" font-size="10.00">CDListMaterial</text>
</a>
</g>
</g>
<!-- Node1&#45;&gt;Node26 -->
<g id="edge42" class="edge">
<title>Node1&#45;&gt;Node26</title>
<path fill="none" stroke="#63b8ff" d="M73.24,-482.05C84.32,-475.98 97.52,-469.33 110,-464.5 136.86,-454.11 168.3,-445.98 192.61,-440.51"/>
<polygon fill="#63b8ff" stroke="#63b8ff" points="71.68,-478.91 64.68,-486.87 75.11,-485.01 71.68,-478.91"/>
</g>
<!-- Node2 -->
<g id="node2" class="node">
<title>Node2</title>
<g id="a_node2"><a xlink:href="class_c_g_l_context.html" target="_top" xlink:title=" ">
<polygon fill="white" stroke="#bfbfbf" points="665,-531 595,-531 595,-512 665,-512 665,-531"/>
<text text-anchor="middle" x="630" y="-519" font-family="Helvetica,sans-Serif" font-size="10.00">CGLContext</text>
</a>
</g>
</g>
<!-- Node2&#45;&gt;Node1 -->
<g id="edge1" class="edge">
<title>Node2&#45;&gt;Node1</title>
<path fill="none" stroke="#9a32cd" stroke-dasharray="5,2" d="M583.68,-526.74C504.34,-535.09 335.18,-549.24 193,-536.5 155.66,-533.15 146.11,-531.55 110,-521.5 96.47,-517.73 81.78,-512.23 69.99,-507.44"/>
<polygon fill="#9a32cd" stroke="#9a32cd" points="583.65,-530.26 593.22,-525.72 582.9,-523.3 583.65,-530.26"/>
<text text-anchor="middle" x="327" y="-544.5" font-family="Helvetica,sans-Serif" font-size="10.00"> GLContext</text>
</g>
<!-- Node4 -->
<g id="node4" class="node">
<title>Node4</title>
<g id="a_node4"><a xlink:href="class_c_matrix_stack.html" target="_top" xlink:title=" ">
<polygon fill="white" stroke="#bfbfbf" points="899.5,-397 824.5,-397 824.5,-378 899.5,-378 899.5,-397"/>
<text text-anchor="middle" x="862" y="-385" font-family="Helvetica,sans-Serif" font-size="10.00">CMatrixStack</text>
</a>
</g>
</g>
<!-- Node2&#45;&gt;Node4 -->
<g id="edge4" class="edge">
<title>Node2&#45;&gt;Node4</title>
<path fill="none" stroke="#9a32cd" stroke-dasharray="5,2" d="M638.74,-501.08C648.03,-479.4 665.74,-445.8 692,-427.5 730.13,-400.94 748.81,-415.33 794,-404.5 803.8,-402.15 814.39,-399.51 824.18,-397.03"/>
<polygon fill="#9a32cd" stroke="#9a32cd" points="635.51,-499.74 635,-510.32 642,-502.36 635.51,-499.74"/>
<text text-anchor="middle" x="743" y="-430.5" font-family="Helvetica,sans-Serif" font-size="10.00"> GLContext</text>
</g>
<!-- Node7 -->
<g id="node7" class="node">
<title>Node7</title>
<g id="a_node7"><a xlink:href="class_c_lighting.html" target="_top" xlink:title=" ">
<polygon fill="white" stroke="#bfbfbf" points="998.5,-612 940.5,-612 940.5,-593 998.5,-593 998.5,-612"/>
<text text-anchor="middle" x="969.5" y="-600" font-family="Helvetica,sans-Serif" font-size="10.00">CLighting</text>
</a>
</g>
</g>
<!-- Node2&#45;&gt;Node7 -->
<g id="edge10" class="edge">
<title>Node2&#45;&gt;Node7</title>
<path fill="none" stroke="#9a32cd" stroke-dasharray="5,2" d="M676.65,-532.89C681.83,-534.13 687.02,-535.36 692,-536.5 789.45,-558.88 815.57,-557.08 912,-583.5 921.58,-586.13 931.92,-589.45 941.11,-592.59"/>
<polygon fill="#9a32cd" stroke="#9a32cd" points="677.49,-529.49 666.95,-530.53 675.84,-536.29 677.49,-529.49"/>
<text text-anchor="middle" x="743" y="-559.5" font-family="Helvetica,sans-Serif" font-size="10.00"> GLContext</text>
</g>
<!-- Node9 -->
<g id="node9" class="node">
<title>Node9</title>
<g id="a_node9"><a xlink:href="class_c_light.html" target="_top" xlink:title=" ">
<polygon fill="white" stroke="#bfbfbf" points="884.5,-531 839.5,-531 839.5,-512 884.5,-512 884.5,-531"/>
<text text-anchor="middle" x="862" y="-519" font-family="Helvetica,sans-Serif" font-size="10.00">CLight</text>
</a>
</g>
</g>
<!-- Node2&#45;&gt;Node9 -->
<g id="edge13" class="edge">
<title>Node2&#45;&gt;Node9</title>
<path fill="none" stroke="#9a32cd" stroke-dasharray="5,2" d="M676.71,-521.5C725.89,-521.5 802.03,-521.5 839.15,-521.5"/>
<polygon fill="#9a32cd" stroke="#9a32cd" points="676.95,-518 666.95,-521.5 676.95,-525 676.95,-518"/>
<text text-anchor="middle" x="743" y="-524.5" font-family="Helvetica,sans-Serif" font-size="10.00"> GLContext</text>
</g>
<!-- Node13 -->
<g id="node13" class="node">
<title>Node13</title>
<g id="a_node13"><a xlink:href="class_c_geom_manager.html" target="_top" xlink:title=" ">
<polygon fill="white" stroke="#bfbfbf" points="905.5,-259 818.5,-259 818.5,-240 905.5,-240 905.5,-259"/>
<text text-anchor="middle" x="862" y="-247" font-family="Helvetica,sans-Serif" font-size="10.00">CGeomManager</text>
</a>
</g>
</g>
<!-- Node2&#45;&gt;Node13 -->
<g id="edge21" class="edge">
<title>Node2&#45;&gt;Node13</title>
<path fill="none" stroke="#9a32cd" stroke-dasharray="5,2" d="M630.12,-500.47C629.5,-456.26 634.69,-353.27 692,-298.5 725.6,-266.39 749.55,-289.05 794,-275.5 808.92,-270.95 825.24,-264.65 838.04,-259.38"/>
<polygon fill="#9a32cd" stroke="#9a32cd" points="626.62,-500.33 630.39,-510.23 633.61,-500.14 626.62,-500.33"/>
<text text-anchor="middle" x="743" y="-301.5" font-family="Helvetica,sans-Serif" font-size="10.00"> GLContext</text>
</g>
<!-- Node16 -->
<g id="node16" class="node">
<title>Node16</title>
<g id="a_node16"><a xlink:href="class_c_renderer_manager.html" target="_top" xlink:title=" ">
<polygon fill="white" stroke="#bfbfbf" points="912,-71 812,-71 812,-52 912,-52 912,-71"/>
<text text-anchor="middle" x="862" y="-59" font-family="Helvetica,sans-Serif" font-size="10.00">CRendererManager</text>
</a>
</g>
</g>
<!-- Node2&#45;&gt;Node16 -->
<g id="edge25" class="edge">
<title>Node2&#45;&gt;Node16</title>
<path fill="none" stroke="#9a32cd" stroke-dasharray="5,2" d="M634.28,-500.63C646.86,-420.7 691.3,-138.42 692,-137.5 696.75,-131.29 791.84,-90.64 837.25,-71.48"/>
<polygon fill="#9a32cd" stroke="#9a32cd" points="630.88,-499.73 632.78,-510.15 637.8,-500.82 630.88,-499.73"/>
<text text-anchor="middle" x="743" y="-140.5" font-family="Helvetica,sans-Serif" font-size="10.00"> GLContext</text>
</g>
<!-- Node2&#45;&gt;Node24 -->
<g id="edge38" class="edge">
<title>Node2&#45;&gt;Node24</title>
<path fill="none" stroke="#9a32cd" stroke-dasharray="5,2" d="M607.04,-505.17C595.95,-497.92 581.91,-490.21 568,-486.5 537.93,-478.49 502.9,-478.77 475.46,-481.04"/>
<polygon fill="#9a32cd" stroke="#9a32cd" points="604.85,-507.91 615.07,-510.71 608.83,-502.15 604.85,-507.91"/>
<text text-anchor="middle" x="530.5" y="-489.5" font-family="Helvetica,sans-Serif" font-size="10.00"> GLContext</text>
</g>
<!-- Node28 -->
<g id="node28" class="node">
<title>Node28</title>
<g id="a_node28"><a xlink:href="class_c_tex_manager.html" target="_top" xlink:title=" ">
<polygon fill="white" stroke="#bfbfbf" points="900.5,-938 823.5,-938 823.5,-919 900.5,-919 900.5,-938"/>
<text text-anchor="middle" x="862" y="-926" font-family="Helvetica,sans-Serif" font-size="10.00">CTexManager</text>
</a>
</g>
</g>
<!-- Node2&#45;&gt;Node28 -->
<g id="edge47" class="edge">
<title>Node2&#45;&gt;Node28</title>
<path fill="none" stroke="#9a32cd" stroke-dasharray="5,2" d="M631.86,-542.54C634.99,-608.67 648.05,-810.56 692,-855.5 724.36,-888.59 751.96,-857.14 794,-876.5 817,-887.09 839.34,-906.93 851.52,-918.8"/>
<polygon fill="#9a32cd" stroke="#9a32cd" points="635.36,-542.56 631.42,-532.73 628.37,-542.87 635.36,-542.56"/>
<text text-anchor="middle" x="743" y="-879.5" font-family="Helvetica,sans-Serif" font-size="10.00"> GLContext</text>
</g>
<!-- Node34 -->
<g id="node34" class="node">
<title>Node34</title>
<g id="a_node34"><a xlink:href="class_c_draw_context.html" target="_top" xlink:title=" ">
<polygon fill="white" stroke="#bfbfbf" points="901.5,-692 822.5,-692 822.5,-673 901.5,-673 901.5,-692"/>
<text text-anchor="middle" x="862" y="-680" font-family="Helvetica,sans-Serif" font-size="10.00">CDrawContext</text>
</a>
</g>
</g>
<!-- Node2&#45;&gt;Node34 -->
<g id="edge54" class="edge">
<title>Node2&#45;&gt;Node34</title>
<path fill="none" stroke="#9a32cd" stroke-dasharray="5,2" d="M635.24,-542.43C642.08,-570.6 658.35,-620.21 692,-646.5 694.59,-648.53 773.06,-664.69 822.15,-674.66"/>
<polygon fill="#9a32cd" stroke="#9a32cd" points="638.72,-541.95 633.12,-532.95 631.89,-543.47 638.72,-541.95"/>
<text text-anchor="middle" x="743" y="-671.5" font-family="Helvetica,sans-Serif" font-size="10.00"> GLContext</text>
</g>
<!-- Node37 -->
<g id="node37" class="node">
<title>Node37</title>
<g id="a_node37"><a xlink:href="class_c_display_context.html" target="_top" xlink:title=" ">
<polygon fill="white" stroke="#bfbfbf" points="906,-853 818,-853 818,-834 906,-834 906,-853"/>
<text text-anchor="middle" x="862" y="-841" font-family="Helvetica,sans-Serif" font-size="10.00">CDisplayContext</text>
</a>
</g>
</g>
<!-- Node2&#45;&gt;Node37 -->
<g id="edge60" class="edge">
<title>Node2&#45;&gt;Node37</title>
<path fill="none" stroke="#9a32cd" stroke-dasharray="5,2" d="M632.93,-542.59C638.56,-599.3 656.81,-753.09 692,-787.5 725.09,-819.86 750.95,-791.51 794,-808.5 802.72,-811.94 803.78,-814.99 812,-819.5 820.97,-824.42 831.09,-829.46 839.8,-833.65"/>
<polygon fill="#9a32cd" stroke="#9a32cd" points="636.45,-542.61 632.01,-532.99 629.48,-543.28 636.45,-542.61"/>
<text text-anchor="middle" x="743" y="-811.5" font-family="Helvetica,sans-Serif" font-size="10.00"> GLContext</text>
</g>
<!-- Node3 -->
<g id="node3" class="node">
<title>Node3</title>
<g id="a_node3"><a xlink:href="class_c_imm_matrix_stack.html" target="_top" xlink:title=" ">
<polygon fill="white" stroke="#bfbfbf" points="1129.5,-420 1034.5,-420 1034.5,-401 1129.5,-401 1129.5,-420"/>
<text text-anchor="middle" x="1082" y="-408" font-family="Helvetica,sans-Serif" font-size="10.00">CImmMatrixStack</text>
</a>
</g>
</g>
<!-- Node3&#45;&gt;Node2 -->
<g id="edge2" class="edge">
<title>Node3&#45;&gt;Node2</title>
<path fill="none" stroke="#9a32cd" stroke-dasharray="5,2" d="M1022.87,-415.17C929.18,-423.4 749.45,-442.2 692,-469.5 670.38,-479.77 650.28,-499.72 639.41,-511.7"/>
<polygon fill="#9a32cd" stroke="#9a32cd" points="1022.96,-418.68 1032.62,-414.33 1022.36,-411.71 1022.96,-418.68"/>
<text text-anchor="middle" x="862" y="-452.5" font-family="Helvetica,sans-Serif" font-size="10.00"> ModelViewMatStack</text>
<text text-anchor="middle" x="862" y="-441.5" font-family="Helvetica,sans-Serif" font-size="10.00">ProjectionMatStack</text>
</g>
<!-- Node4&#45;&gt;Node2 -->
<g id="edge7" class="edge">
<title>Node4&#45;&gt;Node2</title>
<path fill="none" stroke="#9a32cd" stroke-dasharray="5,2" d="M825.28,-374.09C788.68,-362.81 731.66,-352.3 692,-378.5 645.16,-409.44 634.16,-484.51 631.69,-511.57"/>
<polygon fill="#9a32cd" stroke="#9a32cd" points="823.91,-377.32 834.51,-377.11 826.09,-370.67 823.91,-377.32"/>
<text text-anchor="middle" x="743" y="-392.5" font-family="Helvetica,sans-Serif" font-size="10.00"> CurMatrixStack</text>
<text text-anchor="middle" x="743" y="-381.5" font-family="Helvetica,sans-Serif" font-size="10.00">SavedCurMatStack</text>
</g>
<!-- Node4&#45;&gt;Node3 -->
<g id="edge3" class="edge">
<title>Node4&#45;&gt;Node3</title>
<path fill="none" stroke="#63b8ff" d="M911.38,-392.6C948.03,-396.47 998.1,-401.75 1034.33,-405.58"/>
<polygon fill="#63b8ff" stroke="#63b8ff" points="911.8,-389.13 901.49,-391.56 911.06,-396.09 911.8,-389.13"/>
</g>
<!-- Node5 -->
<g id="node5" class="node">
<title>Node5</title>
<g id="a_node5"><a xlink:href="class_c_d_list_matrix_stack.html" target="_top" xlink:title=" ">
<polygon fill="white" stroke="#bfbfbf" points="1131,-370 1033,-370 1033,-351 1131,-351 1131,-370"/>
<text text-anchor="middle" x="1082" y="-358" font-family="Helvetica,sans-Serif" font-size="10.00">CDListMatrixStack</text>
</a>
</g>
</g>
<!-- Node4&#45;&gt;Node5 -->
<g id="edge6" class="edge">
<title>Node4&#45;&gt;Node5</title>
<path fill="none" stroke="#63b8ff" d="M911.22,-381.53C947.36,-377.05 996.59,-370.95 1032.74,-366.48"/>
<polygon fill="#63b8ff" stroke="#63b8ff" points="910.98,-378.03 901.48,-382.73 911.84,-384.98 910.98,-378.03"/>
</g>
<!-- Node5&#45;&gt;Node2 -->
<g id="edge5" class="edge">
<title>Node5&#45;&gt;Node2</title>
<path fill="none" stroke="#9a32cd" stroke-dasharray="5,2" d="M1021.37,-352.68C925.6,-341.43 743.06,-325.81 692,-362.5 641.34,-398.9 632.75,-483.31 631.3,-511.86"/>
<polygon fill="#9a32cd" stroke="#9a32cd" points="1020.76,-356.13 1031.1,-353.85 1021.59,-349.18 1020.76,-356.13"/>
<text text-anchor="middle" x="862" y="-345.5" font-family="Helvetica,sans-Serif" font-size="10.00"> DListMatStack</text>
</g>
<!-- Node6 -->
<g id="node6" class="node">
<title>Node6</title>
<g id="a_node6"><a xlink:href="class_c_imm_lighting.html" target="_top" xlink:title=" ">
<polygon fill="white" stroke="#bfbfbf" points="1282,-499 1205,-499 1205,-480 1282,-480 1282,-499"/>
<text text-anchor="middle" x="1243.5" y="-487" font-family="Helvetica,sans-Serif" font-size="10.00">CImmLighting</text>
</a>
</g>
</g>
<!-- Node6&#45;&gt;Node2 -->
<g id="edge8" class="edge">
<title>Node6&#45;&gt;Node2</title>
<path fill="none" stroke="#9a32cd" stroke-dasharray="5,2" d="M1193.15,-484.01C1190.39,-483.81 1187.66,-483.64 1185,-483.5 1171.68,-482.81 1168.33,-483.14 1155,-483.5 1002.35,-487.67 964.22,-491.33 812,-503.5 760.85,-507.59 701.71,-513.74 665.33,-517.69"/>
<polygon fill="#9a32cd" stroke="#9a32cd" points="1192.73,-487.49 1202.99,-484.84 1193.32,-480.52 1192.73,-487.49"/>
<text text-anchor="middle" x="969.5" y="-496.5" font-family="Helvetica,sans-Serif" font-size="10.00"> ImmLighting</text>
</g>
<!-- Node7&#45;&gt;Node2 -->
<g id="edge18" class="edge">
<title>Node7&#45;&gt;Node2</title>
<path fill="none" stroke="#9a32cd" stroke-dasharray="5,2" d="M928.71,-604.94C873.35,-606.84 770.99,-604.82 692,-571.5 670.3,-562.35 650.22,-542.92 639.38,-531.16"/>
<polygon fill="#9a32cd" stroke="#9a32cd" points="928.75,-608.44 938.6,-604.54 928.46,-601.45 928.75,-608.44"/>
<text text-anchor="middle" x="743" y="-600.5" font-family="Helvetica,sans-Serif" font-size="10.00"> CurLighting</text>
</g>
<!-- Node7&#45;&gt;Node6 -->
<g id="edge9" class="edge">
<title>Node7&#45;&gt;Node6</title>
<path fill="none" stroke="#63b8ff" d="M1009.94,-610.61C1055.68,-617.78 1131.61,-622.58 1185,-589.5 1218.71,-568.61 1234.67,-520.22 1240.17,-499.36"/>
<polygon fill="#63b8ff" stroke="#63b8ff" points="1010.66,-607.18 1000.21,-608.96 1009.49,-614.08 1010.66,-607.18"/>
</g>
<!-- Node10 -->
<g id="node10" class="node">
<title>Node10</title>
<g id="a_node10"><a xlink:href="class_c_d_list_lighting.html" target="_top" xlink:title=" ">
<polygon fill="white" stroke="#bfbfbf" points="1284,-760 1203,-760 1203,-741 1284,-741 1284,-760"/>
<text text-anchor="middle" x="1243.5" y="-748" font-family="Helvetica,sans-Serif" font-size="10.00">CDListLighting</text>
</a>
</g>
</g>
<!-- Node7&#45;&gt;Node10 -->
<g id="edge15" class="edge">
<title>Node7&#45;&gt;Node10</title>
<path fill="none" stroke="#63b8ff" d="M1003.31,-617.24C1046.04,-636.96 1117.57,-671.95 1137,-693.5 1150.87,-708.89 1138.72,-723.69 1155,-736.5 1168.3,-746.96 1186.33,-751.02 1202.56,-752.24"/>
<polygon fill="#63b8ff" stroke="#63b8ff" points="1004.79,-614.07 994.24,-613.09 1001.87,-620.43 1004.79,-614.07"/>
</g>
<!-- Node8 -->
<g id="node8" class="node">
<title>Node8</title>
<g id="a_node8"><a xlink:href="class_c_imm_light.html" target="_top" xlink:title=" ">
<polygon fill="white" stroke="#bfbfbf" points="1114.5,-518 1049.5,-518 1049.5,-499 1114.5,-499 1114.5,-518"/>
<text text-anchor="middle" x="1082" y="-506" font-family="Helvetica,sans-Serif" font-size="10.00">CImmLight</text>
</a>
</g>
</g>
<!-- Node8&#45;&gt;Node6 -->
<g id="edge11" class="edge">
<title>Node8&#45;&gt;Node6</title>
<path fill="none" stroke="#9a32cd" stroke-dasharray="5,2" d="M1125.8,-496.06C1135.34,-493.78 1145.45,-491.73 1155,-490.5 1171.27,-488.4 1189.39,-487.9 1204.9,-488.01"/>
<polygon fill="#9a32cd" stroke="#9a32cd" points="1125.25,-492.59 1116.42,-498.44 1126.97,-499.37 1125.25,-492.59"/>
<text text-anchor="middle" x="1170" y="-581.5" font-family="Helvetica,sans-Serif" font-size="10.00"> Light0</text>
<text text-anchor="middle" x="1170" y="-570.5" font-family="Helvetica,sans-Serif" font-size="10.00">Light1</text>
<text text-anchor="middle" x="1170" y="-559.5" font-family="Helvetica,sans-Serif" font-size="10.00">Light2</text>
<text text-anchor="middle" x="1170" y="-548.5" font-family="Helvetica,sans-Serif" font-size="10.00">Light3</text>
<text text-anchor="middle" x="1170" y="-537.5" font-family="Helvetica,sans-Serif" font-size="10.00">Light4</text>
<text text-anchor="middle" x="1170" y="-526.5" font-family="Helvetica,sans-Serif" font-size="10.00">Light5</text>
<text text-anchor="middle" x="1170" y="-515.5" font-family="Helvetica,sans-Serif" font-size="10.00">Light6</text>
<text text-anchor="middle" x="1170" y="-504.5" font-family="Helvetica,sans-Serif" font-size="10.00">Light7</text>
<text text-anchor="middle" x="1170" y="-493.5" font-family="Helvetica,sans-Serif" font-size="10.00">Lights</text>
</g>
<!-- Node9&#45;&gt;Node8 -->
<g id="edge12" class="edge">
<title>Node9&#45;&gt;Node8</title>
<path fill="none" stroke="#63b8ff" d="M896.09,-519.53C937.62,-517.05 1008.35,-512.83 1049.25,-510.39"/>
<polygon fill="#63b8ff" stroke="#63b8ff" points="895.98,-516.03 886.21,-520.12 896.4,-523.01 895.98,-516.03"/>
</g>
<!-- Node11 -->
<g id="node11" class="node">
<title>Node11</title>
<g id="a_node11"><a xlink:href="class_c_d_list_light.html" target="_top" xlink:title=" ">
<polygon fill="white" stroke="#bfbfbf" points="1116,-561 1048,-561 1048,-542 1116,-542 1116,-561"/>
<text text-anchor="middle" x="1082" y="-549" font-family="Helvetica,sans-Serif" font-size="10.00">CDListLight</text>
</a>
</g>
</g>
<!-- Node9&#45;&gt;Node11 -->
<g id="edge17" class="edge">
<title>Node9&#45;&gt;Node11</title>
<path fill="none" stroke="#63b8ff" d="M895.95,-526.03C936.95,-531.68 1006.58,-541.26 1047.73,-546.92"/>
<polygon fill="#63b8ff" stroke="#63b8ff" points="896.58,-522.59 886.2,-524.69 895.63,-529.52 896.58,-522.59"/>
</g>
<!-- Node10&#45;&gt;Node2 -->
<g id="edge14" class="edge">
<title>Node10&#45;&gt;Node2</title>
<path fill="none" stroke="#9a32cd" stroke-dasharray="5,2" d="M1194.92,-763.28C1114.98,-782.79 949.02,-814.91 812,-786.5 755.09,-774.7 730.34,-778.18 692,-734.5 637.44,-672.35 631.5,-564.35 630.99,-531.36"/>
<polygon fill="#9a32cd" stroke="#9a32cd" points="1195.75,-766.68 1204.61,-760.86 1194.06,-759.88 1195.75,-766.68"/>
<text text-anchor="middle" x="969.5" y="-800.5" font-family="Helvetica,sans-Serif" font-size="10.00"> DListLighting</text>
</g>
<!-- Node11&#45;&gt;Node10 -->
<g id="edge16" class="edge">
<title>Node11&#45;&gt;Node10</title>
<path fill="none" stroke="#9a32cd" stroke-dasharray="5,2" d="M1107.59,-567.89C1129.91,-583.7 1162.66,-609.33 1185,-637.5 1211.95,-671.48 1231.47,-720.08 1239.04,-740.67"/>
<polygon fill="#9a32cd" stroke="#9a32cd" points="1109.6,-565.03 1099.38,-562.21 1105.61,-570.78 1109.6,-565.03"/>
<text text-anchor="middle" x="1170" y="-728.5" font-family="Helvetica,sans-Serif" font-size="10.00"> Light0</text>
<text text-anchor="middle" x="1170" y="-717.5" font-family="Helvetica,sans-Serif" font-size="10.00">Light1</text>
<text text-anchor="middle" x="1170" y="-706.5" font-family="Helvetica,sans-Serif" font-size="10.00">Light2</text>
<text text-anchor="middle" x="1170" y="-695.5" font-family="Helvetica,sans-Serif" font-size="10.00">Light3</text>
<text text-anchor="middle" x="1170" y="-684.5" font-family="Helvetica,sans-Serif" font-size="10.00">Light4</text>
<text text-anchor="middle" x="1170" y="-673.5" font-family="Helvetica,sans-Serif" font-size="10.00">Light5</text>
<text text-anchor="middle" x="1170" y="-662.5" font-family="Helvetica,sans-Serif" font-size="10.00">Light6</text>
<text text-anchor="middle" x="1170" y="-651.5" font-family="Helvetica,sans-Serif" font-size="10.00">Light7</text>
<text text-anchor="middle" x="1170" y="-640.5" font-family="Helvetica,sans-Serif" font-size="10.00">Lights</text>
</g>
<!-- Node12 -->
<g id="node12" class="node">
<title>Node12</title>
<g id="a_node12"><a xlink:href="class_c_imm_geom_manager.html" target="_top" xlink:title=" ">
<polygon fill="white" stroke="#bfbfbf" points="1135.5,-148 1028.5,-148 1028.5,-129 1135.5,-129 1135.5,-148"/>
<text text-anchor="middle" x="1082" y="-136" font-family="Helvetica,sans-Serif" font-size="10.00">CImmGeomManager</text>
</a>
</g>
</g>
<!-- Node12&#45;&gt;Node2 -->
<g id="edge19" class="edge">
<title>Node12&#45;&gt;Node2</title>
<path fill="none" stroke="#9a32cd" stroke-dasharray="5,2" d="M1016.9,-131.7C961.89,-127.58 880.83,-125.63 812,-140.5 803.44,-142.35 802.06,-145.09 794,-148.5 749,-167.54 722.92,-151.67 692,-189.5 681.38,-202.49 640.95,-457.9 632.54,-511.63"/>
<polygon fill="#9a32cd" stroke="#9a32cd" points="1016.48,-135.17 1026.73,-132.48 1017.04,-128.2 1016.48,-135.17"/>
<text text-anchor="middle" x="862" y="-143.5" font-family="Helvetica,sans-Serif" font-size="10.00"> ImmGManager</text>
</g>
<!-- Node13&#45;&gt;Node2 -->
<g id="edge36" class="edge">
<title>Node13&#45;&gt;Node2</title>
<path fill="none" stroke="#9a32cd" stroke-dasharray="5,2" d="M806.89,-246.96C764.07,-246.14 708.79,-248.12 692,-262.5 652.79,-296.08 635.55,-468.44 631.8,-511.66"/>
<polygon fill="#9a32cd" stroke="#9a32cd" points="806.71,-250.46 816.8,-247.21 806.89,-243.46 806.71,-250.46"/>
<text text-anchor="middle" x="743" y="-265.5" font-family="Helvetica,sans-Serif" font-size="10.00"> CurGManager</text>
</g>
<!-- Node13&#45;&gt;Node12 -->
<g id="edge20" class="edge">
<title>Node13&#45;&gt;Node12</title>
<path fill="none" stroke="#63b8ff" d="M916.78,-237.37C945.34,-229.59 980.35,-217.84 1009,-201.5 1034.68,-186.86 1059.46,-162.12 1072.17,-148.4"/>
<polygon fill="#63b8ff" stroke="#63b8ff" points="916.02,-233.95 907.24,-239.88 917.8,-240.72 916.02,-233.95"/>
</g>
<!-- Node21 -->
<g id="node21" class="node">
<title>Node21</title>
<g id="a_node21"><a xlink:href="class_c_d_list_geom_manager.html" target="_top" xlink:title=" ">
<polygon fill="white" stroke="#bfbfbf" points="1137,-262 1027,-262 1027,-243 1137,-243 1137,-262"/>
<text text-anchor="middle" x="1082" y="-250" font-family="Helvetica,sans-Serif" font-size="10.00">CDListGeomManager</text>
</a>
</g>
</g>
<!-- Node13&#45;&gt;Node21 -->
<g id="edge31" class="edge">
<title>Node13&#45;&gt;Node21</title>
<path fill="none" stroke="#63b8ff" d="M917.27,-251.23C921.57,-251.33 925.86,-251.42 930,-251.5 962.11,-252.09 998.06,-252.34 1026.83,-252.45"/>
<polygon fill="#63b8ff" stroke="#63b8ff" points="917.49,-247.73 907.4,-250.97 917.3,-254.73 917.49,-247.73"/>
</g>
<!-- Node14 -->
<g id="node14" class="node">
<title>Node14</title>
<g id="a_node14"><a xlink:href="class_c_vert_array.html" target="_top" xlink:title=" ">
<polygon fill="white" stroke="#bfbfbf" points="662,-240 598,-240 598,-221 662,-221 662,-240"/>
<text text-anchor="middle" x="630" y="-228" font-family="Helvetica,sans-Serif" font-size="10.00">CVertArray</text>
</a>
</g>
</g>
<!-- Node14&#45;&gt;Node13 -->
<g id="edge22" class="edge">
<title>Node14&#45;&gt;Node13</title>
<path fill="none" stroke="#9a32cd" stroke-dasharray="5,2" d="M673.5,-227.31C706.52,-225.6 753.38,-224.85 794,-230.5 806.93,-232.3 820.88,-235.96 832.68,-239.59"/>
<polygon fill="#9a32cd" stroke="#9a32cd" points="673.72,-223.79 663.94,-227.86 674.12,-230.78 673.72,-223.79"/>
<text text-anchor="middle" x="743" y="-233.5" font-family="Helvetica,sans-Serif" font-size="10.00"> VertArray</text>
</g>
<!-- Node15 -->
<g id="node15" class="node">
<title>Node15</title>
<g id="a_node15"><a xlink:href="structt_user_prim_entry.html" target="_top" xlink:title=" ">
<polygon fill="white" stroke="#bfbfbf" points="671.5,-203 588.5,-203 588.5,-184 671.5,-184 671.5,-203"/>
<text text-anchor="middle" x="630" y="-191" font-family="Helvetica,sans-Serif" font-size="10.00">tUserPrimEntry</text>
</a>
</g>
</g>
<!-- Node15&#45;&gt;Node13 -->
<g id="edge23" class="edge">
<title>Node15&#45;&gt;Node13</title>
<path fill="none" stroke="#9a32cd" stroke-dasharray="5,2" d="M683.05,-192.54C715.87,-193.54 758.59,-197.86 794,-211.5 803.21,-215.05 803.58,-219.35 812,-224.5 820.96,-229.98 831.27,-235.36 840.11,-239.73"/>
<polygon fill="#9a32cd" stroke="#9a32cd" points="683.46,-189.05 673.39,-192.34 683.32,-196.05 683.46,-189.05"/>
<text text-anchor="middle" x="743" y="-214.5" font-family="Helvetica,sans-Serif" font-size="10.00"> UserPrimTypes</text>
</g>
<!-- Node16&#45;&gt;Node12 -->
<g id="edge24" class="edge">
<title>Node16&#45;&gt;Node12</title>
<path fill="none" stroke="#9a32cd" stroke-dasharray="5,2" d="M923.53,-72.5C950.26,-78.35 981.74,-86.62 1009,-97.5 1029.98,-105.87 1052.3,-119.39 1066.44,-128.6"/>
<polygon fill="#9a32cd" stroke="#9a32cd" points="924.38,-69.1 913.87,-70.46 922.92,-75.95 924.38,-69.1"/>
<text text-anchor="middle" x="969.5" y="-100.5" font-family="Helvetica,sans-Serif" font-size="10.00"> RendererManager</text>
</g>
<!-- Node17 -->
<g id="node17" class="node">
<title>Node17</title>
<g id="a_node17"><a xlink:href="class_c_renderer_props.html" target="_top" xlink:title=" ">
<polygon fill="white" stroke="#bfbfbf" points="674,-19 586,-19 586,0 674,0 674,-19"/>
<text text-anchor="middle" x="630" y="-7" font-family="Helvetica,sans-Serif" font-size="10.00">CRendererProps</text>
</a>
</g>
</g>
<!-- Node17&#45;&gt;Node16 -->
<g id="edge26" class="edge">
<title>Node17&#45;&gt;Node16</title>
<path fill="none" stroke="#9a32cd" stroke-dasharray="5,2" d="M685.79,-10.66C717.88,-12.54 758.89,-17.03 794,-27.5 812.63,-33.05 832.27,-43.66 845.43,-51.56"/>
<polygon fill="#9a32cd" stroke="#9a32cd" points="686.07,-7.17 675.9,-10.16 685.71,-14.16 686.07,-7.17"/>
<text text-anchor="middle" x="743" y="-30.5" font-family="Helvetica,sans-Serif" font-size="10.00"> RendererRequirements</text>
</g>
<!-- Node18 -->
<g id="node18" class="node">
<title>Node18</title>
<g id="a_node18"><a xlink:href="structt_renderer.html" target="_top" xlink:title=" ">
<polygon fill="white" stroke="#bfbfbf" points="659.5,-56 600.5,-56 600.5,-37 659.5,-37 659.5,-56"/>
<text text-anchor="middle" x="630" y="-44" font-family="Helvetica,sans-Serif" font-size="10.00">tRenderer</text>
</a>
</g>
</g>
<!-- Node18&#45;&gt;Node16 -->
<g id="edge27" class="edge">
<title>Node18&#45;&gt;Node16</title>
<path fill="none" stroke="#9a32cd" stroke-dasharray="5,2" d="M671.45,-43.5C704.53,-41.7 752.45,-40.61 794,-45.5 804.57,-46.74 815.89,-49.06 826.16,-51.55"/>
<polygon fill="#9a32cd" stroke="#9a32cd" points="671.26,-40 661.49,-44.09 671.68,-46.99 671.26,-40"/>
<text text-anchor="middle" x="743" y="-81.5" font-family="Helvetica,sans-Serif" font-size="10.00"> CurrentRenderer</text>
<text text-anchor="middle" x="743" y="-70.5" font-family="Helvetica,sans-Serif" font-size="10.00">DefaultRenderers</text>
<text text-anchor="middle" x="743" y="-59.5" font-family="Helvetica,sans-Serif" font-size="10.00">NewRenderer</text>
<text text-anchor="middle" x="743" y="-48.5" font-family="Helvetica,sans-Serif" font-size="10.00">UserRenderers</text>
</g>
<!-- Node19 -->
<g id="node19" class="node">
<title>Node19</title>
<g id="a_node19"><a xlink:href="class_c_renderer.html" target="_top" xlink:title=" ">
<polygon fill="white" stroke="#666666" points="458.5,-56 396.5,-56 396.5,-37 458.5,-37 458.5,-56"/>
<text text-anchor="middle" x="427.5" y="-44" font-family="Helvetica,sans-Serif" font-size="10.00">CRenderer</text>
</a>
</g>
</g>
<!-- Node19&#45;&gt;Node18 -->
<g id="edge28" class="edge">
<title>Node19&#45;&gt;Node18</title>
<path fill="none" stroke="#9a32cd" stroke-dasharray="5,2" d="M470.4,-46.5C509.31,-46.5 566.2,-46.5 600.22,-46.5"/>
<polygon fill="#9a32cd" stroke="#9a32cd" points="470.47,-43 460.47,-46.5 470.47,-50 470.47,-43"/>
<text text-anchor="middle" x="530.5" y="-49.5" font-family="Helvetica,sans-Serif" font-size="10.00"> renderer</text>
</g>
<!-- Node20 -->
<g id="node20" class="node">
<title>Node20</title>
<g id="a_node20"><a xlink:href="class_c_geometry_block.html" target="_top" xlink:title=" ">
<polygon fill="white" stroke="#bfbfbf" points="907,-180 817,-180 817,-161 907,-161 907,-180"/>
<text text-anchor="middle" x="862" y="-168" font-family="Helvetica,sans-Serif" font-size="10.00">CGeometryBlock</text>
</a>
</g>
</g>
<!-- Node20&#45;&gt;Node12 -->
<g id="edge29" class="edge">
<title>Node20&#45;&gt;Node12</title>
<path fill="none" stroke="#9a32cd" stroke-dasharray="5,2" d="M918.33,-158.55C922.27,-157.81 926.19,-157.12 930,-156.5 962.44,-151.19 999.04,-146.79 1028.08,-143.66"/>
<polygon fill="#9a32cd" stroke="#9a32cd" points="917.87,-155.07 908.71,-160.4 919.2,-161.94 917.87,-155.07"/>
<text text-anchor="middle" x="969.5" y="-159.5" font-family="Helvetica,sans-Serif" font-size="10.00"> Geometry</text>
</g>
<!-- Node20&#45;&gt;Node21 -->
<g id="edge35" class="edge">
<title>Node20&#45;&gt;Node21</title>
<path fill="none" stroke="#9a32cd" stroke-dasharray="5,2" d="M912.71,-183.48C941.31,-191.52 977.66,-202.74 1009,-215.5 1028.39,-223.4 1049.6,-234.64 1063.94,-242.65"/>
<polygon fill="#9a32cd" stroke="#9a32cd" points="913.79,-180.14 903.22,-180.85 911.92,-186.89 913.79,-180.14"/>
<text text-anchor="middle" x="969.5" y="-218.5" font-family="Helvetica,sans-Serif" font-size="10.00"> Geometry</text>
</g>
<!-- Node21&#45;&gt;Node2 -->
<g id="edge30" class="edge">
<title>Node21&#45;&gt;Node2</title>
<path fill="none" stroke="#9a32cd" stroke-dasharray="5,2" d="M1021.3,-264.76C913.8,-286.93 698.16,-331.95 692,-337.5 638.72,-385.46 631.87,-480.99 631.08,-511.73"/>
<polygon fill="#9a32cd" stroke="#9a32cd" points="1021.73,-268.24 1030.81,-262.8 1020.31,-261.39 1021.73,-268.24"/>
<text text-anchor="middle" x="862" y="-311.5" font-family="Helvetica,sans-Serif" font-size="10.00"> DListGManager</text>
</g>
<!-- Node22 -->
<g id="node22" class="node">
<title>Node22</title>
<g id="a_node22"><a xlink:href="class_c_d_list.html" target="_top" xlink:title=" ">
<polygon fill="white" stroke="#bfbfbf" points="257,-267 210,-267 210,-248 257,-248 257,-267"/>
<text text-anchor="middle" x="233.5" y="-255" font-family="Helvetica,sans-Serif" font-size="10.00">CDList</text>
</a>
</g>
</g>
<!-- Node22&#45;&gt;Node21 -->
<g id="edge32" class="edge">
<title>Node22&#45;&gt;Node21</title>
<path fill="none" stroke="#9a32cd" stroke-dasharray="5,2" d="M267.74,-245.47C329.44,-223.86 466.31,-179.23 586,-163.5 740.11,-143.25 778.25,-192.87 930,-226.5 961.81,-233.55 997.76,-239.81 1026.59,-244.41"/>
<polygon fill="#9a32cd" stroke="#9a32cd" points="266.8,-242.09 258.54,-248.72 269.13,-248.69 266.8,-242.09"/>
<text text-anchor="middle" x="630" y="-166.5" font-family="Helvetica,sans-Serif" font-size="10.00"> CurDList</text>
</g>
<!-- Node27 -->
<g id="node27" class="node">
<title>Node27</title>
<g id="a_node27"><a xlink:href="class_c_d_list_manager.html" target="_top" xlink:title=" ">
<polygon fill="white" stroke="#bfbfbf" points="469.5,-287 385.5,-287 385.5,-268 469.5,-268 469.5,-287"/>
<text text-anchor="middle" x="427.5" y="-275" font-family="Helvetica,sans-Serif" font-size="10.00">CDListManager</text>
</a>
</g>
</g>
<!-- Node22&#45;&gt;Node27 -->
<g id="edge45" class="edge">
<title>Node22&#45;&gt;Node27</title>
<path fill="none" stroke="#9a32cd" stroke-dasharray="5,2" d="M268.48,-261.04C301.1,-264.44 350.41,-269.57 385.26,-273.2"/>
<polygon fill="#9a32cd" stroke="#9a32cd" points="269.09,-257.58 258.78,-260.03 268.37,-264.55 269.09,-257.58"/>
<text text-anchor="middle" x="327" y="-295.5" font-family="Helvetica,sans-Serif" font-size="10.00"> Lists</text>
<text text-anchor="middle" x="327" y="-284.5" font-family="Helvetica,sans-Serif" font-size="10.00">ListsToBeFreed</text>
<text text-anchor="middle" x="327" y="-273.5" font-family="Helvetica,sans-Serif" font-size="10.00">OpenList</text>
</g>
<!-- Node23 -->
<g id="node23" class="node">
<title>Node23</title>
<g id="a_node23"><a xlink:href="class_c_d_list_cmd_block.html" target="_top" xlink:title=" ">
<polygon fill="white" stroke="#bfbfbf" points="92,-267 0,-267 0,-248 92,-248 92,-267"/>
<text text-anchor="middle" x="46" y="-255" font-family="Helvetica,sans-Serif" font-size="10.00">CDListCmdBlock</text>
</a>
</g>
</g>
<!-- Node23&#45;&gt;Node22 -->
<g id="edge33" class="edge">
<title>Node23&#45;&gt;Node22</title>
<path fill="none" stroke="#9a32cd" stroke-dasharray="5,2" d="M103.61,-257.5C139.23,-257.5 183.28,-257.5 209.57,-257.5"/>
<polygon fill="#9a32cd" stroke="#9a32cd" points="103.89,-254 93.89,-257.5 103.89,-261 103.89,-254"/>
<text text-anchor="middle" x="142.5" y="-271.5" font-family="Helvetica,sans-Serif" font-size="10.00"> CurCmdBlock</text>
<text text-anchor="middle" x="142.5" y="-260.5" font-family="Helvetica,sans-Serif" font-size="10.00">FirstCmdBlock</text>
</g>
<!-- Node23&#45;&gt;Node23 -->
<g id="edge34" class="edge">
<title>Node23&#45;&gt;Node23</title>
<path fill="none" stroke="#9a32cd" stroke-dasharray="5,2" d="M28.87,-278.43C31.01,-282.29 36.72,-285 46,-285 62.96,-285 68,-275.94 61.11,-267.37"/>
<polygon fill="#9a32cd" stroke="#9a32cd" points="32.27,-279.32 30.62,-268.86 25.38,-278.07 32.27,-279.32"/>
<text text-anchor="middle" x="46" y="-288" font-family="Helvetica,sans-Serif" font-size="10.00"> NextBlock</text>
</g>
<!-- Node24&#45;&gt;Node2 -->
<g id="edge37" class="edge">
<title>Node24&#45;&gt;Node2</title>
<path fill="none" stroke="#9a32cd" stroke-dasharray="5,2" d="M486.46,-498.35C488.67,-498.74 490.85,-499.13 493,-499.5 527.52,-505.5 567.07,-511.84 594.59,-516.16"/>
<polygon fill="#9a32cd" stroke="#9a32cd" points="487.28,-494.94 476.82,-496.61 486.04,-501.83 487.28,-494.94"/>
<text text-anchor="middle" x="530.5" y="-514.5" font-family="Helvetica,sans-Serif" font-size="10.00"> MaterialManager</text>
</g>
<!-- Node25&#45;&gt;Node24 -->
<g id="edge39" class="edge">
<title>Node25&#45;&gt;Node24</title>
<path fill="none" stroke="#9a32cd" stroke-dasharray="5,2" d="M283.76,-509.8C313.33,-505.18 350.72,-499.34 379.82,-494.79"/>
<polygon fill="#9a32cd" stroke="#9a32cd" points="283.27,-506.34 273.93,-511.34 284.35,-513.25 283.27,-506.34"/>
<text text-anchor="middle" x="327" y="-510.5" font-family="Helvetica,sans-Serif" font-size="10.00"> ImmMaterial</text>
</g>
<!-- Node26&#45;&gt;Node24 -->
<g id="edge41" class="edge">
<title>Node26&#45;&gt;Node24</title>
<path fill="none" stroke="#9a32cd" stroke-dasharray="5,2" d="M285.58,-437.1C309.26,-440.2 337.51,-445.27 362,-453.5 379.76,-459.47 398.54,-469.9 411.23,-477.64"/>
<polygon fill="#9a32cd" stroke="#9a32cd" points="286.21,-433.65 275.86,-435.92 285.36,-440.6 286.21,-433.65"/>
<text text-anchor="middle" x="327" y="-456.5" font-family="Helvetica,sans-Serif" font-size="10.00"> DListMaterial</text>
</g>
<!-- Node27&#45;&gt;Node2 -->
<g id="edge44" class="edge">
<title>Node27&#45;&gt;Node2</title>
<path fill="none" stroke="#9a32cd" stroke-dasharray="5,2" d="M443.89,-296.23C483.95,-344.97 590.4,-474.52 620.79,-511.51"/>
<polygon fill="#9a32cd" stroke="#9a32cd" points="446.62,-294.04 437.57,-288.54 441.21,-298.48 446.62,-294.04"/>
<text text-anchor="middle" x="530.5" y="-445.5" font-family="Helvetica,sans-Serif" font-size="10.00"> DListManager</text>
</g>
<!-- Node28&#45;&gt;Node2 -->
<g id="edge46" class="edge">
<title>Node28&#45;&gt;Node2</title>
<path fill="none" stroke="#9a32cd" stroke-dasharray="5,2" d="M812.06,-920.06C765.17,-911.52 700.31,-898.35 692,-889.5 641.34,-835.57 632.52,-584.73 631.21,-531.46"/>
<polygon fill="#9a32cd" stroke="#9a32cd" points="811.3,-923.48 821.77,-921.8 812.54,-916.59 811.3,-923.48"/>
<text text-anchor="middle" x="743" y="-918.5" font-family="Helvetica,sans-Serif" font-size="10.00"> TexManager</text>
</g>
<!-- Node29 -->
<g id="node29" class="node">
<title>Node29</title>
<g id="a_node29"><a xlink:href="class_c_m_m_texture.html" target="_top" xlink:title=" ">
<polygon fill="white" stroke="#bfbfbf" points="666,-955 594,-955 594,-936 666,-936 666,-955"/>
<text text-anchor="middle" x="630" y="-943" font-family="Helvetica,sans-Serif" font-size="10.00">CMMTexture</text>
</a>
</g>
</g>
<!-- Node29&#45;&gt;Node28 -->
<g id="edge48" class="edge">
<title>Node29&#45;&gt;Node28</title>
<path fill="none" stroke="#9a32cd" stroke-dasharray="5,2" d="M677.7,-942.05C720.61,-938.88 783.41,-934.24 823.23,-931.29"/>
<polygon fill="#9a32cd" stroke="#9a32cd" points="677.66,-938.54 667.94,-942.77 678.17,-945.52 677.66,-938.54"/>
<text text-anchor="middle" x="743" y="-976.5" font-family="Helvetica,sans-Serif" font-size="10.00"> CurTexture</text>
<text text-anchor="middle" x="743" y="-965.5" font-family="Helvetica,sans-Serif" font-size="10.00">DefaultTex</text>
<text text-anchor="middle" x="743" y="-954.5" font-family="Helvetica,sans-Serif" font-size="10.00">LastTexSent</text>
<text text-anchor="middle" x="743" y="-943.5" font-family="Helvetica,sans-Serif" font-size="10.00">TexNames</text>
</g>
<!-- Node30 -->
<g id="node30" class="node">
<title>Node30</title>
<g id="a_node30"><a xlink:title=" ">
<polygon fill="white" stroke="#bfbfbf" points="464.5,-955 390.5,-955 390.5,-936 464.5,-936 464.5,-955"/>
<text text-anchor="middle" x="427.5" y="-943" font-family="Helvetica,sans-Serif" font-size="10.00">GS::CTexture</text>
</a>
</g>
</g>
<!-- Node30&#45;&gt;Node29 -->
<g id="edge49" class="edge">
<title>Node30&#45;&gt;Node29</title>
<path fill="none" stroke="#63b8ff" d="M476.04,-945.5C512.13,-945.5 560.95,-945.5 593.63,-945.5"/>
<polygon fill="#63b8ff" stroke="#63b8ff" points="476.32,-942 466.32,-945.5 476.32,-949 476.32,-942"/>
</g>
<!-- Node31 -->
<g id="node31" class="node">
<title>Node31</title>
<g id="a_node31"><a xlink:href="class_c_m_m_clut.html" target="_top" xlink:title=" ">
<polygon fill="white" stroke="#666666" points="658.5,-1022 601.5,-1022 601.5,-1003 658.5,-1003 658.5,-1022"/>
<text text-anchor="middle" x="630" y="-1010" font-family="Helvetica,sans-Serif" font-size="10.00">CMMClut</text>
</a>
</g>
</g>
<!-- Node31&#45;&gt;Node28 -->
<g id="edge50" class="edge">
<title>Node31&#45;&gt;Node28</title>
<path fill="none" stroke="#9a32cd" stroke-dasharray="5,2" d="M670.31,-1012.97C704.5,-1011.96 754.61,-1006.96 794,-988.5 819.45,-976.57 842.23,-951.76 853.52,-938.07"/>
<polygon fill="#9a32cd" stroke="#9a32cd" points="670.37,-1009.47 660.43,-1013.15 670.49,-1016.47 670.37,-1009.47"/>
<text text-anchor="middle" x="743" y="-1014.5" font-family="Helvetica,sans-Serif" font-size="10.00"> CurClut</text>
</g>
<!-- Node32 -->
<g id="node32" class="node">
<title>Node32</title>
<g id="a_node32"><a xlink:title=" ">
<polygon fill="white" stroke="#bfbfbf" points="457,-1022 398,-1022 398,-1003 457,-1003 457,-1022"/>
<text text-anchor="middle" x="427.5" y="-1010" font-family="Helvetica,sans-Serif" font-size="10.00">GS::CClut</text>
</a>
</g>
</g>
<!-- Node32&#45;&gt;Node31 -->
<g id="edge51" class="edge">
<title>Node32&#45;&gt;Node31</title>
<path fill="none" stroke="#63b8ff" d="M468.51,-1012.5C507.85,-1012.5 566.86,-1012.5 601.29,-1012.5"/>
<polygon fill="#63b8ff" stroke="#63b8ff" points="468.74,-1009 458.74,-1012.5 468.74,-1016 468.74,-1009"/>
</g>
<!-- Node33 -->
<g id="node33" class="node">
<title>Node33</title>
<g id="a_node33"><a xlink:href="class_c_imm_draw_context.html" target="_top" xlink:title=" ">
<polygon fill="white" stroke="#bfbfbf" points="1131,-758 1033,-758 1033,-739 1131,-739 1131,-758"/>
<text text-anchor="middle" x="1082" y="-746" font-family="Helvetica,sans-Serif" font-size="10.00">CImmDrawContext</text>
</a>
</g>
</g>
<!-- Node33&#45;&gt;Node2 -->
<g id="edge52" class="edge">
<title>Node33&#45;&gt;Node2</title>
<path fill="none" stroke="#9a32cd" stroke-dasharray="5,2" d="M1021.09,-745C915.14,-738.58 704.63,-724.63 692,-714.5 633.06,-667.23 630.09,-563.23 630.66,-531.13"/>
<polygon fill="#9a32cd" stroke="#9a32cd" points="1020.84,-748.5 1031.03,-745.6 1021.26,-741.51 1020.84,-748.5"/>
<text text-anchor="middle" x="862" y="-740.5" font-family="Helvetica,sans-Serif" font-size="10.00"> ImmDrawContext</text>
</g>
<!-- Node34&#45;&gt;Node2 -->
<g id="edge58" class="edge">
<title>Node34&#45;&gt;Node2</title>
<path fill="none" stroke="#9a32cd" stroke-dasharray="5,2" d="M815.97,-694.82C779.3,-702.06 727.9,-705.49 692,-680.5 640.8,-644.86 632.56,-559.95 631.25,-531.21"/>
<polygon fill="#9a32cd" stroke="#9a32cd" points="816.33,-698.33 825.37,-692.8 814.85,-691.48 816.33,-698.33"/>
<text text-anchor="middle" x="743" y="-702.5" font-family="Helvetica,sans-Serif" font-size="10.00"> CurDrawContext</text>
</g>
<!-- Node34&#45;&gt;Node33 -->
<g id="edge53" class="edge">
<title>Node34&#45;&gt;Node33</title>
<path fill="none" stroke="#63b8ff" d="M912.95,-689.5C941.92,-694.77 978.57,-703.53 1009,-717.5 1017.97,-721.62 1018.22,-726 1027,-730.5 1032.98,-733.56 1039.59,-736.27 1046.08,-738.59"/>
<polygon fill="#63b8ff" stroke="#63b8ff" points="913.8,-686.1 903.35,-687.85 912.61,-693 913.8,-686.1"/>
</g>
<!-- Node36 -->
<g id="node36" class="node">
<title>Node36</title>
<g id="a_node36"><a xlink:href="class_c_d_list_draw_context.html" target="_top" xlink:title=" ">
<polygon fill="white" stroke="#bfbfbf" points="1133,-721 1031,-721 1031,-702 1133,-702 1133,-721"/>
<text text-anchor="middle" x="1082" y="-709" font-family="Helvetica,sans-Serif" font-size="10.00">CDListDrawContext</text>
</a>
</g>
</g>
<!-- Node34&#45;&gt;Node36 -->
<g id="edge57" class="edge">
<title>Node34&#45;&gt;Node36</title>
<path fill="none" stroke="#63b8ff" d="M913.19,-683.59C941.48,-684.79 977.38,-687.29 1009,-692.5 1022.14,-694.66 1036.36,-698.16 1048.67,-701.57"/>
<polygon fill="#63b8ff" stroke="#63b8ff" points="913.6,-680.1 903.48,-683.22 913.34,-687.1 913.6,-680.1"/>
</g>
<!-- Node35 -->
<g id="node35" class="node">
<title>Node35</title>
<g id="a_node35"><a xlink:href="class_c_clear_env.html" target="_top" xlink:title=" ">
<polygon fill="white" stroke="#bfbfbf" points="893,-777 831,-777 831,-758 893,-758 893,-777"/>
<text text-anchor="middle" x="862" y="-765" font-family="Helvetica,sans-Serif" font-size="10.00">CClearEnv</text>
</a>
</g>
</g>
<!-- Node35&#45;&gt;Node33 -->
<g id="edge55" class="edge">
<title>Node35&#45;&gt;Node33</title>
<path fill="none" stroke="#9a32cd" stroke-dasharray="5,2" d="M904.53,-763.88C941.01,-760.7 994.1,-756.07 1032.52,-752.73"/>
<polygon fill="#9a32cd" stroke="#9a32cd" points="904.48,-760.37 894.82,-764.73 905.09,-767.35 904.48,-760.37"/>
<text text-anchor="middle" x="969.5" y="-763.5" font-family="Helvetica,sans-Serif" font-size="10.00"> ClearEnv</text>
</g>
<!-- Node36&#45;&gt;Node2 -->
<g id="edge56" class="edge">
<title>Node36&#45;&gt;Node2</title>
<path fill="none" stroke="#9a32cd" stroke-dasharray="5,2" d="M1049.53,-696.86C1037.06,-691.34 1022.5,-685.26 1009,-680.5 966.8,-665.62 955.59,-663.61 912,-653.5 815.11,-631.03 775.07,-667.19 692,-612.5 661.18,-592.21 642.04,-550.41 634.58,-531.36"/>
<polygon fill="#9a32cd" stroke="#9a32cd" points="1047.94,-699.98 1058.5,-700.89 1050.81,-693.59 1047.94,-699.98"/>
<text text-anchor="middle" x="862" y="-656.5" font-family="Helvetica,sans-Serif" font-size="10.00"> DListDrawContext</text>
</g>
<!-- Node37&#45;&gt;Node2 -->
<g id="edge59" class="edge">
<title>Node37&#45;&gt;Node2</title>
<path fill="none" stroke="#9a32cd" stroke-dasharray="5,2" d="M806.22,-843.08C763.3,-841.56 708.21,-836.6 692,-821.5 648.05,-780.57 634.16,-578.1 631.51,-531.21"/>
<polygon fill="#9a32cd" stroke="#9a32cd" points="806.07,-846.58 816.17,-843.37 806.28,-839.58 806.07,-846.58"/>
<text text-anchor="middle" x="743" y="-844.5" font-family="Helvetica,sans-Serif" font-size="10.00"> DisplayContext</text>
</g>
</g>
</svg>
