<?xml version="1.0" encoding="UTF-8" standalone="no"?>
<!DOCTYPE svg PUBLIC "-//W3C//DTD SVG 1.1//EN"
 "http://www.w3.org/Graphics/SVG/1.1/DTD/svg11.dtd">
<!-- Generated by graphviz version 7.0.5 (20221223.1930)
 -->
<!-- Title: CDList Pages: 1 -->
<svg width="166pt" height="104pt"
 viewBox="0.00 0.00 166.00 104.00" xmlns="http://www.w3.org/2000/svg" xmlns:xlink="http://www.w3.org/1999/xlink">
<g id="graph0" class="graph" transform="scale(1 1) rotate(0) translate(4 100)">
<title>CDList</title>
<!-- Node1 -->
<g id="node1" class="node">
<title>Node1</title>
<g id="a_node1"><a xlink:title=" ">
<polygon fill="#999999" stroke="#666666" points="69.5,-19 22.5,-19 22.5,0 69.5,0 69.5,-19"/>
<text text-anchor="middle" x="46" y="-7" font-family="Helvetica,sans-Serif" font-size="10.00">CDList</text>
</a>
</g>
</g>
<!-- Node2 -->
<g id="node2" class="node">
<title>Node2</title>
<g id="a_node2"><a xlink:href="class_c_d_list_cmd_block.html" target="_top" xlink:title=" ">
<polygon fill="white" stroke="#bfbfbf" points="92,-96 0,-96 0,-77 92,-77 92,-96"/>
<text text-anchor="middle" x="46" y="-84" font-family="Helvetica,sans-Serif" font-size="10.00">CDListCmdBlock</text>
</a>
</g>
</g>
<!-- Node2&#45;&gt;Node1 -->
<g id="edge1" class="edge">
<title>Node2&#45;&gt;Node1</title>
<path fill="none" stroke="#9a32cd" stroke-dasharray="5,2" d="M46,-65.42C46,-50.43 46,-30.66 46,-19.39"/>
<polygon fill="#9a32cd" stroke="#9a32cd" points="42.5,-65.09 46,-75.09 49.5,-65.09 42.5,-65.09"/>
<text text-anchor="middle" x="78.5" y="-51" font-family="Helvetica,sans-Serif" font-size="10.00"> CurCmdBlock</text>
<text text-anchor="middle" x="78.5" y="-40" font-family="Helvetica,sans-Serif" font-size="10.00">FirstCmdBlock</text>
</g>
<!-- Node2&#45;&gt;Node2 -->
<g id="edge2" class="edge">
<title>Node2&#45;&gt;Node2</title>
<path fill="none" stroke="#9a32cd" stroke-dasharray="5,2" d="M103.43,-91.79C107.51,-90.59 110,-88.83 110,-86.5 110,-82.48 102.55,-80.14 92.31,-79.48"/>
<polygon fill="#9a32cd" stroke="#9a32cd" points="103.15,-88.29 93.81,-93.29 104.23,-95.21 103.15,-88.29"/>
<text text-anchor="middle" x="134" y="-84" font-family="Helvetica,sans-Serif" font-size="10.00"> NextBlock</text>
</g>
</g>
</svg>
