<?xml version="1.0" encoding="UTF-8" standalone="no"?>
<!DOCTYPE svg PUBLIC "-//W3C//DTD SVG 1.1//EN"
 "http://www.w3.org/Graphics/SVG/1.1/DTD/svg11.dtd">
<!-- Generated by graphviz version 7.0.5 (20221223.1930)
 -->
<!-- Title: CMaterialManager Pages: 1 -->
<svg width="1258pt" height="1306pt"
 viewBox="0.00 0.00 1258.00 1306.00" xmlns="http://www.w3.org/2000/svg" xmlns:xlink="http://www.w3.org/1999/xlink">
<g id="graph0" class="graph" transform="scale(1 1) rotate(0) translate(4 1302)">
<title>CMaterialManager</title>
<!-- Node1 -->
<g id="node1" class="node">
<title>Node1</title>
<g id="a_node1"><a xlink:title=" ">
<polygon fill="#999999" stroke="#666666" points="441,-429.5 346,-429.5 346,-410.5 441,-410.5 441,-429.5"/>
<text text-anchor="middle" x="393.5" y="-417.5" font-family="Helvetica,sans-Serif" font-size="10.00">CMaterialManager</text>
</a>
</g>
</g>
<!-- Node2 -->
<g id="node2" class="node">
<title>Node2</title>
<g id="a_node2"><a xlink:href="class_c_g_l_context.html" target="_top" xlink:title=" ">
<polygon fill="white" stroke="#bfbfbf" points="631,-606.5 561,-606.5 561,-587.5 631,-587.5 631,-606.5"/>
<text text-anchor="middle" x="596" y="-594.5" font-family="Helvetica,sans-Serif" font-size="10.00">CGLContext</text>
</a>
</g>
</g>
<!-- Node1&#45;&gt;Node2 -->
<g id="edge37" class="edge">
<title>Node1&#45;&gt;Node2</title>
<path fill="none" stroke="#9a32cd" stroke-dasharray="5,2" d="M449.94,-433.23C477.8,-442.14 510.52,-456.32 534,-478 568.28,-509.66 586.34,-564.96 592.51,-587.27"/>
<polygon fill="#9a32cd" stroke="#9a32cd" points="451.18,-429.95 440.59,-430.4 449.15,-436.65 451.18,-429.95"/>
<text text-anchor="middle" x="496.5" y="-481" font-family="Helvetica,sans-Serif" font-size="10.00"> MaterialManager</text>
</g>
<!-- Node2&#45;&gt;Node1 -->
<g id="edge1" class="edge">
<title>Node2&#45;&gt;Node1</title>
<path fill="none" stroke="#9a32cd" stroke-dasharray="5,2" d="M582.1,-578.14C570.84,-562.79 553.31,-541.37 534,-527 504.64,-505.15 488.43,-514.75 459,-493 434.11,-474.61 411.84,-445.21 401.17,-429.94"/>
<polygon fill="#9a32cd" stroke="#9a32cd" points="579.03,-579.87 587.68,-585.99 584.74,-575.81 579.03,-579.87"/>
<text text-anchor="middle" x="496.5" y="-530" font-family="Helvetica,sans-Serif" font-size="10.00"> GLContext</text>
</g>
<!-- Node4 -->
<g id="node4" class="node">
<title>Node4</title>
<g id="a_node4"><a xlink:href="class_c_matrix_stack.html" target="_top" xlink:title=" ">
<polygon fill="white" stroke="#bfbfbf" points="865.5,-732.5 790.5,-732.5 790.5,-713.5 865.5,-713.5 865.5,-732.5"/>
<text text-anchor="middle" x="828" y="-720.5" font-family="Helvetica,sans-Serif" font-size="10.00">CMatrixStack</text>
</a>
</g>
</g>
<!-- Node2&#45;&gt;Node4 -->
<g id="edge4" class="edge">
<title>Node2&#45;&gt;Node4</title>
<path fill="none" stroke="#9a32cd" stroke-dasharray="5,2" d="M600.42,-617.89C606.4,-646.84 621.76,-698.14 658,-721 697.71,-746.05 753.8,-740.57 790.28,-732.93"/>
<polygon fill="#9a32cd" stroke="#9a32cd" points="603.88,-617.36 598.62,-608.17 597,-618.64 603.88,-617.36"/>
<text text-anchor="middle" x="709" y="-742" font-family="Helvetica,sans-Serif" font-size="10.00"> GLContext</text>
</g>
<!-- Node7 -->
<g id="node7" class="node">
<title>Node7</title>
<g id="a_node7"><a xlink:href="class_c_lighting.html" target="_top" xlink:title=" ">
<polygon fill="white" stroke="#bfbfbf" points="964.5,-885.5 906.5,-885.5 906.5,-866.5 964.5,-866.5 964.5,-885.5"/>
<text text-anchor="middle" x="935.5" y="-873.5" font-family="Helvetica,sans-Serif" font-size="10.00">CLighting</text>
</a>
</g>
</g>
<!-- Node2&#45;&gt;Node7 -->
<g id="edge10" class="edge">
<title>Node2&#45;&gt;Node7</title>
<path fill="none" stroke="#9a32cd" stroke-dasharray="5,2" d="M599.51,-618.18C606.15,-670.55 625.91,-803.93 658,-833 676.27,-849.55 839.43,-866.89 906.2,-873.36"/>
<polygon fill="#9a32cd" stroke="#9a32cd" points="603.01,-617.99 598.32,-608.49 596.06,-618.84 603.01,-617.99"/>
<text text-anchor="middle" x="709" y="-859" font-family="Helvetica,sans-Serif" font-size="10.00"> GLContext</text>
</g>
<!-- Node9 -->
<g id="node9" class="node">
<title>Node9</title>
<g id="a_node9"><a xlink:href="class_c_light.html" target="_top" xlink:title=" ">
<polygon fill="white" stroke="#bfbfbf" points="850.5,-1004.5 805.5,-1004.5 805.5,-985.5 850.5,-985.5 850.5,-1004.5"/>
<text text-anchor="middle" x="828" y="-992.5" font-family="Helvetica,sans-Serif" font-size="10.00">CLight</text>
</a>
</g>
</g>
<!-- Node2&#45;&gt;Node9 -->
<g id="edge13" class="edge">
<title>Node2&#45;&gt;Node9</title>
<path fill="none" stroke="#9a32cd" stroke-dasharray="5,2" d="M598.72,-618.31C604.16,-681.02 622.72,-863.46 658,-910 695.2,-959.07 768.57,-981.86 805.17,-990.54"/>
<polygon fill="#9a32cd" stroke="#9a32cd" points="602.21,-618.01 597.89,-608.34 595.23,-618.6 602.21,-618.01"/>
<text text-anchor="middle" x="709" y="-979" font-family="Helvetica,sans-Serif" font-size="10.00"> GLContext</text>
</g>
<!-- Node13 -->
<g id="node13" class="node">
<title>Node13</title>
<g id="a_node13"><a xlink:href="class_c_geom_manager.html" target="_top" xlink:title=" ">
<polygon fill="white" stroke="#bfbfbf" points="871.5,-189.5 784.5,-189.5 784.5,-170.5 871.5,-170.5 871.5,-189.5"/>
<text text-anchor="middle" x="828" y="-177.5" font-family="Helvetica,sans-Serif" font-size="10.00">CGeomManager</text>
</a>
</g>
</g>
<!-- Node2&#45;&gt;Node13 -->
<g id="edge21" class="edge">
<title>Node2&#45;&gt;Node13</title>
<path fill="none" stroke="#9a32cd" stroke-dasharray="5,2" d="M603.66,-576.37C613.25,-545.82 630.8,-486.61 640,-435 647.52,-392.81 630.3,-275.7 658,-243 688.31,-207.22 717.25,-235.27 760,-216 768.77,-212.05 769.66,-208.79 778,-204 786.71,-199 796.6,-194.02 805.21,-189.91"/>
<polygon fill="#9a32cd" stroke="#9a32cd" points="600.35,-575.23 600.65,-585.82 607.02,-577.35 600.35,-575.23"/>
<text text-anchor="middle" x="709" y="-246" font-family="Helvetica,sans-Serif" font-size="10.00"> GLContext</text>
</g>
<!-- Node16 -->
<g id="node16" class="node">
<title>Node16</title>
<g id="a_node16"><a xlink:href="class_c_renderer_manager.html" target="_top" xlink:title=" ">
<polygon fill="white" stroke="#bfbfbf" points="878,-115.5 778,-115.5 778,-96.5 878,-96.5 878,-115.5"/>
<text text-anchor="middle" x="828" y="-103.5" font-family="Helvetica,sans-Serif" font-size="10.00">CRendererManager</text>
</a>
</g>
</g>
<!-- Node2&#45;&gt;Node16 -->
<g id="edge25" class="edge">
<title>Node2&#45;&gt;Node16</title>
<path fill="none" stroke="#9a32cd" stroke-dasharray="5,2" d="M603.83,-576.4C613.62,-545.89 631.43,-486.72 640,-435 644.75,-406.32 638.97,-195.98 658,-174 688.36,-138.94 717.41,-170.36 760,-152 781.51,-142.73 803.29,-126.14 815.95,-115.62"/>
<polygon fill="#9a32cd" stroke="#9a32cd" points="600.52,-575.25 600.75,-585.84 607.18,-577.42 600.52,-575.25"/>
<text text-anchor="middle" x="709" y="-177" font-family="Helvetica,sans-Serif" font-size="10.00"> GLContext</text>
</g>
<!-- Node25 -->
<g id="node25" class="node">
<title>Node25</title>
<g id="a_node25"><a xlink:href="class_c_tex_manager.html" target="_top" xlink:title=" ">
<polygon fill="white" stroke="#bfbfbf" points="866.5,-1218.5 789.5,-1218.5 789.5,-1199.5 866.5,-1199.5 866.5,-1218.5"/>
<text text-anchor="middle" x="828" y="-1206.5" font-family="Helvetica,sans-Serif" font-size="10.00">CTexManager</text>
</a>
</g>
</g>
<!-- Node2&#45;&gt;Node25 -->
<g id="edge41" class="edge">
<title>Node2&#45;&gt;Node25</title>
<path fill="none" stroke="#9a32cd" stroke-dasharray="5,2" d="M597.8,-617.82C601.78,-715.78 620.62,-1127.81 658,-1170 666.71,-1179.83 742.07,-1194.38 789.17,-1202.65"/>
<polygon fill="#9a32cd" stroke="#9a32cd" points="601.31,-617.95 597.42,-608.1 594.32,-618.23 601.31,-617.95"/>
<text text-anchor="middle" x="709" y="-1199" font-family="Helvetica,sans-Serif" font-size="10.00"> GLContext</text>
</g>
<!-- Node31 -->
<g id="node31" class="node">
<title>Node31</title>
<g id="a_node31"><a xlink:href="class_c_draw_context.html" target="_top" xlink:title=" ">
<polygon fill="white" stroke="#bfbfbf" points="867.5,-562.5 788.5,-562.5 788.5,-543.5 867.5,-543.5 867.5,-562.5"/>
<text text-anchor="middle" x="828" y="-550.5" font-family="Helvetica,sans-Serif" font-size="10.00">CDrawContext</text>
</a>
</g>
</g>
<!-- Node2&#45;&gt;Node31 -->
<g id="edge48" class="edge">
<title>Node2&#45;&gt;Node31</title>
<path fill="none" stroke="#9a32cd" stroke-dasharray="5,2" d="M642.16,-584.66C647.48,-583.35 652.85,-582.1 658,-581 702.35,-571.53 753.84,-563.41 788.21,-558.39"/>
<polygon fill="#9a32cd" stroke="#9a32cd" points="641.69,-581.17 632.85,-587.02 643.41,-587.95 641.69,-581.17"/>
<text text-anchor="middle" x="709" y="-584" font-family="Helvetica,sans-Serif" font-size="10.00"> GLContext</text>
</g>
<!-- Node34 -->
<g id="node34" class="node">
<title>Node34</title>
<g id="a_node34"><a xlink:href="class_c_display_context.html" target="_top" xlink:title=" ">
<polygon fill="white" stroke="#bfbfbf" points="872,-525.5 784,-525.5 784,-506.5 872,-506.5 872,-525.5"/>
<text text-anchor="middle" x="828" y="-513.5" font-family="Helvetica,sans-Serif" font-size="10.00">CDisplayContext</text>
</a>
</g>
</g>
<!-- Node2&#45;&gt;Node34 -->
<g id="edge54" class="edge">
<title>Node2&#45;&gt;Node34</title>
<path fill="none" stroke="#9a32cd" stroke-dasharray="5,2" d="M604.82,-576.59C614.03,-555.79 631.5,-524.69 658,-511 700.9,-488.83 758.45,-497.22 794.1,-506.05"/>
<polygon fill="#9a32cd" stroke="#9a32cd" points="601.61,-575.2 601.03,-585.78 608.08,-577.87 601.61,-575.2"/>
<text text-anchor="middle" x="709" y="-514" font-family="Helvetica,sans-Serif" font-size="10.00"> GLContext</text>
</g>
<!-- Node36 -->
<g id="node36" class="node">
<title>Node36</title>
<g id="a_node36"><a xlink:href="class_c_material.html" target="_top" xlink:title=" ">
<polygon fill="white" stroke="#bfbfbf" points="857,-435.5 799,-435.5 799,-416.5 857,-416.5 857,-435.5"/>
<text text-anchor="middle" x="828" y="-423.5" font-family="Helvetica,sans-Serif" font-size="10.00">CMaterial</text>
</a>
</g>
</g>
<!-- Node2&#45;&gt;Node36 -->
<g id="edge57" class="edge">
<title>Node2&#45;&gt;Node36</title>
<path fill="none" stroke="#9a32cd" stroke-dasharray="5,2" d="M599.6,-576.06C604.72,-544.31 619.21,-484.47 658,-454 668.9,-445.43 753.61,-434.49 798.81,-429.18"/>
<polygon fill="#9a32cd" stroke="#9a32cd" points="596.19,-575.19 598.23,-585.58 603.12,-576.18 596.19,-575.19"/>
<text text-anchor="middle" x="709" y="-457" font-family="Helvetica,sans-Serif" font-size="10.00"> GLContext</text>
</g>
<!-- Node3 -->
<g id="node3" class="node">
<title>Node3</title>
<g id="a_node3"><a xlink:href="class_c_imm_matrix_stack.html" target="_top" xlink:title=" ">
<polygon fill="white" stroke="#bfbfbf" points="1095.5,-754.5 1000.5,-754.5 1000.5,-735.5 1095.5,-735.5 1095.5,-754.5"/>
<text text-anchor="middle" x="1048" y="-742.5" font-family="Helvetica,sans-Serif" font-size="10.00">CImmMatrixStack</text>
</a>
</g>
</g>
<!-- Node3&#45;&gt;Node2 -->
<g id="edge2" class="edge">
<title>Node3&#45;&gt;Node2</title>
<path fill="none" stroke="#9a32cd" stroke-dasharray="5,2" d="M989.03,-754.35C893.94,-768.39 710.17,-789.7 658,-754 607.08,-719.16 598.66,-635.09 597.27,-606.62"/>
<polygon fill="#9a32cd" stroke="#9a32cd" points="989.31,-757.85 998.68,-752.9 988.27,-750.93 989.31,-757.85"/>
<text text-anchor="middle" x="828" y="-787" font-family="Helvetica,sans-Serif" font-size="10.00"> ModelViewMatStack</text>
<text text-anchor="middle" x="828" y="-776" font-family="Helvetica,sans-Serif" font-size="10.00">ProjectionMatStack</text>
</g>
<!-- Node4&#45;&gt;Node2 -->
<g id="edge7" class="edge">
<title>Node4&#45;&gt;Node2</title>
<path fill="none" stroke="#9a32cd" stroke-dasharray="5,2" d="M795.8,-708.35C784.69,-703.57 771.96,-698.57 760,-695 715.81,-681.81 697.34,-700.05 658,-676 630.06,-658.92 610.13,-624 601.61,-606.89"/>
<polygon fill="#9a32cd" stroke="#9a32cd" points="794.35,-711.53 804.91,-712.39 797.19,-705.14 794.35,-711.53"/>
<text text-anchor="middle" x="709" y="-709" font-family="Helvetica,sans-Serif" font-size="10.00"> CurMatrixStack</text>
<text text-anchor="middle" x="709" y="-698" font-family="Helvetica,sans-Serif" font-size="10.00">SavedCurMatStack</text>
</g>
<!-- Node4&#45;&gt;Node3 -->
<g id="edge3" class="edge">
<title>Node4&#45;&gt;Node3</title>
<path fill="none" stroke="#63b8ff" d="M877.38,-727.88C914.03,-731.58 964.1,-736.63 1000.33,-740.29"/>
<polygon fill="#63b8ff" stroke="#63b8ff" points="877.79,-724.41 867.49,-726.88 877.08,-731.37 877.79,-724.41"/>
</g>
<!-- Node5 -->
<g id="node5" class="node">
<title>Node5</title>
<g id="a_node5"><a xlink:href="class_c_d_list_matrix_stack.html" target="_top" xlink:title=" ">
<polygon fill="white" stroke="#bfbfbf" points="1097,-711.5 999,-711.5 999,-692.5 1097,-692.5 1097,-711.5"/>
<text text-anchor="middle" x="1048" y="-699.5" font-family="Helvetica,sans-Serif" font-size="10.00">CDListMatrixStack</text>
</a>
</g>
</g>
<!-- Node4&#45;&gt;Node5 -->
<g id="edge6" class="edge">
<title>Node4&#45;&gt;Node5</title>
<path fill="none" stroke="#63b8ff" d="M877.22,-718.35C913.36,-714.87 962.59,-710.13 998.74,-706.65"/>
<polygon fill="#63b8ff" stroke="#63b8ff" points="877.11,-714.85 867.49,-719.29 877.78,-721.82 877.11,-714.85"/>
</g>
<!-- Node5&#45;&gt;Node2 -->
<g id="edge5" class="edge">
<title>Node5&#45;&gt;Node2</title>
<path fill="none" stroke="#9a32cd" stroke-dasharray="5,2" d="M987.59,-699.36C909.55,-694.25 769.35,-679.32 658,-636 639.73,-628.89 621.07,-615.96 609.29,-606.95"/>
<polygon fill="#9a32cd" stroke="#9a32cd" points="986.94,-702.83 997.13,-699.95 987.37,-695.84 986.94,-702.83"/>
<text text-anchor="middle" x="828" y="-691" font-family="Helvetica,sans-Serif" font-size="10.00"> DListMatStack</text>
</g>
<!-- Node6 -->
<g id="node6" class="node">
<title>Node6</title>
<g id="a_node6"><a xlink:href="class_c_imm_lighting.html" target="_top" xlink:title=" ">
<polygon fill="white" stroke="#bfbfbf" points="1248,-840.5 1171,-840.5 1171,-821.5 1248,-821.5 1248,-840.5"/>
<text text-anchor="middle" x="1209.5" y="-828.5" font-family="Helvetica,sans-Serif" font-size="10.00">CImmLighting</text>
</a>
</g>
</g>
<!-- Node6&#45;&gt;Node2 -->
<g id="edge8" class="edge">
<title>Node6&#45;&gt;Node2</title>
<path fill="none" stroke="#9a32cd" stroke-dasharray="5,2" d="M1159.12,-833.14C1038.28,-837.3 732.18,-841.11 658,-777 604.82,-731.05 597.91,-636.95 597.08,-606.64"/>
<polygon fill="#9a32cd" stroke="#9a32cd" points="1159.18,-836.64 1169.04,-832.78 1158.92,-829.64 1159.18,-836.64"/>
<text text-anchor="middle" x="935.5" y="-837" font-family="Helvetica,sans-Serif" font-size="10.00"> ImmLighting</text>
</g>
<!-- Node7&#45;&gt;Node2 -->
<g id="edge18" class="edge">
<title>Node7&#45;&gt;Node2</title>
<path fill="none" stroke="#9a32cd" stroke-dasharray="5,2" d="M895.27,-881.13C827.56,-889.05 692.65,-900.49 658,-871 616.34,-835.55 600.84,-651.56 597.65,-606.81"/>
<polygon fill="#9a32cd" stroke="#9a32cd" points="895.3,-884.65 904.81,-879.98 894.47,-877.7 895.3,-884.65"/>
<text text-anchor="middle" x="709" y="-893" font-family="Helvetica,sans-Serif" font-size="10.00"> CurLighting</text>
</g>
<!-- Node7&#45;&gt;Node6 -->
<g id="edge9" class="edge">
<title>Node7&#45;&gt;Node6</title>
<path fill="none" stroke="#63b8ff" d="M975.97,-869.47C1028.13,-860.84 1119.39,-845.74 1170.7,-837.25"/>
<polygon fill="#63b8ff" stroke="#63b8ff" points="975.63,-865.98 966.33,-871.06 976.77,-872.89 975.63,-865.98"/>
</g>
<!-- Node10 -->
<g id="node10" class="node">
<title>Node10</title>
<g id="a_node10"><a xlink:href="class_c_d_list_lighting.html" target="_top" xlink:title=" ">
<polygon fill="white" stroke="#bfbfbf" points="1250,-1020.5 1169,-1020.5 1169,-1001.5 1250,-1001.5 1250,-1020.5"/>
<text text-anchor="middle" x="1209.5" y="-1008.5" font-family="Helvetica,sans-Serif" font-size="10.00">CDListLighting</text>
</a>
</g>
</g>
<!-- Node7&#45;&gt;Node10 -->
<g id="edge15" class="edge">
<title>Node7&#45;&gt;Node10</title>
<path fill="none" stroke="#63b8ff" d="M966.49,-890.89C1022.41,-918.64 1141.18,-977.59 1188.47,-1001.06"/>
<polygon fill="#63b8ff" stroke="#63b8ff" points="968.37,-887.91 957.86,-886.6 965.26,-894.18 968.37,-887.91"/>
</g>
<!-- Node8 -->
<g id="node8" class="node">
<title>Node8</title>
<g id="a_node8"><a xlink:href="class_c_imm_light.html" target="_top" xlink:title=" ">
<polygon fill="white" stroke="#bfbfbf" points="1080.5,-1004.5 1015.5,-1004.5 1015.5,-985.5 1080.5,-985.5 1080.5,-1004.5"/>
<text text-anchor="middle" x="1048" y="-992.5" font-family="Helvetica,sans-Serif" font-size="10.00">CImmLight</text>
</a>
</g>
</g>
<!-- Node8&#45;&gt;Node6 -->
<g id="edge11" class="edge">
<title>Node8&#45;&gt;Node6</title>
<path fill="none" stroke="#9a32cd" stroke-dasharray="5,2" d="M1062.79,-975.98C1076.64,-957.37 1099.03,-928.61 1121,-906 1145.54,-880.75 1177.7,-854.77 1195.4,-841"/>
<polygon fill="#9a32cd" stroke="#9a32cd" points="1060.03,-973.82 1056.93,-983.95 1065.67,-977.97 1060.03,-973.82"/>
<text text-anchor="middle" x="1136" y="-997" font-family="Helvetica,sans-Serif" font-size="10.00"> Light0</text>
<text text-anchor="middle" x="1136" y="-986" font-family="Helvetica,sans-Serif" font-size="10.00">Light1</text>
<text text-anchor="middle" x="1136" y="-975" font-family="Helvetica,sans-Serif" font-size="10.00">Light2</text>
<text text-anchor="middle" x="1136" y="-964" font-family="Helvetica,sans-Serif" font-size="10.00">Light3</text>
<text text-anchor="middle" x="1136" y="-953" font-family="Helvetica,sans-Serif" font-size="10.00">Light4</text>
<text text-anchor="middle" x="1136" y="-942" font-family="Helvetica,sans-Serif" font-size="10.00">Light5</text>
<text text-anchor="middle" x="1136" y="-931" font-family="Helvetica,sans-Serif" font-size="10.00">Light6</text>
<text text-anchor="middle" x="1136" y="-920" font-family="Helvetica,sans-Serif" font-size="10.00">Light7</text>
<text text-anchor="middle" x="1136" y="-909" font-family="Helvetica,sans-Serif" font-size="10.00">Lights</text>
</g>
<!-- Node9&#45;&gt;Node8 -->
<g id="edge12" class="edge">
<title>Node9&#45;&gt;Node8</title>
<path fill="none" stroke="#63b8ff" d="M862.09,-995C903.62,-995 974.35,-995 1015.25,-995"/>
<polygon fill="#63b8ff" stroke="#63b8ff" points="862.21,-991.5 852.21,-995 862.21,-998.5 862.21,-991.5"/>
</g>
<!-- Node11 -->
<g id="node11" class="node">
<title>Node11</title>
<g id="a_node11"><a xlink:href="class_c_d_list_light.html" target="_top" xlink:title=" ">
<polygon fill="white" stroke="#bfbfbf" points="1082,-1041.5 1014,-1041.5 1014,-1022.5 1082,-1022.5 1082,-1041.5"/>
<text text-anchor="middle" x="1048" y="-1029.5" font-family="Helvetica,sans-Serif" font-size="10.00">CDListLight</text>
</a>
</g>
</g>
<!-- Node9&#45;&gt;Node11 -->
<g id="edge17" class="edge">
<title>Node9&#45;&gt;Node11</title>
<path fill="none" stroke="#63b8ff" d="M862.08,-1002.29C872.87,-1004.56 884.92,-1007 896,-1009 936.32,-1016.28 982.97,-1023.15 1013.63,-1027.45"/>
<polygon fill="#63b8ff" stroke="#63b8ff" points="862.96,-998.9 852.45,-1000.22 861.49,-1005.74 862.96,-998.9"/>
</g>
<!-- Node10&#45;&gt;Node2 -->
<g id="edge14" class="edge">
<title>Node10&#45;&gt;Node2</title>
<path fill="none" stroke="#9a32cd" stroke-dasharray="5,2" d="M1203.3,-1031.73C1196.06,-1055.69 1180.38,-1094.01 1151,-1111 955.8,-1223.93 809.29,-1158.23 658,-991 604.71,-932.1 597.94,-662.15 597.11,-606.9"/>
<polygon fill="#9a32cd" stroke="#9a32cd" points="1206.66,-1032.73 1205.95,-1022.16 1199.91,-1030.86 1206.66,-1032.73"/>
<text text-anchor="middle" x="935.5" y="-1170" font-family="Helvetica,sans-Serif" font-size="10.00"> DListLighting</text>
</g>
<!-- Node11&#45;&gt;Node10 -->
<g id="edge16" class="edge">
<title>Node11&#45;&gt;Node10</title>
<path fill="none" stroke="#9a32cd" stroke-dasharray="5,2" d="M1088.88,-1018.94C1099.23,-1016.1 1110.44,-1013.5 1121,-1012 1136.49,-1009.8 1153.68,-1009.21 1168.7,-1009.29"/>
<polygon fill="#9a32cd" stroke="#9a32cd" points="1088.15,-1015.51 1079.51,-1021.65 1090.09,-1022.23 1088.15,-1015.51"/>
<text text-anchor="middle" x="1136" y="-1103" font-family="Helvetica,sans-Serif" font-size="10.00"> Light0</text>
<text text-anchor="middle" x="1136" y="-1092" font-family="Helvetica,sans-Serif" font-size="10.00">Light1</text>
<text text-anchor="middle" x="1136" y="-1081" font-family="Helvetica,sans-Serif" font-size="10.00">Light2</text>
<text text-anchor="middle" x="1136" y="-1070" font-family="Helvetica,sans-Serif" font-size="10.00">Light3</text>
<text text-anchor="middle" x="1136" y="-1059" font-family="Helvetica,sans-Serif" font-size="10.00">Light4</text>
<text text-anchor="middle" x="1136" y="-1048" font-family="Helvetica,sans-Serif" font-size="10.00">Light5</text>
<text text-anchor="middle" x="1136" y="-1037" font-family="Helvetica,sans-Serif" font-size="10.00">Light6</text>
<text text-anchor="middle" x="1136" y="-1026" font-family="Helvetica,sans-Serif" font-size="10.00">Light7</text>
<text text-anchor="middle" x="1136" y="-1015" font-family="Helvetica,sans-Serif" font-size="10.00">Lights</text>
</g>
<!-- Node12 -->
<g id="node12" class="node">
<title>Node12</title>
<g id="a_node12"><a xlink:href="class_c_imm_geom_manager.html" target="_top" xlink:title=" ">
<polygon fill="white" stroke="#bfbfbf" points="1101.5,-284.5 994.5,-284.5 994.5,-265.5 1101.5,-265.5 1101.5,-284.5"/>
<text text-anchor="middle" x="1048" y="-272.5" font-family="Helvetica,sans-Serif" font-size="10.00">CImmGeomManager</text>
</a>
</g>
</g>
<!-- Node12&#45;&gt;Node2 -->
<g id="edge19" class="edge">
<title>Node12&#45;&gt;Node2</title>
<path fill="none" stroke="#9a32cd" stroke-dasharray="5,2" d="M1007.85,-288.65C914.34,-321.55 683.79,-404.45 658,-431 613.08,-477.25 600.81,-559.33 597.85,-587.33"/>
<polygon fill="#9a32cd" stroke="#9a32cd" points="1008.85,-292.01 1017.13,-285.4 1006.53,-285.41 1008.85,-292.01"/>
<text text-anchor="middle" x="828" y="-377" font-family="Helvetica,sans-Serif" font-size="10.00"> ImmGManager</text>
</g>
<!-- Node13&#45;&gt;Node2 -->
<g id="edge36" class="edge">
<title>Node13&#45;&gt;Node2</title>
<path fill="none" stroke="#9a32cd" stroke-dasharray="5,2" d="M785.89,-195.99C782.91,-198.33 780.21,-200.98 778,-204 746.6,-246.76 796.17,-283.19 760,-322 728.32,-356 690.46,-311.74 658,-345 629.51,-374.19 649.24,-395.27 640,-435 626.49,-493.1 607.04,-562.03 599.83,-587.19"/>
<polygon fill="#9a32cd" stroke="#9a32cd" points="787.63,-199.03 794.19,-190.72 783.88,-193.12 787.63,-199.03"/>
<text text-anchor="middle" x="709" y="-348" font-family="Helvetica,sans-Serif" font-size="10.00"> CurGManager</text>
</g>
<!-- Node13&#45;&gt;Node12 -->
<g id="edge20" class="edge">
<title>Node13&#45;&gt;Node12</title>
<path fill="none" stroke="#63b8ff" d="M867.45,-195.47C871.29,-197.96 874.9,-200.8 878,-204 891.56,-218.01 880.78,-231.81 896,-244 911.04,-256.04 956.94,-264.35 994.22,-269.31"/>
<polygon fill="#63b8ff" stroke="#63b8ff" points="869.38,-192.54 858.95,-190.69 865.95,-198.64 869.38,-192.54"/>
</g>
<!-- Node21 -->
<g id="node21" class="node">
<title>Node21</title>
<g id="a_node21"><a xlink:href="class_c_d_list_geom_manager.html" target="_top" xlink:title=" ">
<polygon fill="white" stroke="#bfbfbf" points="1103,-162.5 993,-162.5 993,-143.5 1103,-143.5 1103,-162.5"/>
<text text-anchor="middle" x="1048" y="-150.5" font-family="Helvetica,sans-Serif" font-size="10.00">CDListGeomManager</text>
</a>
</g>
</g>
<!-- Node13&#45;&gt;Node21 -->
<g id="edge31" class="edge">
<title>Node13&#45;&gt;Node21</title>
<path fill="none" stroke="#63b8ff" d="M859.5,-165.47C870.71,-160.86 883.68,-156.35 896,-154 927.67,-147.96 963.77,-147.49 992.73,-148.64"/>
<polygon fill="#63b8ff" stroke="#63b8ff" points="858.13,-162.25 850.34,-169.44 860.91,-168.68 858.13,-162.25"/>
</g>
<!-- Node14 -->
<g id="node14" class="node">
<title>Node14</title>
<g id="a_node14"><a xlink:href="class_c_vert_array.html" target="_top" xlink:title=" ">
<polygon fill="white" stroke="#bfbfbf" points="628,-149.5 564,-149.5 564,-130.5 628,-130.5 628,-149.5"/>
<text text-anchor="middle" x="596" y="-137.5" font-family="Helvetica,sans-Serif" font-size="10.00">CVertArray</text>
</a>
</g>
</g>
<!-- Node14&#45;&gt;Node13 -->
<g id="edge22" class="edge">
<title>Node14&#45;&gt;Node13</title>
<path fill="none" stroke="#9a32cd" stroke-dasharray="5,2" d="M639.48,-134.35C672.86,-131.32 720.2,-130.13 760,-141 780.77,-146.67 801.75,-160.49 814.56,-170.05"/>
<polygon fill="#9a32cd" stroke="#9a32cd" points="639.39,-130.84 629.79,-135.34 640.1,-137.81 639.39,-130.84"/>
<text text-anchor="middle" x="709" y="-144" font-family="Helvetica,sans-Serif" font-size="10.00"> VertArray</text>
</g>
<!-- Node15 -->
<g id="node15" class="node">
<title>Node15</title>
<g id="a_node15"><a xlink:href="structt_user_prim_entry.html" target="_top" xlink:title=" ">
<polygon fill="white" stroke="#bfbfbf" points="637.5,-217.5 554.5,-217.5 554.5,-198.5 637.5,-198.5 637.5,-217.5"/>
<text text-anchor="middle" x="596" y="-205.5" font-family="Helvetica,sans-Serif" font-size="10.00">tUserPrimEntry</text>
</a>
</g>
</g>
<!-- Node15&#45;&gt;Node13 -->
<g id="edge23" class="edge">
<title>Node15&#45;&gt;Node13</title>
<path fill="none" stroke="#9a32cd" stroke-dasharray="5,2" d="M649.19,-201.65C689.99,-196.68 746,-189.86 784.19,-185.21"/>
<polygon fill="#9a32cd" stroke="#9a32cd" points="648.86,-198.16 639.36,-202.84 649.71,-205.11 648.86,-198.16"/>
<text text-anchor="middle" x="709" y="-204" font-family="Helvetica,sans-Serif" font-size="10.00"> UserPrimTypes</text>
</g>
<!-- Node16&#45;&gt;Node12 -->
<g id="edge24" class="edge">
<title>Node16&#45;&gt;Node12</title>
<path fill="none" stroke="#9a32cd" stroke-dasharray="5,2" d="M858.57,-121.35C889.21,-137.93 937.75,-166.17 975,-197 1001.12,-218.62 1026.89,-249.46 1039.32,-265.09"/>
<polygon fill="#9a32cd" stroke="#9a32cd" points="860.33,-118.32 849.86,-116.69 857.03,-124.49 860.33,-118.32"/>
<text text-anchor="middle" x="935.5" y="-200" font-family="Helvetica,sans-Serif" font-size="10.00"> RendererManager</text>
</g>
<!-- Node17 -->
<g id="node17" class="node">
<title>Node17</title>
<g id="a_node17"><a xlink:href="class_c_renderer_props.html" target="_top" xlink:title=" ">
<polygon fill="white" stroke="#bfbfbf" points="640,-48.5 552,-48.5 552,-29.5 640,-29.5 640,-48.5"/>
<text text-anchor="middle" x="596" y="-36.5" font-family="Helvetica,sans-Serif" font-size="10.00">CRendererProps</text>
</a>
</g>
</g>
<!-- Node17&#45;&gt;Node16 -->
<g id="edge26" class="edge">
<title>Node17&#45;&gt;Node16</title>
<path fill="none" stroke="#9a32cd" stroke-dasharray="5,2" d="M651.53,-35.95C684.08,-35.99 725.64,-39.37 760,-53 783.99,-62.51 806.32,-83.58 818.17,-96.1"/>
<polygon fill="#9a32cd" stroke="#9a32cd" points="651.89,-32.44 641.93,-36.04 651.97,-39.44 651.89,-32.44"/>
<text text-anchor="middle" x="709" y="-56" font-family="Helvetica,sans-Serif" font-size="10.00"> RendererRequirements</text>
</g>
<!-- Node18 -->
<g id="node18" class="node">
<title>Node18</title>
<g id="a_node18"><a xlink:href="structt_renderer.html" target="_top" xlink:title=" ">
<polygon fill="white" stroke="#bfbfbf" points="625.5,-85.5 566.5,-85.5 566.5,-66.5 625.5,-66.5 625.5,-85.5"/>
<text text-anchor="middle" x="596" y="-73.5" font-family="Helvetica,sans-Serif" font-size="10.00">tRenderer</text>
</a>
</g>
</g>
<!-- Node18&#45;&gt;Node16 -->
<g id="edge27" class="edge">
<title>Node18&#45;&gt;Node16</title>
<path fill="none" stroke="#9a32cd" stroke-dasharray="5,2" d="M637.11,-70.36C670.44,-66.89 718.89,-64.69 760,-74 778.73,-78.24 798.36,-88.39 811.49,-96.13"/>
<polygon fill="#9a32cd" stroke="#9a32cd" points="637.03,-66.84 627.49,-71.45 637.82,-73.8 637.03,-66.84"/>
<text text-anchor="middle" x="709" y="-110" font-family="Helvetica,sans-Serif" font-size="10.00"> CurrentRenderer</text>
<text text-anchor="middle" x="709" y="-99" font-family="Helvetica,sans-Serif" font-size="10.00">DefaultRenderers</text>
<text text-anchor="middle" x="709" y="-88" font-family="Helvetica,sans-Serif" font-size="10.00">NewRenderer</text>
<text text-anchor="middle" x="709" y="-77" font-family="Helvetica,sans-Serif" font-size="10.00">UserRenderers</text>
</g>
<!-- Node19 -->
<g id="node19" class="node">
<title>Node19</title>
<g id="a_node19"><a xlink:href="class_c_renderer.html" target="_top" xlink:title=" ">
<polygon fill="white" stroke="#666666" points="424.5,-85.5 362.5,-85.5 362.5,-66.5 424.5,-66.5 424.5,-85.5"/>
<text text-anchor="middle" x="393.5" y="-73.5" font-family="Helvetica,sans-Serif" font-size="10.00">CRenderer</text>
</a>
</g>
</g>
<!-- Node19&#45;&gt;Node18 -->
<g id="edge28" class="edge">
<title>Node19&#45;&gt;Node18</title>
<path fill="none" stroke="#9a32cd" stroke-dasharray="5,2" d="M436.4,-76C475.31,-76 532.2,-76 566.22,-76"/>
<polygon fill="#9a32cd" stroke="#9a32cd" points="436.47,-72.5 426.47,-76 436.47,-79.5 436.47,-72.5"/>
<text text-anchor="middle" x="496.5" y="-79" font-family="Helvetica,sans-Serif" font-size="10.00"> renderer</text>
</g>
<!-- Node20 -->
<g id="node20" class="node">
<title>Node20</title>
<g id="a_node20"><a xlink:href="class_c_geometry_block.html" target="_top" xlink:title=" ">
<polygon fill="white" stroke="#bfbfbf" points="873,-274.5 783,-274.5 783,-255.5 873,-255.5 873,-274.5"/>
<text text-anchor="middle" x="828" y="-262.5" font-family="Helvetica,sans-Serif" font-size="10.00">CGeometryBlock</text>
</a>
</g>
</g>
<!-- Node20&#45;&gt;Node12 -->
<g id="edge29" class="edge">
<title>Node20&#45;&gt;Node12</title>
<path fill="none" stroke="#9a32cd" stroke-dasharray="5,2" d="M884.75,-268.41C888.56,-268.62 892.33,-268.82 896,-269 928.62,-270.62 965.23,-272.09 994.23,-273.16"/>
<polygon fill="#9a32cd" stroke="#9a32cd" points="885.01,-264.92 874.83,-267.86 884.62,-271.91 885.01,-264.92"/>
<text text-anchor="middle" x="935.5" y="-276" font-family="Helvetica,sans-Serif" font-size="10.00"> Geometry</text>
</g>
<!-- Node20&#45;&gt;Node21 -->
<g id="edge35" class="edge">
<title>Node20&#45;&gt;Node21</title>
<path fill="none" stroke="#9a32cd" stroke-dasharray="5,2" d="M875.13,-251.68C904.7,-242.18 943.33,-227.92 975,-210 999.14,-196.34 1023.73,-174.92 1037,-162.59"/>
<polygon fill="#9a32cd" stroke="#9a32cd" points="874.21,-248.3 865.71,-254.64 876.3,-254.98 874.21,-248.3"/>
<text text-anchor="middle" x="935.5" y="-248" font-family="Helvetica,sans-Serif" font-size="10.00"> Geometry</text>
</g>
<!-- Node21&#45;&gt;Node2 -->
<g id="edge30" class="edge">
<title>Node21&#45;&gt;Node2</title>
<path fill="none" stroke="#9a32cd" stroke-dasharray="5,2" d="M981.41,-155.19C953.73,-158.36 921.97,-165.1 896,-179 885.74,-184.49 887.71,-191.59 878,-198 838.45,-224.1 807.87,-198.21 778,-235 743.73,-277.21 796.07,-315.31 760,-356 728.82,-391.18 691.42,-350.94 658,-384 654.2,-387.76 610.92,-545.89 599.66,-587.21"/>
<polygon fill="#9a32cd" stroke="#9a32cd" points="981.48,-158.7 991.09,-154.22 980.79,-151.73 981.48,-158.7"/>
<text text-anchor="middle" x="828" y="-238" font-family="Helvetica,sans-Serif" font-size="10.00"> DListGManager</text>
</g>
<!-- Node22 -->
<g id="node22" class="node">
<title>Node22</title>
<g id="a_node22"><a xlink:href="class_c_d_list.html" target="_top" xlink:title=" ">
<polygon fill="white" stroke="#bfbfbf" points="240,-25.5 193,-25.5 193,-6.5 240,-6.5 240,-25.5"/>
<text text-anchor="middle" x="216.5" y="-13.5" font-family="Helvetica,sans-Serif" font-size="10.00">CDList</text>
</a>
</g>
</g>
<!-- Node22&#45;&gt;Node21 -->
<g id="edge32" class="edge">
<title>Node22&#45;&gt;Node21</title>
<path fill="none" stroke="#9a32cd" stroke-dasharray="5,2" d="M251.44,-11.05C286.64,-6.35 343.3,0 392.5,0 392.5,0 392.5,0 829,0 929.34,0 1016.21,-109.93 1040.35,-143.43"/>
<polygon fill="#9a32cd" stroke="#9a32cd" points="251.3,-7.54 241.87,-12.36 252.25,-14.47 251.3,-7.54"/>
<text text-anchor="middle" x="596" y="-3" font-family="Helvetica,sans-Serif" font-size="10.00"> CurDList</text>
</g>
<!-- Node24 -->
<g id="node24" class="node">
<title>Node24</title>
<g id="a_node24"><a xlink:href="class_c_d_list_manager.html" target="_top" xlink:title=" ">
<polygon fill="white" stroke="#bfbfbf" points="435.5,-516.5 351.5,-516.5 351.5,-497.5 435.5,-497.5 435.5,-516.5"/>
<text text-anchor="middle" x="393.5" y="-504.5" font-family="Helvetica,sans-Serif" font-size="10.00">CDListManager</text>
</a>
</g>
</g>
<!-- Node22&#45;&gt;Node24 -->
<g id="edge39" class="edge">
<title>Node22&#45;&gt;Node24</title>
<path fill="none" stroke="#9a32cd" stroke-dasharray="5,2" d="M221.58,-37.04C234.3,-100.09 276.55,-292.12 346,-438 356.8,-460.69 374.4,-484.42 384.57,-497.28"/>
<polygon fill="#9a32cd" stroke="#9a32cd" points="225.05,-36.52 219.67,-27.39 218.18,-37.88 225.05,-36.52"/>
<text text-anchor="middle" x="293" y="-420" font-family="Helvetica,sans-Serif" font-size="10.00"> Lists</text>
<text text-anchor="middle" x="293" y="-409" font-family="Helvetica,sans-Serif" font-size="10.00">ListsToBeFreed</text>
<text text-anchor="middle" x="293" y="-398" font-family="Helvetica,sans-Serif" font-size="10.00">OpenList</text>
</g>
<!-- Node23 -->
<g id="node23" class="node">
<title>Node23</title>
<g id="a_node23"><a xlink:href="class_c_d_list_cmd_block.html" target="_top" xlink:title=" ">
<polygon fill="white" stroke="#bfbfbf" points="92,-25.5 0,-25.5 0,-6.5 92,-6.5 92,-25.5"/>
<text text-anchor="middle" x="46" y="-13.5" font-family="Helvetica,sans-Serif" font-size="10.00">CDListCmdBlock</text>
</a>
</g>
</g>
<!-- Node23&#45;&gt;Node22 -->
<g id="edge33" class="edge">
<title>Node23&#45;&gt;Node22</title>
<path fill="none" stroke="#9a32cd" stroke-dasharray="5,2" d="M103.57,-16C134.14,-16 170.19,-16 192.95,-16"/>
<polygon fill="#9a32cd" stroke="#9a32cd" points="103.67,-12.5 93.67,-16 103.67,-19.5 103.67,-12.5"/>
<text text-anchor="middle" x="142.5" y="-30" font-family="Helvetica,sans-Serif" font-size="10.00"> CurCmdBlock</text>
<text text-anchor="middle" x="142.5" y="-19" font-family="Helvetica,sans-Serif" font-size="10.00">FirstCmdBlock</text>
</g>
<!-- Node23&#45;&gt;Node23 -->
<g id="edge34" class="edge">
<title>Node23&#45;&gt;Node23</title>
<path fill="none" stroke="#9a32cd" stroke-dasharray="5,2" d="M28.87,-36.93C31.01,-40.79 36.72,-43.5 46,-43.5 62.96,-43.5 68,-34.44 61.11,-25.87"/>
<polygon fill="#9a32cd" stroke="#9a32cd" points="32.27,-37.82 30.62,-27.36 25.38,-36.57 32.27,-37.82"/>
<text text-anchor="middle" x="46" y="-46.5" font-family="Helvetica,sans-Serif" font-size="10.00"> NextBlock</text>
</g>
<!-- Node24&#45;&gt;Node2 -->
<g id="edge38" class="edge">
<title>Node24&#45;&gt;Node2</title>
<path fill="none" stroke="#9a32cd" stroke-dasharray="5,2" d="M421.3,-522.42C432.76,-528.79 446.38,-536.05 459,-542 495.97,-559.44 540.04,-576.63 567.78,-587.03"/>
<polygon fill="#9a32cd" stroke="#9a32cd" points="423.23,-519.49 412.79,-517.64 419.79,-525.59 423.23,-519.49"/>
<text text-anchor="middle" x="496.5" y="-576" font-family="Helvetica,sans-Serif" font-size="10.00"> DListManager</text>
</g>
<!-- Node25&#45;&gt;Node2 -->
<g id="edge40" class="edge">
<title>Node25&#45;&gt;Node2</title>
<path fill="none" stroke="#9a32cd" stroke-dasharray="5,2" d="M808.68,-1191.97C795.93,-1181.01 778.04,-1167.3 760,-1159 717.79,-1139.57 689.02,-1170.6 658,-1136 621.15,-1094.89 600.63,-676.83 597.44,-606.9"/>
<polygon fill="#9a32cd" stroke="#9a32cd" points="806.05,-1194.32 815.85,-1198.35 810.7,-1189.09 806.05,-1194.32"/>
<text text-anchor="middle" x="709" y="-1162" font-family="Helvetica,sans-Serif" font-size="10.00"> TexManager</text>
</g>
<!-- Node26 -->
<g id="node26" class="node">
<title>Node26</title>
<g id="a_node26"><a xlink:href="class_c_m_m_texture.html" target="_top" xlink:title=" ">
<polygon fill="white" stroke="#bfbfbf" points="632,-1271.5 560,-1271.5 560,-1252.5 632,-1252.5 632,-1271.5"/>
<text text-anchor="middle" x="596" y="-1259.5" font-family="Helvetica,sans-Serif" font-size="10.00">CMMTexture</text>
</a>
</g>
</g>
<!-- Node26&#45;&gt;Node25 -->
<g id="edge42" class="edge">
<title>Node26&#45;&gt;Node25</title>
<path fill="none" stroke="#9a32cd" stroke-dasharray="5,2" d="M643.53,-1256.88C676.44,-1252.64 721.39,-1245.57 760,-1235 775.28,-1230.82 791.89,-1224.39 804.75,-1218.97"/>
<polygon fill="#9a32cd" stroke="#9a32cd" points="643.42,-1253.37 633.93,-1258.08 644.29,-1260.32 643.42,-1253.37"/>
<text text-anchor="middle" x="709" y="-1290" font-family="Helvetica,sans-Serif" font-size="10.00"> CurTexture</text>
<text text-anchor="middle" x="709" y="-1279" font-family="Helvetica,sans-Serif" font-size="10.00">DefaultTex</text>
<text text-anchor="middle" x="709" y="-1268" font-family="Helvetica,sans-Serif" font-size="10.00">LastTexSent</text>
<text text-anchor="middle" x="709" y="-1257" font-family="Helvetica,sans-Serif" font-size="10.00">TexNames</text>
</g>
<!-- Node27 -->
<g id="node27" class="node">
<title>Node27</title>
<g id="a_node27"><a xlink:title=" ">
<polygon fill="white" stroke="#bfbfbf" points="430.5,-1271.5 356.5,-1271.5 356.5,-1252.5 430.5,-1252.5 430.5,-1271.5"/>
<text text-anchor="middle" x="393.5" y="-1259.5" font-family="Helvetica,sans-Serif" font-size="10.00">GS::CTexture</text>
</a>
</g>
</g>
<!-- Node27&#45;&gt;Node26 -->
<g id="edge43" class="edge">
<title>Node27&#45;&gt;Node26</title>
<path fill="none" stroke="#63b8ff" d="M442.04,-1262C478.13,-1262 526.95,-1262 559.63,-1262"/>
<polygon fill="#63b8ff" stroke="#63b8ff" points="442.32,-1258.5 432.32,-1262 442.32,-1265.5 442.32,-1258.5"/>
</g>
<!-- Node28 -->
<g id="node28" class="node">
<title>Node28</title>
<g id="a_node28"><a xlink:href="class_c_m_m_clut.html" target="_top" xlink:title=" ">
<polygon fill="white" stroke="#666666" points="624.5,-1234.5 567.5,-1234.5 567.5,-1215.5 624.5,-1215.5 624.5,-1234.5"/>
<text text-anchor="middle" x="596" y="-1222.5" font-family="Helvetica,sans-Serif" font-size="10.00">CMMClut</text>
</a>
</g>
</g>
<!-- Node28&#45;&gt;Node25 -->
<g id="edge44" class="edge">
<title>Node28&#45;&gt;Node25</title>
<path fill="none" stroke="#9a32cd" stroke-dasharray="5,2" d="M636.1,-1222.28C678.88,-1219.3 746.99,-1214.57 789.24,-1211.63"/>
<polygon fill="#9a32cd" stroke="#9a32cd" points="635.99,-1218.78 626.25,-1222.96 636.47,-1225.76 635.99,-1218.78"/>
<text text-anchor="middle" x="709" y="-1223" font-family="Helvetica,sans-Serif" font-size="10.00"> CurClut</text>
</g>
<!-- Node29 -->
<g id="node29" class="node">
<title>Node29</title>
<g id="a_node29"><a xlink:title=" ">
<polygon fill="white" stroke="#bfbfbf" points="423,-1234.5 364,-1234.5 364,-1215.5 423,-1215.5 423,-1234.5"/>
<text text-anchor="middle" x="393.5" y="-1222.5" font-family="Helvetica,sans-Serif" font-size="10.00">GS::CClut</text>
</a>
</g>
</g>
<!-- Node29&#45;&gt;Node28 -->
<g id="edge45" class="edge">
<title>Node29&#45;&gt;Node28</title>
<path fill="none" stroke="#63b8ff" d="M434.51,-1225C473.85,-1225 532.86,-1225 567.29,-1225"/>
<polygon fill="#63b8ff" stroke="#63b8ff" points="434.74,-1221.5 424.74,-1225 434.74,-1228.5 434.74,-1221.5"/>
</g>
<!-- Node30 -->
<g id="node30" class="node">
<title>Node30</title>
<g id="a_node30"><a xlink:href="class_c_imm_draw_context.html" target="_top" xlink:title=" ">
<polygon fill="white" stroke="#bfbfbf" points="1097,-608.5 999,-608.5 999,-589.5 1097,-589.5 1097,-608.5"/>
<text text-anchor="middle" x="1048" y="-596.5" font-family="Helvetica,sans-Serif" font-size="10.00">CImmDrawContext</text>
</a>
</g>
</g>
<!-- Node30&#45;&gt;Node2 -->
<g id="edge46" class="edge">
<title>Node30&#45;&gt;Node2</title>
<path fill="none" stroke="#9a32cd" stroke-dasharray="5,2" d="M987.48,-593.38C932.15,-589.97 847.97,-589.47 778,-609 769.19,-611.46 768.86,-616.7 760,-619 716.12,-630.37 702.66,-626.81 658,-619 644.58,-616.65 630.22,-611.61 618.8,-606.94"/>
<polygon fill="#9a32cd" stroke="#9a32cd" points="987.11,-596.86 997.32,-594.04 987.58,-589.88 987.11,-596.86"/>
<text text-anchor="middle" x="828" y="-612" font-family="Helvetica,sans-Serif" font-size="10.00"> ImmDrawContext</text>
</g>
<!-- Node31&#45;&gt;Node2 -->
<g id="edge52" class="edge">
<title>Node31&#45;&gt;Node2</title>
<path fill="none" stroke="#9a32cd" stroke-dasharray="5,2" d="M793.76,-567.93C788.37,-570.74 782.94,-573.8 778,-577 769.26,-582.66 769.74,-588.31 760,-592 717.91,-607.97 665.23,-606.03 631.34,-602.27"/>
<polygon fill="#9a32cd" stroke="#9a32cd" points="795.17,-571.14 802.58,-563.57 792.07,-564.87 795.17,-571.14"/>
<text text-anchor="middle" x="709" y="-607" font-family="Helvetica,sans-Serif" font-size="10.00"> CurDrawContext</text>
</g>
<!-- Node31&#45;&gt;Node30 -->
<g id="edge47" class="edge">
<title>Node31&#45;&gt;Node30</title>
<path fill="none" stroke="#63b8ff" d="M878.8,-563.51C915.08,-571.16 963.93,-581.47 999.63,-589"/>
<polygon fill="#63b8ff" stroke="#63b8ff" points="879.96,-560.18 869.45,-561.54 878.52,-567.03 879.96,-560.18"/>
</g>
<!-- Node33 -->
<g id="node33" class="node">
<title>Node33</title>
<g id="a_node33"><a xlink:href="class_c_d_list_draw_context.html" target="_top" xlink:title=" ">
<polygon fill="white" stroke="#bfbfbf" points="1099,-506.5 997,-506.5 997,-487.5 1099,-487.5 1099,-506.5"/>
<text text-anchor="middle" x="1048" y="-494.5" font-family="Helvetica,sans-Serif" font-size="10.00">CDListDrawContext</text>
</a>
</g>
</g>
<!-- Node31&#45;&gt;Node33 -->
<g id="edge51" class="edge">
<title>Node31&#45;&gt;Node33</title>
<path fill="none" stroke="#63b8ff" d="M878.65,-540.25C917.97,-530.15 972.11,-516.24 1008.27,-506.95"/>
<polygon fill="#63b8ff" stroke="#63b8ff" points="878,-536.8 869.19,-542.68 879.75,-543.58 878,-536.8"/>
</g>
<!-- Node32 -->
<g id="node32" class="node">
<title>Node32</title>
<g id="a_node32"><a xlink:href="class_c_clear_env.html" target="_top" xlink:title=" ">
<polygon fill="white" stroke="#bfbfbf" points="859,-647.5 797,-647.5 797,-628.5 859,-628.5 859,-647.5"/>
<text text-anchor="middle" x="828" y="-635.5" font-family="Helvetica,sans-Serif" font-size="10.00">CClearEnv</text>
</a>
</g>
</g>
<!-- Node32&#45;&gt;Node30 -->
<g id="edge49" class="edge">
<title>Node32&#45;&gt;Node30</title>
<path fill="none" stroke="#9a32cd" stroke-dasharray="5,2" d="M870.27,-631.19C899.54,-626.29 939.71,-619.45 975,-613 982.64,-611.6 990.73,-610.08 998.62,-608.56"/>
<polygon fill="#9a32cd" stroke="#9a32cd" points="870.02,-627.68 860.73,-632.78 871.17,-634.59 870.02,-627.68"/>
<text text-anchor="middle" x="935.5" y="-629" font-family="Helvetica,sans-Serif" font-size="10.00"> ClearEnv</text>
</g>
<!-- Node33&#45;&gt;Node2 -->
<g id="edge50" class="edge">
<title>Node33&#45;&gt;Node2</title>
<path fill="none" stroke="#9a32cd" stroke-dasharray="5,2" d="M985.38,-488.68C889.81,-477.03 711.27,-460.69 658,-493 622.38,-514.6 605.28,-565.46 599.43,-587.04"/>
<polygon fill="#9a32cd" stroke="#9a32cd" points="984.76,-492.13 995.11,-489.88 985.62,-485.18 984.76,-492.13"/>
<text text-anchor="middle" x="828" y="-480" font-family="Helvetica,sans-Serif" font-size="10.00"> DListDrawContext</text>
</g>
<!-- Node34&#45;&gt;Node2 -->
<g id="edge53" class="edge">
<title>Node34&#45;&gt;Node2</title>
<path fill="none" stroke="#9a32cd" stroke-dasharray="5,2" d="M772.52,-522.99C731.11,-528.85 677.98,-537.74 658,-547 636.88,-556.79 616.91,-575.63 605.88,-587.18"/>
<polygon fill="#9a32cd" stroke="#9a32cd" points="772.93,-526.46 782.35,-521.62 771.96,-519.53 772.93,-526.46"/>
<text text-anchor="middle" x="709" y="-550" font-family="Helvetica,sans-Serif" font-size="10.00"> DisplayContext</text>
</g>
<!-- Node35 -->
<g id="node35" class="node">
<title>Node35</title>
<g id="a_node35"><a xlink:href="class_c_imm_material.html" target="_top" xlink:title=" ">
<polygon fill="white" stroke="#bfbfbf" points="1086.5,-410.5 1009.5,-410.5 1009.5,-391.5 1086.5,-391.5 1086.5,-410.5"/>
<text text-anchor="middle" x="1048" y="-398.5" font-family="Helvetica,sans-Serif" font-size="10.00">CImmMaterial</text>
</a>
</g>
</g>
<!-- Node35&#45;&gt;Node1 -->
<g id="edge55" class="edge">
<title>Node35&#45;&gt;Node1</title>
<path fill="none" stroke="#9a32cd" stroke-dasharray="5,2" d="M997.78,-402.48C929.33,-403.5 810.19,-401.13 778,-374 755.08,-354.68 783.86,-327.15 760,-309 723.92,-281.55 702.44,-300.02 658,-309 559.47,-328.91 451.94,-386.77 411.3,-410.09"/>
<polygon fill="#9a32cd" stroke="#9a32cd" points="997.67,-405.99 1007.61,-402.3 997.54,-398.99 997.67,-405.99"/>
<text text-anchor="middle" x="709" y="-312" font-family="Helvetica,sans-Serif" font-size="10.00"> ImmMaterial</text>
</g>
<!-- Node36&#45;&gt;Node1 -->
<g id="edge60" class="edge">
<title>Node36&#45;&gt;Node1</title>
<path fill="none" stroke="#9a32cd" stroke-dasharray="5,2" d="M787.59,-425.45C707.68,-424.34 526.87,-421.84 441.2,-420.65"/>
<polygon fill="#9a32cd" stroke="#9a32cd" points="787.07,-428.95 797.12,-425.59 787.17,-421.95 787.07,-428.95"/>
<text text-anchor="middle" x="596" y="-427" font-family="Helvetica,sans-Serif" font-size="10.00"> CurMaterial</text>
</g>
<!-- Node36&#45;&gt;Node35 -->
<g id="edge56" class="edge">
<title>Node36&#45;&gt;Node35</title>
<path fill="none" stroke="#63b8ff" d="M868.69,-421.45C908.72,-416.86 970.06,-409.82 1009.35,-405.32"/>
<polygon fill="#63b8ff" stroke="#63b8ff" points="868.54,-417.94 859,-422.56 869.34,-424.9 868.54,-417.94"/>
</g>
<!-- Node37 -->
<g id="node37" class="node">
<title>Node37</title>
<g id="a_node37"><a xlink:href="class_c_d_list_material.html" target="_top" xlink:title=" ">
<polygon fill="white" stroke="#bfbfbf" points="1088.5,-367.5 1007.5,-367.5 1007.5,-348.5 1088.5,-348.5 1088.5,-367.5"/>
<text text-anchor="middle" x="1048" y="-355.5" font-family="Helvetica,sans-Serif" font-size="10.00">CDListMaterial</text>
</a>
</g>
</g>
<!-- Node36&#45;&gt;Node37 -->
<g id="edge59" class="edge">
<title>Node36&#45;&gt;Node37</title>
<path fill="none" stroke="#63b8ff" d="M868.41,-413.71C910.39,-400.61 976.03,-380.14 1014.95,-368"/>
<polygon fill="#63b8ff" stroke="#63b8ff" points="867.45,-410.34 858.94,-416.66 869.53,-417.02 867.45,-410.34"/>
</g>
<!-- Node37&#45;&gt;Node1 -->
<g id="edge58" class="edge">
<title>Node37&#45;&gt;Node1</title>
<path fill="none" stroke="#9a32cd" stroke-dasharray="5,2" d="M1004.15,-344.85C936.41,-324.32 807.39,-286.33 760,-280 715.07,-274 702.9,-273.77 658,-280 565.7,-292.81 535.29,-292.5 459,-346 433.33,-364.01 411.24,-394.36 400.84,-410"/>
<polygon fill="#9a32cd" stroke="#9a32cd" points="1002.84,-348.11 1013.42,-347.67 1004.87,-341.41 1002.84,-348.11"/>
<text text-anchor="middle" x="709" y="-283" font-family="Helvetica,sans-Serif" font-size="10.00"> DListMaterial</text>
</g>
</g>
</svg>
