<?xml version="1.0" encoding="UTF-8" standalone="no"?>
<!DOCTYPE svg PUBLIC "-//W3C//DTD SVG 1.1//EN"
 "http://www.w3.org/Graphics/SVG/1.1/DTD/svg11.dtd">
<!-- Generated by graphviz version 7.0.5 (20221223.1930)
 -->
<!-- Title: CDrawArraysCmd Pages: 1 -->
<svg width="338pt" height="170pt"
 viewBox="0.00 0.00 337.50 170.00" xmlns="http://www.w3.org/2000/svg" xmlns:xlink="http://www.w3.org/1999/xlink">
<g id="graph0" class="graph" transform="scale(1 1) rotate(0) translate(4 166)">
<title>CDrawArraysCmd</title>
<!-- Node1 -->
<g id="node1" class="node">
<title>Node1</title>
<g id="a_node1"><a xlink:title=" ">
<polygon fill="#999999" stroke="#666666" points="177.5,-19 83.5,-19 83.5,0 177.5,0 177.5,-19"/>
<text text-anchor="middle" x="130.5" y="-7" font-family="Helvetica,sans-Serif" font-size="10.00">CDrawArraysCmd</text>
</a>
</g>
</g>
<!-- Node2 -->
<g id="node2" class="node">
<title>Node2</title>
<g id="a_node2"><a xlink:href="class_c_d_list_cmd.html" target="_top" xlink:title=" ">
<polygon fill="white" stroke="#bfbfbf" points="67,-85 0,-85 0,-66 67,-66 67,-85"/>
<text text-anchor="middle" x="33.5" y="-73" font-family="Helvetica,sans-Serif" font-size="10.00">CDListCmd</text>
</a>
</g>
</g>
<!-- Node2&#45;&gt;Node1 -->
<g id="edge1" class="edge">
<title>Node2&#45;&gt;Node1</title>
<path fill="none" stroke="#63b8ff" d="M56.37,-59.41C75.28,-46.94 101.47,-29.65 117.13,-19.32"/>
<polygon fill="#63b8ff" stroke="#63b8ff" points="54.67,-56.34 48.25,-64.77 58.53,-62.18 54.67,-56.34"/>
</g>
<!-- Node3 -->
<g id="node3" class="node">
<title>Node3</title>
<g id="a_node3"><a xlink:href="class_c_geometry_block.html" target="_top" xlink:title=" ">
<polygon fill="white" stroke="#bfbfbf" points="175.5,-85 85.5,-85 85.5,-66 175.5,-66 175.5,-85"/>
<text text-anchor="middle" x="130.5" y="-73" font-family="Helvetica,sans-Serif" font-size="10.00">CGeometryBlock</text>
</a>
</g>
</g>
<!-- Node3&#45;&gt;Node1 -->
<g id="edge2" class="edge">
<title>Node3&#45;&gt;Node1</title>
<path fill="none" stroke="#9a32cd" stroke-dasharray="5,2" d="M130.5,-54.18C130.5,-42.44 130.5,-28.27 130.5,-19.32"/>
<polygon fill="#9a32cd" stroke="#9a32cd" points="127,-54.09 130.5,-64.09 134,-54.09 127,-54.09"/>
<text text-anchor="middle" x="153" y="-40" font-family="Helvetica,sans-Serif" font-size="10.00"> Geometry</text>
</g>
<!-- Node4 -->
<g id="node4" class="node">
<title>Node4</title>
<g id="a_node4"><a xlink:href="class_c_d_list.html" target="_top" xlink:title=" ">
<polygon fill="white" stroke="#bfbfbf" points="241,-85 194,-85 194,-66 241,-66 241,-85"/>
<text text-anchor="middle" x="217.5" y="-73" font-family="Helvetica,sans-Serif" font-size="10.00">CDList</text>
</a>
</g>
</g>
<!-- Node4&#45;&gt;Node1 -->
<g id="edge3" class="edge">
<title>Node4&#45;&gt;Node1</title>
<path fill="none" stroke="#9a32cd" stroke-dasharray="5,2" d="M202.46,-57.68C195.82,-50.8 187.67,-43.05 179.5,-37 170.33,-30.21 159.2,-24.05 149.87,-19.38"/>
<polygon fill="#9a32cd" stroke="#9a32cd" points="199.55,-59.7 208.92,-64.63 204.68,-54.93 199.55,-59.7"/>
<text text-anchor="middle" x="204.5" y="-40" font-family="Helvetica,sans-Serif" font-size="10.00"> DList</text>
</g>
<!-- Node5 -->
<g id="node5" class="node">
<title>Node5</title>
<g id="a_node5"><a xlink:href="class_c_d_list_cmd_block.html" target="_top" xlink:title=" ">
<polygon fill="white" stroke="#bfbfbf" points="263.5,-162 171.5,-162 171.5,-143 263.5,-143 263.5,-162"/>
<text text-anchor="middle" x="217.5" y="-150" font-family="Helvetica,sans-Serif" font-size="10.00">CDListCmdBlock</text>
</a>
</g>
</g>
<!-- Node5&#45;&gt;Node4 -->
<g id="edge4" class="edge">
<title>Node5&#45;&gt;Node4</title>
<path fill="none" stroke="#9a32cd" stroke-dasharray="5,2" d="M217.5,-131.42C217.5,-116.43 217.5,-96.66 217.5,-85.39"/>
<polygon fill="#9a32cd" stroke="#9a32cd" points="214,-131.09 217.5,-141.09 221,-131.09 214,-131.09"/>
<text text-anchor="middle" x="250" y="-117" font-family="Helvetica,sans-Serif" font-size="10.00"> CurCmdBlock</text>
<text text-anchor="middle" x="250" y="-106" font-family="Helvetica,sans-Serif" font-size="10.00">FirstCmdBlock</text>
</g>
<!-- Node5&#45;&gt;Node5 -->
<g id="edge5" class="edge">
<title>Node5&#45;&gt;Node5</title>
<path fill="none" stroke="#9a32cd" stroke-dasharray="5,2" d="M274.93,-157.79C279.01,-156.59 281.5,-154.83 281.5,-152.5 281.5,-148.48 274.05,-146.14 263.81,-145.48"/>
<polygon fill="#9a32cd" stroke="#9a32cd" points="274.65,-154.29 265.31,-159.29 275.73,-161.21 274.65,-154.29"/>
<text text-anchor="middle" x="305.5" y="-150" font-family="Helvetica,sans-Serif" font-size="10.00"> NextBlock</text>
</g>
</g>
</svg>
