<?xml version="1.0" encoding="UTF-8" standalone="no"?>
<!DOCTYPE svg PUBLIC "-//W3C//DTD SVG 1.1//EN"
 "http://www.w3.org/Graphics/SVG/1.1/DTD/svg11.dtd">
<!-- Generated by graphviz version 7.0.5 (20221223.1930)
 -->
<!-- Title: CImmDrawContext Pages: 1 -->
<svg width="1324pt" height="1169pt"
 viewBox="0.00 0.00 1324.00 1168.50" xmlns="http://www.w3.org/2000/svg" xmlns:xlink="http://www.w3.org/1999/xlink">
<g id="graph0" class="graph" transform="scale(1 1) rotate(0) translate(4 1164.5)">
<title>CImmDrawContext</title>
<!-- Node1 -->
<g id="node1" class="node">
<title>Node1</title>
<g id="a_node1"><a xlink:title=" ">
<polygon fill="#999999" stroke="#666666" points="459,-723 361,-723 361,-704 459,-704 459,-723"/>
<text text-anchor="middle" x="410" y="-711" font-family="Helvetica,sans-Serif" font-size="10.00">CImmDrawContext</text>
</a>
</g>
</g>
<!-- Node3 -->
<g id="node3" class="node">
<title>Node3</title>
<g id="a_node3"><a xlink:href="class_c_g_l_context.html" target="_top" xlink:title=" ">
<polygon fill="white" stroke="#bfbfbf" points="652,-614 582,-614 582,-595 652,-595 652,-614"/>
<text text-anchor="middle" x="617" y="-602" font-family="Helvetica,sans-Serif" font-size="10.00">CGLContext</text>
</a>
</g>
</g>
<!-- Node1&#45;&gt;Node3 -->
<g id="edge54" class="edge">
<title>Node1&#45;&gt;Node3</title>
<path fill="none" stroke="#9a32cd" stroke-dasharray="5,2" d="M431.95,-696.94C444.59,-687.38 461.23,-675.51 477,-666.5 514.62,-645 561.09,-625.6 589.62,-614.44"/>
<polygon fill="#9a32cd" stroke="#9a32cd" points="430.15,-693.92 424.36,-702.79 434.42,-699.47 430.15,-693.92"/>
<text text-anchor="middle" x="516" y="-669.5" font-family="Helvetica,sans-Serif" font-size="10.00"> ImmDrawContext</text>
</g>
<!-- Node2 -->
<g id="node2" class="node">
<title>Node2</title>
<g id="a_node2"><a xlink:href="class_c_draw_context.html" target="_top" xlink:title=" ">
<polygon fill="white" stroke="#bfbfbf" points="888.5,-792 809.5,-792 809.5,-773 888.5,-773 888.5,-792"/>
<text text-anchor="middle" x="849" y="-780" font-family="Helvetica,sans-Serif" font-size="10.00">CDrawContext</text>
</a>
</g>
</g>
<!-- Node2&#45;&gt;Node1 -->
<g id="edge1" class="edge">
<title>Node2&#45;&gt;Node1</title>
<path fill="none" stroke="#63b8ff" d="M798.08,-788.37C724.85,-794.97 585.3,-799.82 477,-757.5 455.96,-749.28 434.79,-733.53 422.29,-723.28"/>
<polygon fill="#63b8ff" stroke="#63b8ff" points="798.11,-791.88 807.74,-787.45 797.45,-784.91 798.11,-791.88"/>
</g>
<!-- Node2&#45;&gt;Node3 -->
<g id="edge57" class="edge">
<title>Node2&#45;&gt;Node3</title>
<path fill="none" stroke="#9a32cd" stroke-dasharray="5,2" d="M797.71,-779.87C754.68,-776.66 696.94,-769.79 679,-755.5 632.78,-718.68 621.37,-641.34 618.74,-614.18"/>
<polygon fill="#9a32cd" stroke="#9a32cd" points="797.4,-783.35 807.62,-780.55 797.88,-776.37 797.4,-783.35"/>
<text text-anchor="middle" x="730" y="-781.5" font-family="Helvetica,sans-Serif" font-size="10.00"> CurDrawContext</text>
</g>
<!-- Node35 -->
<g id="node35" class="node">
<title>Node35</title>
<g id="a_node35"><a xlink:href="class_c_d_list_draw_context.html" target="_top" xlink:title=" ">
<polygon fill="white" stroke="#bfbfbf" points="1120,-770 1018,-770 1018,-751 1120,-751 1120,-770"/>
<text text-anchor="middle" x="1069" y="-758" font-family="Helvetica,sans-Serif" font-size="10.00">CDListDrawContext</text>
</a>
</g>
</g>
<!-- Node2&#45;&gt;Node35 -->
<g id="edge56" class="edge">
<title>Node2&#45;&gt;Node35</title>
<path fill="none" stroke="#63b8ff" d="M900,-777.45C935.33,-773.89 982.49,-769.13 1017.85,-765.56"/>
<polygon fill="#63b8ff" stroke="#63b8ff" points="900.08,-773.93 890.48,-778.41 900.78,-780.89 900.08,-773.93"/>
</g>
<!-- Node3&#45;&gt;Node2 -->
<g id="edge2" class="edge">
<title>Node3&#45;&gt;Node2</title>
<path fill="none" stroke="#9a32cd" stroke-dasharray="5,2" d="M623.11,-625.56C630.68,-652.12 647.5,-697.26 679,-721.5 715.83,-749.85 738.98,-724.65 781,-744.5 790.16,-748.83 790.4,-753.13 799,-758.5 807.36,-763.72 817.01,-768.66 825.53,-772.68"/>
<polygon fill="#9a32cd" stroke="#9a32cd" points="626.51,-624.73 620.57,-615.96 619.74,-626.52 626.51,-624.73"/>
<text text-anchor="middle" x="730" y="-747.5" font-family="Helvetica,sans-Serif" font-size="10.00"> GLContext</text>
</g>
<!-- Node5 -->
<g id="node5" class="node">
<title>Node5</title>
<g id="a_node5"><a xlink:href="class_c_matrix_stack.html" target="_top" xlink:title=" ">
<polygon fill="white" stroke="#bfbfbf" points="886.5,-498 811.5,-498 811.5,-479 886.5,-479 886.5,-498"/>
<text text-anchor="middle" x="849" y="-486" font-family="Helvetica,sans-Serif" font-size="10.00">CMatrixStack</text>
</a>
</g>
</g>
<!-- Node3&#45;&gt;Node5 -->
<g id="edge5" class="edge">
<title>Node3&#45;&gt;Node5</title>
<path fill="none" stroke="#9a32cd" stroke-dasharray="5,2" d="M628.7,-585.04C639.22,-567.76 656.91,-543.19 679,-529.5 718.5,-505.02 735.88,-517.64 781,-506.5 791.06,-504.02 801.92,-501.17 811.91,-498.49"/>
<polygon fill="#9a32cd" stroke="#9a32cd" points="625.85,-582.98 623.85,-593.39 631.9,-586.5 625.85,-582.98"/>
<text text-anchor="middle" x="730" y="-532.5" font-family="Helvetica,sans-Serif" font-size="10.00"> GLContext</text>
</g>
<!-- Node8 -->
<g id="node8" class="node">
<title>Node8</title>
<g id="a_node8"><a xlink:href="class_c_lighting.html" target="_top" xlink:title=" ">
<polygon fill="white" stroke="#bfbfbf" points="985.5,-593 927.5,-593 927.5,-574 985.5,-574 985.5,-593"/>
<text text-anchor="middle" x="956.5" y="-581" font-family="Helvetica,sans-Serif" font-size="10.00">CLighting</text>
</a>
</g>
</g>
<!-- Node3&#45;&gt;Node8 -->
<g id="edge11" class="edge">
<title>Node3&#45;&gt;Node8</title>
<path fill="none" stroke="#9a32cd" stroke-dasharray="5,2" d="M660.73,-591.92C666.82,-590.53 673.03,-589.32 679,-588.5 768.89,-576.08 876.76,-579.27 927.07,-581.8"/>
<polygon fill="#9a32cd" stroke="#9a32cd" points="660.34,-588.41 651.47,-594.21 662.02,-595.21 660.34,-588.41"/>
<text text-anchor="middle" x="730" y="-591.5" font-family="Helvetica,sans-Serif" font-size="10.00"> GLContext</text>
</g>
<!-- Node10 -->
<g id="node10" class="node">
<title>Node10</title>
<g id="a_node10"><a xlink:href="class_c_light.html" target="_top" xlink:title=" ">
<polygon fill="white" stroke="#bfbfbf" points="871.5,-669 826.5,-669 826.5,-650 871.5,-650 871.5,-669"/>
<text text-anchor="middle" x="849" y="-657" font-family="Helvetica,sans-Serif" font-size="10.00">CLight</text>
</a>
</g>
</g>
<!-- Node3&#45;&gt;Node10 -->
<g id="edge14" class="edge">
<title>Node3&#45;&gt;Node10</title>
<path fill="none" stroke="#9a32cd" stroke-dasharray="5,2" d="M643.77,-619.97C654.35,-625.69 666.93,-631.69 679,-635.5 730.15,-651.64 793.45,-656.95 826.15,-658.68"/>
<polygon fill="#9a32cd" stroke="#9a32cd" points="645.7,-617.04 635.26,-615.19 642.26,-623.14 645.7,-617.04"/>
<text text-anchor="middle" x="730" y="-658.5" font-family="Helvetica,sans-Serif" font-size="10.00"> GLContext</text>
</g>
<!-- Node14 -->
<g id="node14" class="node">
<title>Node14</title>
<g id="a_node14"><a xlink:href="class_c_geom_manager.html" target="_top" xlink:title=" ">
<polygon fill="white" stroke="#bfbfbf" points="892.5,-908 805.5,-908 805.5,-889 892.5,-889 892.5,-908"/>
<text text-anchor="middle" x="849" y="-896" font-family="Helvetica,sans-Serif" font-size="10.00">CGeomManager</text>
</a>
</g>
</g>
<!-- Node3&#45;&gt;Node14 -->
<g id="edge22" class="edge">
<title>Node3&#45;&gt;Node14</title>
<path fill="none" stroke="#9a32cd" stroke-dasharray="5,2" d="M619.76,-625.55C624.99,-682.85 642.43,-839.61 679,-873.5 688.14,-881.97 758.06,-890.09 805.06,-894.67"/>
<polygon fill="#9a32cd" stroke="#9a32cd" points="623.27,-625.51 618.91,-615.86 616.29,-626.12 623.27,-625.51"/>
<text text-anchor="middle" x="730" y="-894.5" font-family="Helvetica,sans-Serif" font-size="10.00"> GLContext</text>
</g>
<!-- Node17 -->
<g id="node17" class="node">
<title>Node17</title>
<g id="a_node17"><a xlink:href="class_c_renderer_manager.html" target="_top" xlink:title=" ">
<polygon fill="white" stroke="#bfbfbf" points="899,-1093 799,-1093 799,-1074 899,-1074 899,-1093"/>
<text text-anchor="middle" x="849" y="-1081" font-family="Helvetica,sans-Serif" font-size="10.00">CRendererManager</text>
</a>
</g>
</g>
<!-- Node3&#45;&gt;Node17 -->
<g id="edge26" class="edge">
<title>Node3&#45;&gt;Node17</title>
<path fill="none" stroke="#9a32cd" stroke-dasharray="5,2" d="M620.85,-625.34C631.22,-700.53 666.95,-954.01 679,-966.5 711.13,-999.81 747.25,-955.82 781,-987.5 803.17,-1008.31 780.75,-1029.18 799,-1053.5 805.41,-1062.04 815.02,-1068.68 824.04,-1073.52"/>
<polygon fill="#9a32cd" stroke="#9a32cd" points="624.35,-625.1 619.52,-615.67 617.42,-626.05 624.35,-625.1"/>
<text text-anchor="middle" x="730" y="-990.5" font-family="Helvetica,sans-Serif" font-size="10.00"> GLContext</text>
</g>
<!-- Node25 -->
<g id="node25" class="node">
<title>Node25</title>
<g id="a_node25"><a xlink:href="class_c_material_manager.html" target="_top" xlink:title=" ">
<polygon fill="white" stroke="#bfbfbf" points="1316,-267 1221,-267 1221,-248 1316,-248 1316,-267"/>
<text text-anchor="middle" x="1268.5" y="-255" font-family="Helvetica,sans-Serif" font-size="10.00">CMaterialManager</text>
</a>
</g>
</g>
<!-- Node3&#45;&gt;Node25 -->
<g id="edge39" class="edge">
<title>Node3&#45;&gt;Node25</title>
<path fill="none" stroke="#9a32cd" stroke-dasharray="5,2" d="M619.88,-583.62C625.31,-528.16 643.04,-379.33 679,-348.5 754.32,-283.92 1025.68,-325.77 1124,-312.5 1159.42,-307.72 1169.7,-310.47 1203,-297.5 1222.4,-289.94 1242.42,-276.48 1254.91,-267.28"/>
<polygon fill="#9a32cd" stroke="#9a32cd" points="616.42,-582.99 618.97,-593.27 623.39,-583.64 616.42,-582.99"/>
<text text-anchor="middle" x="956.5" y="-317.5" font-family="Helvetica,sans-Serif" font-size="10.00"> GLContext</text>
</g>
<!-- Node27 -->
<g id="node27" class="node">
<title>Node27</title>
<g id="a_node27"><a xlink:href="class_c_material.html" target="_top" xlink:title=" ">
<polygon fill="white" stroke="#bfbfbf" points="878,-278 820,-278 820,-259 878,-259 878,-278"/>
<text text-anchor="middle" x="849" y="-266" font-family="Helvetica,sans-Serif" font-size="10.00">CMaterial</text>
</a>
</g>
</g>
<!-- Node3&#45;&gt;Node27 -->
<g id="edge42" class="edge">
<title>Node3&#45;&gt;Node27</title>
<path fill="none" stroke="#9a32cd" stroke-dasharray="5,2" d="M619.01,-583.42C622.51,-519.83 636.35,-331.77 679,-291.5 716.78,-255.82 782.19,-258.25 819.58,-263.31"/>
<polygon fill="#9a32cd" stroke="#9a32cd" points="615.53,-583.03 618.51,-593.19 622.52,-583.39 615.53,-583.03"/>
<text text-anchor="middle" x="730" y="-294.5" font-family="Helvetica,sans-Serif" font-size="10.00"> GLContext</text>
</g>
<!-- Node30 -->
<g id="node30" class="node">
<title>Node30</title>
<g id="a_node30"><a xlink:href="class_c_tex_manager.html" target="_top" xlink:title=" ">
<polygon fill="white" stroke="#bfbfbf" points="887.5,-89 810.5,-89 810.5,-70 887.5,-70 887.5,-89"/>
<text text-anchor="middle" x="849" y="-77" font-family="Helvetica,sans-Serif" font-size="10.00">CTexManager</text>
</a>
</g>
</g>
<!-- Node3&#45;&gt;Node30 -->
<g id="edge49" class="edge">
<title>Node3&#45;&gt;Node30</title>
<path fill="none" stroke="#9a32cd" stroke-dasharray="5,2" d="M617.75,-583.25C617.25,-502.01 619.7,-212.33 679,-147.5 710.36,-113.21 738.32,-142.88 781,-124.5 802.11,-115.41 823.67,-99.5 836.44,-89.24"/>
<polygon fill="#9a32cd" stroke="#9a32cd" points="614.25,-583.14 617.84,-593.11 621.25,-583.08 614.25,-583.14"/>
<text text-anchor="middle" x="730" y="-150.5" font-family="Helvetica,sans-Serif" font-size="10.00"> GLContext</text>
</g>
<!-- Node36 -->
<g id="node36" class="node">
<title>Node36</title>
<g id="a_node36"><a xlink:href="class_c_display_context.html" target="_top" xlink:title=" ">
<polygon fill="white" stroke="#bfbfbf" points="893,-422 805,-422 805,-403 893,-403 893,-422"/>
<text text-anchor="middle" x="849" y="-410" font-family="Helvetica,sans-Serif" font-size="10.00">CDisplayContext</text>
</a>
</g>
</g>
<!-- Node3&#45;&gt;Node36 -->
<g id="edge59" class="edge">
<title>Node3&#45;&gt;Node36</title>
<path fill="none" stroke="#9a32cd" stroke-dasharray="5,2" d="M620.93,-583.55C628.14,-535.24 648.46,-418.4 679,-395.5 723.47,-362.15 794.08,-387.13 828.22,-402.62"/>
<polygon fill="#9a32cd" stroke="#9a32cd" points="617.49,-582.85 619.52,-593.25 624.42,-583.85 617.49,-582.85"/>
<text text-anchor="middle" x="730" y="-398.5" font-family="Helvetica,sans-Serif" font-size="10.00"> GLContext</text>
</g>
<!-- Node4 -->
<g id="node4" class="node">
<title>Node4</title>
<g id="a_node4"><a xlink:href="class_c_imm_matrix_stack.html" target="_top" xlink:title=" ">
<polygon fill="white" stroke="#bfbfbf" points="1116.5,-460 1021.5,-460 1021.5,-441 1116.5,-441 1116.5,-460"/>
<text text-anchor="middle" x="1069" y="-448" font-family="Helvetica,sans-Serif" font-size="10.00">CImmMatrixStack</text>
</a>
</g>
</g>
<!-- Node4&#45;&gt;Node3 -->
<g id="edge3" class="edge">
<title>Node4&#45;&gt;Node3</title>
<path fill="none" stroke="#9a32cd" stroke-dasharray="5,2" d="M1009.73,-454.01C978.89,-452.81 942.29,-446.1 917,-424.5 898.08,-408.34 919.22,-385.99 899,-371.5 859.25,-343.02 717.27,-345.06 679,-375.5 643.34,-403.86 623.72,-554.58 619.08,-594.69"/>
<polygon fill="#9a32cd" stroke="#9a32cd" points="1009.65,-457.51 1019.71,-454.19 1009.78,-450.51 1009.65,-457.51"/>
<text text-anchor="middle" x="849" y="-385.5" font-family="Helvetica,sans-Serif" font-size="10.00"> ModelViewMatStack</text>
<text text-anchor="middle" x="849" y="-374.5" font-family="Helvetica,sans-Serif" font-size="10.00">ProjectionMatStack</text>
</g>
<!-- Node5&#45;&gt;Node3 -->
<g id="edge8" class="edge">
<title>Node5&#45;&gt;Node3</title>
<path fill="none" stroke="#9a32cd" stroke-dasharray="5,2" d="M810.71,-475.3C774.27,-464.89 718.66,-455.81 679,-480.5 637.25,-506.49 623.25,-570.37 619.33,-594.79"/>
<polygon fill="#9a32cd" stroke="#9a32cd" points="809.33,-478.54 819.91,-478.1 811.36,-471.84 809.33,-478.54"/>
<text text-anchor="middle" x="730" y="-494.5" font-family="Helvetica,sans-Serif" font-size="10.00"> CurMatrixStack</text>
<text text-anchor="middle" x="730" y="-483.5" font-family="Helvetica,sans-Serif" font-size="10.00">SavedCurMatStack</text>
</g>
<!-- Node5&#45;&gt;Node4 -->
<g id="edge4" class="edge">
<title>Node5&#45;&gt;Node4</title>
<path fill="none" stroke="#63b8ff" d="M897.9,-480.15C934.6,-473.75 984.94,-464.98 1021.33,-458.64"/>
<polygon fill="#63b8ff" stroke="#63b8ff" points="897.72,-476.63 888.47,-481.79 898.92,-483.52 897.72,-476.63"/>
</g>
<!-- Node6 -->
<g id="node6" class="node">
<title>Node6</title>
<g id="a_node6"><a xlink:href="class_c_d_list_matrix_stack.html" target="_top" xlink:title=" ">
<polygon fill="white" stroke="#bfbfbf" points="1118,-497 1020,-497 1020,-478 1118,-478 1118,-497"/>
<text text-anchor="middle" x="1069" y="-485" font-family="Helvetica,sans-Serif" font-size="10.00">CDListMatrixStack</text>
</a>
</g>
</g>
<!-- Node5&#45;&gt;Node6 -->
<g id="edge7" class="edge">
<title>Node5&#45;&gt;Node6</title>
<path fill="none" stroke="#63b8ff" d="M898.22,-488.28C934.36,-488.11 983.59,-487.89 1019.74,-487.72"/>
<polygon fill="#63b8ff" stroke="#63b8ff" points="898.48,-484.78 888.49,-488.32 898.51,-491.78 898.48,-484.78"/>
</g>
<!-- Node6&#45;&gt;Node3 -->
<g id="edge6" class="edge">
<title>Node6&#45;&gt;Node3</title>
<path fill="none" stroke="#9a32cd" stroke-dasharray="5,2" d="M1011.78,-499.89C911.77,-522.02 710.42,-567.02 679,-577.5 664.94,-582.19 649.69,-588.94 637.95,-594.52"/>
<polygon fill="#9a32cd" stroke="#9a32cd" points="1012.39,-503.34 1021.4,-497.76 1010.88,-496.5 1012.39,-503.34"/>
<text text-anchor="middle" x="849" y="-550.5" font-family="Helvetica,sans-Serif" font-size="10.00"> DListMatStack</text>
</g>
<!-- Node7 -->
<g id="node7" class="node">
<title>Node7</title>
<g id="a_node7"><a xlink:href="class_c_imm_lighting.html" target="_top" xlink:title=" ">
<polygon fill="white" stroke="#bfbfbf" points="1307,-447 1230,-447 1230,-428 1307,-428 1307,-447"/>
<text text-anchor="middle" x="1268.5" y="-435" font-family="Helvetica,sans-Serif" font-size="10.00">CImmLighting</text>
</a>
</g>
</g>
<!-- Node7&#45;&gt;Node3 -->
<g id="edge9" class="edge">
<title>Node7&#45;&gt;Node3</title>
<path fill="none" stroke="#9a32cd" stroke-dasharray="5,2" d="M1218.39,-434.27C1213.19,-433.98 1207.99,-433.72 1203,-433.5 1167.91,-431.97 1159.12,-431.94 1124,-431.5 1075.12,-430.88 1062.83,-429.1 1014,-431.5 939.29,-435.17 739.49,-420.49 679,-464.5 634.62,-496.79 622.13,-568.4 618.97,-594.63"/>
<polygon fill="#9a32cd" stroke="#9a32cd" points="1217.96,-437.75 1228.14,-434.83 1218.36,-430.76 1217.96,-437.75"/>
<text text-anchor="middle" x="956.5" y="-435.5" font-family="Helvetica,sans-Serif" font-size="10.00"> ImmLighting</text>
</g>
<!-- Node8&#45;&gt;Node3 -->
<g id="edge19" class="edge">
<title>Node8&#45;&gt;Node3</title>
<path fill="none" stroke="#9a32cd" stroke-dasharray="5,2" d="M915.87,-591.99C910.22,-592.98 904.48,-593.85 899,-594.5 810.52,-604.93 705.39,-605.57 652.31,-605.08"/>
<polygon fill="#9a32cd" stroke="#9a32cd" points="916.5,-595.43 925.69,-590.16 915.22,-588.55 916.5,-595.43"/>
<text text-anchor="middle" x="730" y="-608.5" font-family="Helvetica,sans-Serif" font-size="10.00"> CurLighting</text>
</g>
<!-- Node8&#45;&gt;Node7 -->
<g id="edge10" class="edge">
<title>Node8&#45;&gt;Node7</title>
<path fill="none" stroke="#63b8ff" d="M996.7,-574.11C1033.97,-563.33 1089.35,-542.21 1124,-505.5 1138.79,-489.84 1125.33,-474.14 1142,-460.5 1166.43,-440.51 1202.55,-435.65 1229.77,-435.27"/>
<polygon fill="#63b8ff" stroke="#63b8ff" points="995.92,-570.7 987.21,-576.73 997.78,-577.44 995.92,-570.7"/>
</g>
<!-- Node11 -->
<g id="node11" class="node">
<title>Node11</title>
<g id="a_node11"><a xlink:href="class_c_d_list_lighting.html" target="_top" xlink:title=" ">
<polygon fill="white" stroke="#bfbfbf" points="1309,-627 1228,-627 1228,-608 1309,-608 1309,-627"/>
<text text-anchor="middle" x="1268.5" y="-615" font-family="Helvetica,sans-Serif" font-size="10.00">CDListLighting</text>
</a>
</g>
</g>
<!-- Node8&#45;&gt;Node11 -->
<g id="edge16" class="edge">
<title>Node8&#45;&gt;Node11</title>
<path fill="none" stroke="#63b8ff" d="M997.25,-585.51C1045.93,-588.29 1130.82,-594.17 1203,-604.5 1211.03,-605.65 1219.57,-607.16 1227.71,-608.74"/>
<polygon fill="#63b8ff" stroke="#63b8ff" points="997.66,-582.03 987.48,-584.97 997.27,-589.02 997.66,-582.03"/>
</g>
<!-- Node9 -->
<g id="node9" class="node">
<title>Node9</title>
<g id="a_node9"><a xlink:href="class_c_imm_light.html" target="_top" xlink:title=" ">
<polygon fill="white" stroke="#bfbfbf" points="1101.5,-632 1036.5,-632 1036.5,-613 1101.5,-613 1101.5,-632"/>
<text text-anchor="middle" x="1069" y="-620" font-family="Helvetica,sans-Serif" font-size="10.00">CImmLight</text>
</a>
</g>
</g>
<!-- Node9&#45;&gt;Node7 -->
<g id="edge12" class="edge">
<title>Node9&#45;&gt;Node7</title>
<path fill="none" stroke="#9a32cd" stroke-dasharray="5,2" d="M1083.04,-603.54C1094.29,-586.91 1110.79,-561.95 1124,-539.5 1132.67,-524.76 1129.97,-517.65 1142,-505.5 1169.64,-477.59 1211.16,-458.18 1238.78,-447.43"/>
<polygon fill="#9a32cd" stroke="#9a32cd" points="1080.37,-601.23 1077.63,-611.47 1086.15,-605.17 1080.37,-601.23"/>
<text text-anchor="middle" x="1172.5" y="-596.5" font-family="Helvetica,sans-Serif" font-size="10.00"> Light0</text>
<text text-anchor="middle" x="1172.5" y="-585.5" font-family="Helvetica,sans-Serif" font-size="10.00">Light1</text>
<text text-anchor="middle" x="1172.5" y="-574.5" font-family="Helvetica,sans-Serif" font-size="10.00">Light2</text>
<text text-anchor="middle" x="1172.5" y="-563.5" font-family="Helvetica,sans-Serif" font-size="10.00">Light3</text>
<text text-anchor="middle" x="1172.5" y="-552.5" font-family="Helvetica,sans-Serif" font-size="10.00">Light4</text>
<text text-anchor="middle" x="1172.5" y="-541.5" font-family="Helvetica,sans-Serif" font-size="10.00">Light5</text>
<text text-anchor="middle" x="1172.5" y="-530.5" font-family="Helvetica,sans-Serif" font-size="10.00">Light6</text>
<text text-anchor="middle" x="1172.5" y="-519.5" font-family="Helvetica,sans-Serif" font-size="10.00">Light7</text>
<text text-anchor="middle" x="1172.5" y="-508.5" font-family="Helvetica,sans-Serif" font-size="10.00">Lights</text>
</g>
<!-- Node10&#45;&gt;Node9 -->
<g id="edge13" class="edge">
<title>Node10&#45;&gt;Node9</title>
<path fill="none" stroke="#63b8ff" d="M882.82,-653.93C924.31,-646.89 995.27,-634.84 1036.25,-627.89"/>
<polygon fill="#63b8ff" stroke="#63b8ff" points="882.47,-650.44 873.19,-655.56 883.64,-657.34 882.47,-650.44"/>
</g>
<!-- Node12 -->
<g id="node12" class="node">
<title>Node12</title>
<g id="a_node12"><a xlink:href="class_c_d_list_light.html" target="_top" xlink:title=" ">
<polygon fill="white" stroke="#bfbfbf" points="1103,-669 1035,-669 1035,-650 1103,-650 1103,-669"/>
<text text-anchor="middle" x="1069" y="-657" font-family="Helvetica,sans-Serif" font-size="10.00">CDListLight</text>
</a>
</g>
</g>
<!-- Node10&#45;&gt;Node12 -->
<g id="edge18" class="edge">
<title>Node10&#45;&gt;Node12</title>
<path fill="none" stroke="#63b8ff" d="M882.95,-659.5C923.95,-659.5 993.58,-659.5 1034.73,-659.5"/>
<polygon fill="#63b8ff" stroke="#63b8ff" points="883.21,-656 873.21,-659.5 883.21,-663 883.21,-656"/>
</g>
<!-- Node11&#45;&gt;Node3 -->
<g id="edge15" class="edge">
<title>Node11&#45;&gt;Node3</title>
<path fill="none" stroke="#9a32cd" stroke-dasharray="5,2" d="M1261.03,-637.98C1252.21,-662 1233.88,-700.67 1203,-717.5 1179.19,-730.47 1169.08,-718.87 1142,-717.5 1038.71,-712.27 771.53,-716.69 679,-670.5 653.45,-657.75 633.26,-629.5 623.82,-614.43"/>
<polygon fill="#9a32cd" stroke="#9a32cd" points="1264.29,-639.27 1264.21,-628.67 1257.67,-637 1264.29,-639.27"/>
<text text-anchor="middle" x="956.5" y="-716.5" font-family="Helvetica,sans-Serif" font-size="10.00"> DListLighting</text>
</g>
<!-- Node12&#45;&gt;Node11 -->
<g id="edge17" class="edge">
<title>Node12&#45;&gt;Node11</title>
<path fill="none" stroke="#9a32cd" stroke-dasharray="5,2" d="M1113.73,-646.51C1117.33,-644.73 1120.81,-642.74 1124,-640.5 1134.34,-633.25 1130.61,-623.96 1142,-618.5 1168.53,-605.8 1201.98,-606.21 1227.67,-609.45"/>
<polygon fill="#9a32cd" stroke="#9a32cd" points="1112.57,-643.2 1104.77,-650.36 1115.34,-649.63 1112.57,-643.2"/>
<text text-anchor="middle" x="1172.5" y="-709.5" font-family="Helvetica,sans-Serif" font-size="10.00"> Light0</text>
<text text-anchor="middle" x="1172.5" y="-698.5" font-family="Helvetica,sans-Serif" font-size="10.00">Light1</text>
<text text-anchor="middle" x="1172.5" y="-687.5" font-family="Helvetica,sans-Serif" font-size="10.00">Light2</text>
<text text-anchor="middle" x="1172.5" y="-676.5" font-family="Helvetica,sans-Serif" font-size="10.00">Light3</text>
<text text-anchor="middle" x="1172.5" y="-665.5" font-family="Helvetica,sans-Serif" font-size="10.00">Light4</text>
<text text-anchor="middle" x="1172.5" y="-654.5" font-family="Helvetica,sans-Serif" font-size="10.00">Light5</text>
<text text-anchor="middle" x="1172.5" y="-643.5" font-family="Helvetica,sans-Serif" font-size="10.00">Light6</text>
<text text-anchor="middle" x="1172.5" y="-632.5" font-family="Helvetica,sans-Serif" font-size="10.00">Light7</text>
<text text-anchor="middle" x="1172.5" y="-621.5" font-family="Helvetica,sans-Serif" font-size="10.00">Lights</text>
</g>
<!-- Node13 -->
<g id="node13" class="node">
<title>Node13</title>
<g id="a_node13"><a xlink:href="class_c_imm_geom_manager.html" target="_top" xlink:title=" ">
<polygon fill="white" stroke="#bfbfbf" points="1122.5,-1036 1015.5,-1036 1015.5,-1017 1122.5,-1017 1122.5,-1036"/>
<text text-anchor="middle" x="1069" y="-1024" font-family="Helvetica,sans-Serif" font-size="10.00">CImmGeomManager</text>
</a>
</g>
</g>
<!-- Node13&#45;&gt;Node3 -->
<g id="edge20" class="edge">
<title>Node13&#45;&gt;Node3</title>
<path fill="none" stroke="#9a32cd" stroke-dasharray="5,2" d="M1003.95,-1028C977.06,-1028.13 945.48,-1027.64 917,-1025.5 864.16,-1021.54 841.48,-1040.17 799,-1008.5 783.7,-997.09 795.22,-982.23 781,-969.5 745.39,-937.63 710.35,-971.56 679,-935.5 635.49,-885.45 621.18,-663.9 618.5,-614.35"/>
<polygon fill="#9a32cd" stroke="#9a32cd" points="1003.68,-1031.51 1013.65,-1027.92 1003.63,-1024.51 1003.68,-1031.51"/>
<text text-anchor="middle" x="849" y="-1029.5" font-family="Helvetica,sans-Serif" font-size="10.00"> ImmGManager</text>
</g>
<!-- Node14&#45;&gt;Node3 -->
<g id="edge37" class="edge">
<title>Node14&#45;&gt;Node3</title>
<path fill="none" stroke="#9a32cd" stroke-dasharray="5,2" d="M824.18,-882.56C811.76,-874.89 796.06,-866.16 781,-860.5 737.67,-844.22 712.55,-871.38 679,-839.5 645.16,-807.34 624.21,-654.9 619.18,-614.4"/>
<polygon fill="#9a32cd" stroke="#9a32cd" points="822.16,-885.42 832.47,-887.85 825.92,-879.52 822.16,-885.42"/>
<text text-anchor="middle" x="730" y="-863.5" font-family="Helvetica,sans-Serif" font-size="10.00"> CurGManager</text>
</g>
<!-- Node14&#45;&gt;Node13 -->
<g id="edge21" class="edge">
<title>Node14&#45;&gt;Node13</title>
<path fill="none" stroke="#63b8ff" d="M892.33,-912.14C922.54,-922.88 963.41,-939.53 996,-960.5 1021.67,-977.02 1046.84,-1002.94 1059.52,-1016.87"/>
<polygon fill="#63b8ff" stroke="#63b8ff" points="893.74,-908.92 883.15,-908.95 891.45,-915.54 893.74,-908.92"/>
</g>
<!-- Node22 -->
<g id="node22" class="node">
<title>Node22</title>
<g id="a_node22"><a xlink:href="class_c_d_list_geom_manager.html" target="_top" xlink:title=" ">
<polygon fill="white" stroke="#bfbfbf" points="1124,-919 1014,-919 1014,-900 1124,-900 1124,-919"/>
<text text-anchor="middle" x="1069" y="-907" font-family="Helvetica,sans-Serif" font-size="10.00">CDListGeomManager</text>
</a>
</g>
</g>
<!-- Node14&#45;&gt;Node22 -->
<g id="edge32" class="edge">
<title>Node14&#45;&gt;Node22</title>
<path fill="none" stroke="#63b8ff" d="M904.2,-901.24C937.59,-902.92 980.26,-905.07 1013.67,-906.76"/>
<polygon fill="#63b8ff" stroke="#63b8ff" points="904.49,-897.74 894.32,-900.74 904.13,-904.74 904.49,-897.74"/>
</g>
<!-- Node15 -->
<g id="node15" class="node">
<title>Node15</title>
<g id="a_node15"><a xlink:href="class_c_vert_array.html" target="_top" xlink:title=" ">
<polygon fill="white" stroke="#bfbfbf" points="649,-1012 585,-1012 585,-993 649,-993 649,-1012"/>
<text text-anchor="middle" x="617" y="-1000" font-family="Helvetica,sans-Serif" font-size="10.00">CVertArray</text>
</a>
</g>
</g>
<!-- Node15&#45;&gt;Node14 -->
<g id="edge23" class="edge">
<title>Node15&#45;&gt;Node14</title>
<path fill="none" stroke="#9a32cd" stroke-dasharray="5,2" d="M660.34,-1014.94C696.24,-1022.72 747.16,-1026.88 781,-1000.5 805.66,-981.28 781.05,-958.1 799,-932.5 806.13,-922.33 817.35,-914.22 827.25,-908.48"/>
<polygon fill="#9a32cd" stroke="#9a32cd" points="661.26,-1011.56 650.72,-1012.66 659.65,-1018.37 661.26,-1011.56"/>
<text text-anchor="middle" x="730" y="-1023.5" font-family="Helvetica,sans-Serif" font-size="10.00"> VertArray</text>
</g>
<!-- Node16 -->
<g id="node16" class="node">
<title>Node16</title>
<g id="a_node16"><a xlink:href="structt_user_prim_entry.html" target="_top" xlink:title=" ">
<polygon fill="white" stroke="#bfbfbf" points="658.5,-939 575.5,-939 575.5,-920 658.5,-920 658.5,-939"/>
<text text-anchor="middle" x="617" y="-927" font-family="Helvetica,sans-Serif" font-size="10.00">tUserPrimEntry</text>
</a>
</g>
</g>
<!-- Node16&#45;&gt;Node14 -->
<g id="edge24" class="edge">
<title>Node16&#45;&gt;Node14</title>
<path fill="none" stroke="#9a32cd" stroke-dasharray="5,2" d="M670.19,-922.47C710.99,-916.97 767,-909.42 805.19,-904.27"/>
<polygon fill="#9a32cd" stroke="#9a32cd" points="669.8,-918.99 660.35,-923.79 670.73,-925.92 669.8,-918.99"/>
<text text-anchor="middle" x="730" y="-923.5" font-family="Helvetica,sans-Serif" font-size="10.00"> UserPrimTypes</text>
</g>
<!-- Node17&#45;&gt;Node13 -->
<g id="edge25" class="edge">
<title>Node17&#45;&gt;Node13</title>
<path fill="none" stroke="#9a32cd" stroke-dasharray="5,2" d="M910.49,-1073.26C936.97,-1068.22 968.26,-1061.5 996,-1053.5 1012.42,-1048.77 1030.42,-1042.02 1044.31,-1036.45"/>
<polygon fill="#9a32cd" stroke="#9a32cd" points="910.14,-1069.77 900.95,-1075.04 911.43,-1076.65 910.14,-1069.77"/>
<text text-anchor="middle" x="956.5" y="-1074.5" font-family="Helvetica,sans-Serif" font-size="10.00"> RendererManager</text>
</g>
<!-- Node18 -->
<g id="node18" class="node">
<title>Node18</title>
<g id="a_node18"><a xlink:href="class_c_renderer_props.html" target="_top" xlink:title=" ">
<polygon fill="white" stroke="#bfbfbf" points="661,-1097 573,-1097 573,-1078 661,-1078 661,-1097"/>
<text text-anchor="middle" x="617" y="-1085" font-family="Helvetica,sans-Serif" font-size="10.00">CRendererProps</text>
</a>
</g>
</g>
<!-- Node18&#45;&gt;Node17 -->
<g id="edge27" class="edge">
<title>Node18&#45;&gt;Node17</title>
<path fill="none" stroke="#9a32cd" stroke-dasharray="5,2" d="M672.7,-1086.55C710.92,-1085.88 761.53,-1085 798.54,-1084.36"/>
<polygon fill="#9a32cd" stroke="#9a32cd" points="672.71,-1083.05 662.77,-1086.72 672.83,-1090.05 672.71,-1083.05"/>
<text text-anchor="middle" x="730" y="-1088.5" font-family="Helvetica,sans-Serif" font-size="10.00"> RendererRequirements</text>
</g>
<!-- Node19 -->
<g id="node19" class="node">
<title>Node19</title>
<g id="a_node19"><a xlink:href="structt_renderer.html" target="_top" xlink:title=" ">
<polygon fill="white" stroke="#bfbfbf" points="646.5,-1134 587.5,-1134 587.5,-1115 646.5,-1115 646.5,-1134"/>
<text text-anchor="middle" x="617" y="-1122" font-family="Helvetica,sans-Serif" font-size="10.00">tRenderer</text>
</a>
</g>
</g>
<!-- Node19&#45;&gt;Node17 -->
<g id="edge28" class="edge">
<title>Node19&#45;&gt;Node17</title>
<path fill="none" stroke="#9a32cd" stroke-dasharray="5,2" d="M657.76,-1119.8C690.89,-1115.61 739.22,-1108.85 781,-1100.5 791,-1098.5 801.75,-1095.95 811.64,-1093.45"/>
<polygon fill="#9a32cd" stroke="#9a32cd" points="657.71,-1116.28 648.22,-1120.99 658.57,-1123.23 657.71,-1116.28"/>
<text text-anchor="middle" x="730" y="-1152.5" font-family="Helvetica,sans-Serif" font-size="10.00"> CurrentRenderer</text>
<text text-anchor="middle" x="730" y="-1141.5" font-family="Helvetica,sans-Serif" font-size="10.00">DefaultRenderers</text>
<text text-anchor="middle" x="730" y="-1130.5" font-family="Helvetica,sans-Serif" font-size="10.00">NewRenderer</text>
<text text-anchor="middle" x="730" y="-1119.5" font-family="Helvetica,sans-Serif" font-size="10.00">UserRenderers</text>
</g>
<!-- Node20 -->
<g id="node20" class="node">
<title>Node20</title>
<g id="a_node20"><a xlink:href="class_c_renderer.html" target="_top" xlink:title=" ">
<polygon fill="white" stroke="#666666" points="441,-1134 379,-1134 379,-1115 441,-1115 441,-1134"/>
<text text-anchor="middle" x="410" y="-1122" font-family="Helvetica,sans-Serif" font-size="10.00">CRenderer</text>
</a>
</g>
</g>
<!-- Node20&#45;&gt;Node19 -->
<g id="edge29" class="edge">
<title>Node20&#45;&gt;Node19</title>
<path fill="none" stroke="#9a32cd" stroke-dasharray="5,2" d="M452.76,-1124.5C492.83,-1124.5 552.27,-1124.5 587.28,-1124.5"/>
<polygon fill="#9a32cd" stroke="#9a32cd" points="452.76,-1121 442.76,-1124.5 452.76,-1128 452.76,-1121"/>
<text text-anchor="middle" x="516" y="-1127.5" font-family="Helvetica,sans-Serif" font-size="10.00"> renderer</text>
</g>
<!-- Node21 -->
<g id="node21" class="node">
<title>Node21</title>
<g id="a_node21"><a xlink:href="class_c_geometry_block.html" target="_top" xlink:title=" ">
<polygon fill="white" stroke="#bfbfbf" points="894,-999 804,-999 804,-980 894,-980 894,-999"/>
<text text-anchor="middle" x="849" y="-987" font-family="Helvetica,sans-Serif" font-size="10.00">CGeometryBlock</text>
</a>
</g>
</g>
<!-- Node21&#45;&gt;Node13 -->
<g id="edge30" class="edge">
<title>Node21&#45;&gt;Node13</title>
<path fill="none" stroke="#9a32cd" stroke-dasharray="5,2" d="M905.44,-998.91C939.17,-1004.63 982,-1011.9 1015.23,-1017.54"/>
<polygon fill="#9a32cd" stroke="#9a32cd" points="906.32,-995.51 895.87,-997.29 905.14,-1002.41 906.32,-995.51"/>
<text text-anchor="middle" x="956.5" y="-1015.5" font-family="Helvetica,sans-Serif" font-size="10.00"> Geometry</text>
</g>
<!-- Node21&#45;&gt;Node22 -->
<g id="edge36" class="edge">
<title>Node21&#45;&gt;Node22</title>
<path fill="none" stroke="#9a32cd" stroke-dasharray="5,2" d="M887.92,-975.58C931.61,-959.55 1002.3,-933.61 1040.83,-919.47"/>
<polygon fill="#9a32cd" stroke="#9a32cd" points="886.77,-972.28 878.59,-979.01 889.18,-978.85 886.77,-972.28"/>
<text text-anchor="middle" x="956.5" y="-966.5" font-family="Helvetica,sans-Serif" font-size="10.00"> Geometry</text>
</g>
<!-- Node22&#45;&gt;Node3 -->
<g id="edge31" class="edge">
<title>Node22&#45;&gt;Node3</title>
<path fill="none" stroke="#9a32cd" stroke-dasharray="5,2" d="M1015.68,-896.78C915.33,-871.97 703.5,-817.46 679,-793.5 626.49,-742.15 619.13,-645.41 618.14,-614.36"/>
<polygon fill="#9a32cd" stroke="#9a32cd" points="1014.76,-900.16 1025.3,-899.15 1016.43,-893.36 1014.76,-900.16"/>
<text text-anchor="middle" x="849" y="-869.5" font-family="Helvetica,sans-Serif" font-size="10.00"> DListGManager</text>
</g>
<!-- Node23 -->
<g id="node23" class="node">
<title>Node23</title>
<g id="a_node23"><a xlink:href="class_c_d_list.html" target="_top" xlink:title=" ">
<polygon fill="white" stroke="#bfbfbf" points="247.5,-994 200.5,-994 200.5,-975 247.5,-975 247.5,-994"/>
<text text-anchor="middle" x="224" y="-982" font-family="Helvetica,sans-Serif" font-size="10.00">CDList</text>
</a>
</g>
</g>
<!-- Node23&#45;&gt;Node22 -->
<g id="edge33" class="edge">
<title>Node23&#45;&gt;Node22</title>
<path fill="none" stroke="#9a32cd" stroke-dasharray="5,2" d="M259.06,-993.33C366.87,-1020.41 698.4,-1096.8 781,-1034.5 804.25,-1016.96 778.59,-992.27 799,-971.5 828.47,-941.5 943.96,-923.49 1013.67,-915.14"/>
<polygon fill="#9a32cd" stroke="#9a32cd" points="259.92,-989.94 249.37,-990.87 258.2,-996.72 259.92,-989.94"/>
<text text-anchor="middle" x="617" y="-1060.5" font-family="Helvetica,sans-Serif" font-size="10.00"> CurDList</text>
</g>
<!-- Node29 -->
<g id="node29" class="node">
<title>Node29</title>
<g id="a_node29"><a xlink:href="class_c_d_list_manager.html" target="_top" xlink:title=" ">
<polygon fill="white" stroke="#bfbfbf" points="452,-800 368,-800 368,-781 452,-781 452,-800"/>
<text text-anchor="middle" x="410" y="-788" font-family="Helvetica,sans-Serif" font-size="10.00">CDListManager</text>
</a>
</g>
</g>
<!-- Node23&#45;&gt;Node29 -->
<g id="edge47" class="edge">
<title>Node23&#45;&gt;Node29</title>
<path fill="none" stroke="#9a32cd" stroke-dasharray="5,2" d="M242.29,-966.27C280.47,-926.02 370.84,-830.73 399.86,-800.14"/>
<polygon fill="#9a32cd" stroke="#9a32cd" points="239.76,-963.85 235.42,-973.51 244.84,-968.67 239.76,-963.85"/>
<text text-anchor="middle" x="308" y="-956.5" font-family="Helvetica,sans-Serif" font-size="10.00"> Lists</text>
<text text-anchor="middle" x="308" y="-945.5" font-family="Helvetica,sans-Serif" font-size="10.00">ListsToBeFreed</text>
<text text-anchor="middle" x="308" y="-934.5" font-family="Helvetica,sans-Serif" font-size="10.00">OpenList</text>
</g>
<!-- Node24 -->
<g id="node24" class="node">
<title>Node24</title>
<g id="a_node24"><a xlink:href="class_c_d_list_cmd_block.html" target="_top" xlink:title=" ">
<polygon fill="white" stroke="#bfbfbf" points="92,-994 0,-994 0,-975 92,-975 92,-994"/>
<text text-anchor="middle" x="46" y="-982" font-family="Helvetica,sans-Serif" font-size="10.00">CDListCmdBlock</text>
</a>
</g>
</g>
<!-- Node24&#45;&gt;Node23 -->
<g id="edge34" class="edge">
<title>Node24&#45;&gt;Node23</title>
<path fill="none" stroke="#9a32cd" stroke-dasharray="5,2" d="M103.63,-984.5C136.5,-984.5 176.08,-984.5 200.39,-984.5"/>
<polygon fill="#9a32cd" stroke="#9a32cd" points="103.84,-981 93.84,-984.5 103.84,-988 103.84,-981"/>
<text text-anchor="middle" x="142.5" y="-998.5" font-family="Helvetica,sans-Serif" font-size="10.00"> CurCmdBlock</text>
<text text-anchor="middle" x="142.5" y="-987.5" font-family="Helvetica,sans-Serif" font-size="10.00">FirstCmdBlock</text>
</g>
<!-- Node24&#45;&gt;Node24 -->
<g id="edge35" class="edge">
<title>Node24&#45;&gt;Node24</title>
<path fill="none" stroke="#9a32cd" stroke-dasharray="5,2" d="M28.87,-1005.43C31.01,-1009.29 36.72,-1012 46,-1012 62.96,-1012 68,-1002.94 61.11,-994.37"/>
<polygon fill="#9a32cd" stroke="#9a32cd" points="32.27,-1006.32 30.62,-995.86 25.38,-1005.07 32.27,-1006.32"/>
<text text-anchor="middle" x="46" y="-1015" font-family="Helvetica,sans-Serif" font-size="10.00"> NextBlock</text>
</g>
<!-- Node25&#45;&gt;Node3 -->
<g id="edge38" class="edge">
<title>Node25&#45;&gt;Node3</title>
<path fill="none" stroke="#9a32cd" stroke-dasharray="5,2" d="M1241.08,-242.14C1229.72,-236.26 1216.07,-230.09 1203,-226.5 1169.01,-217.16 1159.19,-221.61 1124,-219.5 925.89,-207.64 819.54,-116.37 679,-256.5 629.48,-305.87 619.78,-543.34 618.25,-594.69"/>
<polygon fill="#9a32cd" stroke="#9a32cd" points="1239.38,-245.21 1249.84,-246.89 1242.72,-239.05 1239.38,-245.21"/>
<text text-anchor="middle" x="956.5" y="-204.5" font-family="Helvetica,sans-Serif" font-size="10.00"> MaterialManager</text>
</g>
<!-- Node26 -->
<g id="node26" class="node">
<title>Node26</title>
<g id="a_node26"><a xlink:href="class_c_imm_material.html" target="_top" xlink:title=" ">
<polygon fill="white" stroke="#bfbfbf" points="1107.5,-304 1030.5,-304 1030.5,-285 1107.5,-285 1107.5,-304"/>
<text text-anchor="middle" x="1069" y="-292" font-family="Helvetica,sans-Serif" font-size="10.00">CImmMaterial</text>
</a>
</g>
</g>
<!-- Node26&#45;&gt;Node25 -->
<g id="edge40" class="edge">
<title>Node26&#45;&gt;Node25</title>
<path fill="none" stroke="#9a32cd" stroke-dasharray="5,2" d="M1119.02,-286.53C1144.17,-282.32 1175.28,-276.9 1203,-271.5 1209.41,-270.25 1216.16,-268.86 1222.79,-267.46"/>
<polygon fill="#9a32cd" stroke="#9a32cd" points="1118.7,-283.04 1109.41,-288.13 1119.85,-289.94 1118.7,-283.04"/>
<text text-anchor="middle" x="1172.5" y="-285.5" font-family="Helvetica,sans-Serif" font-size="10.00"> ImmMaterial</text>
</g>
<!-- Node27&#45;&gt;Node25 -->
<g id="edge45" class="edge">
<title>Node27&#45;&gt;Node25</title>
<path fill="none" stroke="#9a32cd" stroke-dasharray="5,2" d="M889.29,-255.79C922.2,-245.85 970.62,-232.84 1014,-227.5 1062.52,-221.53 1075.37,-222.47 1124,-227.5 1160.58,-231.28 1201.59,-240.35 1230.37,-247.54"/>
<polygon fill="#9a32cd" stroke="#9a32cd" points="888.31,-252.43 879.78,-258.71 890.37,-259.12 888.31,-252.43"/>
<text text-anchor="middle" x="1069" y="-230.5" font-family="Helvetica,sans-Serif" font-size="10.00"> CurMaterial</text>
</g>
<!-- Node27&#45;&gt;Node26 -->
<g id="edge41" class="edge">
<title>Node27&#45;&gt;Node26</title>
<path fill="none" stroke="#63b8ff" d="M889.74,-273.98C898.7,-275.18 908.17,-276.41 917,-277.5 955.49,-282.25 999.56,-287.15 1030.12,-290.46"/>
<polygon fill="#63b8ff" stroke="#63b8ff" points="890.22,-270.51 879.85,-272.65 889.29,-277.45 890.22,-270.51"/>
</g>
<!-- Node28 -->
<g id="node28" class="node">
<title>Node28</title>
<g id="a_node28"><a xlink:href="class_c_d_list_material.html" target="_top" xlink:title=" ">
<polygon fill="white" stroke="#bfbfbf" points="1109.5,-267 1028.5,-267 1028.5,-248 1109.5,-248 1109.5,-267"/>
<text text-anchor="middle" x="1069" y="-255" font-family="Helvetica,sans-Serif" font-size="10.00">CDListMaterial</text>
</a>
</g>
</g>
<!-- Node27&#45;&gt;Node28 -->
<g id="edge44" class="edge">
<title>Node27&#45;&gt;Node28</title>
<path fill="none" stroke="#63b8ff" d="M889.98,-266.48C929.24,-264.5 988.77,-261.5 1028.02,-259.52"/>
<polygon fill="#63b8ff" stroke="#63b8ff" points="889.82,-262.99 880.01,-266.99 890.18,-269.98 889.82,-262.99"/>
</g>
<!-- Node28&#45;&gt;Node25 -->
<g id="edge43" class="edge">
<title>Node28&#45;&gt;Node25</title>
<path fill="none" stroke="#9a32cd" stroke-dasharray="5,2" d="M1121.31,-257.5C1152.02,-257.5 1190.76,-257.5 1220.65,-257.5"/>
<polygon fill="#9a32cd" stroke="#9a32cd" points="1121.48,-254 1111.48,-257.5 1121.48,-261 1121.48,-254"/>
<text text-anchor="middle" x="1172.5" y="-260.5" font-family="Helvetica,sans-Serif" font-size="10.00"> DListMaterial</text>
</g>
<!-- Node29&#45;&gt;Node3 -->
<g id="edge46" class="edge">
<title>Node29&#45;&gt;Node3</title>
<path fill="none" stroke="#9a32cd" stroke-dasharray="5,2" d="M434.87,-774.13C464.48,-753.31 515.85,-715.46 555,-677.5 576.58,-656.57 598.31,-628.51 609.06,-614.03"/>
<polygon fill="#9a32cd" stroke="#9a32cd" points="433.15,-771.06 426.95,-779.65 437.16,-776.8 433.15,-771.06"/>
<text text-anchor="middle" x="516" y="-745.5" font-family="Helvetica,sans-Serif" font-size="10.00"> DListManager</text>
</g>
<!-- Node30&#45;&gt;Node3 -->
<g id="edge48" class="edge">
<title>Node30&#45;&gt;Node3</title>
<path fill="none" stroke="#9a32cd" stroke-dasharray="5,2" d="M798.88,-87.94C750.48,-96.48 683.15,-109.03 679,-113.5 611.08,-186.7 616.22,-531.93 617.73,-594.7"/>
<polygon fill="#9a32cd" stroke="#9a32cd" points="799.38,-91.41 808.62,-86.23 798.17,-84.51 799.38,-91.41"/>
<text text-anchor="middle" x="730" y="-116.5" font-family="Helvetica,sans-Serif" font-size="10.00"> TexManager</text>
</g>
<!-- Node31 -->
<g id="node31" class="node">
<title>Node31</title>
<g id="a_node31"><a xlink:href="class_c_m_m_texture.html" target="_top" xlink:title=" ">
<polygon fill="white" stroke="#bfbfbf" points="653,-56 581,-56 581,-37 653,-37 653,-56"/>
<text text-anchor="middle" x="617" y="-44" font-family="Helvetica,sans-Serif" font-size="10.00">CMMTexture</text>
</a>
</g>
</g>
<!-- Node31&#45;&gt;Node30 -->
<g id="edge50" class="edge">
<title>Node31&#45;&gt;Node30</title>
<path fill="none" stroke="#9a32cd" stroke-dasharray="5,2" d="M664.31,-40.96C697.29,-38.36 742.42,-37.51 781,-46.5 800.07,-50.94 819.95,-61.62 833.06,-69.64"/>
<polygon fill="#9a32cd" stroke="#9a32cd" points="664.34,-37.45 654.69,-41.81 664.96,-44.42 664.34,-37.45"/>
<text text-anchor="middle" x="730" y="-82.5" font-family="Helvetica,sans-Serif" font-size="10.00"> CurTexture</text>
<text text-anchor="middle" x="730" y="-71.5" font-family="Helvetica,sans-Serif" font-size="10.00">DefaultTex</text>
<text text-anchor="middle" x="730" y="-60.5" font-family="Helvetica,sans-Serif" font-size="10.00">LastTexSent</text>
<text text-anchor="middle" x="730" y="-49.5" font-family="Helvetica,sans-Serif" font-size="10.00">TexNames</text>
</g>
<!-- Node32 -->
<g id="node32" class="node">
<title>Node32</title>
<g id="a_node32"><a xlink:title=" ">
<polygon fill="white" stroke="#bfbfbf" points="447,-56 373,-56 373,-37 447,-37 447,-56"/>
<text text-anchor="middle" x="410" y="-44" font-family="Helvetica,sans-Serif" font-size="10.00">GS::CTexture</text>
</a>
</g>
</g>
<!-- Node32&#45;&gt;Node31 -->
<g id="edge51" class="edge">
<title>Node32&#45;&gt;Node31</title>
<path fill="none" stroke="#63b8ff" d="M458.26,-46.5C495.54,-46.5 546.7,-46.5 580.53,-46.5"/>
<polygon fill="#63b8ff" stroke="#63b8ff" points="458.69,-43 448.69,-46.5 458.69,-50 458.69,-43"/>
</g>
<!-- Node33 -->
<g id="node33" class="node">
<title>Node33</title>
<g id="a_node33"><a xlink:href="class_c_m_m_clut.html" target="_top" xlink:title=" ">
<polygon fill="white" stroke="#666666" points="645.5,-19 588.5,-19 588.5,0 645.5,0 645.5,-19"/>
<text text-anchor="middle" x="617" y="-7" font-family="Helvetica,sans-Serif" font-size="10.00">CMMClut</text>
</a>
</g>
</g>
<!-- Node33&#45;&gt;Node30 -->
<g id="edge52" class="edge">
<title>Node33&#45;&gt;Node30</title>
<path fill="none" stroke="#9a32cd" stroke-dasharray="5,2" d="M657.32,-6.79C691.32,-5.89 741.14,-8.14 781,-24.5 805.5,-34.56 827.98,-56.78 839.64,-69.69"/>
<polygon fill="#9a32cd" stroke="#9a32cd" points="657.36,-3.28 647.5,-7.16 657.63,-10.28 657.36,-3.28"/>
<text text-anchor="middle" x="730" y="-27.5" font-family="Helvetica,sans-Serif" font-size="10.00"> CurClut</text>
</g>
<!-- Node34 -->
<g id="node34" class="node">
<title>Node34</title>
<g id="a_node34"><a xlink:title=" ">
<polygon fill="white" stroke="#bfbfbf" points="439.5,-19 380.5,-19 380.5,0 439.5,0 439.5,-19"/>
<text text-anchor="middle" x="410" y="-7" font-family="Helvetica,sans-Serif" font-size="10.00">GS::CClut</text>
</a>
</g>
</g>
<!-- Node34&#45;&gt;Node33 -->
<g id="edge53" class="edge">
<title>Node34&#45;&gt;Node33</title>
<path fill="none" stroke="#63b8ff" d="M451.25,-9.5C491.67,-9.5 552.88,-9.5 588.2,-9.5"/>
<polygon fill="#63b8ff" stroke="#63b8ff" points="451.45,-6 441.45,-9.5 451.45,-13 451.45,-6"/>
</g>
<!-- Node35&#45;&gt;Node3 -->
<g id="edge55" class="edge">
<title>Node35&#45;&gt;Node3</title>
<path fill="none" stroke="#9a32cd" stroke-dasharray="5,2" d="M1006.67,-753.14C904.05,-740.42 706.07,-714.01 679,-696.5 647.62,-676.2 628.65,-633.45 621.4,-614.22"/>
<polygon fill="#9a32cd" stroke="#9a32cd" points="1005.94,-756.58 1016.29,-754.33 1006.8,-749.63 1005.94,-756.58"/>
<text text-anchor="middle" x="849" y="-741.5" font-family="Helvetica,sans-Serif" font-size="10.00"> DListDrawContext</text>
</g>
<!-- Node36&#45;&gt;Node3 -->
<g id="edge58" class="edge">
<title>Node36&#45;&gt;Node3</title>
<path fill="none" stroke="#9a32cd" stroke-dasharray="5,2" d="M793.45,-410.38C750.96,-409.86 696.36,-412.04 679,-425.5 623.74,-468.35 618.21,-563.81 617.91,-594.67"/>
<polygon fill="#9a32cd" stroke="#9a32cd" points="793.22,-413.87 803.28,-410.55 793.35,-406.87 793.22,-413.87"/>
<text text-anchor="middle" x="730" y="-428.5" font-family="Helvetica,sans-Serif" font-size="10.00"> DisplayContext</text>
</g>
<!-- Node37 -->
<g id="node37" class="node">
<title>Node37</title>
<g id="a_node37"><a xlink:href="class_c_clear_env.html" target="_top" xlink:title=" ">
<polygon fill="white" stroke="#bfbfbf" points="255,-723 193,-723 193,-704 255,-704 255,-723"/>
<text text-anchor="middle" x="224" y="-711" font-family="Helvetica,sans-Serif" font-size="10.00">CClearEnv</text>
</a>
</g>
</g>
<!-- Node37&#45;&gt;Node1 -->
<g id="edge60" class="edge">
<title>Node37&#45;&gt;Node1</title>
<path fill="none" stroke="#9a32cd" stroke-dasharray="5,2" d="M266.74,-713.5C294.62,-713.5 331.39,-713.5 360.57,-713.5"/>
<polygon fill="#9a32cd" stroke="#9a32cd" points="266.9,-710 256.9,-713.5 266.9,-717 266.9,-710"/>
<text text-anchor="middle" x="308" y="-716.5" font-family="Helvetica,sans-Serif" font-size="10.00"> ClearEnv</text>
</g>
</g>
</svg>
