<?xml version="1.0" encoding="UTF-8" standalone="no"?>
<!DOCTYPE svg PUBLIC "-//W3C//DTD SVG 1.1//EN"
 "http://www.w3.org/Graphics/SVG/1.1/DTD/svg11.dtd">
<!-- Generated by graphviz version 7.0.5 (20221223.1930)
 -->
<!-- Title: CTexManager Pages: 1 -->
<svg width="1306pt" height="1054pt"
 viewBox="0.00 0.00 1306.00 1053.81" xmlns="http://www.w3.org/2000/svg" xmlns:xlink="http://www.w3.org/1999/xlink">
<g id="graph0" class="graph" transform="scale(1 1) rotate(0) translate(4 1049.81)">
<title>CTexManager</title>
<!-- Node1 -->
<g id="node1" class="node">
<title>Node1</title>
<g id="a_node1"><a xlink:title=" ">
<polygon fill="#999999" stroke="#666666" points="451.5,-573.81 374.5,-573.81 374.5,-554.81 451.5,-554.81 451.5,-573.81"/>
<text text-anchor="middle" x="413" y="-561.81" font-family="Helvetica,sans-Serif" font-size="10.00">CTexManager</text>
</a>
</g>
</g>
<!-- Node2 -->
<g id="node2" class="node">
<title>Node2</title>
<g id="a_node2"><a xlink:href="class_c_g_l_context.html" target="_top" xlink:title=" ">
<polygon fill="white" stroke="#bfbfbf" points="634,-523.81 564,-523.81 564,-504.81 634,-504.81 634,-523.81"/>
<text text-anchor="middle" x="599" y="-511.81" font-family="Helvetica,sans-Serif" font-size="10.00">CGLContext</text>
</a>
</g>
</g>
<!-- Node1&#45;&gt;Node2 -->
<g id="edge47" class="edge">
<title>Node1&#45;&gt;Node2</title>
<path fill="none" stroke="#9a32cd" stroke-dasharray="5,2" d="M436.62,-548.45C447.21,-541.78 460.27,-534.6 473,-530.31 502.65,-520.32 538.18,-516.5 563.77,-515.07"/>
<polygon fill="#9a32cd" stroke="#9a32cd" points="435.02,-545.31 428.59,-553.73 438.87,-551.16 435.02,-545.31"/>
<text text-anchor="middle" x="505" y="-533.31" font-family="Helvetica,sans-Serif" font-size="10.00"> TexManager</text>
</g>
<!-- Node2&#45;&gt;Node1 -->
<g id="edge1" class="edge">
<title>Node2&#45;&gt;Node1</title>
<path fill="none" stroke="#9a32cd" stroke-dasharray="5,2" d="M570.39,-529.41C560.15,-534.47 548.28,-539.74 537,-543.31 509.12,-552.13 476.44,-557.49 451.77,-560.58"/>
<polygon fill="#9a32cd" stroke="#9a32cd" points="571.74,-532.65 579.03,-524.97 568.54,-526.43 571.74,-532.65"/>
<text text-anchor="middle" x="505" y="-561.31" font-family="Helvetica,sans-Serif" font-size="10.00"> GLContext</text>
</g>
<!-- Node4 -->
<g id="node4" class="node">
<title>Node4</title>
<g id="a_node4"><a xlink:href="class_c_matrix_stack.html" target="_top" xlink:title=" ">
<polygon fill="white" stroke="#bfbfbf" points="868.5,-443.81 793.5,-443.81 793.5,-424.81 868.5,-424.81 868.5,-443.81"/>
<text text-anchor="middle" x="831" y="-431.81" font-family="Helvetica,sans-Serif" font-size="10.00">CMatrixStack</text>
</a>
</g>
</g>
<!-- Node2&#45;&gt;Node4 -->
<g id="edge4" class="edge">
<title>Node2&#45;&gt;Node4</title>
<path fill="none" stroke="#9a32cd" stroke-dasharray="5,2" d="M645.28,-505.33C691.72,-496 757.87,-482.36 763,-479.31 773.56,-473.02 771.28,-465.83 781,-458.31 788.19,-452.74 796.88,-447.98 804.93,-444.19"/>
<polygon fill="#9a32cd" stroke="#9a32cd" points="644.85,-501.84 635.73,-507.24 646.22,-508.71 644.85,-501.84"/>
<text text-anchor="middle" x="712" y="-505.31" font-family="Helvetica,sans-Serif" font-size="10.00"> GLContext</text>
</g>
<!-- Node7 -->
<g id="node7" class="node">
<title>Node7</title>
<g id="a_node7"><a xlink:href="class_c_lighting.html" target="_top" xlink:title=" ">
<polygon fill="white" stroke="#bfbfbf" points="967.5,-134.81 909.5,-134.81 909.5,-115.81 967.5,-115.81 967.5,-134.81"/>
<text text-anchor="middle" x="938.5" y="-122.81" font-family="Helvetica,sans-Serif" font-size="10.00">CLighting</text>
</a>
</g>
</g>
<!-- Node2&#45;&gt;Node7 -->
<g id="edge10" class="edge">
<title>Node2&#45;&gt;Node7</title>
<path fill="none" stroke="#9a32cd" stroke-dasharray="5,2" d="M599.76,-493.03C599.42,-417.12 602.68,-161.47 661,-111.31 734.79,-47.84 864.85,-93.54 915.99,-115.41"/>
<polygon fill="#9a32cd" stroke="#9a32cd" points="596.26,-492.84 599.84,-502.81 603.26,-492.78 596.26,-492.84"/>
<text text-anchor="middle" x="712" y="-114.31" font-family="Helvetica,sans-Serif" font-size="10.00"> GLContext</text>
</g>
<!-- Node9 -->
<g id="node9" class="node">
<title>Node9</title>
<g id="a_node9"><a xlink:href="class_c_light.html" target="_top" xlink:title=" ">
<polygon fill="white" stroke="#bfbfbf" points="853.5,-278.81 808.5,-278.81 808.5,-259.81 853.5,-259.81 853.5,-278.81"/>
<text text-anchor="middle" x="831" y="-266.81" font-family="Helvetica,sans-Serif" font-size="10.00">CLight</text>
</a>
</g>
</g>
<!-- Node2&#45;&gt;Node9 -->
<g id="edge13" class="edge">
<title>Node2&#45;&gt;Node9</title>
<path fill="none" stroke="#9a32cd" stroke-dasharray="5,2" d="M601.83,-493.22C607.12,-437.94 624.41,-291.1 661,-262.31 703.69,-228.72 772.94,-247.33 808.06,-260.24"/>
<polygon fill="#9a32cd" stroke="#9a32cd" points="598.38,-492.59 600.95,-502.87 605.35,-493.23 598.38,-492.59"/>
<text text-anchor="middle" x="712" y="-265.31" font-family="Helvetica,sans-Serif" font-size="10.00"> GLContext</text>
</g>
<!-- Node13 -->
<g id="node13" class="node">
<title>Node13</title>
<g id="a_node13"><a xlink:href="class_c_geom_manager.html" target="_top" xlink:title=" ">
<polygon fill="white" stroke="#bfbfbf" points="874.5,-795.81 787.5,-795.81 787.5,-776.81 874.5,-776.81 874.5,-795.81"/>
<text text-anchor="middle" x="831" y="-783.81" font-family="Helvetica,sans-Serif" font-size="10.00">CGeomManager</text>
</a>
</g>
</g>
<!-- Node2&#45;&gt;Node13 -->
<g id="edge21" class="edge">
<title>Node2&#45;&gt;Node13</title>
<path fill="none" stroke="#9a32cd" stroke-dasharray="5,2" d="M602.22,-535.4C608.35,-589.44 627.34,-730.71 661,-761.31 679,-777.67 743.29,-783.33 787.18,-785.28"/>
<polygon fill="#9a32cd" stroke="#9a32cd" points="605.73,-535.26 601.16,-525.7 598.77,-536.02 605.73,-535.26"/>
<text text-anchor="middle" x="712" y="-786.31" font-family="Helvetica,sans-Serif" font-size="10.00"> GLContext</text>
</g>
<!-- Node16 -->
<g id="node16" class="node">
<title>Node16</title>
<g id="a_node16"><a xlink:href="class_c_renderer_manager.html" target="_top" xlink:title=" ">
<polygon fill="white" stroke="#bfbfbf" points="881,-975.81 781,-975.81 781,-956.81 881,-956.81 881,-975.81"/>
<text text-anchor="middle" x="831" y="-963.81" font-family="Helvetica,sans-Serif" font-size="10.00">CRendererManager</text>
</a>
</g>
</g>
<!-- Node2&#45;&gt;Node16 -->
<g id="edge25" class="edge">
<title>Node2&#45;&gt;Node16</title>
<path fill="none" stroke="#9a32cd" stroke-dasharray="5,2" d="M602.63,-535.28C611.74,-606.7 642.36,-837.59 661,-865.31 693.62,-913.81 758.07,-942.58 797.27,-956.34"/>
<polygon fill="#9a32cd" stroke="#9a32cd" points="606.15,-535.2 601.42,-525.72 599.21,-536.08 606.15,-535.2"/>
<text text-anchor="middle" x="712" y="-943.31" font-family="Helvetica,sans-Serif" font-size="10.00"> GLContext</text>
</g>
<!-- Node24 -->
<g id="node24" class="node">
<title>Node24</title>
<g id="a_node24"><a xlink:href="class_c_material_manager.html" target="_top" xlink:title=" ">
<polygon fill="white" stroke="#bfbfbf" points="1298,-661.81 1203,-661.81 1203,-642.81 1298,-642.81 1298,-661.81"/>
<text text-anchor="middle" x="1250.5" y="-649.81" font-family="Helvetica,sans-Serif" font-size="10.00">CMaterialManager</text>
</a>
</g>
</g>
<!-- Node2&#45;&gt;Node24 -->
<g id="edge38" class="edge">
<title>Node2&#45;&gt;Node24</title>
<path fill="none" stroke="#9a32cd" stroke-dasharray="5,2" d="M604.36,-534.9C611.29,-562.09 627.6,-609.23 661,-632.31 742.66,-688.75 1006.76,-673.82 1106,-671.31 1141.14,-670.42 1150.19,-672.2 1185,-667.31 1193.77,-666.08 1203.09,-664.23 1211.85,-662.25"/>
<polygon fill="#9a32cd" stroke="#9a32cd" points="607.84,-534.38 602.15,-525.44 601.02,-535.97 607.84,-534.38"/>
<text text-anchor="middle" x="938.5" y="-677.31" font-family="Helvetica,sans-Serif" font-size="10.00"> GLContext</text>
</g>
<!-- Node26 -->
<g id="node26" class="node">
<title>Node26</title>
<g id="a_node26"><a xlink:href="class_c_material.html" target="_top" xlink:title=" ">
<polygon fill="white" stroke="#bfbfbf" points="860,-624.81 802,-624.81 802,-605.81 860,-605.81 860,-624.81"/>
<text text-anchor="middle" x="831" y="-612.81" font-family="Helvetica,sans-Serif" font-size="10.00">CMaterial</text>
</a>
</g>
</g>
<!-- Node2&#45;&gt;Node26 -->
<g id="edge41" class="edge">
<title>Node2&#45;&gt;Node26</title>
<path fill="none" stroke="#9a32cd" stroke-dasharray="5,2" d="M609.99,-534.14C620.2,-552.2 637.85,-578.02 661,-591.31 705.21,-616.68 766.3,-618.79 801.63,-617.45"/>
<polygon fill="#9a32cd" stroke="#9a32cd" points="613.12,-532.57 605.32,-525.41 606.95,-535.88 613.12,-532.57"/>
<text text-anchor="middle" x="712" y="-620.31" font-family="Helvetica,sans-Serif" font-size="10.00"> GLContext</text>
</g>
<!-- Node30 -->
<g id="node30" class="node">
<title>Node30</title>
<g id="a_node30"><a xlink:href="class_c_draw_context.html" target="_top" xlink:title=" ">
<polygon fill="white" stroke="#bfbfbf" points="870.5,-403.81 791.5,-403.81 791.5,-384.81 870.5,-384.81 870.5,-403.81"/>
<text text-anchor="middle" x="831" y="-391.81" font-family="Helvetica,sans-Serif" font-size="10.00">CDrawContext</text>
</a>
</g>
</g>
<!-- Node2&#45;&gt;Node30 -->
<g id="edge50" class="edge">
<title>Node2&#45;&gt;Node30</title>
<path fill="none" stroke="#9a32cd" stroke-dasharray="5,2" d="M607.88,-493.95C617.22,-472.73 634.88,-440.24 661,-423.31 681.98,-409.71 748.21,-401.47 791.26,-397.41"/>
<polygon fill="#9a32cd" stroke="#9a32cd" points="604.72,-492.44 604.13,-503.01 611.19,-495.11 604.72,-492.44"/>
<text text-anchor="middle" x="712" y="-426.31" font-family="Helvetica,sans-Serif" font-size="10.00"> GLContext</text>
</g>
<!-- Node33 -->
<g id="node33" class="node">
<title>Node33</title>
<g id="a_node33"><a xlink:href="class_c_display_context.html" target="_top" xlink:title=" ">
<polygon fill="white" stroke="#bfbfbf" points="875,-363.81 787,-363.81 787,-344.81 875,-344.81 875,-363.81"/>
<text text-anchor="middle" x="831" y="-351.81" font-family="Helvetica,sans-Serif" font-size="10.00">CDisplayContext</text>
</a>
</g>
</g>
<!-- Node2&#45;&gt;Node33 -->
<g id="edge56" class="edge">
<title>Node2&#45;&gt;Node33</title>
<path fill="none" stroke="#9a32cd" stroke-dasharray="5,2" d="M601.02,-493.42C603.99,-458.21 615.62,-387.83 661,-356.31 700.64,-328.77 759.12,-335.8 795.86,-344.34"/>
<polygon fill="#9a32cd" stroke="#9a32cd" points="597.54,-492.94 600.37,-503.15 604.53,-493.4 597.54,-492.94"/>
<text text-anchor="middle" x="712" y="-359.31" font-family="Helvetica,sans-Serif" font-size="10.00"> GLContext</text>
</g>
<!-- Node3 -->
<g id="node3" class="node">
<title>Node3</title>
<g id="a_node3"><a xlink:href="class_c_imm_matrix_stack.html" target="_top" xlink:title=" ">
<polygon fill="white" stroke="#bfbfbf" points="1098.5,-501.81 1003.5,-501.81 1003.5,-482.81 1098.5,-482.81 1098.5,-501.81"/>
<text text-anchor="middle" x="1051" y="-489.81" font-family="Helvetica,sans-Serif" font-size="10.00">CImmMatrixStack</text>
</a>
</g>
</g>
<!-- Node3&#45;&gt;Node2 -->
<g id="edge2" class="edge">
<title>Node3&#45;&gt;Node2</title>
<path fill="none" stroke="#9a32cd" stroke-dasharray="5,2" d="M991.96,-504.39C934.22,-515.76 842.93,-531.94 763,-538.31 717.81,-541.91 705.54,-546.76 661,-538.31 646.69,-535.59 631.44,-529.59 619.77,-524.27"/>
<polygon fill="#9a32cd" stroke="#9a32cd" points="992.44,-507.87 1001.56,-502.48 991.07,-501 992.44,-507.87"/>
<text text-anchor="middle" x="831" y="-551.31" font-family="Helvetica,sans-Serif" font-size="10.00"> ModelViewMatStack</text>
<text text-anchor="middle" x="831" y="-540.31" font-family="Helvetica,sans-Serif" font-size="10.00">ProjectionMatStack</text>
</g>
<!-- Node4&#45;&gt;Node2 -->
<g id="edge7" class="edge">
<title>Node4&#45;&gt;Node2</title>
<path fill="none" stroke="#9a32cd" stroke-dasharray="5,2" d="M781.79,-436.2C739.51,-438.49 681.67,-443.36 661,-453.31 636.71,-465 616.42,-490.41 606.51,-504.46"/>
<polygon fill="#9a32cd" stroke="#9a32cd" points="781.93,-439.69 791.74,-435.69 781.58,-432.7 781.93,-439.69"/>
<text text-anchor="middle" x="712" y="-467.31" font-family="Helvetica,sans-Serif" font-size="10.00"> CurMatrixStack</text>
<text text-anchor="middle" x="712" y="-456.31" font-family="Helvetica,sans-Serif" font-size="10.00">SavedCurMatStack</text>
</g>
<!-- Node4&#45;&gt;Node3 -->
<g id="edge3" class="edge">
<title>Node4&#45;&gt;Node3</title>
<path fill="none" stroke="#63b8ff" d="M864.04,-448.59C874.98,-453.1 887.38,-457.81 899,-461.31 933.34,-471.66 973.1,-479.67 1003.2,-484.95"/>
<polygon fill="#63b8ff" stroke="#63b8ff" points="865.64,-445.47 855.07,-444.79 862.91,-451.91 865.64,-445.47"/>
</g>
<!-- Node5 -->
<g id="node5" class="node">
<title>Node5</title>
<g id="a_node5"><a xlink:href="class_c_d_list_matrix_stack.html" target="_top" xlink:title=" ">
<polygon fill="white" stroke="#bfbfbf" points="1100,-394.81 1002,-394.81 1002,-375.81 1100,-375.81 1100,-394.81"/>
<text text-anchor="middle" x="1051" y="-382.81" font-family="Helvetica,sans-Serif" font-size="10.00">CDListMatrixStack</text>
</a>
</g>
</g>
<!-- Node4&#45;&gt;Node5 -->
<g id="edge6" class="edge">
<title>Node4&#45;&gt;Node5</title>
<path fill="none" stroke="#63b8ff" d="M880.12,-423.49C917.6,-415.07 969.21,-403.47 1005.68,-395.27"/>
<polygon fill="#63b8ff" stroke="#63b8ff" points="879.45,-420.06 870.46,-425.66 880.98,-426.89 879.45,-420.06"/>
</g>
<!-- Node5&#45;&gt;Node2 -->
<g id="edge5" class="edge">
<title>Node5&#45;&gt;Node2</title>
<path fill="none" stroke="#9a32cd" stroke-dasharray="5,2" d="M1015.15,-371.22C930.56,-338.08 717.23,-261.03 661,-303.31 627.47,-328.52 606.52,-466.23 601.29,-504.46"/>
<polygon fill="#9a32cd" stroke="#9a32cd" points="1013.74,-374.43 1024.33,-374.85 1016.31,-367.92 1013.74,-374.43"/>
<text text-anchor="middle" x="831" y="-326.31" font-family="Helvetica,sans-Serif" font-size="10.00"> DListMatStack</text>
</g>
<!-- Node6 -->
<g id="node6" class="node">
<title>Node6</title>
<g id="a_node6"><a xlink:href="class_c_imm_lighting.html" target="_top" xlink:title=" ">
<polygon fill="white" stroke="#bfbfbf" points="1289,-324.81 1212,-324.81 1212,-305.81 1289,-305.81 1289,-324.81"/>
<text text-anchor="middle" x="1250.5" y="-312.81" font-family="Helvetica,sans-Serif" font-size="10.00">CImmLighting</text>
</a>
</g>
</g>
<!-- Node6&#45;&gt;Node2 -->
<g id="edge8" class="edge">
<title>Node6&#45;&gt;Node2</title>
<path fill="none" stroke="#9a32cd" stroke-dasharray="5,2" d="M1241.06,-335.57C1222.96,-376.24 1176.28,-467.58 1106,-510.31 1018.22,-563.68 983.05,-551.45 881,-563.31 836.85,-568.44 825.42,-564.79 781,-563.31 727.58,-561.53 711.58,-572.59 661,-555.31 641.44,-548.63 622.21,-533.98 610.72,-524.13"/>
<polygon fill="#9a32cd" stroke="#9a32cd" points="1244.23,-337.06 1244.98,-326.49 1237.8,-334.28 1244.23,-337.06"/>
<text text-anchor="middle" x="938.5" y="-565.31" font-family="Helvetica,sans-Serif" font-size="10.00"> ImmLighting</text>
</g>
<!-- Node7&#45;&gt;Node2 -->
<g id="edge18" class="edge">
<title>Node7&#45;&gt;Node2</title>
<path fill="none" stroke="#9a32cd" stroke-dasharray="5,2" d="M897.86,-124C837.02,-124.33 721.37,-134.66 661,-203.31 619.94,-250 603.84,-456.63 600.63,-504.42"/>
<polygon fill="#9a32cd" stroke="#9a32cd" points="897.73,-127.5 907.75,-124.04 897.76,-120.5 897.73,-127.5"/>
<text text-anchor="middle" x="712" y="-206.31" font-family="Helvetica,sans-Serif" font-size="10.00"> CurLighting</text>
</g>
<!-- Node7&#45;&gt;Node6 -->
<g id="edge9" class="edge">
<title>Node7&#45;&gt;Node6</title>
<path fill="none" stroke="#63b8ff" d="M967.05,-140.83C1000.27,-159.66 1057.66,-192.58 1106,-222.31 1153.8,-251.7 1209.24,-288.38 1234.98,-305.57"/>
<polygon fill="#63b8ff" stroke="#63b8ff" points="968.91,-137.86 958.48,-135.98 965.46,-143.95 968.91,-137.86"/>
</g>
<!-- Node10 -->
<g id="node10" class="node">
<title>Node10</title>
<g id="a_node10"><a xlink:href="class_c_d_list_lighting.html" target="_top" xlink:title=" ">
<polygon fill="white" stroke="#bfbfbf" points="1291,-90.81 1210,-90.81 1210,-71.81 1291,-71.81 1291,-90.81"/>
<text text-anchor="middle" x="1250.5" y="-78.81" font-family="Helvetica,sans-Serif" font-size="10.00">CDListLighting</text>
</a>
</g>
</g>
<!-- Node7&#45;&gt;Node10 -->
<g id="edge15" class="edge">
<title>Node7&#45;&gt;Node10</title>
<path fill="none" stroke="#63b8ff" d="M978.97,-119.71C1038.32,-111.28 1149.91,-95.44 1209.54,-86.98"/>
<polygon fill="#63b8ff" stroke="#63b8ff" points="978.74,-116.2 969.33,-121.07 979.72,-123.13 978.74,-116.2"/>
</g>
<!-- Node8 -->
<g id="node8" class="node">
<title>Node8</title>
<g id="a_node8"><a xlink:href="class_c_imm_light.html" target="_top" xlink:title=" ">
<polygon fill="white" stroke="#bfbfbf" points="1083.5,-324.81 1018.5,-324.81 1018.5,-305.81 1083.5,-305.81 1083.5,-324.81"/>
<text text-anchor="middle" x="1051" y="-312.81" font-family="Helvetica,sans-Serif" font-size="10.00">CImmLight</text>
</a>
</g>
</g>
<!-- Node8&#45;&gt;Node6 -->
<g id="edge11" class="edge">
<title>Node8&#45;&gt;Node6</title>
<path fill="none" stroke="#9a32cd" stroke-dasharray="5,2" d="M1094.98,-315.31C1129.81,-315.31 1178.42,-315.31 1211.77,-315.31"/>
<polygon fill="#9a32cd" stroke="#9a32cd" points="1095.25,-311.81 1085.25,-315.31 1095.25,-318.81 1095.25,-311.81"/>
<text text-anchor="middle" x="1154.5" y="-406.31" font-family="Helvetica,sans-Serif" font-size="10.00"> Light0</text>
<text text-anchor="middle" x="1154.5" y="-395.31" font-family="Helvetica,sans-Serif" font-size="10.00">Light1</text>
<text text-anchor="middle" x="1154.5" y="-384.31" font-family="Helvetica,sans-Serif" font-size="10.00">Light2</text>
<text text-anchor="middle" x="1154.5" y="-373.31" font-family="Helvetica,sans-Serif" font-size="10.00">Light3</text>
<text text-anchor="middle" x="1154.5" y="-362.31" font-family="Helvetica,sans-Serif" font-size="10.00">Light4</text>
<text text-anchor="middle" x="1154.5" y="-351.31" font-family="Helvetica,sans-Serif" font-size="10.00">Light5</text>
<text text-anchor="middle" x="1154.5" y="-340.31" font-family="Helvetica,sans-Serif" font-size="10.00">Light6</text>
<text text-anchor="middle" x="1154.5" y="-329.31" font-family="Helvetica,sans-Serif" font-size="10.00">Light7</text>
<text text-anchor="middle" x="1154.5" y="-318.31" font-family="Helvetica,sans-Serif" font-size="10.00">Lights</text>
</g>
<!-- Node9&#45;&gt;Node8 -->
<g id="edge12" class="edge">
<title>Node9&#45;&gt;Node8</title>
<path fill="none" stroke="#63b8ff" d="M864.63,-279.27C875.51,-282.39 887.72,-285.71 899,-288.31 939.87,-297.73 987.61,-305.78 1018.29,-310.58"/>
<polygon fill="#63b8ff" stroke="#63b8ff" points="865.92,-276 855.34,-276.54 863.95,-282.71 865.92,-276"/>
</g>
<!-- Node11 -->
<g id="node11" class="node">
<title>Node11</title>
<g id="a_node11"><a xlink:href="class_c_d_list_light.html" target="_top" xlink:title=" ">
<polygon fill="white" stroke="#bfbfbf" points="1085,-287.81 1017,-287.81 1017,-268.81 1085,-268.81 1085,-287.81"/>
<text text-anchor="middle" x="1051" y="-275.81" font-family="Helvetica,sans-Serif" font-size="10.00">CDListLight</text>
</a>
</g>
</g>
<!-- Node9&#45;&gt;Node11 -->
<g id="edge17" class="edge">
<title>Node9&#45;&gt;Node11</title>
<path fill="none" stroke="#63b8ff" d="M864.95,-270.67C905.95,-272.36 975.58,-275.24 1016.73,-276.94"/>
<polygon fill="#63b8ff" stroke="#63b8ff" points="865.35,-267.18 855.21,-270.27 865.06,-274.18 865.35,-267.18"/>
</g>
<!-- Node10&#45;&gt;Node2 -->
<g id="edge14" class="edge">
<title>Node10&#45;&gt;Node2</title>
<path fill="none" stroke="#9a32cd" stroke-dasharray="5,2" d="M1215.21,-67.23C1115.59,-28.85 822.94,65.69 661,-75.31 593.83,-133.79 598.26,-445.5 599.72,-504.62"/>
<polygon fill="#9a32cd" stroke="#9a32cd" points="1213.86,-70.46 1224.45,-70.85 1216.41,-63.94 1213.86,-70.46"/>
<text text-anchor="middle" x="938.5" y="-9.31" font-family="Helvetica,sans-Serif" font-size="10.00"> DListLighting</text>
</g>
<!-- Node11&#45;&gt;Node10 -->
<g id="edge16" class="edge">
<title>Node11&#45;&gt;Node10</title>
<path fill="none" stroke="#9a32cd" stroke-dasharray="5,2" d="M1095.71,-266.85C1099.46,-264.75 1102.97,-262.25 1106,-259.31 1122.03,-243.71 1112.03,-231.2 1124,-212.31 1156.88,-160.43 1212.48,-111.58 1237.12,-91.24"/>
<polygon fill="#9a32cd" stroke="#9a32cd" points="1094.41,-263.6 1086.77,-270.95 1097.32,-269.96 1094.41,-263.6"/>
<text text-anchor="middle" x="1154.5" y="-303.31" font-family="Helvetica,sans-Serif" font-size="10.00"> Light0</text>
<text text-anchor="middle" x="1154.5" y="-292.31" font-family="Helvetica,sans-Serif" font-size="10.00">Light1</text>
<text text-anchor="middle" x="1154.5" y="-281.31" font-family="Helvetica,sans-Serif" font-size="10.00">Light2</text>
<text text-anchor="middle" x="1154.5" y="-270.31" font-family="Helvetica,sans-Serif" font-size="10.00">Light3</text>
<text text-anchor="middle" x="1154.5" y="-259.31" font-family="Helvetica,sans-Serif" font-size="10.00">Light4</text>
<text text-anchor="middle" x="1154.5" y="-248.31" font-family="Helvetica,sans-Serif" font-size="10.00">Light5</text>
<text text-anchor="middle" x="1154.5" y="-237.31" font-family="Helvetica,sans-Serif" font-size="10.00">Light6</text>
<text text-anchor="middle" x="1154.5" y="-226.31" font-family="Helvetica,sans-Serif" font-size="10.00">Light7</text>
<text text-anchor="middle" x="1154.5" y="-215.31" font-family="Helvetica,sans-Serif" font-size="10.00">Lights</text>
</g>
<!-- Node12 -->
<g id="node12" class="node">
<title>Node12</title>
<g id="a_node12"><a xlink:href="class_c_imm_geom_manager.html" target="_top" xlink:title=" ">
<polygon fill="white" stroke="#bfbfbf" points="1104.5,-923.81 997.5,-923.81 997.5,-904.81 1104.5,-904.81 1104.5,-923.81"/>
<text text-anchor="middle" x="1051" y="-911.81" font-family="Helvetica,sans-Serif" font-size="10.00">CImmGeomManager</text>
</a>
</g>
</g>
<!-- Node12&#45;&gt;Node2 -->
<g id="edge19" class="edge">
<title>Node12&#45;&gt;Node2</title>
<path fill="none" stroke="#9a32cd" stroke-dasharray="5,2" d="M985.93,-916.16C959.03,-916.35 927.45,-915.8 899,-913.31 846.01,-908.67 820.16,-929.31 781,-893.31 757.35,-871.57 785.53,-846.21 763,-823.31 730.03,-789.8 693.33,-829.44 661,-795.31 622.46,-754.63 604.6,-569.19 600.79,-524.18"/>
<polygon fill="#9a32cd" stroke="#9a32cd" points="985.67,-919.66 995.63,-916.06 985.59,-912.67 985.67,-919.66"/>
<text text-anchor="middle" x="831" y="-917.31" font-family="Helvetica,sans-Serif" font-size="10.00"> ImmGManager</text>
</g>
<!-- Node13&#45;&gt;Node2 -->
<g id="edge36" class="edge">
<title>Node13&#45;&gt;Node2</title>
<path fill="none" stroke="#9a32cd" stroke-dasharray="5,2" d="M802.05,-771.19C795.14,-767.37 787.77,-763.24 781,-759.31 772.89,-754.6 771.72,-751.75 763,-748.31 719.95,-731.32 694.95,-758.77 661,-727.31 600.06,-670.83 598.53,-558.02 599.54,-524.15"/>
<polygon fill="#9a32cd" stroke="#9a32cd" points="799.96,-774.04 810.41,-775.77 803.33,-767.9 799.96,-774.04"/>
<text text-anchor="middle" x="712" y="-751.31" font-family="Helvetica,sans-Serif" font-size="10.00"> CurGManager</text>
</g>
<!-- Node13&#45;&gt;Node12 -->
<g id="edge20" class="edge">
<title>Node13&#45;&gt;Node12</title>
<path fill="none" stroke="#63b8ff" d="M874.33,-799.95C904.54,-810.69 945.41,-827.34 978,-848.31 1003.67,-864.83 1028.84,-890.74 1041.52,-904.68"/>
<polygon fill="#63b8ff" stroke="#63b8ff" points="875.74,-796.73 865.15,-796.76 873.45,-803.34 875.74,-796.73"/>
</g>
<!-- Node21 -->
<g id="node21" class="node">
<title>Node21</title>
<g id="a_node21"><a xlink:href="class_c_d_list_geom_manager.html" target="_top" xlink:title=" ">
<polygon fill="white" stroke="#bfbfbf" points="1106,-806.81 996,-806.81 996,-787.81 1106,-787.81 1106,-806.81"/>
<text text-anchor="middle" x="1051" y="-794.81" font-family="Helvetica,sans-Serif" font-size="10.00">CDListGeomManager</text>
</a>
</g>
</g>
<!-- Node13&#45;&gt;Node21 -->
<g id="edge31" class="edge">
<title>Node13&#45;&gt;Node21</title>
<path fill="none" stroke="#63b8ff" d="M886.2,-789.04C919.59,-790.73 962.26,-792.88 995.67,-794.57"/>
<polygon fill="#63b8ff" stroke="#63b8ff" points="886.49,-785.55 876.32,-788.55 886.13,-792.54 886.49,-785.55"/>
</g>
<!-- Node14 -->
<g id="node14" class="node">
<title>Node14</title>
<g id="a_node14"><a xlink:href="class_c_vert_array.html" target="_top" xlink:title=" ">
<polygon fill="white" stroke="#bfbfbf" points="631,-865.81 567,-865.81 567,-846.81 631,-846.81 631,-865.81"/>
<text text-anchor="middle" x="599" y="-853.81" font-family="Helvetica,sans-Serif" font-size="10.00">CVertArray</text>
</a>
</g>
</g>
<!-- Node14&#45;&gt;Node13 -->
<g id="edge22" class="edge">
<title>Node14&#45;&gt;Node13</title>
<path fill="none" stroke="#9a32cd" stroke-dasharray="5,2" d="M642.54,-853.64C676.33,-850.32 724.18,-842.89 763,-826.31 772.07,-822.43 772.66,-818.59 781,-813.31 790.52,-807.28 801.47,-801.17 810.61,-796.29"/>
<polygon fill="#9a32cd" stroke="#9a32cd" points="642.37,-850.14 632.72,-854.52 642.99,-857.11 642.37,-850.14"/>
<text text-anchor="middle" x="712" y="-853.31" font-family="Helvetica,sans-Serif" font-size="10.00"> VertArray</text>
</g>
<!-- Node15 -->
<g id="node15" class="node">
<title>Node15</title>
<g id="a_node15"><a xlink:href="structt_user_prim_entry.html" target="_top" xlink:title=" ">
<polygon fill="white" stroke="#bfbfbf" points="640.5,-828.81 557.5,-828.81 557.5,-809.81 640.5,-809.81 640.5,-828.81"/>
<text text-anchor="middle" x="599" y="-816.81" font-family="Helvetica,sans-Serif" font-size="10.00">tUserPrimEntry</text>
</a>
</g>
</g>
<!-- Node15&#45;&gt;Node13 -->
<g id="edge23" class="edge">
<title>Node15&#45;&gt;Node13</title>
<path fill="none" stroke="#9a32cd" stroke-dasharray="5,2" d="M652.27,-813.24C684.29,-809.35 726.08,-803.99 763,-798.31 770.83,-797.1 779.14,-795.71 787.16,-794.3"/>
<polygon fill="#9a32cd" stroke="#9a32cd" points="651.95,-809.75 642.44,-814.42 652.79,-816.7 651.95,-809.75"/>
<text text-anchor="middle" x="712" y="-814.31" font-family="Helvetica,sans-Serif" font-size="10.00"> UserPrimTypes</text>
</g>
<!-- Node16&#45;&gt;Node12 -->
<g id="edge24" class="edge">
<title>Node16&#45;&gt;Node12</title>
<path fill="none" stroke="#9a32cd" stroke-dasharray="5,2" d="M892.23,-958.62C918.78,-954.55 950.2,-948.83 978,-941.31 994.75,-936.78 1013.06,-929.89 1027.02,-924.2"/>
<polygon fill="#9a32cd" stroke="#9a32cd" points="892.04,-955.1 882.67,-960.03 893.07,-962.03 892.04,-955.1"/>
<text text-anchor="middle" x="938.5" y="-960.31" font-family="Helvetica,sans-Serif" font-size="10.00"> RendererManager</text>
</g>
<!-- Node17 -->
<g id="node17" class="node">
<title>Node17</title>
<g id="a_node17"><a xlink:href="class_c_renderer_props.html" target="_top" xlink:title=" ">
<polygon fill="white" stroke="#bfbfbf" points="643,-1045.81 555,-1045.81 555,-1026.81 643,-1026.81 643,-1045.81"/>
<text text-anchor="middle" x="599" y="-1033.81" font-family="Helvetica,sans-Serif" font-size="10.00">CRendererProps</text>
</a>
</g>
</g>
<!-- Node17&#45;&gt;Node16 -->
<g id="edge26" class="edge">
<title>Node17&#45;&gt;Node16</title>
<path fill="none" stroke="#9a32cd" stroke-dasharray="5,2" d="M654.4,-1035.53C686.9,-1033.48 728.46,-1028.02 763,-1014.31 785.34,-1005.44 807.22,-987.54 819.61,-976.28"/>
<polygon fill="#9a32cd" stroke="#9a32cd" points="654.62,-1032.01 644.82,-1036.04 654.99,-1039 654.62,-1032.01"/>
<text text-anchor="middle" x="712" y="-1037.31" font-family="Helvetica,sans-Serif" font-size="10.00"> RendererRequirements</text>
</g>
<!-- Node18 -->
<g id="node18" class="node">
<title>Node18</title>
<g id="a_node18"><a xlink:href="structt_renderer.html" target="_top" xlink:title=" ">
<polygon fill="white" stroke="#bfbfbf" points="628.5,-978.81 569.5,-978.81 569.5,-959.81 628.5,-959.81 628.5,-978.81"/>
<text text-anchor="middle" x="599" y="-966.81" font-family="Helvetica,sans-Serif" font-size="10.00">tRenderer</text>
</a>
</g>
</g>
<!-- Node18&#45;&gt;Node16 -->
<g id="edge27" class="edge">
<title>Node18&#45;&gt;Node16</title>
<path fill="none" stroke="#9a32cd" stroke-dasharray="5,2" d="M640.11,-968.79C679.24,-968.28 738.83,-967.5 780.8,-966.95"/>
<polygon fill="#9a32cd" stroke="#9a32cd" points="640.13,-965.28 630.18,-968.92 640.22,-972.28 640.13,-965.28"/>
<text text-anchor="middle" x="712" y="-1004.31" font-family="Helvetica,sans-Serif" font-size="10.00"> CurrentRenderer</text>
<text text-anchor="middle" x="712" y="-993.31" font-family="Helvetica,sans-Serif" font-size="10.00">DefaultRenderers</text>
<text text-anchor="middle" x="712" y="-982.31" font-family="Helvetica,sans-Serif" font-size="10.00">NewRenderer</text>
<text text-anchor="middle" x="712" y="-971.31" font-family="Helvetica,sans-Serif" font-size="10.00">UserRenderers</text>
</g>
<!-- Node19 -->
<g id="node19" class="node">
<title>Node19</title>
<g id="a_node19"><a xlink:href="class_c_renderer.html" target="_top" xlink:title=" ">
<polygon fill="white" stroke="#666666" points="444,-978.81 382,-978.81 382,-959.81 444,-959.81 444,-978.81"/>
<text text-anchor="middle" x="413" y="-966.81" font-family="Helvetica,sans-Serif" font-size="10.00">CRenderer</text>
</a>
</g>
</g>
<!-- Node19&#45;&gt;Node18 -->
<g id="edge28" class="edge">
<title>Node19&#45;&gt;Node18</title>
<path fill="none" stroke="#9a32cd" stroke-dasharray="5,2" d="M455.55,-969.31C490.16,-969.31 538.56,-969.31 569.09,-969.31"/>
<polygon fill="#9a32cd" stroke="#9a32cd" points="455.9,-965.81 445.9,-969.31 455.9,-972.81 455.9,-965.81"/>
<text text-anchor="middle" x="505" y="-972.31" font-family="Helvetica,sans-Serif" font-size="10.00"> renderer</text>
</g>
<!-- Node20 -->
<g id="node20" class="node">
<title>Node20</title>
<g id="a_node20"><a xlink:href="class_c_geometry_block.html" target="_top" xlink:title=" ">
<polygon fill="white" stroke="#bfbfbf" points="876,-883.81 786,-883.81 786,-864.81 876,-864.81 876,-883.81"/>
<text text-anchor="middle" x="831" y="-871.81" font-family="Helvetica,sans-Serif" font-size="10.00">CGeometryBlock</text>
</a>
</g>
</g>
<!-- Node20&#45;&gt;Node12 -->
<g id="edge29" class="edge">
<title>Node20&#45;&gt;Node12</title>
<path fill="none" stroke="#9a32cd" stroke-dasharray="5,2" d="M887.44,-884.48C921.17,-890.67 964,-898.53 997.23,-904.63"/>
<polygon fill="#9a32cd" stroke="#9a32cd" points="888.33,-881.09 877.87,-882.72 887.07,-887.97 888.33,-881.09"/>
<text text-anchor="middle" x="938.5" y="-902.31" font-family="Helvetica,sans-Serif" font-size="10.00"> Geometry</text>
</g>
<!-- Node20&#45;&gt;Node21 -->
<g id="edge35" class="edge">
<title>Node20&#45;&gt;Node21</title>
<path fill="none" stroke="#9a32cd" stroke-dasharray="5,2" d="M871.5,-860.64C900.9,-850.43 941.99,-836.1 978,-823.31 992.78,-818.06 1009.23,-812.13 1022.67,-807.25"/>
<polygon fill="#9a32cd" stroke="#9a32cd" points="870.57,-857.25 862.27,-863.84 872.87,-863.87 870.57,-857.25"/>
<text text-anchor="middle" x="938.5" y="-852.31" font-family="Helvetica,sans-Serif" font-size="10.00"> Geometry</text>
</g>
<!-- Node21&#45;&gt;Node2 -->
<g id="edge30" class="edge">
<title>Node21&#45;&gt;Node2</title>
<path fill="none" stroke="#9a32cd" stroke-dasharray="5,2" d="M996.98,-784.71C891.29,-759.55 664.13,-705.21 661,-702.31 607.44,-652.58 600.78,-555.46 600.05,-524.23"/>
<polygon fill="#9a32cd" stroke="#9a32cd" points="996.03,-788.08 1006.57,-786.99 997.65,-781.27 996.03,-788.08"/>
<text text-anchor="middle" x="831" y="-758.31" font-family="Helvetica,sans-Serif" font-size="10.00"> DListGManager</text>
</g>
<!-- Node22 -->
<g id="node22" class="node">
<title>Node22</title>
<g id="a_node22"><a xlink:href="class_c_d_list.html" target="_top" xlink:title=" ">
<polygon fill="white" stroke="#bfbfbf" points="252.5,-593.81 205.5,-593.81 205.5,-574.81 252.5,-574.81 252.5,-593.81"/>
<text text-anchor="middle" x="229" y="-581.81" font-family="Helvetica,sans-Serif" font-size="10.00">CDList</text>
</a>
</g>
</g>
<!-- Node22&#45;&gt;Node21 -->
<g id="edge32" class="edge">
<title>Node22&#45;&gt;Node21</title>
<path fill="none" stroke="#9a32cd" stroke-dasharray="5,2" d="M251.58,-601.8C256.44,-606.47 261.26,-611.77 265,-617.31 277.29,-635.5 269.87,-645.71 283,-663.31 374.64,-786.17 410.05,-825.49 555,-875.31 591.99,-888.02 603.92,-876.93 643,-875.31 696.47,-873.08 711.47,-879.76 763,-865.31 771.61,-862.89 772.66,-859.53 781,-856.31 831.81,-836.71 845.87,-835.28 899,-823.31 930.79,-816.15 966.73,-809.89 995.57,-805.3"/>
<polygon fill="#9a32cd" stroke="#9a32cd" points="253.94,-599.21 244.14,-595.17 249.28,-604.44 253.94,-599.21"/>
<text text-anchor="middle" x="599" y="-884.31" font-family="Helvetica,sans-Serif" font-size="10.00"> CurDList</text>
</g>
<!-- Node28 -->
<g id="node28" class="node">
<title>Node28</title>
<g id="a_node28"><a xlink:href="class_c_d_list_manager.html" target="_top" xlink:title=" ">
<polygon fill="white" stroke="#bfbfbf" points="455,-507.81 371,-507.81 371,-488.81 455,-488.81 455,-507.81"/>
<text text-anchor="middle" x="413" y="-495.81" font-family="Helvetica,sans-Serif" font-size="10.00">CDListManager</text>
</a>
</g>
</g>
<!-- Node22&#45;&gt;Node28 -->
<g id="edge46" class="edge">
<title>Node22&#45;&gt;Node28</title>
<path fill="none" stroke="#9a32cd" stroke-dasharray="5,2" d="M261.96,-568.42C263.04,-567.43 264.06,-566.4 265,-565.31 280.17,-547.76 264.94,-530.87 283,-516.31 307.29,-496.72 342.88,-493.02 370.53,-493.77"/>
<polygon fill="#9a32cd" stroke="#9a32cd" points="260.12,-565.44 254.07,-574.14 264.22,-571.11 260.12,-565.44"/>
<text text-anchor="middle" x="318" y="-541.31" font-family="Helvetica,sans-Serif" font-size="10.00"> Lists</text>
<text text-anchor="middle" x="318" y="-530.31" font-family="Helvetica,sans-Serif" font-size="10.00">ListsToBeFreed</text>
<text text-anchor="middle" x="318" y="-519.31" font-family="Helvetica,sans-Serif" font-size="10.00">OpenList</text>
</g>
<!-- Node23 -->
<g id="node23" class="node">
<title>Node23</title>
<g id="a_node23"><a xlink:href="class_c_d_list_cmd_block.html" target="_top" xlink:title=" ">
<polygon fill="white" stroke="#bfbfbf" points="92,-593.81 0,-593.81 0,-574.81 92,-574.81 92,-593.81"/>
<text text-anchor="middle" x="46" y="-581.81" font-family="Helvetica,sans-Serif" font-size="10.00">CDListCmdBlock</text>
</a>
</g>
</g>
<!-- Node23&#45;&gt;Node22 -->
<g id="edge33" class="edge">
<title>Node23&#45;&gt;Node22</title>
<path fill="none" stroke="#9a32cd" stroke-dasharray="5,2" d="M103.55,-584.31C137.95,-584.31 180.01,-584.31 205.37,-584.31"/>
<polygon fill="#9a32cd" stroke="#9a32cd" points="103.72,-580.81 93.72,-584.31 103.72,-587.81 103.72,-580.81"/>
<text text-anchor="middle" x="142.5" y="-598.31" font-family="Helvetica,sans-Serif" font-size="10.00"> CurCmdBlock</text>
<text text-anchor="middle" x="142.5" y="-587.31" font-family="Helvetica,sans-Serif" font-size="10.00">FirstCmdBlock</text>
</g>
<!-- Node23&#45;&gt;Node23 -->
<g id="edge34" class="edge">
<title>Node23&#45;&gt;Node23</title>
<path fill="none" stroke="#9a32cd" stroke-dasharray="5,2" d="M28.87,-605.24C31.01,-609.1 36.72,-611.81 46,-611.81 62.96,-611.81 68,-602.74 61.11,-594.18"/>
<polygon fill="#9a32cd" stroke="#9a32cd" points="32.27,-606.13 30.62,-595.67 25.38,-604.87 32.27,-606.13"/>
<text text-anchor="middle" x="46" y="-614.81" font-family="Helvetica,sans-Serif" font-size="10.00"> NextBlock</text>
</g>
<!-- Node24&#45;&gt;Node2 -->
<g id="edge37" class="edge">
<title>Node24&#45;&gt;Node2</title>
<path fill="none" stroke="#9a32cd" stroke-dasharray="5,2" d="M1233.88,-670.11C1221.91,-682.34 1204.21,-697.53 1185,-704.31 1130.01,-723.72 707.5,-709.51 661,-674.31 611.22,-636.63 602.06,-553.1 600.38,-524.3"/>
<polygon fill="#9a32cd" stroke="#9a32cd" points="1236.25,-672.71 1240.5,-663.01 1231.13,-667.94 1236.25,-672.71"/>
<text text-anchor="middle" x="938.5" y="-714.31" font-family="Helvetica,sans-Serif" font-size="10.00"> MaterialManager</text>
</g>
<!-- Node25 -->
<g id="node25" class="node">
<title>Node25</title>
<g id="a_node25"><a xlink:href="class_c_imm_material.html" target="_top" xlink:title=" ">
<polygon fill="white" stroke="#bfbfbf" points="1089.5,-661.81 1012.5,-661.81 1012.5,-642.81 1089.5,-642.81 1089.5,-661.81"/>
<text text-anchor="middle" x="1051" y="-649.81" font-family="Helvetica,sans-Serif" font-size="10.00">CImmMaterial</text>
</a>
</g>
</g>
<!-- Node25&#45;&gt;Node24 -->
<g id="edge39" class="edge">
<title>Node25&#45;&gt;Node24</title>
<path fill="none" stroke="#9a32cd" stroke-dasharray="5,2" d="M1101.04,-652.31C1132.08,-652.31 1171.99,-652.31 1202.62,-652.31"/>
<polygon fill="#9a32cd" stroke="#9a32cd" points="1101.13,-648.81 1091.13,-652.31 1101.13,-655.81 1101.13,-648.81"/>
<text text-anchor="middle" x="1154.5" y="-655.31" font-family="Helvetica,sans-Serif" font-size="10.00"> ImmMaterial</text>
</g>
<!-- Node26&#45;&gt;Node24 -->
<g id="edge44" class="edge">
<title>Node26&#45;&gt;Node24</title>
<path fill="none" stroke="#9a32cd" stroke-dasharray="5,2" d="M871.39,-603.02C925.01,-588.1 1023.74,-567.05 1106,-585.31 1155.93,-596.39 1209.06,-626.74 1234.38,-642.51"/>
<polygon fill="#9a32cd" stroke="#9a32cd" points="870.44,-599.66 861.79,-605.78 872.37,-606.38 870.44,-599.66"/>
<text text-anchor="middle" x="1051" y="-588.31" font-family="Helvetica,sans-Serif" font-size="10.00"> CurMaterial</text>
</g>
<!-- Node26&#45;&gt;Node25 -->
<g id="edge40" class="edge">
<title>Node26&#45;&gt;Node25</title>
<path fill="none" stroke="#63b8ff" d="M871.41,-623.19C880.46,-624.93 890.06,-626.73 899,-628.31 937.43,-635.09 981.51,-642 1012.09,-646.65"/>
<polygon fill="#63b8ff" stroke="#63b8ff" points="872.29,-619.79 861.81,-621.32 870.95,-626.66 872.29,-619.79"/>
</g>
<!-- Node27 -->
<g id="node27" class="node">
<title>Node27</title>
<g id="a_node27"><a xlink:href="class_c_d_list_material.html" target="_top" xlink:title=" ">
<polygon fill="white" stroke="#bfbfbf" points="1091.5,-624.81 1010.5,-624.81 1010.5,-605.81 1091.5,-605.81 1091.5,-624.81"/>
<text text-anchor="middle" x="1051" y="-612.81" font-family="Helvetica,sans-Serif" font-size="10.00">CDListMaterial</text>
</a>
</g>
</g>
<!-- Node26&#45;&gt;Node27 -->
<g id="edge43" class="edge">
<title>Node26&#45;&gt;Node27</title>
<path fill="none" stroke="#63b8ff" d="M871.98,-615.31C911.24,-615.31 970.77,-615.31 1010.02,-615.31"/>
<polygon fill="#63b8ff" stroke="#63b8ff" points="872.01,-611.81 862.01,-615.31 872.01,-618.81 872.01,-611.81"/>
</g>
<!-- Node27&#45;&gt;Node24 -->
<g id="edge42" class="edge">
<title>Node27&#45;&gt;Node24</title>
<path fill="none" stroke="#9a32cd" stroke-dasharray="5,2" d="M1103.31,-623C1128.07,-626.92 1158.15,-631.97 1185,-637.31 1192.56,-638.81 1200.57,-640.55 1208.3,-642.31"/>
<polygon fill="#9a32cd" stroke="#9a32cd" points="1103.9,-619.55 1093.48,-621.47 1102.82,-626.47 1103.9,-619.55"/>
<text text-anchor="middle" x="1154.5" y="-640.31" font-family="Helvetica,sans-Serif" font-size="10.00"> DListMaterial</text>
</g>
<!-- Node28&#45;&gt;Node2 -->
<g id="edge45" class="edge">
<title>Node28&#45;&gt;Node2</title>
<path fill="none" stroke="#9a32cd" stroke-dasharray="5,2" d="M466.82,-495.35C488.63,-494.9 514.11,-495.36 537,-498.31 546.66,-499.56 556.98,-501.87 566.33,-504.36"/>
<polygon fill="#9a32cd" stroke="#9a32cd" points="466.86,-491.85 456.96,-495.63 467.06,-498.85 466.86,-491.85"/>
<text text-anchor="middle" x="505" y="-501.31" font-family="Helvetica,sans-Serif" font-size="10.00"> DListManager</text>
</g>
<!-- Node29 -->
<g id="node29" class="node">
<title>Node29</title>
<g id="a_node29"><a xlink:href="class_c_imm_draw_context.html" target="_top" xlink:title=" ">
<polygon fill="white" stroke="#bfbfbf" points="1100,-250.81 1002,-250.81 1002,-231.81 1100,-231.81 1100,-250.81"/>
<text text-anchor="middle" x="1051" y="-238.81" font-family="Helvetica,sans-Serif" font-size="10.00">CImmDrawContext</text>
</a>
</g>
</g>
<!-- Node29&#45;&gt;Node2 -->
<g id="edge48" class="edge">
<title>Node29&#45;&gt;Node2</title>
<path fill="none" stroke="#9a32cd" stroke-dasharray="5,2" d="M990.19,-232.64C893.73,-220.06 709.65,-202.36 661,-242.31 619.02,-276.79 603.76,-459.97 600.64,-504.53"/>
<polygon fill="#9a32cd" stroke="#9a32cd" points="989.64,-236.09 1000.01,-233.94 990.56,-229.15 989.64,-236.09"/>
<text text-anchor="middle" x="831" y="-224.31" font-family="Helvetica,sans-Serif" font-size="10.00"> ImmDrawContext</text>
</g>
<!-- Node30&#45;&gt;Node2 -->
<g id="edge54" class="edge">
<title>Node30&#45;&gt;Node2</title>
<path fill="none" stroke="#9a32cd" stroke-dasharray="5,2" d="M792.03,-381.18C755.54,-371.08 700.31,-362.58 661,-387.31 618.56,-414.01 604.97,-479.39 601.24,-504.37"/>
<polygon fill="#9a32cd" stroke="#9a32cd" points="790.68,-384.43 801.26,-383.91 792.66,-377.72 790.68,-384.43"/>
<text text-anchor="middle" x="712" y="-390.31" font-family="Helvetica,sans-Serif" font-size="10.00"> CurDrawContext</text>
</g>
<!-- Node30&#45;&gt;Node29 -->
<g id="edge49" class="edge">
<title>Node30&#45;&gt;Node29</title>
<path fill="none" stroke="#63b8ff" d="M868.63,-379.62C872.92,-377.39 877.15,-374.94 881,-372.31 940.17,-331.89 934.88,-296.71 996,-259.31 1001.14,-256.16 1006.9,-253.49 1012.69,-251.25"/>
<polygon fill="#63b8ff" stroke="#63b8ff" points="867.48,-376.29 859.97,-383.76 870.5,-382.6 867.48,-376.29"/>
</g>
<!-- Node32 -->
<g id="node32" class="node">
<title>Node32</title>
<g id="a_node32"><a xlink:href="class_c_d_list_draw_context.html" target="_top" xlink:title=" ">
<polygon fill="white" stroke="#bfbfbf" points="1102,-463.81 1000,-463.81 1000,-444.81 1102,-444.81 1102,-463.81"/>
<text text-anchor="middle" x="1051" y="-451.81" font-family="Helvetica,sans-Serif" font-size="10.00">CDListDrawContext</text>
</a>
</g>
</g>
<!-- Node30&#45;&gt;Node32 -->
<g id="edge53" class="edge">
<title>Node30&#45;&gt;Node32</title>
<path fill="none" stroke="#63b8ff" d="M878.93,-407.22C919.4,-418.36 977.01,-434.22 1013.95,-444.39"/>
<polygon fill="#63b8ff" stroke="#63b8ff" points="880.03,-403.9 869.46,-404.62 878.17,-410.65 880.03,-403.9"/>
</g>
<!-- Node31 -->
<g id="node31" class="node">
<title>Node31</title>
<g id="a_node31"><a xlink:href="class_c_clear_env.html" target="_top" xlink:title=" ">
<polygon fill="white" stroke="#bfbfbf" points="862,-191.81 800,-191.81 800,-172.81 862,-172.81 862,-191.81"/>
<text text-anchor="middle" x="831" y="-179.81" font-family="Helvetica,sans-Serif" font-size="10.00">CClearEnv</text>
</a>
</g>
</g>
<!-- Node31&#45;&gt;Node29 -->
<g id="edge51" class="edge">
<title>Node31&#45;&gt;Node29</title>
<path fill="none" stroke="#9a32cd" stroke-dasharray="5,2" d="M873.64,-182.65C903.71,-184.23 944.71,-189.16 978,-203.31 987.33,-207.27 987.31,-212.1 996,-217.31 1004.89,-222.63 1015.17,-227.49 1024.36,-231.42"/>
<polygon fill="#9a32cd" stroke="#9a32cd" points="873.93,-179.16 863.8,-182.25 873.65,-186.16 873.93,-179.16"/>
<text text-anchor="middle" x="938.5" y="-206.31" font-family="Helvetica,sans-Serif" font-size="10.00"> ClearEnv</text>
</g>
<!-- Node32&#45;&gt;Node2 -->
<g id="edge52" class="edge">
<title>Node32&#45;&gt;Node2</title>
<path fill="none" stroke="#9a32cd" stroke-dasharray="5,2" d="M991.87,-466.56C911.33,-483.5 774.37,-512.12 763,-513.31 718.81,-517.94 667.52,-517.27 634.45,-516.05"/>
<polygon fill="#9a32cd" stroke="#9a32cd" points="992.29,-470.05 1001.36,-464.57 990.85,-463.2 992.29,-470.05"/>
<text text-anchor="middle" x="831" y="-513.31" font-family="Helvetica,sans-Serif" font-size="10.00"> DListDrawContext</text>
</g>
<!-- Node33&#45;&gt;Node2 -->
<g id="edge55" class="edge">
<title>Node33&#45;&gt;Node2</title>
<path fill="none" stroke="#9a32cd" stroke-dasharray="5,2" d="M799.86,-339.59C793.62,-336.53 787.09,-333.32 781,-330.31 772.98,-326.34 771.71,-323.36 763,-321.31 718.88,-310.89 697.57,-294.52 661,-321.31 600.06,-365.96 598.45,-471.74 599.5,-504.48"/>
<polygon fill="#9a32cd" stroke="#9a32cd" points="798.08,-342.62 808.6,-343.87 801.15,-336.33 798.08,-342.62"/>
<text text-anchor="middle" x="712" y="-324.31" font-family="Helvetica,sans-Serif" font-size="10.00"> DisplayContext</text>
</g>
<!-- Node34 -->
<g id="node34" class="node">
<title>Node34</title>
<g id="a_node34"><a xlink:href="class_c_m_m_texture.html" target="_top" xlink:title=" ">
<polygon fill="white" stroke="#bfbfbf" points="265,-645.81 193,-645.81 193,-626.81 265,-626.81 265,-645.81"/>
<text text-anchor="middle" x="229" y="-633.81" font-family="Helvetica,sans-Serif" font-size="10.00">CMMTexture</text>
</a>
</g>
</g>
<!-- Node34&#45;&gt;Node1 -->
<g id="edge57" class="edge">
<title>Node34&#45;&gt;Node1</title>
<path fill="none" stroke="#9a32cd" stroke-dasharray="5,2" d="M265.36,-622.32C301.04,-608.2 355.25,-586.76 386.79,-574.28"/>
<polygon fill="#9a32cd" stroke="#9a32cd" points="264.34,-618.96 256.33,-625.89 266.92,-625.47 264.34,-618.96"/>
<text text-anchor="middle" x="318" y="-651.31" font-family="Helvetica,sans-Serif" font-size="10.00"> CurTexture</text>
<text text-anchor="middle" x="318" y="-640.31" font-family="Helvetica,sans-Serif" font-size="10.00">DefaultTex</text>
<text text-anchor="middle" x="318" y="-629.31" font-family="Helvetica,sans-Serif" font-size="10.00">LastTexSent</text>
<text text-anchor="middle" x="318" y="-618.31" font-family="Helvetica,sans-Serif" font-size="10.00">TexNames</text>
</g>
<!-- Node35 -->
<g id="node35" class="node">
<title>Node35</title>
<g id="a_node35"><a xlink:title=" ">
<polygon fill="white" stroke="#bfbfbf" points="83,-659.81 9,-659.81 9,-640.81 83,-640.81 83,-659.81"/>
<text text-anchor="middle" x="46" y="-647.81" font-family="Helvetica,sans-Serif" font-size="10.00">GS::CTexture</text>
</a>
</g>
</g>
<!-- Node35&#45;&gt;Node34 -->
<g id="edge58" class="edge">
<title>Node35&#45;&gt;Node34</title>
<path fill="none" stroke="#63b8ff" d="M94.53,-646.63C125.34,-644.25 164.79,-641.2 192.79,-639.03"/>
<polygon fill="#63b8ff" stroke="#63b8ff" points="94.4,-643.13 84.7,-647.39 94.94,-650.11 94.4,-643.13"/>
</g>
<!-- Node36 -->
<g id="node36" class="node">
<title>Node36</title>
<g id="a_node36"><a xlink:href="class_c_m_m_clut.html" target="_top" xlink:title=" ">
<polygon fill="white" stroke="#666666" points="257.5,-556.81 200.5,-556.81 200.5,-537.81 257.5,-537.81 257.5,-556.81"/>
<text text-anchor="middle" x="229" y="-544.81" font-family="Helvetica,sans-Serif" font-size="10.00">CMMClut</text>
</a>
</g>
</g>
<!-- Node36&#45;&gt;Node1 -->
<g id="edge59" class="edge">
<title>Node36&#45;&gt;Node1</title>
<path fill="none" stroke="#9a32cd" stroke-dasharray="5,2" d="M268.92,-550.94C300.06,-553.85 343.46,-557.91 374.28,-560.79"/>
<polygon fill="#9a32cd" stroke="#9a32cd" points="269.43,-547.48 259.15,-550.03 268.78,-554.45 269.43,-547.48"/>
<text text-anchor="middle" x="318" y="-562.31" font-family="Helvetica,sans-Serif" font-size="10.00"> CurClut</text>
</g>
<!-- Node37 -->
<g id="node37" class="node">
<title>Node37</title>
<g id="a_node37"><a xlink:title=" ">
<polygon fill="white" stroke="#bfbfbf" points="75.5,-556.81 16.5,-556.81 16.5,-537.81 75.5,-537.81 75.5,-556.81"/>
<text text-anchor="middle" x="46" y="-544.81" font-family="Helvetica,sans-Serif" font-size="10.00">GS::CClut</text>
</a>
</g>
</g>
<!-- Node37&#45;&gt;Node36 -->
<g id="edge60" class="edge">
<title>Node37&#45;&gt;Node36</title>
<path fill="none" stroke="#63b8ff" d="M87.16,-547.31C121.44,-547.31 169.84,-547.31 200.05,-547.31"/>
<polygon fill="#63b8ff" stroke="#63b8ff" points="87.19,-543.81 77.19,-547.31 87.19,-550.81 87.19,-543.81"/>
</g>
</g>
</svg>
