<?xml version="1.0" encoding="UTF-8" standalone="no"?>
<!DOCTYPE svg PUBLIC "-//W3C//DTD SVG 1.1//EN"
 "http://www.w3.org/Graphics/SVG/1.1/DTD/svg11.dtd">
<!-- Generated by graphviz version 7.0.5 (20221223.1930)
 -->
<!-- Title: CRenderer Pages: 1 -->
<svg width="212pt" height="137pt"
 viewBox="0.00 0.00 211.50 137.00" xmlns="http://www.w3.org/2000/svg" xmlns:xlink="http://www.w3.org/1999/xlink">
<g id="graph0" class="graph" transform="scale(1 1) rotate(0) translate(4 133)">
<title>CRenderer</title>
<!-- Node1 -->
<g id="node1" class="node">
<title>Node1</title>
<g id="a_node1"><a xlink:title=" ">
<polygon fill="#999999" stroke="#666666" points="134,-129 72,-129 72,-110 134,-110 134,-129"/>
<text text-anchor="middle" x="103" y="-117" font-family="Helvetica,sans-Serif" font-size="10.00">CRenderer</text>
</a>
</g>
</g>
<!-- Node2 -->
<g id="node2" class="node">
<title>Node2</title>
<g id="a_node2"><a xlink:href="class_c_base_renderer.html" target="_top" xlink:title=" ">
<polygon fill="white" stroke="#bfbfbf" points="145.5,-74 60.5,-74 60.5,-55 145.5,-55 145.5,-74"/>
<text text-anchor="middle" x="103" y="-62" font-family="Helvetica,sans-Serif" font-size="10.00">CBaseRenderer</text>
</a>
</g>
</g>
<!-- Node1&#45;&gt;Node2 -->
<g id="edge1" class="edge">
<title>Node1&#45;&gt;Node2</title>
<path fill="none" stroke="#63b8ff" d="M103,-98.35C103,-90.1 103,-80.97 103,-74.44"/>
<polygon fill="#63b8ff" stroke="#63b8ff" points="99.5,-98.23 103,-108.23 106.5,-98.23 99.5,-98.23"/>
</g>
<!-- Node3 -->
<g id="node3" class="node">
<title>Node3</title>
<g id="a_node3"><a xlink:href="class_c_indexed_renderer.html" target="_top" xlink:title=" ">
<polygon fill="white" stroke="#bfbfbf" points="96,-19 0,-19 0,0 96,0 96,-19"/>
<text text-anchor="middle" x="48" y="-7" font-family="Helvetica,sans-Serif" font-size="10.00">CIndexedRenderer</text>
</a>
</g>
</g>
<!-- Node2&#45;&gt;Node3 -->
<g id="edge2" class="edge">
<title>Node2&#45;&gt;Node3</title>
<path fill="none" stroke="#63b8ff" d="M85.65,-46.78C76.25,-37.72 65.02,-26.9 57.28,-19.44"/>
<polygon fill="#63b8ff" stroke="#63b8ff" points="83.2,-49.28 92.83,-53.7 88.06,-44.24 83.2,-49.28"/>
</g>
<!-- Node4 -->
<g id="node4" class="node">
<title>Node4</title>
<g id="a_node4"><a xlink:href="class_c_linear_renderer.html" target="_top" xlink:title=" ">
<polygon fill="white" stroke="#bfbfbf" points="203.5,-19 114.5,-19 114.5,0 203.5,0 203.5,-19"/>
<text text-anchor="middle" x="159" y="-7" font-family="Helvetica,sans-Serif" font-size="10.00">CLinearRenderer</text>
</a>
</g>
</g>
<!-- Node2&#45;&gt;Node4 -->
<g id="edge3" class="edge">
<title>Node2&#45;&gt;Node4</title>
<path fill="none" stroke="#63b8ff" d="M120.63,-46.81C130.24,-37.72 141.75,-26.82 149.64,-19.36"/>
<polygon fill="#63b8ff" stroke="#63b8ff" points="118.46,-44.05 113.6,-53.47 123.27,-49.14 118.46,-44.05"/>
</g>
</g>
</svg>
