<?xml version="1.0" encoding="UTF-8" standalone="no"?>
<!DOCTYPE svg PUBLIC "-//W3C//DTD SVG 1.1//EN"
 "http://www.w3.org/Graphics/SVG/1.1/DTD/svg11.dtd">
<!-- Generated by graphviz version 7.0.5 (20221223.1930)
 -->
<!-- Title: CImmGeomManager Pages: 1 -->
<svg width="1346pt" height="1233pt"
 viewBox="0.00 0.00 1346.00 1232.50" xmlns="http://www.w3.org/2000/svg" xmlns:xlink="http://www.w3.org/1999/xlink">
<g id="graph0" class="graph" transform="scale(1 1) rotate(0) translate(4 1228.5)">
<title>CImmGeomManager</title>
<!-- Node1 -->
<g id="node1" class="node">
<title>Node1</title>
<g id="a_node1"><a xlink:title=" ">
<polygon fill="#999999" stroke="#666666" points="496,-727 389,-727 389,-708 496,-708 496,-727"/>
<text text-anchor="middle" x="442.5" y="-715" font-family="Helvetica,sans-Serif" font-size="10.00">CImmGeomManager</text>
</a>
</g>
</g>
<!-- Node3 -->
<g id="node3" class="node">
<title>Node3</title>
<g id="a_node3"><a xlink:href="class_c_g_l_context.html" target="_top" xlink:title=" ">
<polygon fill="white" stroke="#bfbfbf" points="678,-535 608,-535 608,-516 678,-516 678,-535"/>
<text text-anchor="middle" x="643" y="-523" font-family="Helvetica,sans-Serif" font-size="10.00">CGLContext</text>
</a>
</g>
</g>
<!-- Node1&#45;&gt;Node3 -->
<g id="edge20" class="edge">
<title>Node1&#45;&gt;Node3</title>
<path fill="none" stroke="#9a32cd" stroke-dasharray="5,2" d="M461.85,-699.75C502.65,-660.28 599.78,-566.33 631.67,-535.5"/>
<polygon fill="#9a32cd" stroke="#9a32cd" points="459.46,-697.19 454.7,-706.66 464.33,-702.23 459.46,-697.19"/>
<text text-anchor="middle" x="547.5" y="-646.5" font-family="Helvetica,sans-Serif" font-size="10.00"> ImmGManager</text>
</g>
<!-- Node2 -->
<g id="node2" class="node">
<title>Node2</title>
<g id="a_node2"><a xlink:href="class_c_geom_manager.html" target="_top" xlink:title=" ">
<polygon fill="white" stroke="#bfbfbf" points="918.5,-1067 831.5,-1067 831.5,-1048 918.5,-1048 918.5,-1067"/>
<text text-anchor="middle" x="875" y="-1055" font-family="Helvetica,sans-Serif" font-size="10.00">CGeomManager</text>
</a>
</g>
</g>
<!-- Node2&#45;&gt;Node1 -->
<g id="edge1" class="edge">
<title>Node2&#45;&gt;Node1</title>
<path fill="none" stroke="#63b8ff" d="M820.09,-1053.1C786.21,-1049.09 742.05,-1041.54 705,-1027.5 696.23,-1024.18 695.1,-1021.23 687,-1016.5 648.34,-993.94 631.41,-998.38 599,-967.5 518.33,-890.64 462.29,-763.39 447.43,-727.31"/>
<polygon fill="#63b8ff" stroke="#63b8ff" points="819.33,-1056.54 829.66,-1054.16 820.11,-1049.58 819.33,-1056.54"/>
</g>
<!-- Node2&#45;&gt;Node3 -->
<g id="edge27" class="edge">
<title>Node2&#45;&gt;Node3</title>
<path fill="none" stroke="#9a32cd" stroke-dasharray="5,2" d="M866.82,-1036.84C850.86,-991.1 813.29,-884.88 807,-879.5 771.81,-849.44 737.37,-891.58 705,-858.5 658.25,-810.71 646.42,-584.88 644.36,-535.19"/>
<polygon fill="#9a32cd" stroke="#9a32cd" points="863.46,-1037.82 870.05,-1046.11 870.07,-1035.51 863.46,-1037.82"/>
<text text-anchor="middle" x="756" y="-882.5" font-family="Helvetica,sans-Serif" font-size="10.00"> CurGManager</text>
</g>
<!-- Node13 -->
<g id="node13" class="node">
<title>Node13</title>
<g id="a_node13"><a xlink:href="class_c_d_list_geom_manager.html" target="_top" xlink:title=" ">
<polygon fill="white" stroke="#bfbfbf" points="1146,-1130 1036,-1130 1036,-1111 1146,-1111 1146,-1130"/>
<text text-anchor="middle" x="1091" y="-1118" font-family="Helvetica,sans-Serif" font-size="10.00">CDListGeomManager</text>
</a>
</g>
</g>
<!-- Node2&#45;&gt;Node13 -->
<g id="edge22" class="edge">
<title>Node2&#45;&gt;Node13</title>
<path fill="none" stroke="#63b8ff" d="M920.79,-1070.68C961.18,-1082.58 1019.69,-1099.8 1056.25,-1110.56"/>
<polygon fill="#63b8ff" stroke="#63b8ff" points="921.94,-1067.38 911.36,-1067.91 919.97,-1074.09 921.94,-1067.38"/>
</g>
<!-- Node3&#45;&gt;Node2 -->
<g id="edge2" class="edge">
<title>Node3&#45;&gt;Node2</title>
<path fill="none" stroke="#9a32cd" stroke-dasharray="5,2" d="M644.48,-546.77C646.54,-617.38 656.83,-842.45 705,-892.5 737.09,-925.85 770.7,-884.79 807,-913.5 851.77,-948.91 867.94,-1021.21 872.5,-1047.58"/>
<polygon fill="#9a32cd" stroke="#9a32cd" points="647.99,-546.87 644.23,-536.97 640.99,-547.06 647.99,-546.87"/>
<text text-anchor="middle" x="756" y="-916.5" font-family="Helvetica,sans-Serif" font-size="10.00"> GLContext</text>
</g>
<!-- Node5 -->
<g id="node5" class="node">
<title>Node5</title>
<g id="a_node5"><a xlink:href="class_c_matrix_stack.html" target="_top" xlink:title=" ">
<polygon fill="white" stroke="#bfbfbf" points="912.5,-207 837.5,-207 837.5,-188 912.5,-188 912.5,-207"/>
<text text-anchor="middle" x="875" y="-195" font-family="Helvetica,sans-Serif" font-size="10.00">CMatrixStack</text>
</a>
</g>
</g>
<!-- Node3&#45;&gt;Node5 -->
<g id="edge5" class="edge">
<title>Node3&#45;&gt;Node5</title>
<path fill="none" stroke="#9a32cd" stroke-dasharray="5,2" d="M644.54,-504.32C646.72,-437.82 657.24,-235.24 705,-195.5 744.92,-162.28 810.43,-175.95 847.06,-187.56"/>
<polygon fill="#9a32cd" stroke="#9a32cd" points="641.04,-504.11 644.25,-514.2 648.04,-504.31 641.04,-504.11"/>
<text text-anchor="middle" x="756" y="-198.5" font-family="Helvetica,sans-Serif" font-size="10.00"> GLContext</text>
</g>
<!-- Node8 -->
<g id="node8" class="node">
<title>Node8</title>
<g id="a_node8"><a xlink:href="class_c_lighting.html" target="_top" xlink:title=" ">
<polygon fill="white" stroke="#bfbfbf" points="1009.5,-745 951.5,-745 951.5,-726 1009.5,-726 1009.5,-745"/>
<text text-anchor="middle" x="980.5" y="-733" font-family="Helvetica,sans-Serif" font-size="10.00">CLighting</text>
</a>
</g>
</g>
<!-- Node3&#45;&gt;Node8 -->
<g id="edge11" class="edge">
<title>Node3&#45;&gt;Node8</title>
<path fill="none" stroke="#9a32cd" stroke-dasharray="5,2" d="M646.83,-546.66C652.22,-578.26 667.03,-637.36 705,-668.5 724.31,-684.34 901.05,-707.43 925,-714.5 935.41,-717.57 946.63,-721.74 956.18,-725.56"/>
<polygon fill="#9a32cd" stroke="#9a32cd" points="650.29,-546.17 645.33,-536.81 643.37,-547.23 650.29,-546.17"/>
<text text-anchor="middle" x="756" y="-695.5" font-family="Helvetica,sans-Serif" font-size="10.00"> GLContext</text>
</g>
<!-- Node10 -->
<g id="node10" class="node">
<title>Node10</title>
<g id="a_node10"><a xlink:href="class_c_light.html" target="_top" xlink:title=" ">
<polygon fill="white" stroke="#bfbfbf" points="897.5,-662 852.5,-662 852.5,-643 897.5,-643 897.5,-662"/>
<text text-anchor="middle" x="875" y="-650" font-family="Helvetica,sans-Serif" font-size="10.00">CLight</text>
</a>
</g>
</g>
<!-- Node3&#45;&gt;Node10 -->
<g id="edge14" class="edge">
<title>Node3&#45;&gt;Node10</title>
<path fill="none" stroke="#9a32cd" stroke-dasharray="5,2" d="M650.17,-546.18C658.48,-570.18 675.72,-608.96 705,-628.5 750.35,-658.77 817.82,-657.93 852.18,-655.06"/>
<polygon fill="#9a32cd" stroke="#9a32cd" points="653.57,-545.33 647.17,-536.89 646.91,-547.48 653.57,-545.33"/>
<text text-anchor="middle" x="756" y="-658.5" font-family="Helvetica,sans-Serif" font-size="10.00"> GLContext</text>
</g>
<!-- Node17 -->
<g id="node17" class="node">
<title>Node17</title>
<g id="a_node17"><a xlink:href="class_c_material_manager.html" target="_top" xlink:title=" ">
<polygon fill="white" stroke="#bfbfbf" points="1338,-510 1243,-510 1243,-491 1338,-491 1338,-510"/>
<text text-anchor="middle" x="1290.5" y="-498" font-family="Helvetica,sans-Serif" font-size="10.00">CMaterialManager</text>
</a>
</g>
</g>
<!-- Node3&#45;&gt;Node17 -->
<g id="edge29" class="edge">
<title>Node3&#45;&gt;Node17</title>
<path fill="none" stroke="#9a32cd" stroke-dasharray="5,2" d="M689.52,-536.29C694.72,-537.2 699.96,-537.97 705,-538.5 899.93,-559.04 950.16,-542.52 1146,-534.5 1181.13,-533.06 1190.88,-538.96 1225,-530.5 1242.14,-526.25 1260.26,-517.39 1272.91,-510.39"/>
<polygon fill="#9a32cd" stroke="#9a32cd" points="690.28,-532.87 679.8,-534.42 688.96,-539.75 690.28,-532.87"/>
<text text-anchor="middle" x="980.5" y="-548.5" font-family="Helvetica,sans-Serif" font-size="10.00"> GLContext</text>
</g>
<!-- Node19 -->
<g id="node19" class="node">
<title>Node19</title>
<g id="a_node19"><a xlink:href="class_c_material.html" target="_top" xlink:title=" ">
<polygon fill="white" stroke="#bfbfbf" points="904,-510 846,-510 846,-491 904,-491 904,-510"/>
<text text-anchor="middle" x="875" y="-498" font-family="Helvetica,sans-Serif" font-size="10.00">CMaterial</text>
</a>
</g>
</g>
<!-- Node3&#45;&gt;Node19 -->
<g id="edge32" class="edge">
<title>Node3&#45;&gt;Node19</title>
<path fill="none" stroke="#9a32cd" stroke-dasharray="5,2" d="M689.59,-515.93C694.78,-515.02 699.99,-514.18 705,-513.5 754.28,-506.78 812.14,-503.27 845.78,-501.66"/>
<polygon fill="#9a32cd" stroke="#9a32cd" points="689.08,-512.46 679.89,-517.72 690.36,-519.34 689.08,-512.46"/>
<text text-anchor="middle" x="756" y="-516.5" font-family="Helvetica,sans-Serif" font-size="10.00"> GLContext</text>
</g>
<!-- Node22 -->
<g id="node22" class="node">
<title>Node22</title>
<g id="a_node22"><a xlink:href="class_c_tex_manager.html" target="_top" xlink:title=" ">
<polygon fill="white" stroke="#bfbfbf" points="913.5,-910 836.5,-910 836.5,-891 913.5,-891 913.5,-910"/>
<text text-anchor="middle" x="875" y="-898" font-family="Helvetica,sans-Serif" font-size="10.00">CTexManager</text>
</a>
</g>
</g>
<!-- Node3&#45;&gt;Node22 -->
<g id="edge39" class="edge">
<title>Node3&#45;&gt;Node22</title>
<path fill="none" stroke="#9a32cd" stroke-dasharray="5,2" d="M645.98,-546.87C651.68,-603.65 669.99,-756.29 705,-790.5 738.11,-822.85 767.89,-786.75 807,-811.5 823.26,-821.79 854.73,-869.86 867.93,-890.76"/>
<polygon fill="#9a32cd" stroke="#9a32cd" points="649.47,-546.57 645.02,-536.95 642.5,-547.24 649.47,-546.57"/>
<text text-anchor="middle" x="756" y="-814.5" font-family="Helvetica,sans-Serif" font-size="10.00"> GLContext</text>
</g>
<!-- Node28 -->
<g id="node28" class="node">
<title>Node28</title>
<g id="a_node28"><a xlink:href="class_c_draw_context.html" target="_top" xlink:title=" ">
<polygon fill="white" stroke="#bfbfbf" points="914.5,-425 835.5,-425 835.5,-406 914.5,-406 914.5,-425"/>
<text text-anchor="middle" x="875" y="-413" font-family="Helvetica,sans-Serif" font-size="10.00">CDrawContext</text>
</a>
</g>
</g>
<!-- Node3&#45;&gt;Node28 -->
<g id="edge46" class="edge">
<title>Node3&#45;&gt;Node28</title>
<path fill="none" stroke="#9a32cd" stroke-dasharray="5,2" d="M655.42,-506.36C666.16,-490.05 683.75,-467.28 705,-454.5 744.83,-430.55 761.73,-442.01 807,-431.5 816.09,-429.39 825.86,-427.08 835.05,-424.89"/>
<polygon fill="#9a32cd" stroke="#9a32cd" points="652.54,-504.36 650.18,-514.69 658.47,-508.08 652.54,-504.36"/>
<text text-anchor="middle" x="756" y="-457.5" font-family="Helvetica,sans-Serif" font-size="10.00"> GLContext</text>
</g>
<!-- Node31 -->
<g id="node31" class="node">
<title>Node31</title>
<g id="a_node31"><a xlink:href="class_c_display_context.html" target="_top" xlink:title=" ">
<polygon fill="white" stroke="#bfbfbf" points="919,-388 831,-388 831,-369 919,-369 919,-388"/>
<text text-anchor="middle" x="875" y="-376" font-family="Helvetica,sans-Serif" font-size="10.00">CDisplayContext</text>
</a>
</g>
</g>
<!-- Node3&#45;&gt;Node31 -->
<g id="edge52" class="edge">
<title>Node3&#45;&gt;Node31</title>
<path fill="none" stroke="#9a32cd" stroke-dasharray="5,2" d="M646.24,-504.85C650.91,-473.09 664.84,-413.01 705,-385.5 741.82,-360.27 794.5,-362.54 831.22,-368.54"/>
<polygon fill="#9a32cd" stroke="#9a32cd" points="642.82,-504 645.02,-514.37 649.76,-504.89 642.82,-504"/>
<text text-anchor="middle" x="756" y="-388.5" font-family="Helvetica,sans-Serif" font-size="10.00"> GLContext</text>
</g>
<!-- Node34 -->
<g id="node34" class="node">
<title>Node34</title>
<g id="a_node34"><a xlink:href="class_c_renderer_manager.html" target="_top" xlink:title=" ">
<polygon fill="white" stroke="#bfbfbf" points="925,-99 825,-99 825,-80 925,-80 925,-99"/>
<text text-anchor="middle" x="875" y="-87" font-family="Helvetica,sans-Serif" font-size="10.00">CRendererManager</text>
</a>
</g>
</g>
<!-- Node3&#45;&gt;Node34 -->
<g id="edge56" class="edge">
<title>Node3&#45;&gt;Node34</title>
<path fill="none" stroke="#9a32cd" stroke-dasharray="5,2" d="M644.3,-504.43C645.77,-431.39 654.44,-190.53 705,-136.5 736.75,-102.57 762.38,-126.47 807,-113.5 820.88,-109.47 836.07,-104.11 848.47,-99.47"/>
<polygon fill="#9a32cd" stroke="#9a32cd" points="640.8,-504.13 644.13,-514.19 647.8,-504.25 640.8,-504.13"/>
<text text-anchor="middle" x="756" y="-139.5" font-family="Helvetica,sans-Serif" font-size="10.00"> GLContext</text>
</g>
<!-- Node4 -->
<g id="node4" class="node">
<title>Node4</title>
<g id="a_node4"><a xlink:href="class_c_imm_matrix_stack.html" target="_top" xlink:title=" ">
<polygon fill="white" stroke="#bfbfbf" points="1138.5,-233 1043.5,-233 1043.5,-214 1138.5,-214 1138.5,-233"/>
<text text-anchor="middle" x="1091" y="-221" font-family="Helvetica,sans-Serif" font-size="10.00">CImmMatrixStack</text>
</a>
</g>
</g>
<!-- Node4&#45;&gt;Node3 -->
<g id="edge3" class="edge">
<title>Node4&#45;&gt;Node3</title>
<path fill="none" stroke="#9a32cd" stroke-dasharray="5,2" d="M1032.19,-223.63C977.58,-225.23 894,-231.57 825,-253.5 766.99,-271.94 743.17,-272.09 705,-319.5 654.94,-381.67 645.95,-483.85 644.34,-515.71"/>
<polygon fill="#9a32cd" stroke="#9a32cd" points="1031.96,-227.14 1041.87,-223.39 1031.79,-220.14 1031.96,-227.14"/>
<text text-anchor="middle" x="875" y="-267.5" font-family="Helvetica,sans-Serif" font-size="10.00"> ModelViewMatStack</text>
<text text-anchor="middle" x="875" y="-256.5" font-family="Helvetica,sans-Serif" font-size="10.00">ProjectionMatStack</text>
</g>
<!-- Node5&#45;&gt;Node3 -->
<g id="edge8" class="edge">
<title>Node5&#45;&gt;Node3</title>
<path fill="none" stroke="#9a32cd" stroke-dasharray="5,2" d="M825.98,-203.83C779.11,-210.44 713.63,-221.01 705,-229.5 662.83,-270.99 647.62,-469.06 644.6,-515.66"/>
<polygon fill="#9a32cd" stroke="#9a32cd" points="826.22,-207.33 835.65,-202.48 825.26,-200.39 826.22,-207.33"/>
<text text-anchor="middle" x="756" y="-243.5" font-family="Helvetica,sans-Serif" font-size="10.00"> CurMatrixStack</text>
<text text-anchor="middle" x="756" y="-232.5" font-family="Helvetica,sans-Serif" font-size="10.00">SavedCurMatStack</text>
</g>
<!-- Node5&#45;&gt;Node4 -->
<g id="edge4" class="edge">
<title>Node5&#45;&gt;Node4</title>
<path fill="none" stroke="#63b8ff" d="M923.87,-203.32C959.5,-207.64 1007.87,-213.52 1043.23,-217.82"/>
<polygon fill="#63b8ff" stroke="#63b8ff" points="924.64,-199.88 914.29,-202.15 923.8,-206.83 924.64,-199.88"/>
</g>
<!-- Node6 -->
<g id="node6" class="node">
<title>Node6</title>
<g id="a_node6"><a xlink:href="class_c_d_list_matrix_stack.html" target="_top" xlink:title=" ">
<polygon fill="white" stroke="#bfbfbf" points="1140,-190 1042,-190 1042,-171 1140,-171 1140,-190"/>
<text text-anchor="middle" x="1091" y="-178" font-family="Helvetica,sans-Serif" font-size="10.00">CDListMatrixStack</text>
</a>
</g>
</g>
<!-- Node5&#45;&gt;Node6 -->
<g id="edge7" class="edge">
<title>Node5&#45;&gt;Node6</title>
<path fill="none" stroke="#63b8ff" d="M924.18,-193.67C959.25,-190.89 1006.56,-187.13 1041.67,-184.34"/>
<polygon fill="#63b8ff" stroke="#63b8ff" points="923.99,-190.18 914.3,-194.46 924.54,-197.15 923.99,-190.18"/>
</g>
<!-- Node6&#45;&gt;Node3 -->
<g id="edge6" class="edge">
<title>Node6&#45;&gt;Node3</title>
<path fill="none" stroke="#9a32cd" stroke-dasharray="5,2" d="M1030.45,-170.4C934.44,-155.61 751.5,-134.03 705,-175.5 652.52,-222.3 645.13,-463.36 644.15,-515.53"/>
<polygon fill="#9a32cd" stroke="#9a32cd" points="1029.79,-173.84 1040.21,-171.93 1030.87,-166.93 1029.79,-173.84"/>
<text text-anchor="middle" x="875" y="-159.5" font-family="Helvetica,sans-Serif" font-size="10.00"> DListMatStack</text>
</g>
<!-- Node7 -->
<g id="node7" class="node">
<title>Node7</title>
<g id="a_node7"><a xlink:href="class_c_imm_lighting.html" target="_top" xlink:title=" ">
<polygon fill="white" stroke="#bfbfbf" points="1329,-644 1252,-644 1252,-625 1329,-625 1329,-644"/>
<text text-anchor="middle" x="1290.5" y="-632" font-family="Helvetica,sans-Serif" font-size="10.00">CImmLighting</text>
</a>
</g>
</g>
<!-- Node7&#45;&gt;Node3 -->
<g id="edge9" class="edge">
<title>Node7&#45;&gt;Node3</title>
<path fill="none" stroke="#9a32cd" stroke-dasharray="5,2" d="M1240.41,-628.91C1109.01,-613.81 755.77,-572.28 705,-556.5 688.89,-551.49 671.89,-542.5 659.93,-535.49"/>
<polygon fill="#9a32cd" stroke="#9a32cd" points="1239.85,-632.37 1250.18,-630.03 1240.65,-625.41 1239.85,-632.37"/>
<text text-anchor="middle" x="980.5" y="-604.5" font-family="Helvetica,sans-Serif" font-size="10.00"> ImmLighting</text>
</g>
<!-- Node8&#45;&gt;Node3 -->
<g id="edge19" class="edge">
<title>Node8&#45;&gt;Node3</title>
<path fill="none" stroke="#9a32cd" stroke-dasharray="5,2" d="M939.78,-733.66C868.11,-729.99 722.93,-720.87 705,-706.5 649.88,-662.34 644.25,-566.36 643.92,-535.37"/>
<polygon fill="#9a32cd" stroke="#9a32cd" points="939.35,-737.14 949.51,-734.14 939.7,-730.15 939.35,-737.14"/>
<text text-anchor="middle" x="756" y="-726.5" font-family="Helvetica,sans-Serif" font-size="10.00"> CurLighting</text>
</g>
<!-- Node8&#45;&gt;Node7 -->
<g id="edge10" class="edge">
<title>Node8&#45;&gt;Node7</title>
<path fill="none" stroke="#63b8ff" d="M1011.78,-750.87C1013.9,-752.07 1016,-753.29 1018,-754.5 1105.71,-807.66 1142.98,-918.08 1225,-856.5 1260.47,-829.87 1282.77,-683.77 1288.2,-644.32"/>
<polygon fill="#63b8ff" stroke="#63b8ff" points="1013.63,-747.89 1003.17,-746.21 1010.3,-754.05 1013.63,-747.89"/>
</g>
<!-- Node11 -->
<g id="node11" class="node">
<title>Node11</title>
<g id="a_node11"><a xlink:href="class_c_d_list_lighting.html" target="_top" xlink:title=" ">
<polygon fill="white" stroke="#bfbfbf" points="1331,-905 1250,-905 1250,-886 1331,-886 1331,-905"/>
<text text-anchor="middle" x="1290.5" y="-893" font-family="Helvetica,sans-Serif" font-size="10.00">CDListLighting</text>
</a>
</g>
</g>
<!-- Node8&#45;&gt;Node11 -->
<g id="edge16" class="edge">
<title>Node8&#45;&gt;Node11</title>
<path fill="none" stroke="#63b8ff" d="M1016.33,-752.54C1016.91,-753.17 1017.47,-753.83 1018,-754.5 1038.88,-781.14 1013.81,-802.94 1036,-828.5 1089.73,-890.36 1193.23,-898.36 1249.95,-897.65"/>
<polygon fill="#63b8ff" stroke="#63b8ff" points="1018.7,-749.96 1008.72,-746.41 1014.31,-755.41 1018.7,-749.96"/>
</g>
<!-- Node9 -->
<g id="node9" class="node">
<title>Node9</title>
<g id="a_node9"><a xlink:href="class_c_imm_light.html" target="_top" xlink:title=" ">
<polygon fill="white" stroke="#bfbfbf" points="1123.5,-662 1058.5,-662 1058.5,-643 1123.5,-643 1123.5,-662"/>
<text text-anchor="middle" x="1091" y="-650" font-family="Helvetica,sans-Serif" font-size="10.00">CImmLight</text>
</a>
</g>
</g>
<!-- Node9&#45;&gt;Node7 -->
<g id="edge12" class="edge">
<title>Node9&#45;&gt;Node7</title>
<path fill="none" stroke="#9a32cd" stroke-dasharray="5,2" d="M1135.15,-640.66C1144.58,-638.53 1154.57,-636.64 1164,-635.5 1193.31,-631.97 1226.75,-631.89 1251.74,-632.61"/>
<polygon fill="#9a32cd" stroke="#9a32cd" points="1134.37,-637.25 1125.45,-642.98 1135.99,-644.05 1134.37,-637.25"/>
<text text-anchor="middle" x="1194.5" y="-726.5" font-family="Helvetica,sans-Serif" font-size="10.00"> Light0</text>
<text text-anchor="middle" x="1194.5" y="-715.5" font-family="Helvetica,sans-Serif" font-size="10.00">Light1</text>
<text text-anchor="middle" x="1194.5" y="-704.5" font-family="Helvetica,sans-Serif" font-size="10.00">Light2</text>
<text text-anchor="middle" x="1194.5" y="-693.5" font-family="Helvetica,sans-Serif" font-size="10.00">Light3</text>
<text text-anchor="middle" x="1194.5" y="-682.5" font-family="Helvetica,sans-Serif" font-size="10.00">Light4</text>
<text text-anchor="middle" x="1194.5" y="-671.5" font-family="Helvetica,sans-Serif" font-size="10.00">Light5</text>
<text text-anchor="middle" x="1194.5" y="-660.5" font-family="Helvetica,sans-Serif" font-size="10.00">Light6</text>
<text text-anchor="middle" x="1194.5" y="-649.5" font-family="Helvetica,sans-Serif" font-size="10.00">Light7</text>
<text text-anchor="middle" x="1194.5" y="-638.5" font-family="Helvetica,sans-Serif" font-size="10.00">Lights</text>
</g>
<!-- Node10&#45;&gt;Node9 -->
<g id="edge13" class="edge">
<title>Node10&#45;&gt;Node9</title>
<path fill="none" stroke="#63b8ff" d="M909.11,-652.5C949.76,-652.5 1018.2,-652.5 1058.23,-652.5"/>
<polygon fill="#63b8ff" stroke="#63b8ff" points="909.21,-649 899.21,-652.5 909.21,-656 909.21,-649"/>
</g>
<!-- Node12 -->
<g id="node12" class="node">
<title>Node12</title>
<g id="a_node12"><a xlink:href="class_c_d_list_light.html" target="_top" xlink:title=" ">
<polygon fill="white" stroke="#bfbfbf" points="1125,-733 1057,-733 1057,-714 1125,-714 1125,-733"/>
<text text-anchor="middle" x="1091" y="-721" font-family="Helvetica,sans-Serif" font-size="10.00">CDListLight</text>
</a>
</g>
</g>
<!-- Node10&#45;&gt;Node12 -->
<g id="edge18" class="edge">
<title>Node10&#45;&gt;Node12</title>
<path fill="none" stroke="#63b8ff" d="M908.49,-663.28C949.68,-676.94 1020.12,-700.32 1060.06,-713.57"/>
<polygon fill="#63b8ff" stroke="#63b8ff" points="909.73,-660 899.13,-660.18 907.52,-666.65 909.73,-660"/>
</g>
<!-- Node11&#45;&gt;Node3 -->
<g id="edge15" class="edge">
<title>Node11&#45;&gt;Node3</title>
<path fill="none" stroke="#9a32cd" stroke-dasharray="5,2" d="M1238.53,-906.74C1233.97,-907.45 1229.41,-908.06 1225,-908.5 1198.02,-911.19 1190.84,-912.3 1164,-908.5 1105.37,-900.2 1089.71,-896.44 1036,-871.5 982.22,-846.53 979.02,-821.95 925,-797.5 913.47,-792.28 714.02,-747.37 705,-738.5 645.75,-680.25 643.06,-568.66 643.66,-535.21"/>
<polygon fill="#9a32cd" stroke="#9a32cd" points="1239.03,-910.21 1248.28,-905.05 1237.83,-903.31 1239.03,-910.21"/>
<text text-anchor="middle" x="980.5" y="-864.5" font-family="Helvetica,sans-Serif" font-size="10.00"> DListLighting</text>
</g>
<!-- Node12&#45;&gt;Node11 -->
<g id="edge17" class="edge">
<title>Node12&#45;&gt;Node11</title>
<path fill="none" stroke="#9a32cd" stroke-dasharray="5,2" d="M1136.05,-735.24C1164.06,-744.46 1199.69,-759.62 1225,-782.5 1258.35,-812.64 1278.83,-864.2 1286.29,-885.67"/>
<polygon fill="#9a32cd" stroke="#9a32cd" points="1137.37,-731.99 1126.78,-732.34 1135.28,-738.67 1137.37,-731.99"/>
<text text-anchor="middle" x="1194.5" y="-873.5" font-family="Helvetica,sans-Serif" font-size="10.00"> Light0</text>
<text text-anchor="middle" x="1194.5" y="-862.5" font-family="Helvetica,sans-Serif" font-size="10.00">Light1</text>
<text text-anchor="middle" x="1194.5" y="-851.5" font-family="Helvetica,sans-Serif" font-size="10.00">Light2</text>
<text text-anchor="middle" x="1194.5" y="-840.5" font-family="Helvetica,sans-Serif" font-size="10.00">Light3</text>
<text text-anchor="middle" x="1194.5" y="-829.5" font-family="Helvetica,sans-Serif" font-size="10.00">Light4</text>
<text text-anchor="middle" x="1194.5" y="-818.5" font-family="Helvetica,sans-Serif" font-size="10.00">Light5</text>
<text text-anchor="middle" x="1194.5" y="-807.5" font-family="Helvetica,sans-Serif" font-size="10.00">Light6</text>
<text text-anchor="middle" x="1194.5" y="-796.5" font-family="Helvetica,sans-Serif" font-size="10.00">Light7</text>
<text text-anchor="middle" x="1194.5" y="-785.5" font-family="Helvetica,sans-Serif" font-size="10.00">Lights</text>
</g>
<!-- Node13&#45;&gt;Node3 -->
<g id="edge21" class="edge">
<title>Node13&#45;&gt;Node3</title>
<path fill="none" stroke="#9a32cd" stroke-dasharray="5,2" d="M1080.48,-1100.85C1058.13,-1056.15 998.58,-945 925,-871.5 880.52,-827.07 864.25,-819.48 807,-793.5 764.19,-774.07 737.92,-799.06 705,-765.5 671.58,-731.44 650.25,-575.97 645.17,-535.27"/>
<polygon fill="#9a32cd" stroke="#9a32cd" points="1077.23,-1102.17 1084.79,-1109.59 1083.51,-1099.08 1077.23,-1102.17"/>
<text text-anchor="middle" x="875" y="-874.5" font-family="Helvetica,sans-Serif" font-size="10.00"> DListGManager</text>
</g>
<!-- Node14 -->
<g id="node14" class="node">
<title>Node14</title>
<g id="a_node14"><a xlink:href="class_c_d_list.html" target="_top" xlink:title=" ">
<polygon fill="white" stroke="#bfbfbf" points="261.5,-948 214.5,-948 214.5,-929 261.5,-929 261.5,-948"/>
<text text-anchor="middle" x="238" y="-936" font-family="Helvetica,sans-Serif" font-size="10.00">CDList</text>
</a>
</g>
</g>
<!-- Node14&#45;&gt;Node13 -->
<g id="edge23" class="edge">
<title>Node14&#45;&gt;Node13</title>
<path fill="none" stroke="#9a32cd" stroke-dasharray="5,2" d="M246.62,-958.96C268.16,-1012.84 334.93,-1154.5 441.5,-1154.5 441.5,-1154.5 441.5,-1154.5 876,-1154.5 937.88,-1154.5 1008.6,-1140.46 1051.24,-1130.43"/>
<polygon fill="#9a32cd" stroke="#9a32cd" points="249.93,-957.82 243.06,-949.75 243.4,-960.34 249.93,-957.82"/>
<text text-anchor="middle" x="643" y="-1157.5" font-family="Helvetica,sans-Serif" font-size="10.00"> CurDList</text>
</g>
<!-- Node21 -->
<g id="node21" class="node">
<title>Node21</title>
<g id="a_node21"><a xlink:href="class_c_d_list_manager.html" target="_top" xlink:title=" ">
<polygon fill="white" stroke="#bfbfbf" points="484.5,-303 400.5,-303 400.5,-284 484.5,-284 484.5,-303"/>
<text text-anchor="middle" x="442.5" y="-291" font-family="Helvetica,sans-Serif" font-size="10.00">CDListManager</text>
</a>
</g>
</g>
<!-- Node14&#45;&gt;Node21 -->
<g id="edge37" class="edge">
<title>Node14&#45;&gt;Node21</title>
<path fill="none" stroke="#9a32cd" stroke-dasharray="5,2" d="M245.51,-917.76C277.37,-816.29 416.16,-374.21 438.47,-303.15"/>
<polygon fill="#9a32cd" stroke="#9a32cd" points="242.21,-916.59 242.55,-927.18 248.89,-918.69 242.21,-916.59"/>
<text text-anchor="middle" x="336" y="-754.5" font-family="Helvetica,sans-Serif" font-size="10.00"> Lists</text>
<text text-anchor="middle" x="336" y="-743.5" font-family="Helvetica,sans-Serif" font-size="10.00">ListsToBeFreed</text>
<text text-anchor="middle" x="336" y="-732.5" font-family="Helvetica,sans-Serif" font-size="10.00">OpenList</text>
</g>
<!-- Node15 -->
<g id="node15" class="node">
<title>Node15</title>
<g id="a_node15"><a xlink:href="class_c_d_list_cmd_block.html" target="_top" xlink:title=" ">
<polygon fill="white" stroke="#bfbfbf" points="92,-948 0,-948 0,-929 92,-929 92,-948"/>
<text text-anchor="middle" x="46" y="-936" font-family="Helvetica,sans-Serif" font-size="10.00">CDListCmdBlock</text>
</a>
</g>
</g>
<!-- Node15&#45;&gt;Node14 -->
<g id="edge24" class="edge">
<title>Node15&#45;&gt;Node14</title>
<path fill="none" stroke="#9a32cd" stroke-dasharray="5,2" d="M103.2,-938.5C140.29,-938.5 186.9,-938.5 214.18,-938.5"/>
<polygon fill="#9a32cd" stroke="#9a32cd" points="103.54,-935 93.54,-938.5 103.54,-942 103.54,-935"/>
<text text-anchor="middle" x="142.5" y="-952.5" font-family="Helvetica,sans-Serif" font-size="10.00"> CurCmdBlock</text>
<text text-anchor="middle" x="142.5" y="-941.5" font-family="Helvetica,sans-Serif" font-size="10.00">FirstCmdBlock</text>
</g>
<!-- Node15&#45;&gt;Node15 -->
<g id="edge25" class="edge">
<title>Node15&#45;&gt;Node15</title>
<path fill="none" stroke="#9a32cd" stroke-dasharray="5,2" d="M28.87,-959.43C31.01,-963.29 36.72,-966 46,-966 62.96,-966 68,-956.94 61.11,-948.37"/>
<polygon fill="#9a32cd" stroke="#9a32cd" points="32.27,-960.32 30.62,-949.86 25.38,-959.07 32.27,-960.32"/>
<text text-anchor="middle" x="46" y="-969" font-family="Helvetica,sans-Serif" font-size="10.00"> NextBlock</text>
</g>
<!-- Node16 -->
<g id="node16" class="node">
<title>Node16</title>
<g id="a_node16"><a xlink:href="class_c_geometry_block.html" target="_top" xlink:title=" ">
<polygon fill="white" stroke="#bfbfbf" points="283,-1210 193,-1210 193,-1191 283,-1191 283,-1210"/>
<text text-anchor="middle" x="238" y="-1198" font-family="Helvetica,sans-Serif" font-size="10.00">CGeometryBlock</text>
</a>
</g>
</g>
<!-- Node16&#45;&gt;Node1 -->
<g id="edge60" class="edge">
<title>Node16&#45;&gt;Node1</title>
<path fill="none" stroke="#9a32cd" stroke-dasharray="5,2" d="M247.43,-1180.38C282.07,-1097.77 412.71,-786.16 437.45,-727.17"/>
<polygon fill="#9a32cd" stroke="#9a32cd" points="244.27,-1178.88 243.63,-1189.46 250.72,-1181.59 244.27,-1178.88"/>
<text text-anchor="middle" x="336" y="-1046.5" font-family="Helvetica,sans-Serif" font-size="10.00"> Geometry</text>
</g>
<!-- Node16&#45;&gt;Node13 -->
<g id="edge26" class="edge">
<title>Node16&#45;&gt;Node13</title>
<path fill="none" stroke="#9a32cd" stroke-dasharray="5,2" d="M294.48,-1205.98C335.14,-1209.54 391.69,-1213.5 441.5,-1213.5 441.5,-1213.5 441.5,-1213.5 876,-1213.5 958.64,-1213.5 1045.46,-1154.44 1077.33,-1130.45"/>
<polygon fill="#9a32cd" stroke="#9a32cd" points="294.97,-1202.51 284.7,-1205.11 294.35,-1209.49 294.97,-1202.51"/>
<text text-anchor="middle" x="643" y="-1216.5" font-family="Helvetica,sans-Serif" font-size="10.00"> Geometry</text>
</g>
<!-- Node17&#45;&gt;Node3 -->
<g id="edge28" class="edge">
<title>Node17&#45;&gt;Node3</title>
<path fill="none" stroke="#9a32cd" stroke-dasharray="5,2" d="M1240.97,-512.76C1235.61,-513.82 1230.21,-514.77 1225,-515.5 1190.19,-520.39 1181.14,-518.35 1146,-519.5 970.25,-525.24 759.73,-525.66 678.4,-525.58"/>
<polygon fill="#9a32cd" stroke="#9a32cd" points="1241.32,-516.26 1250.37,-510.75 1239.86,-509.41 1241.32,-516.26"/>
<text text-anchor="middle" x="980.5" y="-526.5" font-family="Helvetica,sans-Serif" font-size="10.00"> MaterialManager</text>
</g>
<!-- Node18 -->
<g id="node18" class="node">
<title>Node18</title>
<g id="a_node18"><a xlink:href="class_c_imm_material.html" target="_top" xlink:title=" ">
<polygon fill="white" stroke="#bfbfbf" points="1129.5,-510 1052.5,-510 1052.5,-491 1129.5,-491 1129.5,-510"/>
<text text-anchor="middle" x="1091" y="-498" font-family="Helvetica,sans-Serif" font-size="10.00">CImmMaterial</text>
</a>
</g>
</g>
<!-- Node18&#45;&gt;Node17 -->
<g id="edge30" class="edge">
<title>Node18&#45;&gt;Node17</title>
<path fill="none" stroke="#9a32cd" stroke-dasharray="5,2" d="M1141.04,-500.5C1172.08,-500.5 1211.99,-500.5 1242.62,-500.5"/>
<polygon fill="#9a32cd" stroke="#9a32cd" points="1141.13,-497 1131.13,-500.5 1141.13,-504 1141.13,-497"/>
<text text-anchor="middle" x="1194.5" y="-503.5" font-family="Helvetica,sans-Serif" font-size="10.00"> ImmMaterial</text>
</g>
<!-- Node19&#45;&gt;Node17 -->
<g id="edge35" class="edge">
<title>Node19&#45;&gt;Node17</title>
<path fill="none" stroke="#9a32cd" stroke-dasharray="5,2" d="M915.58,-491.28C947.79,-484.27 994.56,-475.23 1036,-471.5 1084.69,-467.12 1097.35,-466.63 1146,-471.5 1181.91,-475.09 1222.14,-483.62 1250.84,-490.51"/>
<polygon fill="#9a32cd" stroke="#9a32cd" points="914.89,-487.85 905.88,-493.43 916.4,-494.68 914.89,-487.85"/>
<text text-anchor="middle" x="1091" y="-474.5" font-family="Helvetica,sans-Serif" font-size="10.00"> CurMaterial</text>
</g>
<!-- Node19&#45;&gt;Node18 -->
<g id="edge31" class="edge">
<title>Node19&#45;&gt;Node18</title>
<path fill="none" stroke="#63b8ff" d="M915.83,-500.5C954.81,-500.5 1013.76,-500.5 1052.07,-500.5"/>
<polygon fill="#63b8ff" stroke="#63b8ff" points="915.93,-497 905.93,-500.5 915.93,-504 915.93,-497"/>
</g>
<!-- Node20 -->
<g id="node20" class="node">
<title>Node20</title>
<g id="a_node20"><a xlink:href="class_c_d_list_material.html" target="_top" xlink:title=" ">
<polygon fill="white" stroke="#bfbfbf" points="1131.5,-425 1050.5,-425 1050.5,-406 1131.5,-406 1131.5,-425"/>
<text text-anchor="middle" x="1091" y="-413" font-family="Helvetica,sans-Serif" font-size="10.00">CDListMaterial</text>
</a>
</g>
</g>
<!-- Node19&#45;&gt;Node20 -->
<g id="edge34" class="edge">
<title>Node19&#45;&gt;Node20</title>
<path fill="none" stroke="#63b8ff" d="M908.31,-485.65C913.96,-482.77 919.72,-479.67 925,-476.5 933.46,-471.42 934.2,-467.97 943,-463.5 962.8,-453.43 1018.44,-436.32 1055.3,-425.48"/>
<polygon fill="#63b8ff" stroke="#63b8ff" points="907.17,-482.31 899.73,-489.86 910.25,-488.59 907.17,-482.31"/>
</g>
<!-- Node20&#45;&gt;Node17 -->
<g id="edge33" class="edge">
<title>Node20&#45;&gt;Node17</title>
<path fill="none" stroke="#9a32cd" stroke-dasharray="5,2" d="M1143.2,-416.22C1168.91,-418.36 1199.87,-423.76 1225,-436.5 1250.61,-449.48 1272.41,-476.35 1282.87,-490.8"/>
<polygon fill="#9a32cd" stroke="#9a32cd" points="1143.51,-412.73 1133.3,-415.55 1143.04,-419.72 1143.51,-412.73"/>
<text text-anchor="middle" x="1194.5" y="-439.5" font-family="Helvetica,sans-Serif" font-size="10.00"> DListMaterial</text>
</g>
<!-- Node21&#45;&gt;Node3 -->
<g id="edge36" class="edge">
<title>Node21&#45;&gt;Node3</title>
<path fill="none" stroke="#9a32cd" stroke-dasharray="5,2" d="M459.33,-312C499.26,-358.67 603.08,-480.01 633.5,-515.57"/>
<polygon fill="#9a32cd" stroke="#9a32cd" points="462.17,-309.94 453.01,-304.62 456.86,-314.49 462.17,-309.94"/>
<text text-anchor="middle" x="547.5" y="-452.5" font-family="Helvetica,sans-Serif" font-size="10.00"> DListManager</text>
</g>
<!-- Node22&#45;&gt;Node3 -->
<g id="edge38" class="edge">
<title>Node22&#45;&gt;Node3</title>
<path fill="none" stroke="#9a32cd" stroke-dasharray="5,2" d="M856.3,-882.82C843.6,-871.12 825.52,-856.35 807,-847.5 765.06,-827.47 737.52,-857.7 705,-824.5 663.2,-781.83 647.71,-582.33 644.61,-535.4"/>
<polygon fill="#9a32cd" stroke="#9a32cd" points="853.78,-885.26 863.43,-889.63 858.62,-880.19 853.78,-885.26"/>
<text text-anchor="middle" x="756" y="-850.5" font-family="Helvetica,sans-Serif" font-size="10.00"> TexManager</text>
</g>
<!-- Node23 -->
<g id="node23" class="node">
<title>Node23</title>
<g id="a_node23"><a xlink:href="class_c_m_m_texture.html" target="_top" xlink:title=" ">
<polygon fill="white" stroke="#bfbfbf" points="679,-958 607,-958 607,-939 679,-939 679,-958"/>
<text text-anchor="middle" x="643" y="-946" font-family="Helvetica,sans-Serif" font-size="10.00">CMMTexture</text>
</a>
</g>
</g>
<!-- Node23&#45;&gt;Node22 -->
<g id="edge40" class="edge">
<title>Node23&#45;&gt;Node22</title>
<path fill="none" stroke="#9a32cd" stroke-dasharray="5,2" d="M690.55,-945.16C723.46,-942.08 768.41,-936.44 807,-926.5 822.59,-922.48 839.48,-915.91 852.4,-910.38"/>
<polygon fill="#9a32cd" stroke="#9a32cd" points="690.6,-941.64 680.95,-946.01 691.21,-948.61 690.6,-941.64"/>
<text text-anchor="middle" x="756" y="-979.5" font-family="Helvetica,sans-Serif" font-size="10.00"> CurTexture</text>
<text text-anchor="middle" x="756" y="-968.5" font-family="Helvetica,sans-Serif" font-size="10.00">DefaultTex</text>
<text text-anchor="middle" x="756" y="-957.5" font-family="Helvetica,sans-Serif" font-size="10.00">LastTexSent</text>
<text text-anchor="middle" x="756" y="-946.5" font-family="Helvetica,sans-Serif" font-size="10.00">TexNames</text>
</g>
<!-- Node24 -->
<g id="node24" class="node">
<title>Node24</title>
<g id="a_node24"><a xlink:title=" ">
<polygon fill="white" stroke="#bfbfbf" points="479.5,-958 405.5,-958 405.5,-939 479.5,-939 479.5,-958"/>
<text text-anchor="middle" x="442.5" y="-946" font-family="Helvetica,sans-Serif" font-size="10.00">GS::CTexture</text>
</a>
</g>
</g>
<!-- Node24&#45;&gt;Node23 -->
<g id="edge41" class="edge">
<title>Node24&#45;&gt;Node23</title>
<path fill="none" stroke="#63b8ff" d="M491,-948.5C526.63,-948.5 574.6,-948.5 606.82,-948.5"/>
<polygon fill="#63b8ff" stroke="#63b8ff" points="491.42,-945 481.42,-948.5 491.42,-952 491.42,-945"/>
</g>
<!-- Node25 -->
<g id="node25" class="node">
<title>Node25</title>
<g id="a_node25"><a xlink:href="class_c_m_m_clut.html" target="_top" xlink:title=" ">
<polygon fill="white" stroke="#666666" points="671.5,-1044 614.5,-1044 614.5,-1025 671.5,-1025 671.5,-1044"/>
<text text-anchor="middle" x="643" y="-1032" font-family="Helvetica,sans-Serif" font-size="10.00">CMMClut</text>
</a>
</g>
</g>
<!-- Node25&#45;&gt;Node22 -->
<g id="edge42" class="edge">
<title>Node25&#45;&gt;Node22</title>
<path fill="none" stroke="#9a32cd" stroke-dasharray="5,2" d="M683.2,-1031.54C718.26,-1027.26 769.71,-1016.85 807,-991.5 838.31,-970.21 860.49,-929.3 869.51,-910.45"/>
<polygon fill="#9a32cd" stroke="#9a32cd" points="683.05,-1028.03 673.49,-1032.6 683.81,-1034.99 683.05,-1028.03"/>
<text text-anchor="middle" x="756" y="-1030.5" font-family="Helvetica,sans-Serif" font-size="10.00"> CurClut</text>
</g>
<!-- Node26 -->
<g id="node26" class="node">
<title>Node26</title>
<g id="a_node26"><a xlink:title=" ">
<polygon fill="white" stroke="#bfbfbf" points="472,-1044 413,-1044 413,-1025 472,-1025 472,-1044"/>
<text text-anchor="middle" x="442.5" y="-1032" font-family="Helvetica,sans-Serif" font-size="10.00">GS::CClut</text>
</a>
</g>
</g>
<!-- Node26&#45;&gt;Node25 -->
<g id="edge43" class="edge">
<title>Node26&#45;&gt;Node25</title>
<path fill="none" stroke="#63b8ff" d="M483.74,-1034.5C522.49,-1034.5 580.09,-1034.5 614.06,-1034.5"/>
<polygon fill="#63b8ff" stroke="#63b8ff" points="483.88,-1031 473.88,-1034.5 483.88,-1038 483.88,-1031"/>
</g>
<!-- Node27 -->
<g id="node27" class="node">
<title>Node27</title>
<g id="a_node27"><a xlink:href="class_c_imm_draw_context.html" target="_top" xlink:title=" ">
<polygon fill="white" stroke="#bfbfbf" points="1140,-349 1042,-349 1042,-330 1140,-330 1140,-349"/>
<text text-anchor="middle" x="1091" y="-337" font-family="Helvetica,sans-Serif" font-size="10.00">CImmDrawContext</text>
</a>
</g>
</g>
<!-- Node27&#45;&gt;Node3 -->
<g id="edge44" class="edge">
<title>Node27&#45;&gt;Node3</title>
<path fill="none" stroke="#9a32cd" stroke-dasharray="5,2" d="M1030.27,-334.85C928.63,-327.5 730.53,-315.85 705,-334.5 644.56,-378.64 642.62,-483.36 643.54,-515.77"/>
<polygon fill="#9a32cd" stroke="#9a32cd" points="1029.83,-338.33 1040.06,-335.57 1030.35,-331.34 1029.83,-338.33"/>
<text text-anchor="middle" x="875" y="-330.5" font-family="Helvetica,sans-Serif" font-size="10.00"> ImmDrawContext</text>
</g>
<!-- Node28&#45;&gt;Node3 -->
<g id="edge50" class="edge">
<title>Node28&#45;&gt;Node3</title>
<path fill="none" stroke="#9a32cd" stroke-dasharray="5,2" d="M824.04,-404.02C788.39,-398.63 740.65,-397.36 705,-418.5 668.21,-440.31 651.67,-493.35 646.2,-515.51"/>
<polygon fill="#9a32cd" stroke="#9a32cd" points="823.22,-407.43 833.67,-405.64 824.38,-400.53 823.22,-407.43"/>
<text text-anchor="middle" x="756" y="-421.5" font-family="Helvetica,sans-Serif" font-size="10.00"> CurDrawContext</text>
</g>
<!-- Node28&#45;&gt;Node27 -->
<g id="edge45" class="edge">
<title>Node28&#45;&gt;Node27</title>
<path fill="none" stroke="#63b8ff" d="M915.89,-401.44C919,-400.16 922.06,-398.84 925,-397.5 933.32,-393.69 934.61,-391.16 943,-387.5 979.42,-371.61 1022.86,-358.05 1053.03,-349.44"/>
<polygon fill="#63b8ff" stroke="#63b8ff" points="914.77,-398.12 906.73,-405.02 917.32,-404.64 914.77,-398.12"/>
</g>
<!-- Node30 -->
<g id="node30" class="node">
<title>Node30</title>
<g id="a_node30"><a xlink:href="class_c_d_list_draw_context.html" target="_top" xlink:title=" ">
<polygon fill="white" stroke="#bfbfbf" points="1142,-388 1040,-388 1040,-369 1142,-369 1142,-388"/>
<text text-anchor="middle" x="1091" y="-376" font-family="Helvetica,sans-Serif" font-size="10.00">CDListDrawContext</text>
</a>
</g>
</g>
<!-- Node28&#45;&gt;Node30 -->
<g id="edge49" class="edge">
<title>Node28&#45;&gt;Node30</title>
<path fill="none" stroke="#63b8ff" d="M925.92,-406.87C960.19,-400.94 1005.5,-393.11 1039.83,-387.18"/>
<polygon fill="#63b8ff" stroke="#63b8ff" points="925.5,-403.39 916.25,-408.54 926.7,-410.29 925.5,-403.39"/>
</g>
<!-- Node29 -->
<g id="node29" class="node">
<title>Node29</title>
<g id="a_node29"><a xlink:href="class_c_clear_env.html" target="_top" xlink:title=" ">
<polygon fill="white" stroke="#bfbfbf" points="906,-303 844,-303 844,-284 906,-284 906,-303"/>
<text text-anchor="middle" x="875" y="-291" font-family="Helvetica,sans-Serif" font-size="10.00">CClearEnv</text>
</a>
</g>
</g>
<!-- Node29&#45;&gt;Node27 -->
<g id="edge47" class="edge">
<title>Node29&#45;&gt;Node27</title>
<path fill="none" stroke="#9a32cd" stroke-dasharray="5,2" d="M917.41,-297.55C945.95,-300.85 984.6,-306.31 1018,-314.5 1033.94,-318.41 1051.33,-324.4 1065.02,-329.53"/>
<polygon fill="#9a32cd" stroke="#9a32cd" points="918.06,-294.1 907.74,-296.48 917.29,-301.06 918.06,-294.1"/>
<text text-anchor="middle" x="980.5" y="-317.5" font-family="Helvetica,sans-Serif" font-size="10.00"> ClearEnv</text>
</g>
<!-- Node30&#45;&gt;Node3 -->
<g id="edge48" class="edge">
<title>Node30&#45;&gt;Node3</title>
<path fill="none" stroke="#9a32cd" stroke-dasharray="5,2" d="M1046.21,-392.68C1042.7,-394.19 1039.26,-395.8 1036,-397.5 1027.26,-402.07 1026.88,-406.2 1018,-410.5 952.93,-442.04 773.17,-475.39 705,-499.5 691.65,-504.22 677.05,-510.41 665.48,-515.56"/>
<polygon fill="#9a32cd" stroke="#9a32cd" points="1047.39,-395.98 1055.4,-389.04 1044.82,-389.47 1047.39,-395.98"/>
<text text-anchor="middle" x="875" y="-469.5" font-family="Helvetica,sans-Serif" font-size="10.00"> DListDrawContext</text>
</g>
<!-- Node31&#45;&gt;Node3 -->
<g id="edge51" class="edge">
<title>Node31&#45;&gt;Node3</title>
<path fill="none" stroke="#9a32cd" stroke-dasharray="5,2" d="M843.51,-363.93C832.3,-359.31 819.33,-354.81 807,-352.5 762.44,-344.16 742,-326.31 705,-352.5 649.63,-391.69 644.17,-485.43 643.9,-515.81"/>
<polygon fill="#9a32cd" stroke="#9a32cd" points="842.1,-367.13 852.66,-367.91 844.89,-360.71 842.1,-367.13"/>
<text text-anchor="middle" x="756" y="-355.5" font-family="Helvetica,sans-Serif" font-size="10.00"> DisplayContext</text>
</g>
<!-- Node32 -->
<g id="node32" class="node">
<title>Node32</title>
<g id="a_node32"><a xlink:href="class_c_vert_array.html" target="_top" xlink:title=" ">
<polygon fill="white" stroke="#bfbfbf" points="675,-1081 611,-1081 611,-1062 675,-1062 675,-1081"/>
<text text-anchor="middle" x="643" y="-1069" font-family="Helvetica,sans-Serif" font-size="10.00">CVertArray</text>
</a>
</g>
</g>
<!-- Node32&#45;&gt;Node2 -->
<g id="edge53" class="edge">
<title>Node32&#45;&gt;Node2</title>
<path fill="none" stroke="#9a32cd" stroke-dasharray="5,2" d="M686.79,-1068.9C727.98,-1066.39 789.94,-1062.62 831.15,-1060.11"/>
<polygon fill="#9a32cd" stroke="#9a32cd" points="686.78,-1065.39 677.01,-1069.49 687.2,-1072.38 686.78,-1065.39"/>
<text text-anchor="middle" x="756" y="-1070.5" font-family="Helvetica,sans-Serif" font-size="10.00"> VertArray</text>
</g>
<!-- Node33 -->
<g id="node33" class="node">
<title>Node33</title>
<g id="a_node33"><a xlink:href="structt_user_prim_entry.html" target="_top" xlink:title=" ">
<polygon fill="white" stroke="#bfbfbf" points="684.5,-1118 601.5,-1118 601.5,-1099 684.5,-1099 684.5,-1118"/>
<text text-anchor="middle" x="643" y="-1106" font-family="Helvetica,sans-Serif" font-size="10.00">tUserPrimEntry</text>
</a>
</g>
</g>
<!-- Node33&#45;&gt;Node2 -->
<g id="edge54" class="edge">
<title>Node33&#45;&gt;Node2</title>
<path fill="none" stroke="#9a32cd" stroke-dasharray="5,2" d="M696.4,-1102.83C728.63,-1098.69 770.6,-1092.09 807,-1082.5 821.89,-1078.58 838.07,-1072.59 850.8,-1067.46"/>
<polygon fill="#9a32cd" stroke="#9a32cd" points="695.99,-1099.36 686.5,-1104.07 696.85,-1106.3 695.99,-1099.36"/>
<text text-anchor="middle" x="756" y="-1103.5" font-family="Helvetica,sans-Serif" font-size="10.00"> UserPrimTypes</text>
</g>
<!-- Node34&#45;&gt;Node1 -->
<g id="edge55" class="edge">
<title>Node34&#45;&gt;Node1</title>
<path fill="none" stroke="#9a32cd" stroke-dasharray="5,2" d="M813.35,-93.09C771.94,-96.67 721.69,-103.56 705,-116.5 495.45,-278.93 450.72,-643.55 444.38,-707.75"/>
<polygon fill="#9a32cd" stroke="#9a32cd" points="813.56,-96.59 823.25,-92.29 813,-89.61 813.56,-96.59"/>
<text text-anchor="middle" x="643" y="-233.5" font-family="Helvetica,sans-Serif" font-size="10.00"> RendererManager</text>
</g>
<!-- Node35 -->
<g id="node35" class="node">
<title>Node35</title>
<g id="a_node35"><a xlink:href="class_c_renderer_props.html" target="_top" xlink:title=" ">
<polygon fill="white" stroke="#bfbfbf" points="687,-86 599,-86 599,-67 687,-67 687,-86"/>
<text text-anchor="middle" x="643" y="-74" font-family="Helvetica,sans-Serif" font-size="10.00">CRendererProps</text>
</a>
</g>
</g>
<!-- Node35&#45;&gt;Node34 -->
<g id="edge57" class="edge">
<title>Node35&#45;&gt;Node34</title>
<path fill="none" stroke="#9a32cd" stroke-dasharray="5,2" d="M698.59,-74.51C730.3,-73.93 770.98,-74.19 807,-77.5 812.77,-78.03 818.78,-78.8 824.73,-79.69"/>
<polygon fill="#9a32cd" stroke="#9a32cd" points="698.77,-71.01 688.85,-74.72 698.93,-78 698.77,-71.01"/>
<text text-anchor="middle" x="756" y="-80.5" font-family="Helvetica,sans-Serif" font-size="10.00"> RendererRequirements</text>
</g>
<!-- Node36 -->
<g id="node36" class="node">
<title>Node36</title>
<g id="a_node36"><a xlink:href="structt_renderer.html" target="_top" xlink:title=" ">
<polygon fill="white" stroke="#bfbfbf" points="672.5,-19 613.5,-19 613.5,0 672.5,0 672.5,-19"/>
<text text-anchor="middle" x="643" y="-7" font-family="Helvetica,sans-Serif" font-size="10.00">tRenderer</text>
</a>
</g>
</g>
<!-- Node36&#45;&gt;Node34 -->
<g id="edge58" class="edge">
<title>Node36&#45;&gt;Node34</title>
<path fill="none" stroke="#9a32cd" stroke-dasharray="5,2" d="M684.26,-6.32C718.46,-5.25 768.05,-7.63 807,-25.5 833.61,-37.71 856.25,-64.91 867.11,-79.61"/>
<polygon fill="#9a32cd" stroke="#9a32cd" points="684.2,-2.82 674.36,-6.76 684.5,-9.82 684.2,-2.82"/>
<text text-anchor="middle" x="756" y="-61.5" font-family="Helvetica,sans-Serif" font-size="10.00"> CurrentRenderer</text>
<text text-anchor="middle" x="756" y="-50.5" font-family="Helvetica,sans-Serif" font-size="10.00">DefaultRenderers</text>
<text text-anchor="middle" x="756" y="-39.5" font-family="Helvetica,sans-Serif" font-size="10.00">NewRenderer</text>
<text text-anchor="middle" x="756" y="-28.5" font-family="Helvetica,sans-Serif" font-size="10.00">UserRenderers</text>
</g>
<!-- Node37 -->
<g id="node37" class="node">
<title>Node37</title>
<g id="a_node37"><a xlink:href="class_c_renderer.html" target="_top" xlink:title=" ">
<polygon fill="white" stroke="#666666" points="473.5,-19 411.5,-19 411.5,0 473.5,0 473.5,-19"/>
<text text-anchor="middle" x="442.5" y="-7" font-family="Helvetica,sans-Serif" font-size="10.00">CRenderer</text>
</a>
</g>
</g>
<!-- Node37&#45;&gt;Node36 -->
<g id="edge59" class="edge">
<title>Node37&#45;&gt;Node36</title>
<path fill="none" stroke="#9a32cd" stroke-dasharray="5,2" d="M484.95,-9.5C523.35,-9.5 579.46,-9.5 613.18,-9.5"/>
<polygon fill="#9a32cd" stroke="#9a32cd" points="485.16,-6 475.16,-9.5 485.16,-13 485.16,-6"/>
<text text-anchor="middle" x="547.5" y="-12.5" font-family="Helvetica,sans-Serif" font-size="10.00"> renderer</text>
</g>
</g>
</svg>
