<?xml version="1.0" encoding="UTF-8" standalone="no"?>
<!DOCTYPE svg PUBLIC "-//W3C//DTD SVG 1.1//EN"
 "http://www.w3.org/Graphics/SVG/1.1/DTD/svg11.dtd">
<!-- Generated by graphviz version 7.0.5 (20221223.1930)
 -->
<!-- Title: CDisplayContext Pages: 1 -->
<svg width="1288pt" height="1207pt"
 viewBox="0.00 0.00 1288.00 1207.00" xmlns="http://www.w3.org/2000/svg" xmlns:xlink="http://www.w3.org/1999/xlink">
<g id="graph0" class="graph" transform="scale(1 1) rotate(0) translate(4 1203)">
<title>CDisplayContext</title>
<!-- Node1 -->
<g id="node1" class="node">
<title>Node1</title>
<g id="a_node1"><a xlink:title=" ">
<polygon fill="#999999" stroke="#666666" points="434,-528.5 346,-528.5 346,-509.5 434,-509.5 434,-528.5"/>
<text text-anchor="middle" x="390" y="-516.5" font-family="Helvetica,sans-Serif" font-size="10.00">CDisplayContext</text>
</a>
</g>
</g>
<!-- Node2 -->
<g id="node2" class="node">
<title>Node2</title>
<g id="a_node2"><a xlink:href="class_c_g_l_context.html" target="_top" xlink:title=" ">
<polygon fill="white" stroke="#bfbfbf" points="616,-571.5 546,-571.5 546,-552.5 616,-552.5 616,-571.5"/>
<text text-anchor="middle" x="581" y="-559.5" font-family="Helvetica,sans-Serif" font-size="10.00">CGLContext</text>
</a>
</g>
</g>
<!-- Node1&#45;&gt;Node2 -->
<g id="edge60" class="edge">
<title>Node1&#45;&gt;Node2</title>
<path fill="none" stroke="#9a32cd" stroke-dasharray="5,2" d="M445.76,-511.06C468.87,-509.62 495.75,-510.49 519,-518 539.88,-524.74 559.62,-541.59 570.73,-552.37"/>
<polygon fill="#9a32cd" stroke="#9a32cd" points="445.6,-507.56 435.91,-511.85 446.16,-514.54 445.6,-507.56"/>
<text text-anchor="middle" x="485.5" y="-521" font-family="Helvetica,sans-Serif" font-size="10.00"> DisplayContext</text>
</g>
<!-- Node2&#45;&gt;Node1 -->
<g id="edge1" class="edge">
<title>Node2&#45;&gt;Node1</title>
<path fill="none" stroke="#9a32cd" stroke-dasharray="5,2" d="M534.93,-551.64C529.56,-550.41 524.16,-549.18 519,-548 490.79,-541.57 459.06,-534.38 434.26,-528.77"/>
<polygon fill="#9a32cd" stroke="#9a32cd" points="533.8,-554.97 544.33,-553.8 535.37,-548.15 533.8,-554.97"/>
<text text-anchor="middle" x="485.5" y="-551" font-family="Helvetica,sans-Serif" font-size="10.00"> GLContext</text>
</g>
<!-- Node4 -->
<g id="node4" class="node">
<title>Node4</title>
<g id="a_node4"><a xlink:href="class_c_matrix_stack.html" target="_top" xlink:title=" ">
<polygon fill="white" stroke="#bfbfbf" points="850.5,-459.5 775.5,-459.5 775.5,-440.5 850.5,-440.5 850.5,-459.5"/>
<text text-anchor="middle" x="813" y="-447.5" font-family="Helvetica,sans-Serif" font-size="10.00">CMatrixStack</text>
</a>
</g>
</g>
<!-- Node2&#45;&gt;Node4 -->
<g id="edge4" class="edge">
<title>Node2&#45;&gt;Node4</title>
<path fill="none" stroke="#9a32cd" stroke-dasharray="5,2" d="M593.53,-542.32C604.25,-525.8 621.74,-502.89 643,-490 682.74,-465.91 699.81,-477.83 745,-467 754.8,-464.65 765.39,-462.01 775.18,-459.53"/>
<polygon fill="#9a32cd" stroke="#9a32cd" points="590.57,-540.45 588.29,-550.79 596.52,-544.13 590.57,-540.45"/>
<text text-anchor="middle" x="694" y="-493" font-family="Helvetica,sans-Serif" font-size="10.00"> GLContext</text>
</g>
<!-- Node7 -->
<g id="node7" class="node">
<title>Node7</title>
<g id="a_node7"><a xlink:href="class_c_lighting.html" target="_top" xlink:title=" ">
<polygon fill="white" stroke="#bfbfbf" points="949.5,-780.5 891.5,-780.5 891.5,-761.5 949.5,-761.5 949.5,-780.5"/>
<text text-anchor="middle" x="920.5" y="-768.5" font-family="Helvetica,sans-Serif" font-size="10.00">CLighting</text>
</a>
</g>
</g>
<!-- Node2&#45;&gt;Node7 -->
<g id="edge10" class="edge">
<title>Node2&#45;&gt;Node7</title>
<path fill="none" stroke="#9a32cd" stroke-dasharray="5,2" d="M585.04,-582.96C592.44,-630.74 613.01,-745.35 643,-768 717.13,-823.99 837.16,-797.05 891.36,-780.56"/>
<polygon fill="#9a32cd" stroke="#9a32cd" points="588.55,-582.73 583.6,-573.36 581.62,-583.77 588.55,-582.73"/>
<text text-anchor="middle" x="694" y="-804" font-family="Helvetica,sans-Serif" font-size="10.00"> GLContext</text>
</g>
<!-- Node9 -->
<g id="node9" class="node">
<title>Node9</title>
<g id="a_node9"><a xlink:href="class_c_light.html" target="_top" xlink:title=" ">
<polygon fill="white" stroke="#bfbfbf" points="835.5,-724.5 790.5,-724.5 790.5,-705.5 835.5,-705.5 835.5,-724.5"/>
<text text-anchor="middle" x="813" y="-712.5" font-family="Helvetica,sans-Serif" font-size="10.00">CLight</text>
</a>
</g>
</g>
<!-- Node2&#45;&gt;Node9 -->
<g id="edge13" class="edge">
<title>Node2&#45;&gt;Node9</title>
<path fill="none" stroke="#9a32cd" stroke-dasharray="5,2" d="M590.97,-582.38C600.95,-602.87 618.88,-634.05 643,-653 688.22,-688.53 755.74,-705.01 790.15,-711.48"/>
<polygon fill="#9a32cd" stroke="#9a32cd" points="594.17,-580.96 586.78,-573.36 587.82,-583.91 594.17,-580.96"/>
<text text-anchor="middle" x="694" y="-704" font-family="Helvetica,sans-Serif" font-size="10.00"> GLContext</text>
</g>
<!-- Node13 -->
<g id="node13" class="node">
<title>Node13</title>
<g id="a_node13"><a xlink:href="class_c_geom_manager.html" target="_top" xlink:title=" ">
<polygon fill="white" stroke="#bfbfbf" points="856.5,-116.5 769.5,-116.5 769.5,-97.5 856.5,-97.5 856.5,-116.5"/>
<text text-anchor="middle" x="813" y="-104.5" font-family="Helvetica,sans-Serif" font-size="10.00">CGeomManager</text>
</a>
</g>
</g>
<!-- Node2&#45;&gt;Node13 -->
<g id="edge21" class="edge">
<title>Node2&#45;&gt;Node13</title>
<path fill="none" stroke="#9a32cd" stroke-dasharray="5,2" d="M585.05,-540.75C596.97,-457.99 639.8,-161.69 643,-158 659.55,-138.89 724.97,-123.23 769.39,-114.51"/>
<polygon fill="#9a32cd" stroke="#9a32cd" points="581.59,-540.22 583.63,-550.62 588.52,-541.22 581.59,-540.22"/>
<text text-anchor="middle" x="694" y="-161" font-family="Helvetica,sans-Serif" font-size="10.00"> GLContext</text>
</g>
<!-- Node16 -->
<g id="node16" class="node">
<title>Node16</title>
<g id="a_node16"><a xlink:href="class_c_renderer_manager.html" target="_top" xlink:title=" ">
<polygon fill="white" stroke="#bfbfbf" points="863,-242.5 763,-242.5 763,-223.5 863,-223.5 863,-242.5"/>
<text text-anchor="middle" x="813" y="-230.5" font-family="Helvetica,sans-Serif" font-size="10.00">CRendererManager</text>
</a>
</g>
</g>
<!-- Node2&#45;&gt;Node16 -->
<g id="edge25" class="edge">
<title>Node2&#45;&gt;Node16</title>
<path fill="none" stroke="#9a32cd" stroke-dasharray="5,2" d="M583.61,-541.04C588.59,-481.75 605.71,-314.7 643,-277 675.68,-243.96 700.12,-266.07 745,-254 757.24,-250.71 770.6,-246.62 782.14,-242.94"/>
<polygon fill="#9a32cd" stroke="#9a32cd" points="580.14,-540.5 582.83,-550.75 587.12,-541.06 580.14,-540.5"/>
<text text-anchor="middle" x="694" y="-280" font-family="Helvetica,sans-Serif" font-size="10.00"> GLContext</text>
</g>
<!-- Node24 -->
<g id="node24" class="node">
<title>Node24</title>
<g id="a_node24"><a xlink:href="class_c_material_manager.html" target="_top" xlink:title=" ">
<polygon fill="white" stroke="#bfbfbf" points="1280,-959.5 1185,-959.5 1185,-940.5 1280,-940.5 1280,-959.5"/>
<text text-anchor="middle" x="1232.5" y="-947.5" font-family="Helvetica,sans-Serif" font-size="10.00">CMaterialManager</text>
</a>
</g>
</g>
<!-- Node2&#45;&gt;Node24 -->
<g id="edge38" class="edge">
<title>Node2&#45;&gt;Node24</title>
<path fill="none" stroke="#9a32cd" stroke-dasharray="5,2" d="M582.61,-582.84C585.11,-655.16 596.77,-893.98 643,-952 788.32,-1134.41 942.57,-1043.42 1167,-980 1183.76,-975.26 1201.62,-966.65 1214.29,-959.86"/>
<polygon fill="#9a32cd" stroke="#9a32cd" points="586.12,-583.09 582.3,-573.21 579.12,-583.31 586.12,-583.09"/>
<text text-anchor="middle" x="920.5" y="-1060" font-family="Helvetica,sans-Serif" font-size="10.00"> GLContext</text>
</g>
<!-- Node26 -->
<g id="node26" class="node">
<title>Node26</title>
<g id="a_node26"><a xlink:href="class_c_material.html" target="_top" xlink:title=" ">
<polygon fill="white" stroke="#bfbfbf" points="842,-899.5 784,-899.5 784,-880.5 842,-880.5 842,-899.5"/>
<text text-anchor="middle" x="813" y="-887.5" font-family="Helvetica,sans-Serif" font-size="10.00">CMaterial</text>
</a>
</g>
</g>
<!-- Node2&#45;&gt;Node26 -->
<g id="edge41" class="edge">
<title>Node2&#45;&gt;Node26</title>
<path fill="none" stroke="#9a32cd" stroke-dasharray="5,2" d="M583.78,-582.97C589.17,-641.54 607.16,-805.04 643,-843 679.8,-881.97 745.88,-889.57 783.58,-890.52"/>
<polygon fill="#9a32cd" stroke="#9a32cd" points="587.3,-583.03 582.93,-573.37 580.33,-583.64 587.3,-583.03"/>
<text text-anchor="middle" x="694" y="-891" font-family="Helvetica,sans-Serif" font-size="10.00"> GLContext</text>
</g>
<!-- Node29 -->
<g id="node29" class="node">
<title>Node29</title>
<g id="a_node29"><a xlink:href="class_c_tex_manager.html" target="_top" xlink:title=" ">
<polygon fill="white" stroke="#bfbfbf" points="851.5,-1119.5 774.5,-1119.5 774.5,-1100.5 851.5,-1100.5 851.5,-1119.5"/>
<text text-anchor="middle" x="813" y="-1107.5" font-family="Helvetica,sans-Serif" font-size="10.00">CTexManager</text>
</a>
</g>
</g>
<!-- Node2&#45;&gt;Node29 -->
<g id="edge48" class="edge">
<title>Node2&#45;&gt;Node29</title>
<path fill="none" stroke="#9a32cd" stroke-dasharray="5,2" d="M583.11,-583.03C588.12,-674.41 609.81,-1034.04 643,-1071 651.78,-1080.77 727.11,-1095.34 774.19,-1103.63"/>
<polygon fill="#9a32cd" stroke="#9a32cd" points="586.62,-583.08 582.58,-573.28 579.63,-583.46 586.62,-583.08"/>
<text text-anchor="middle" x="694" y="-1100" font-family="Helvetica,sans-Serif" font-size="10.00"> GLContext</text>
</g>
<!-- Node35 -->
<g id="node35" class="node">
<title>Node35</title>
<g id="a_node35"><a xlink:href="class_c_draw_context.html" target="_top" xlink:title=" ">
<polygon fill="white" stroke="#bfbfbf" points="852.5,-602.5 773.5,-602.5 773.5,-583.5 852.5,-583.5 852.5,-602.5"/>
<text text-anchor="middle" x="813" y="-590.5" font-family="Helvetica,sans-Serif" font-size="10.00">CDrawContext</text>
</a>
</g>
</g>
<!-- Node2&#45;&gt;Node35 -->
<g id="edge55" class="edge">
<title>Node2&#45;&gt;Node35</title>
<path fill="none" stroke="#9a32cd" stroke-dasharray="5,2" d="M627.49,-566.02C660.25,-569.16 705.47,-573.99 745,-580 754.14,-581.39 763.93,-583.14 773.12,-584.9"/>
<polygon fill="#9a32cd" stroke="#9a32cd" points="628.24,-562.57 617.96,-565.12 627.58,-569.54 628.24,-562.57"/>
<text text-anchor="middle" x="694" y="-583" font-family="Helvetica,sans-Serif" font-size="10.00"> GLContext</text>
</g>
<!-- Node3 -->
<g id="node3" class="node">
<title>Node3</title>
<g id="a_node3"><a xlink:href="class_c_imm_matrix_stack.html" target="_top" xlink:title=" ">
<polygon fill="white" stroke="#bfbfbf" points="1080.5,-483.5 985.5,-483.5 985.5,-464.5 1080.5,-464.5 1080.5,-483.5"/>
<text text-anchor="middle" x="1033" y="-471.5" font-family="Helvetica,sans-Serif" font-size="10.00">CImmMatrixStack</text>
</a>
</g>
</g>
<!-- Node3&#45;&gt;Node2 -->
<g id="edge2" class="edge">
<title>Node3&#45;&gt;Node2</title>
<path fill="none" stroke="#9a32cd" stroke-dasharray="5,2" d="M973.86,-485.37C878.74,-503.97 692.76,-540.34 616.19,-555.31"/>
<polygon fill="#9a32cd" stroke="#9a32cd" points="974.37,-488.84 983.52,-483.48 973.03,-481.97 974.37,-488.84"/>
<text text-anchor="middle" x="813" y="-540" font-family="Helvetica,sans-Serif" font-size="10.00"> ModelViewMatStack</text>
<text text-anchor="middle" x="813" y="-529" font-family="Helvetica,sans-Serif" font-size="10.00">ProjectionMatStack</text>
</g>
<!-- Node4&#45;&gt;Node2 -->
<g id="edge7" class="edge">
<title>Node4&#45;&gt;Node2</title>
<path fill="none" stroke="#9a32cd" stroke-dasharray="5,2" d="M775.38,-436.74C739.01,-426.02 683.02,-416.36 643,-441 602.13,-466.16 587.66,-528.06 583.47,-552.17"/>
<polygon fill="#9a32cd" stroke="#9a32cd" points="773.97,-439.97 784.56,-439.62 776.06,-433.29 773.97,-439.97"/>
<text text-anchor="middle" x="694" y="-455" font-family="Helvetica,sans-Serif" font-size="10.00"> CurMatrixStack</text>
<text text-anchor="middle" x="694" y="-444" font-family="Helvetica,sans-Serif" font-size="10.00">SavedCurMatStack</text>
</g>
<!-- Node4&#45;&gt;Node3 -->
<g id="edge3" class="edge">
<title>Node4&#45;&gt;Node3</title>
<path fill="none" stroke="#63b8ff" d="M862.38,-455.33C899.03,-459.36 949.1,-464.87 985.33,-468.86"/>
<polygon fill="#63b8ff" stroke="#63b8ff" points="862.81,-451.85 852.49,-454.24 862.04,-458.81 862.81,-451.85"/>
</g>
<!-- Node5 -->
<g id="node5" class="node">
<title>Node5</title>
<g id="a_node5"><a xlink:href="class_c_d_list_matrix_stack.html" target="_top" xlink:title=" ">
<polygon fill="white" stroke="#bfbfbf" points="1082,-440.5 984,-440.5 984,-421.5 1082,-421.5 1082,-440.5"/>
<text text-anchor="middle" x="1033" y="-428.5" font-family="Helvetica,sans-Serif" font-size="10.00">CDListMatrixStack</text>
</a>
</g>
</g>
<!-- Node4&#45;&gt;Node5 -->
<g id="edge6" class="edge">
<title>Node4&#45;&gt;Node5</title>
<path fill="none" stroke="#63b8ff" d="M862.22,-445.8C898.36,-442.65 947.59,-438.36 983.74,-435.21"/>
<polygon fill="#63b8ff" stroke="#63b8ff" points="862.15,-442.29 852.49,-446.65 862.75,-449.26 862.15,-442.29"/>
</g>
<!-- Node5&#45;&gt;Node2 -->
<g id="edge5" class="edge">
<title>Node5&#45;&gt;Node2</title>
<path fill="none" stroke="#9a32cd" stroke-dasharray="5,2" d="M994.81,-417.53C920.61,-393.2 751.94,-350.99 643,-425 598.42,-455.29 586.05,-526.17 582.95,-552.19"/>
<polygon fill="#9a32cd" stroke="#9a32cd" points="993.44,-420.76 1004.04,-420.63 995.68,-414.13 993.44,-420.76"/>
<text text-anchor="middle" x="813" y="-390" font-family="Helvetica,sans-Serif" font-size="10.00"> DListMatStack</text>
</g>
<!-- Node6 -->
<g id="node6" class="node">
<title>Node6</title>
<g id="a_node6"><a xlink:href="class_c_imm_lighting.html" target="_top" xlink:title=" ">
<polygon fill="white" stroke="#bfbfbf" points="1271,-525.5 1194,-525.5 1194,-506.5 1271,-506.5 1271,-525.5"/>
<text text-anchor="middle" x="1232.5" y="-513.5" font-family="Helvetica,sans-Serif" font-size="10.00">CImmLighting</text>
</a>
</g>
</g>
<!-- Node6&#45;&gt;Node2 -->
<g id="edge8" class="edge">
<title>Node6&#45;&gt;Node2</title>
<path fill="none" stroke="#9a32cd" stroke-dasharray="5,2" d="M1212.25,-498.57C1185.98,-475.65 1136.59,-435.51 1088,-412 998.81,-368.84 722.65,-325.06 643,-384 587.07,-425.39 581.98,-521.13 581.85,-552.12"/>
<polygon fill="#9a32cd" stroke="#9a32cd" points="1209.9,-501.17 1219.71,-505.18 1214.54,-495.93 1209.9,-501.17"/>
<text text-anchor="middle" x="920.5" y="-378" font-family="Helvetica,sans-Serif" font-size="10.00"> ImmLighting</text>
</g>
<!-- Node7&#45;&gt;Node2 -->
<g id="edge18" class="edge">
<title>Node7&#45;&gt;Node2</title>
<path fill="none" stroke="#9a32cd" stroke-dasharray="5,2" d="M880.05,-767.77C812.51,-761.51 678.55,-745.64 643,-716 596.84,-677.51 585.39,-599.22 582.75,-571.77"/>
<polygon fill="#9a32cd" stroke="#9a32cd" points="879.68,-771.25 889.95,-768.66 880.31,-764.28 879.68,-771.25"/>
<text text-anchor="middle" x="694" y="-753" font-family="Helvetica,sans-Serif" font-size="10.00"> CurLighting</text>
</g>
<!-- Node7&#45;&gt;Node6 -->
<g id="edge9" class="edge">
<title>Node7&#45;&gt;Node6</title>
<path fill="none" stroke="#63b8ff" d="M961.12,-770.77C1022.56,-769.61 1136.92,-763.9 1167,-738 1233,-681.17 1233.45,-561.17 1232.06,-525.93"/>
<polygon fill="#63b8ff" stroke="#63b8ff" points="961.39,-767.27 951.45,-770.92 961.5,-774.27 961.39,-767.27"/>
</g>
<!-- Node10 -->
<g id="node10" class="node">
<title>Node10</title>
<g id="a_node10"><a xlink:href="class_c_d_list_lighting.html" target="_top" xlink:title=" ">
<polygon fill="white" stroke="#bfbfbf" points="1273,-799.5 1192,-799.5 1192,-780.5 1273,-780.5 1273,-799.5"/>
<text text-anchor="middle" x="1232.5" y="-787.5" font-family="Helvetica,sans-Serif" font-size="10.00">CDListLighting</text>
</a>
</g>
</g>
<!-- Node7&#45;&gt;Node10 -->
<g id="edge15" class="edge">
<title>Node7&#45;&gt;Node10</title>
<path fill="none" stroke="#63b8ff" d="M960.97,-773.42C1020.32,-777.06 1131.91,-783.9 1191.54,-787.55"/>
<polygon fill="#63b8ff" stroke="#63b8ff" points="961.54,-769.95 951.34,-772.83 961.11,-776.93 961.54,-769.95"/>
</g>
<!-- Node8 -->
<g id="node8" class="node">
<title>Node8</title>
<g id="a_node8"><a xlink:href="class_c_imm_light.html" target="_top" xlink:title=" ">
<polygon fill="white" stroke="#bfbfbf" points="1065.5,-686.5 1000.5,-686.5 1000.5,-667.5 1065.5,-667.5 1065.5,-686.5"/>
<text text-anchor="middle" x="1033" y="-674.5" font-family="Helvetica,sans-Serif" font-size="10.00">CImmLight</text>
</a>
</g>
</g>
<!-- Node8&#45;&gt;Node6 -->
<g id="edge11" class="edge">
<title>Node8&#45;&gt;Node6</title>
<path fill="none" stroke="#9a32cd" stroke-dasharray="5,2" d="M1076.1,-666.52C1080.59,-664 1084.71,-660.87 1088,-657 1114.99,-625.26 1079.29,-596.98 1106,-565 1127.82,-538.88 1165.37,-526.62 1193.73,-520.91"/>
<polygon fill="#9a32cd" stroke="#9a32cd" points="1074.94,-663.2 1067.26,-670.5 1077.82,-669.59 1074.94,-663.2"/>
<text text-anchor="middle" x="1136.5" y="-656" font-family="Helvetica,sans-Serif" font-size="10.00"> Light0</text>
<text text-anchor="middle" x="1136.5" y="-645" font-family="Helvetica,sans-Serif" font-size="10.00">Light1</text>
<text text-anchor="middle" x="1136.5" y="-634" font-family="Helvetica,sans-Serif" font-size="10.00">Light2</text>
<text text-anchor="middle" x="1136.5" y="-623" font-family="Helvetica,sans-Serif" font-size="10.00">Light3</text>
<text text-anchor="middle" x="1136.5" y="-612" font-family="Helvetica,sans-Serif" font-size="10.00">Light4</text>
<text text-anchor="middle" x="1136.5" y="-601" font-family="Helvetica,sans-Serif" font-size="10.00">Light5</text>
<text text-anchor="middle" x="1136.5" y="-590" font-family="Helvetica,sans-Serif" font-size="10.00">Light6</text>
<text text-anchor="middle" x="1136.5" y="-579" font-family="Helvetica,sans-Serif" font-size="10.00">Light7</text>
<text text-anchor="middle" x="1136.5" y="-568" font-family="Helvetica,sans-Serif" font-size="10.00">Lights</text>
</g>
<!-- Node9&#45;&gt;Node8 -->
<g id="edge12" class="edge">
<title>Node9&#45;&gt;Node8</title>
<path fill="none" stroke="#63b8ff" d="M846.82,-709.28C888.31,-702.05 959.27,-689.68 1000.25,-682.54"/>
<polygon fill="#63b8ff" stroke="#63b8ff" points="846.44,-705.79 837.19,-710.96 847.64,-712.69 846.44,-705.79"/>
</g>
<!-- Node11 -->
<g id="node11" class="node">
<title>Node11</title>
<g id="a_node11"><a xlink:href="class_c_d_list_light.html" target="_top" xlink:title=" ">
<polygon fill="white" stroke="#bfbfbf" points="1067,-723.5 999,-723.5 999,-704.5 1067,-704.5 1067,-723.5"/>
<text text-anchor="middle" x="1033" y="-711.5" font-family="Helvetica,sans-Serif" font-size="10.00">CDListLight</text>
</a>
</g>
</g>
<!-- Node9&#45;&gt;Node11 -->
<g id="edge17" class="edge">
<title>Node9&#45;&gt;Node11</title>
<path fill="none" stroke="#63b8ff" d="M846.95,-714.85C887.95,-714.66 957.58,-714.34 998.73,-714.15"/>
<polygon fill="#63b8ff" stroke="#63b8ff" points="847.2,-711.35 837.21,-714.89 847.23,-718.35 847.2,-711.35"/>
</g>
<!-- Node10&#45;&gt;Node2 -->
<g id="edge14" class="edge">
<title>Node10&#45;&gt;Node2</title>
<path fill="none" stroke="#9a32cd" stroke-dasharray="5,2" d="M1180.44,-797.61C1175.9,-798.14 1171.37,-798.61 1167,-799 535.09,-854.92 667.22,-834.07 643,-815 603.42,-783.83 586.51,-614.99 582.81,-571.97"/>
<polygon fill="#9a32cd" stroke="#9a32cd" points="1180.67,-801.1 1190.16,-796.39 1179.8,-794.16 1180.67,-801.1"/>
<text text-anchor="middle" x="920.5" y="-826" font-family="Helvetica,sans-Serif" font-size="10.00"> DListLighting</text>
</g>
<!-- Node11&#45;&gt;Node10 -->
<g id="edge16" class="edge">
<title>Node11&#45;&gt;Node10</title>
<path fill="none" stroke="#9a32cd" stroke-dasharray="5,2" d="M1077.97,-700.44C1081.46,-698.8 1084.85,-696.99 1088,-695 1097.57,-688.97 1095.55,-681.33 1106,-677 1131.05,-666.63 1143.55,-663.39 1167,-677 1206.46,-699.91 1223.81,-757.02 1229.37,-780.1"/>
<polygon fill="#9a32cd" stroke="#9a32cd" points="1076.62,-697.21 1068.75,-704.31 1079.32,-703.67 1076.62,-697.21"/>
<text text-anchor="middle" x="1136.5" y="-768" font-family="Helvetica,sans-Serif" font-size="10.00"> Light0</text>
<text text-anchor="middle" x="1136.5" y="-757" font-family="Helvetica,sans-Serif" font-size="10.00">Light1</text>
<text text-anchor="middle" x="1136.5" y="-746" font-family="Helvetica,sans-Serif" font-size="10.00">Light2</text>
<text text-anchor="middle" x="1136.5" y="-735" font-family="Helvetica,sans-Serif" font-size="10.00">Light3</text>
<text text-anchor="middle" x="1136.5" y="-724" font-family="Helvetica,sans-Serif" font-size="10.00">Light4</text>
<text text-anchor="middle" x="1136.5" y="-713" font-family="Helvetica,sans-Serif" font-size="10.00">Light5</text>
<text text-anchor="middle" x="1136.5" y="-702" font-family="Helvetica,sans-Serif" font-size="10.00">Light6</text>
<text text-anchor="middle" x="1136.5" y="-691" font-family="Helvetica,sans-Serif" font-size="10.00">Light7</text>
<text text-anchor="middle" x="1136.5" y="-680" font-family="Helvetica,sans-Serif" font-size="10.00">Lights</text>
</g>
<!-- Node12 -->
<g id="node12" class="node">
<title>Node12</title>
<g id="a_node12"><a xlink:href="class_c_imm_geom_manager.html" target="_top" xlink:title=" ">
<polygon fill="white" stroke="#bfbfbf" points="1086.5,-225.5 979.5,-225.5 979.5,-206.5 1086.5,-206.5 1086.5,-225.5"/>
<text text-anchor="middle" x="1033" y="-213.5" font-family="Helvetica,sans-Serif" font-size="10.00">CImmGeomManager</text>
</a>
</g>
</g>
<!-- Node12&#45;&gt;Node2 -->
<g id="edge19" class="edge">
<title>Node12&#45;&gt;Node2</title>
<path fill="none" stroke="#9a32cd" stroke-dasharray="5,2" d="M1019.38,-235.41C1006.63,-253.33 985.24,-279.21 960,-293 897.15,-327.33 696.12,-302.97 643,-351 581.91,-406.24 580.48,-518.48 581.53,-552.2"/>
<polygon fill="#9a32cd" stroke="#9a32cd" points="1022.25,-237.4 1025,-227.17 1016.47,-233.46 1022.25,-237.4"/>
<text text-anchor="middle" x="813" y="-323" font-family="Helvetica,sans-Serif" font-size="10.00"> ImmGManager</text>
</g>
<!-- Node13&#45;&gt;Node2 -->
<g id="edge36" class="edge">
<title>Node13&#45;&gt;Node2</title>
<path fill="none" stroke="#9a32cd" stroke-dasharray="5,2" d="M757.99,-99.16C715.04,-94.25 659.5,-91.32 643,-106 617.26,-128.91 629.43,-225.83 625,-260 610.09,-375.02 589.22,-514.26 583.5,-552.11"/>
<polygon fill="#9a32cd" stroke="#9a32cd" points="757.32,-102.6 767.67,-100.33 758.16,-95.65 757.32,-102.6"/>
<text text-anchor="middle" x="694" y="-109" font-family="Helvetica,sans-Serif" font-size="10.00"> CurGManager</text>
</g>
<!-- Node13&#45;&gt;Node12 -->
<g id="edge20" class="edge">
<title>Node13&#45;&gt;Node12</title>
<path fill="none" stroke="#63b8ff" d="M836.04,-123.77C848.73,-132.91 865.24,-143.96 881,-152 914.32,-168.99 925.58,-166.36 960,-181 978.29,-188.78 998.61,-198.79 1012.99,-206.11"/>
<polygon fill="#63b8ff" stroke="#63b8ff" points="838.12,-120.95 827.99,-117.84 833.97,-126.59 838.12,-120.95"/>
</g>
<!-- Node21 -->
<g id="node21" class="node">
<title>Node21</title>
<g id="a_node21"><a xlink:href="class_c_d_list_geom_manager.html" target="_top" xlink:title=" ">
<polygon fill="white" stroke="#bfbfbf" points="1088,-133.5 978,-133.5 978,-114.5 1088,-114.5 1088,-133.5"/>
<text text-anchor="middle" x="1033" y="-121.5" font-family="Helvetica,sans-Serif" font-size="10.00">CDListGeomManager</text>
</a>
</g>
</g>
<!-- Node13&#45;&gt;Node21 -->
<g id="edge31" class="edge">
<title>Node13&#45;&gt;Node21</title>
<path fill="none" stroke="#63b8ff" d="M868.2,-111.23C901.59,-113.83 944.26,-117.16 977.67,-119.76"/>
<polygon fill="#63b8ff" stroke="#63b8ff" points="868.56,-107.74 858.32,-110.46 868.02,-114.72 868.56,-107.74"/>
</g>
<!-- Node14 -->
<g id="node14" class="node">
<title>Node14</title>
<g id="a_node14"><a xlink:href="class_c_vert_array.html" target="_top" xlink:title=" ">
<polygon fill="white" stroke="#bfbfbf" points="613,-48.5 549,-48.5 549,-29.5 613,-29.5 613,-48.5"/>
<text text-anchor="middle" x="581" y="-36.5" font-family="Helvetica,sans-Serif" font-size="10.00">CVertArray</text>
</a>
</g>
</g>
<!-- Node14&#45;&gt;Node13 -->
<g id="edge22" class="edge">
<title>Node14&#45;&gt;Node13</title>
<path fill="none" stroke="#9a32cd" stroke-dasharray="5,2" d="M624.62,-35.98C658.46,-35.14 706.34,-37.47 745,-53 769.4,-62.8 791.92,-84.65 803.61,-97.35"/>
<polygon fill="#9a32cd" stroke="#9a32cd" points="624.66,-32.48 614.79,-36.34 624.91,-39.47 624.66,-32.48"/>
<text text-anchor="middle" x="694" y="-56" font-family="Helvetica,sans-Serif" font-size="10.00"> VertArray</text>
</g>
<!-- Node15 -->
<g id="node15" class="node">
<title>Node15</title>
<g id="a_node15"><a xlink:href="structt_user_prim_entry.html" target="_top" xlink:title=" ">
<polygon fill="white" stroke="#bfbfbf" points="622.5,-85.5 539.5,-85.5 539.5,-66.5 622.5,-66.5 622.5,-85.5"/>
<text text-anchor="middle" x="581" y="-73.5" font-family="Helvetica,sans-Serif" font-size="10.00">tUserPrimEntry</text>
</a>
</g>
</g>
<!-- Node15&#45;&gt;Node13 -->
<g id="edge23" class="edge">
<title>Node15&#45;&gt;Node13</title>
<path fill="none" stroke="#9a32cd" stroke-dasharray="5,2" d="M634.21,-69.07C666.54,-66.32 708.67,-65.54 745,-74 764.07,-78.44 783.95,-89.12 797.06,-97.14"/>
<polygon fill="#9a32cd" stroke="#9a32cd" points="633.9,-65.58 624.28,-70.02 634.57,-72.55 633.9,-65.58"/>
<text text-anchor="middle" x="694" y="-77" font-family="Helvetica,sans-Serif" font-size="10.00"> UserPrimTypes</text>
</g>
<!-- Node16&#45;&gt;Node12 -->
<g id="edge24" class="edge">
<title>Node16&#45;&gt;Node12</title>
<path fill="none" stroke="#9a32cd" stroke-dasharray="5,2" d="M874.76,-228.26C907.61,-225.7 947.79,-222.57 979.3,-220.11"/>
<polygon fill="#9a32cd" stroke="#9a32cd" points="874.67,-224.76 864.98,-229.02 875.22,-231.74 874.67,-224.76"/>
<text text-anchor="middle" x="920.5" y="-231" font-family="Helvetica,sans-Serif" font-size="10.00"> RendererManager</text>
</g>
<!-- Node17 -->
<g id="node17" class="node">
<title>Node17</title>
<g id="a_node17"><a xlink:href="class_c_renderer_props.html" target="_top" xlink:title=" ">
<polygon fill="white" stroke="#bfbfbf" points="625,-251.5 537,-251.5 537,-232.5 625,-232.5 625,-251.5"/>
<text text-anchor="middle" x="581" y="-239.5" font-family="Helvetica,sans-Serif" font-size="10.00">CRendererProps</text>
</a>
</g>
</g>
<!-- Node17&#45;&gt;Node16 -->
<g id="edge26" class="edge">
<title>Node17&#45;&gt;Node16</title>
<path fill="none" stroke="#9a32cd" stroke-dasharray="5,2" d="M636.7,-239.86C674.92,-238.36 725.53,-236.38 762.54,-234.94"/>
<polygon fill="#9a32cd" stroke="#9a32cd" points="636.63,-236.36 626.77,-240.25 636.9,-243.35 636.63,-236.36"/>
<text text-anchor="middle" x="694" y="-243" font-family="Helvetica,sans-Serif" font-size="10.00"> RendererRequirements</text>
</g>
<!-- Node18 -->
<g id="node18" class="node">
<title>Node18</title>
<g id="a_node18"><a xlink:href="structt_renderer.html" target="_top" xlink:title=" ">
<polygon fill="white" stroke="#bfbfbf" points="610.5,-184.5 551.5,-184.5 551.5,-165.5 610.5,-165.5 610.5,-184.5"/>
<text text-anchor="middle" x="581" y="-172.5" font-family="Helvetica,sans-Serif" font-size="10.00">tRenderer</text>
</a>
</g>
</g>
<!-- Node18&#45;&gt;Node16 -->
<g id="edge27" class="edge">
<title>Node18&#45;&gt;Node16</title>
<path fill="none" stroke="#9a32cd" stroke-dasharray="5,2" d="M622.13,-172.63C655.85,-171.93 704.84,-174 745,-188 766.96,-195.66 788.61,-212.31 801.12,-223.06"/>
<polygon fill="#9a32cd" stroke="#9a32cd" points="622.27,-169.12 612.39,-172.93 622.49,-176.12 622.27,-169.12"/>
<text text-anchor="middle" x="694" y="-224" font-family="Helvetica,sans-Serif" font-size="10.00"> CurrentRenderer</text>
<text text-anchor="middle" x="694" y="-213" font-family="Helvetica,sans-Serif" font-size="10.00">DefaultRenderers</text>
<text text-anchor="middle" x="694" y="-202" font-family="Helvetica,sans-Serif" font-size="10.00">NewRenderer</text>
<text text-anchor="middle" x="694" y="-191" font-family="Helvetica,sans-Serif" font-size="10.00">UserRenderers</text>
</g>
<!-- Node19 -->
<g id="node19" class="node">
<title>Node19</title>
<g id="a_node19"><a xlink:href="class_c_renderer.html" target="_top" xlink:title=" ">
<polygon fill="white" stroke="#666666" points="421,-184.5 359,-184.5 359,-165.5 421,-165.5 421,-184.5"/>
<text text-anchor="middle" x="390" y="-172.5" font-family="Helvetica,sans-Serif" font-size="10.00">CRenderer</text>
</a>
</g>
</g>
<!-- Node19&#45;&gt;Node18 -->
<g id="edge28" class="edge">
<title>Node19&#45;&gt;Node18</title>
<path fill="none" stroke="#9a32cd" stroke-dasharray="5,2" d="M432.47,-175C468.46,-175 519.61,-175 551.26,-175"/>
<polygon fill="#9a32cd" stroke="#9a32cd" points="432.88,-171.5 422.88,-175 432.88,-178.5 432.88,-171.5"/>
<text text-anchor="middle" x="485.5" y="-178" font-family="Helvetica,sans-Serif" font-size="10.00"> renderer</text>
</g>
<!-- Node20 -->
<g id="node20" class="node">
<title>Node20</title>
<g id="a_node20"><a xlink:href="class_c_geometry_block.html" target="_top" xlink:title=" ">
<polygon fill="white" stroke="#bfbfbf" points="858,-179.5 768,-179.5 768,-160.5 858,-160.5 858,-179.5"/>
<text text-anchor="middle" x="813" y="-167.5" font-family="Helvetica,sans-Serif" font-size="10.00">CGeometryBlock</text>
</a>
</g>
</g>
<!-- Node20&#45;&gt;Node12 -->
<g id="edge29" class="edge">
<title>Node20&#45;&gt;Node12</title>
<path fill="none" stroke="#9a32cd" stroke-dasharray="5,2" d="M869.55,-181.72C905.13,-189.23 950.81,-198.87 984.66,-206.01"/>
<polygon fill="#9a32cd" stroke="#9a32cd" points="870.37,-178.32 859.86,-179.68 868.92,-185.17 870.37,-178.32"/>
<text text-anchor="middle" x="920.5" y="-203" font-family="Helvetica,sans-Serif" font-size="10.00"> Geometry</text>
</g>
<!-- Node20&#45;&gt;Node21 -->
<g id="edge35" class="edge">
<title>Node20&#45;&gt;Node21</title>
<path fill="none" stroke="#9a32cd" stroke-dasharray="5,2" d="M869.55,-158.28C905.13,-150.77 950.81,-141.13 984.66,-133.99"/>
<polygon fill="#9a32cd" stroke="#9a32cd" points="868.92,-154.83 859.86,-160.32 870.37,-161.68 868.92,-154.83"/>
<text text-anchor="middle" x="920.5" y="-159" font-family="Helvetica,sans-Serif" font-size="10.00"> Geometry</text>
</g>
<!-- Node21&#45;&gt;Node2 -->
<g id="edge30" class="edge">
<title>Node21&#45;&gt;Node2</title>
<path fill="none" stroke="#9a32cd" stroke-dasharray="5,2" d="M1016.1,-142.58C1004.48,-156.8 988.91,-177.27 978,-197 967.38,-216.21 976.58,-228.61 960,-243 932.67,-266.73 668.75,-292.57 643,-318 608.51,-352.05 587.97,-510.54 583.12,-552.03"/>
<polygon fill="#9a32cd" stroke="#9a32cd" points="1018.72,-144.9 1022.44,-134.98 1013.35,-140.42 1018.72,-144.9"/>
<text text-anchor="middle" x="813" y="-289" font-family="Helvetica,sans-Serif" font-size="10.00"> DListGManager</text>
</g>
<!-- Node22 -->
<g id="node22" class="node">
<title>Node22</title>
<g id="a_node22"><a xlink:href="class_c_d_list.html" target="_top" xlink:title=" ">
<polygon fill="white" stroke="#bfbfbf" points="240,-25.5 193,-25.5 193,-6.5 240,-6.5 240,-25.5"/>
<text text-anchor="middle" x="216.5" y="-13.5" font-family="Helvetica,sans-Serif" font-size="10.00">CDList</text>
</a>
</g>
</g>
<!-- Node22&#45;&gt;Node21 -->
<g id="edge32" class="edge">
<title>Node22&#45;&gt;Node21</title>
<path fill="none" stroke="#9a32cd" stroke-dasharray="5,2" d="M251.79,-10.91C286.35,-6.22 341.25,0 389,0 389,0 389,0 814,0 906.31,0 995.23,-85.04 1023.07,-114.27"/>
<polygon fill="#9a32cd" stroke="#9a32cd" points="251.38,-7.43 241.96,-12.28 252.35,-14.36 251.38,-7.43"/>
<text text-anchor="middle" x="581" y="-3" font-family="Helvetica,sans-Serif" font-size="10.00"> CurDList</text>
</g>
<!-- Node28 -->
<g id="node28" class="node">
<title>Node28</title>
<g id="a_node28"><a xlink:href="class_c_d_list_manager.html" target="_top" xlink:title=" ">
<polygon fill="white" stroke="#bfbfbf" points="432,-573.5 348,-573.5 348,-554.5 432,-554.5 432,-573.5"/>
<text text-anchor="middle" x="390" y="-561.5" font-family="Helvetica,sans-Serif" font-size="10.00">CDListManager</text>
</a>
</g>
</g>
<!-- Node22&#45;&gt;Node28 -->
<g id="edge46" class="edge">
<title>Node22&#45;&gt;Node28</title>
<path fill="none" stroke="#9a32cd" stroke-dasharray="5,2" d="M217.29,-36.75C217.54,-111.72 227.33,-372.85 346,-537 351.16,-544.14 358.86,-549.83 366.31,-554.1"/>
<polygon fill="#9a32cd" stroke="#9a32cd" points="220.79,-37.18 217.32,-27.17 213.79,-37.16 220.79,-37.18"/>
<text text-anchor="middle" x="293" y="-526" font-family="Helvetica,sans-Serif" font-size="10.00"> Lists</text>
<text text-anchor="middle" x="293" y="-515" font-family="Helvetica,sans-Serif" font-size="10.00">ListsToBeFreed</text>
<text text-anchor="middle" x="293" y="-504" font-family="Helvetica,sans-Serif" font-size="10.00">OpenList</text>
</g>
<!-- Node23 -->
<g id="node23" class="node">
<title>Node23</title>
<g id="a_node23"><a xlink:href="class_c_d_list_cmd_block.html" target="_top" xlink:title=" ">
<polygon fill="white" stroke="#bfbfbf" points="92,-25.5 0,-25.5 0,-6.5 92,-6.5 92,-25.5"/>
<text text-anchor="middle" x="46" y="-13.5" font-family="Helvetica,sans-Serif" font-size="10.00">CDListCmdBlock</text>
</a>
</g>
</g>
<!-- Node23&#45;&gt;Node22 -->
<g id="edge33" class="edge">
<title>Node23&#45;&gt;Node22</title>
<path fill="none" stroke="#9a32cd" stroke-dasharray="5,2" d="M103.57,-16C134.14,-16 170.19,-16 192.95,-16"/>
<polygon fill="#9a32cd" stroke="#9a32cd" points="103.67,-12.5 93.67,-16 103.67,-19.5 103.67,-12.5"/>
<text text-anchor="middle" x="142.5" y="-30" font-family="Helvetica,sans-Serif" font-size="10.00"> CurCmdBlock</text>
<text text-anchor="middle" x="142.5" y="-19" font-family="Helvetica,sans-Serif" font-size="10.00">FirstCmdBlock</text>
</g>
<!-- Node23&#45;&gt;Node23 -->
<g id="edge34" class="edge">
<title>Node23&#45;&gt;Node23</title>
<path fill="none" stroke="#9a32cd" stroke-dasharray="5,2" d="M28.87,-36.93C31.01,-40.79 36.72,-43.5 46,-43.5 62.96,-43.5 68,-34.44 61.11,-25.87"/>
<polygon fill="#9a32cd" stroke="#9a32cd" points="32.27,-37.82 30.62,-27.36 25.38,-36.57 32.27,-37.82"/>
<text text-anchor="middle" x="46" y="-46.5" font-family="Helvetica,sans-Serif" font-size="10.00"> NextBlock</text>
</g>
<!-- Node24&#45;&gt;Node2 -->
<g id="edge37" class="edge">
<title>Node24&#45;&gt;Node2</title>
<path fill="none" stroke="#9a32cd" stroke-dasharray="5,2" d="M1182.97,-962.26C1177.61,-963.32 1172.21,-964.27 1167,-965 1132.19,-969.89 1123.14,-968.11 1088,-969 888.12,-974.06 783.14,-1045.61 643,-903 595.05,-854.2 584.15,-622.83 582.32,-571.92"/>
<polygon fill="#9a32cd" stroke="#9a32cd" points="1183.32,-965.76 1192.37,-960.25 1181.86,-958.91 1183.32,-965.76"/>
<text text-anchor="middle" x="920.5" y="-992" font-family="Helvetica,sans-Serif" font-size="10.00"> MaterialManager</text>
</g>
<!-- Node25 -->
<g id="node25" class="node">
<title>Node25</title>
<g id="a_node25"><a xlink:href="class_c_imm_material.html" target="_top" xlink:title=" ">
<polygon fill="white" stroke="#bfbfbf" points="1071.5,-922.5 994.5,-922.5 994.5,-903.5 1071.5,-903.5 1071.5,-922.5"/>
<text text-anchor="middle" x="1033" y="-910.5" font-family="Helvetica,sans-Serif" font-size="10.00">CImmMaterial</text>
</a>
</g>
</g>
<!-- Node25&#45;&gt;Node24 -->
<g id="edge39" class="edge">
<title>Node25&#45;&gt;Node24</title>
<path fill="none" stroke="#9a32cd" stroke-dasharray="5,2" d="M1083.07,-920.34C1108.23,-924.3 1139.33,-929.5 1167,-935 1174.56,-936.5 1182.57,-938.24 1190.3,-940"/>
<polygon fill="#9a32cd" stroke="#9a32cd" points="1083.87,-916.92 1073.45,-918.84 1082.79,-923.84 1083.87,-916.92"/>
<text text-anchor="middle" x="1136.5" y="-938" font-family="Helvetica,sans-Serif" font-size="10.00"> ImmMaterial</text>
</g>
<!-- Node26&#45;&gt;Node24 -->
<g id="edge44" class="edge">
<title>Node26&#45;&gt;Node24</title>
<path fill="none" stroke="#9a32cd" stroke-dasharray="5,2" d="M853.52,-883.07C907.3,-874.98 1006.2,-864.85 1088,-883 1137.93,-894.08 1191.06,-924.43 1216.38,-940.2"/>
<polygon fill="#9a32cd" stroke="#9a32cd" points="853.27,-879.57 843.93,-884.57 854.36,-886.48 853.27,-879.57"/>
<text text-anchor="middle" x="1033" y="-886" font-family="Helvetica,sans-Serif" font-size="10.00"> CurMaterial</text>
</g>
<!-- Node26&#45;&gt;Node25 -->
<g id="edge40" class="edge">
<title>Node26&#45;&gt;Node25</title>
<path fill="none" stroke="#63b8ff" d="M853.95,-894.21C893.98,-898.44 955.15,-904.89 994.35,-909.03"/>
<polygon fill="#63b8ff" stroke="#63b8ff" points="854.32,-890.73 844,-893.17 853.58,-897.7 854.32,-890.73"/>
</g>
<!-- Node27 -->
<g id="node27" class="node">
<title>Node27</title>
<g id="a_node27"><a xlink:href="class_c_d_list_material.html" target="_top" xlink:title=" ">
<polygon fill="white" stroke="#bfbfbf" points="1073.5,-959.5 992.5,-959.5 992.5,-940.5 1073.5,-940.5 1073.5,-959.5"/>
<text text-anchor="middle" x="1033" y="-947.5" font-family="Helvetica,sans-Serif" font-size="10.00">CDListMaterial</text>
</a>
</g>
</g>
<!-- Node26&#45;&gt;Node27 -->
<g id="edge43" class="edge">
<title>Node26&#45;&gt;Node27</title>
<path fill="none" stroke="#63b8ff" d="M847.48,-904.12C858.08,-908.28 869.93,-912.63 881,-916 918.14,-927.32 961.46,-936.69 992.16,-942.71"/>
<polygon fill="#63b8ff" stroke="#63b8ff" points="848.95,-900.93 838.36,-900.45 846.33,-907.43 848.95,-900.93"/>
</g>
<!-- Node27&#45;&gt;Node24 -->
<g id="edge42" class="edge">
<title>Node27&#45;&gt;Node24</title>
<path fill="none" stroke="#9a32cd" stroke-dasharray="5,2" d="M1085.31,-950C1116.02,-950 1154.76,-950 1184.65,-950"/>
<polygon fill="#9a32cd" stroke="#9a32cd" points="1085.48,-946.5 1075.48,-950 1085.48,-953.5 1085.48,-946.5"/>
<text text-anchor="middle" x="1136.5" y="-953" font-family="Helvetica,sans-Serif" font-size="10.00"> DListMaterial</text>
</g>
<!-- Node28&#45;&gt;Node2 -->
<g id="edge45" class="edge">
<title>Node28&#45;&gt;Node2</title>
<path fill="none" stroke="#9a32cd" stroke-dasharray="5,2" d="M443.62,-563.44C476.2,-563.1 517.1,-562.67 545.57,-562.36"/>
<polygon fill="#9a32cd" stroke="#9a32cd" points="443.95,-559.94 433.99,-563.55 444.03,-566.94 443.95,-559.94"/>
<text text-anchor="middle" x="485.5" y="-567" font-family="Helvetica,sans-Serif" font-size="10.00"> DListManager</text>
</g>
<!-- Node29&#45;&gt;Node2 -->
<g id="edge47" class="edge">
<title>Node29&#45;&gt;Node2</title>
<path fill="none" stroke="#9a32cd" stroke-dasharray="5,2" d="M793.68,-1092.97C780.93,-1082.01 763.04,-1068.3 745,-1060 702.79,-1040.57 674.28,-1071.37 643,-1037 578.08,-965.67 580.73,-633.51 581.8,-571.86"/>
<polygon fill="#9a32cd" stroke="#9a32cd" points="791.05,-1095.32 800.85,-1099.35 795.7,-1090.09 791.05,-1095.32"/>
<text text-anchor="middle" x="694" y="-1063" font-family="Helvetica,sans-Serif" font-size="10.00"> TexManager</text>
</g>
<!-- Node30 -->
<g id="node30" class="node">
<title>Node30</title>
<g id="a_node30"><a xlink:href="class_c_m_m_texture.html" target="_top" xlink:title=" ">
<polygon fill="white" stroke="#bfbfbf" points="617,-1172.5 545,-1172.5 545,-1153.5 617,-1153.5 617,-1172.5"/>
<text text-anchor="middle" x="581" y="-1160.5" font-family="Helvetica,sans-Serif" font-size="10.00">CMMTexture</text>
</a>
</g>
</g>
<!-- Node30&#45;&gt;Node29 -->
<g id="edge49" class="edge">
<title>Node30&#45;&gt;Node29</title>
<path fill="none" stroke="#9a32cd" stroke-dasharray="5,2" d="M628.53,-1157.88C661.44,-1153.64 706.39,-1146.57 745,-1136 760.28,-1131.82 776.89,-1125.39 789.75,-1119.97"/>
<polygon fill="#9a32cd" stroke="#9a32cd" points="628.42,-1154.37 618.93,-1159.08 629.29,-1161.32 628.42,-1154.37"/>
<text text-anchor="middle" x="694" y="-1191" font-family="Helvetica,sans-Serif" font-size="10.00"> CurTexture</text>
<text text-anchor="middle" x="694" y="-1180" font-family="Helvetica,sans-Serif" font-size="10.00">DefaultTex</text>
<text text-anchor="middle" x="694" y="-1169" font-family="Helvetica,sans-Serif" font-size="10.00">LastTexSent</text>
<text text-anchor="middle" x="694" y="-1158" font-family="Helvetica,sans-Serif" font-size="10.00">TexNames</text>
</g>
<!-- Node31 -->
<g id="node31" class="node">
<title>Node31</title>
<g id="a_node31"><a xlink:title=" ">
<polygon fill="white" stroke="#bfbfbf" points="427,-1172.5 353,-1172.5 353,-1153.5 427,-1153.5 427,-1172.5"/>
<text text-anchor="middle" x="390" y="-1160.5" font-family="Helvetica,sans-Serif" font-size="10.00">GS::CTexture</text>
</a>
</g>
</g>
<!-- Node31&#45;&gt;Node30 -->
<g id="edge50" class="edge">
<title>Node31&#45;&gt;Node30</title>
<path fill="none" stroke="#63b8ff" d="M438.63,-1163C471.58,-1163 514.72,-1163 544.63,-1163"/>
<polygon fill="#63b8ff" stroke="#63b8ff" points="438.95,-1159.5 428.95,-1163 438.95,-1166.5 438.95,-1159.5"/>
</g>
<!-- Node32 -->
<g id="node32" class="node">
<title>Node32</title>
<g id="a_node32"><a xlink:href="class_c_m_m_clut.html" target="_top" xlink:title=" ">
<polygon fill="white" stroke="#666666" points="609.5,-1135.5 552.5,-1135.5 552.5,-1116.5 609.5,-1116.5 609.5,-1135.5"/>
<text text-anchor="middle" x="581" y="-1123.5" font-family="Helvetica,sans-Serif" font-size="10.00">CMMClut</text>
</a>
</g>
</g>
<!-- Node32&#45;&gt;Node29 -->
<g id="edge51" class="edge">
<title>Node32&#45;&gt;Node29</title>
<path fill="none" stroke="#9a32cd" stroke-dasharray="5,2" d="M621.1,-1123.28C663.88,-1120.3 731.99,-1115.57 774.24,-1112.63"/>
<polygon fill="#9a32cd" stroke="#9a32cd" points="620.99,-1119.78 611.25,-1123.96 621.47,-1126.76 620.99,-1119.78"/>
<text text-anchor="middle" x="694" y="-1124" font-family="Helvetica,sans-Serif" font-size="10.00"> CurClut</text>
</g>
<!-- Node33 -->
<g id="node33" class="node">
<title>Node33</title>
<g id="a_node33"><a xlink:title=" ">
<polygon fill="white" stroke="#bfbfbf" points="419.5,-1135.5 360.5,-1135.5 360.5,-1116.5 419.5,-1116.5 419.5,-1135.5"/>
<text text-anchor="middle" x="390" y="-1123.5" font-family="Helvetica,sans-Serif" font-size="10.00">GS::CClut</text>
</a>
</g>
</g>
<!-- Node33&#45;&gt;Node32 -->
<g id="edge52" class="edge">
<title>Node33&#45;&gt;Node32</title>
<path fill="none" stroke="#63b8ff" d="M430.91,-1126C467.34,-1126 520.24,-1126 552.26,-1126"/>
<polygon fill="#63b8ff" stroke="#63b8ff" points="431.22,-1122.5 421.22,-1126 431.22,-1129.5 431.22,-1122.5"/>
</g>
<!-- Node34 -->
<g id="node34" class="node">
<title>Node34</title>
<g id="a_node34"><a xlink:href="class_c_imm_draw_context.html" target="_top" xlink:title=" ">
<polygon fill="white" stroke="#bfbfbf" points="1082,-648.5 984,-648.5 984,-629.5 1082,-629.5 1082,-648.5"/>
<text text-anchor="middle" x="1033" y="-636.5" font-family="Helvetica,sans-Serif" font-size="10.00">CImmDrawContext</text>
</a>
</g>
</g>
<!-- Node34&#45;&gt;Node2 -->
<g id="edge53" class="edge">
<title>Node34&#45;&gt;Node2</title>
<path fill="none" stroke="#9a32cd" stroke-dasharray="5,2" d="M972.25,-639.96C878.34,-640.68 700.93,-638.71 643,-615 620.41,-605.75 600.35,-584.59 589.81,-571.98"/>
<polygon fill="#9a32cd" stroke="#9a32cd" points="972.07,-643.46 982.03,-639.87 972,-636.46 972.07,-643.46"/>
<text text-anchor="middle" x="813" y="-643" font-family="Helvetica,sans-Serif" font-size="10.00"> ImmDrawContext</text>
</g>
<!-- Node35&#45;&gt;Node2 -->
<g id="edge59" class="edge">
<title>Node35&#45;&gt;Node2</title>
<path fill="none" stroke="#9a32cd" stroke-dasharray="5,2" d="M762.13,-597.97C728.11,-600.01 682.29,-600.11 643,-591 626.78,-587.24 609.78,-578.73 597.87,-571.89"/>
<polygon fill="#9a32cd" stroke="#9a32cd" points="761.93,-601.49 771.67,-597.32 761.45,-594.51 761.93,-601.49"/>
<text text-anchor="middle" x="694" y="-603" font-family="Helvetica,sans-Serif" font-size="10.00"> CurDrawContext</text>
</g>
<!-- Node35&#45;&gt;Node34 -->
<g id="edge54" class="edge">
<title>Node35&#45;&gt;Node34</title>
<path fill="none" stroke="#63b8ff" d="M863.8,-603.51C900.08,-611.16 948.93,-621.47 984.63,-629"/>
<polygon fill="#63b8ff" stroke="#63b8ff" points="864.96,-600.18 854.45,-601.54 863.52,-607.03 864.96,-600.18"/>
</g>
<!-- Node37 -->
<g id="node37" class="node">
<title>Node37</title>
<g id="a_node37"><a xlink:href="class_c_d_list_draw_context.html" target="_top" xlink:title=" ">
<polygon fill="white" stroke="#bfbfbf" points="1084,-577.5 982,-577.5 982,-558.5 1084,-558.5 1084,-577.5"/>
<text text-anchor="middle" x="1033" y="-565.5" font-family="Helvetica,sans-Serif" font-size="10.00">CDListDrawContext</text>
</a>
</g>
</g>
<!-- Node35&#45;&gt;Node37 -->
<g id="edge58" class="edge">
<title>Node35&#45;&gt;Node37</title>
<path fill="none" stroke="#63b8ff" d="M864,-587.27C899.33,-583.21 946.49,-577.81 981.85,-573.75"/>
<polygon fill="#63b8ff" stroke="#63b8ff" points="864.01,-583.74 854.48,-588.36 864.81,-590.7 864.01,-583.74"/>
</g>
<!-- Node36 -->
<g id="node36" class="node">
<title>Node36</title>
<g id="a_node36"><a xlink:href="class_c_clear_env.html" target="_top" xlink:title=" ">
<polygon fill="white" stroke="#bfbfbf" points="844,-687.5 782,-687.5 782,-668.5 844,-668.5 844,-687.5"/>
<text text-anchor="middle" x="813" y="-675.5" font-family="Helvetica,sans-Serif" font-size="10.00">CClearEnv</text>
</a>
</g>
</g>
<!-- Node36&#45;&gt;Node34 -->
<g id="edge56" class="edge">
<title>Node36&#45;&gt;Node34</title>
<path fill="none" stroke="#9a32cd" stroke-dasharray="5,2" d="M855.53,-670.57C892.01,-664.04 945.1,-654.55 983.52,-647.67"/>
<polygon fill="#9a32cd" stroke="#9a32cd" points="855.03,-667.1 845.8,-672.31 856.26,-673.99 855.03,-667.1"/>
<text text-anchor="middle" x="920.5" y="-669" font-family="Helvetica,sans-Serif" font-size="10.00"> ClearEnv</text>
</g>
<!-- Node37&#45;&gt;Node2 -->
<g id="edge57" class="edge">
<title>Node37&#45;&gt;Node2</title>
<path fill="none" stroke="#9a32cd" stroke-dasharray="5,2" d="M970.3,-565.79C938.29,-564.74 898.55,-563.59 863,-563 773.98,-561.52 669.07,-561.64 616.17,-561.84"/>
<polygon fill="#9a32cd" stroke="#9a32cd" points="970.1,-569.28 980.21,-566.12 970.33,-562.29 970.1,-569.28"/>
<text text-anchor="middle" x="813" y="-566" font-family="Helvetica,sans-Serif" font-size="10.00"> DListDrawContext</text>
</g>
</g>
</svg>
