<?xml version="1.0" encoding="UTF-8" standalone="no"?>
<!DOCTYPE svg PUBLIC "-//W3C//DTD SVG 1.1//EN"
 "http://www.w3.org/Graphics/SVG/1.1/DTD/svg11.dtd">
<!-- Generated by graphviz version 7.0.5 (20221223.1930)
 -->
<!-- Title: CGeomManager Pages: 1 -->
<svg width="244pt" height="82pt"
 viewBox="0.00 0.00 243.50 82.00" xmlns="http://www.w3.org/2000/svg" xmlns:xlink="http://www.w3.org/1999/xlink">
<g id="graph0" class="graph" transform="scale(1 1) rotate(0) translate(4 78)">
<title>CGeomManager</title>
<!-- Node1 -->
<g id="node1" class="node">
<title>Node1</title>
<g id="a_node1"><a xlink:title=" ">
<polygon fill="#999999" stroke="#666666" points="161.5,-74 74.5,-74 74.5,-55 161.5,-55 161.5,-74"/>
<text text-anchor="middle" x="118" y="-62" font-family="Helvetica,sans-Serif" font-size="10.00">CGeomManager</text>
</a>
</g>
</g>
<!-- Node2 -->
<g id="node2" class="node">
<title>Node2</title>
<g id="a_node2"><a xlink:href="class_c_d_list_geom_manager.html" target="_top" xlink:title=" ">
<polygon fill="white" stroke="#bfbfbf" points="110,-19 0,-19 0,0 110,0 110,-19"/>
<text text-anchor="middle" x="55" y="-7" font-family="Helvetica,sans-Serif" font-size="10.00">CDListGeomManager</text>
</a>
</g>
</g>
<!-- Node1&#45;&gt;Node2 -->
<g id="edge1" class="edge">
<title>Node1&#45;&gt;Node2</title>
<path fill="none" stroke="#63b8ff" d="M98.82,-47.37C87.88,-38.16 74.59,-26.98 65.53,-19.36"/>
<polygon fill="#63b8ff" stroke="#63b8ff" points="96.25,-49.78 106.15,-53.53 100.76,-44.42 96.25,-49.78"/>
</g>
<!-- Node3 -->
<g id="node3" class="node">
<title>Node3</title>
<g id="a_node3"><a xlink:href="class_c_imm_geom_manager.html" target="_top" xlink:title=" ">
<polygon fill="white" stroke="#bfbfbf" points="235.5,-19 128.5,-19 128.5,0 235.5,0 235.5,-19"/>
<text text-anchor="middle" x="182" y="-7" font-family="Helvetica,sans-Serif" font-size="10.00">CImmGeomManager</text>
</a>
</g>
</g>
<!-- Node1&#45;&gt;Node3 -->
<g id="edge2" class="edge">
<title>Node1&#45;&gt;Node3</title>
<path fill="none" stroke="#63b8ff" d="M137.48,-47.37C148.6,-38.16 162.1,-26.98 171.3,-19.36"/>
<polygon fill="#63b8ff" stroke="#63b8ff" points="135.49,-44.47 130.02,-53.54 139.96,-49.86 135.49,-44.47"/>
</g>
</g>
</svg>
