<?xml version="1.0" encoding="UTF-8" standalone="no"?>
<!DOCTYPE svg PUBLIC "-//W3C//DTD SVG 1.1//EN"
 "http://www.w3.org/Graphics/SVG/1.1/DTD/svg11.dtd">
<!-- Generated by graphviz version 7.0.5 (20221223.1930)
 -->
<!-- Title: CDListManager Pages: 1 -->
<svg width="166pt" height="192pt"
 viewBox="0.00 0.00 166.00 192.00" xmlns="http://www.w3.org/2000/svg" xmlns:xlink="http://www.w3.org/1999/xlink">
<g id="graph0" class="graph" transform="scale(1 1) rotate(0) translate(4 188)">
<title>CDListManager</title>
<!-- Node1 -->
<g id="node1" class="node">
<title>Node1</title>
<g id="a_node1"><a xlink:title=" ">
<polygon fill="#999999" stroke="#666666" points="88,-19 4,-19 4,0 88,0 88,-19"/>
<text text-anchor="middle" x="46" y="-7" font-family="Helvetica,sans-Serif" font-size="10.00">CDListManager</text>
</a>
</g>
</g>
<!-- Node2 -->
<g id="node2" class="node">
<title>Node2</title>
<g id="a_node2"><a xlink:href="class_c_d_list.html" target="_top" xlink:title=" ">
<polygon fill="white" stroke="#bfbfbf" points="69.5,-107 22.5,-107 22.5,-88 69.5,-88 69.5,-107"/>
<text text-anchor="middle" x="46" y="-95" font-family="Helvetica,sans-Serif" font-size="10.00">CDList</text>
</a>
</g>
</g>
<!-- Node2&#45;&gt;Node1 -->
<g id="edge1" class="edge">
<title>Node2&#45;&gt;Node1</title>
<path fill="none" stroke="#9a32cd" stroke-dasharray="5,2" d="M46,-76.37C46,-58.37 46,-32.83 46,-19.46"/>
<polygon fill="#9a32cd" stroke="#9a32cd" points="42.5,-76.11 46,-86.11 49.5,-76.11 42.5,-76.11"/>
<text text-anchor="middle" x="81" y="-62" font-family="Helvetica,sans-Serif" font-size="10.00"> Lists</text>
<text text-anchor="middle" x="81" y="-51" font-family="Helvetica,sans-Serif" font-size="10.00">ListsToBeFreed</text>
<text text-anchor="middle" x="81" y="-40" font-family="Helvetica,sans-Serif" font-size="10.00">OpenList</text>
</g>
<!-- Node3 -->
<g id="node3" class="node">
<title>Node3</title>
<g id="a_node3"><a xlink:href="class_c_d_list_cmd_block.html" target="_top" xlink:title=" ">
<polygon fill="white" stroke="#bfbfbf" points="92,-184 0,-184 0,-165 92,-165 92,-184"/>
<text text-anchor="middle" x="46" y="-172" font-family="Helvetica,sans-Serif" font-size="10.00">CDListCmdBlock</text>
</a>
</g>
</g>
<!-- Node3&#45;&gt;Node2 -->
<g id="edge2" class="edge">
<title>Node3&#45;&gt;Node2</title>
<path fill="none" stroke="#9a32cd" stroke-dasharray="5,2" d="M46,-153.42C46,-138.43 46,-118.66 46,-107.39"/>
<polygon fill="#9a32cd" stroke="#9a32cd" points="42.5,-153.09 46,-163.09 49.5,-153.09 42.5,-153.09"/>
<text text-anchor="middle" x="78.5" y="-139" font-family="Helvetica,sans-Serif" font-size="10.00"> CurCmdBlock</text>
<text text-anchor="middle" x="78.5" y="-128" font-family="Helvetica,sans-Serif" font-size="10.00">FirstCmdBlock</text>
</g>
<!-- Node3&#45;&gt;Node3 -->
<g id="edge3" class="edge">
<title>Node3&#45;&gt;Node3</title>
<path fill="none" stroke="#9a32cd" stroke-dasharray="5,2" d="M103.43,-179.79C107.51,-178.59 110,-176.83 110,-174.5 110,-170.48 102.55,-168.14 92.31,-167.48"/>
<polygon fill="#9a32cd" stroke="#9a32cd" points="103.15,-176.29 93.81,-181.29 104.23,-183.21 103.15,-176.29"/>
<text text-anchor="middle" x="134" y="-172" font-family="Helvetica,sans-Serif" font-size="10.00"> NextBlock</text>
</g>
</g>
</svg>
