<?xml version="1.0" encoding="UTF-8" standalone="no"?>
<!DOCTYPE svg PUBLIC "-//W3C//DTD SVG 1.1//EN"
 "http://www.w3.org/Graphics/SVG/1.1/DTD/svg11.dtd">
<!-- Generated by graphviz version 7.0.5 (20221223.1930)
 -->
<!-- Title: CImmLight Pages: 1 -->
<svg width="1299pt" height="1224pt"
 viewBox="0.00 0.00 1299.00 1223.50" xmlns="http://www.w3.org/2000/svg" xmlns:xlink="http://www.w3.org/1999/xlink">
<g id="graph0" class="graph" transform="scale(1 1) rotate(0) translate(4 1219.5)">
<title>CImmLight</title>
<!-- Node1 -->
<g id="node1" class="node">
<title>Node1</title>
<g id="a_node1"><a xlink:title=" ">
<polygon fill="#999999" stroke="#666666" points="258,-1113 193,-1113 193,-1094 258,-1094 258,-1113"/>
<text text-anchor="middle" x="225.5" y="-1101" font-family="Helvetica,sans-Serif" font-size="10.00">CImmLight</text>
</a>
</g>
</g>
<!-- Node7 -->
<g id="node7" class="node">
<title>Node7</title>
<g id="a_node7"><a xlink:href="class_c_imm_lighting.html" target="_top" xlink:title=" ">
<polygon fill="white" stroke="#bfbfbf" points="444.5,-1134 367.5,-1134 367.5,-1115 444.5,-1115 444.5,-1134"/>
<text text-anchor="middle" x="406" y="-1122" font-family="Helvetica,sans-Serif" font-size="10.00">CImmLighting</text>
</a>
</g>
</g>
<!-- Node1&#45;&gt;Node7 -->
<g id="edge12" class="edge">
<title>Node1&#45;&gt;Node7</title>
<path fill="none" stroke="#9a32cd" stroke-dasharray="5,2" d="M269.72,-1108.58C299.48,-1112.09 338.65,-1116.69 367.17,-1120.05"/>
<polygon fill="#9a32cd" stroke="#9a32cd" points="270.26,-1105.12 259.92,-1107.43 269.44,-1112.08 270.26,-1105.12"/>
<text text-anchor="middle" x="311" y="-1207.5" font-family="Helvetica,sans-Serif" font-size="10.00"> Light0</text>
<text text-anchor="middle" x="311" y="-1196.5" font-family="Helvetica,sans-Serif" font-size="10.00">Light1</text>
<text text-anchor="middle" x="311" y="-1185.5" font-family="Helvetica,sans-Serif" font-size="10.00">Light2</text>
<text text-anchor="middle" x="311" y="-1174.5" font-family="Helvetica,sans-Serif" font-size="10.00">Light3</text>
<text text-anchor="middle" x="311" y="-1163.5" font-family="Helvetica,sans-Serif" font-size="10.00">Light4</text>
<text text-anchor="middle" x="311" y="-1152.5" font-family="Helvetica,sans-Serif" font-size="10.00">Light5</text>
<text text-anchor="middle" x="311" y="-1141.5" font-family="Helvetica,sans-Serif" font-size="10.00">Light6</text>
<text text-anchor="middle" x="311" y="-1130.5" font-family="Helvetica,sans-Serif" font-size="10.00">Light7</text>
<text text-anchor="middle" x="311" y="-1119.5" font-family="Helvetica,sans-Serif" font-size="10.00">Lights</text>
</g>
<!-- Node2 -->
<g id="node2" class="node">
<title>Node2</title>
<g id="a_node2"><a xlink:href="class_c_light.html" target="_top" xlink:title=" ">
<polygon fill="white" stroke="#bfbfbf" points="846.5,-1014 801.5,-1014 801.5,-995 846.5,-995 846.5,-1014"/>
<text text-anchor="middle" x="824" y="-1002" font-family="Helvetica,sans-Serif" font-size="10.00">CLight</text>
</a>
</g>
</g>
<!-- Node2&#45;&gt;Node1 -->
<g id="edge1" class="edge">
<title>Node2&#45;&gt;Node1</title>
<path fill="none" stroke="#63b8ff" d="M810.64,-1023.25C798.78,-1039.49 779.25,-1061.96 756,-1072.5 710.76,-1093.01 365.69,-1100.97 258.3,-1102.96"/>
<polygon fill="#63b8ff" stroke="#63b8ff" points="813.3,-1025.57 816.14,-1015.36 807.56,-1021.56 813.3,-1025.57"/>
</g>
<!-- Node10 -->
<g id="node10" class="node">
<title>Node10</title>
<g id="a_node10"><a xlink:href="class_c_d_list_light.html" target="_top" xlink:title=" ">
<polygon fill="white" stroke="#bfbfbf" points="1078,-1014 1010,-1014 1010,-995 1078,-995 1078,-1014"/>
<text text-anchor="middle" x="1044" y="-1002" font-family="Helvetica,sans-Serif" font-size="10.00">CDListLight</text>
</a>
</g>
</g>
<!-- Node2&#45;&gt;Node10 -->
<g id="edge16" class="edge">
<title>Node2&#45;&gt;Node10</title>
<path fill="none" stroke="#63b8ff" d="M857.95,-1004.5C898.95,-1004.5 968.58,-1004.5 1009.73,-1004.5"/>
<polygon fill="#63b8ff" stroke="#63b8ff" points="858.21,-1001 848.21,-1004.5 858.21,-1008 858.21,-1001"/>
</g>
<!-- Node3 -->
<g id="node3" class="node">
<title>Node3</title>
<g id="a_node3"><a xlink:href="class_c_g_l_context.html" target="_top" xlink:title=" ">
<polygon fill="white" stroke="#bfbfbf" points="627,-672 557,-672 557,-653 627,-653 627,-672"/>
<text text-anchor="middle" x="592" y="-660" font-family="Helvetica,sans-Serif" font-size="10.00">CGLContext</text>
</a>
</g>
</g>
<!-- Node3&#45;&gt;Node2 -->
<g id="edge2" class="edge">
<title>Node3&#45;&gt;Node2</title>
<path fill="none" stroke="#9a32cd" stroke-dasharray="5,2" d="M594.2,-683.54C598.22,-746.19 613.31,-929.69 654,-970.5 659.2,-975.72 756.48,-993.04 801.04,-1000.75"/>
<polygon fill="#9a32cd" stroke="#9a32cd" points="597.72,-683.68 593.62,-673.91 590.73,-684.11 597.72,-683.68"/>
<text text-anchor="middle" x="705" y="-995.5" font-family="Helvetica,sans-Serif" font-size="10.00"> GLContext</text>
</g>
<!-- Node5 -->
<g id="node5" class="node">
<title>Node5</title>
<g id="a_node5"><a xlink:href="class_c_matrix_stack.html" target="_top" xlink:title=" ">
<polygon fill="white" stroke="#bfbfbf" points="861.5,-560 786.5,-560 786.5,-541 861.5,-541 861.5,-560"/>
<text text-anchor="middle" x="824" y="-548" font-family="Helvetica,sans-Serif" font-size="10.00">CMatrixStack</text>
</a>
</g>
</g>
<!-- Node3&#45;&gt;Node5 -->
<g id="edge5" class="edge">
<title>Node3&#45;&gt;Node5</title>
<path fill="none" stroke="#9a32cd" stroke-dasharray="5,2" d="M597.6,-641.83C604.69,-615.52 621.05,-571.12 654,-551.5 694.21,-527.56 749.92,-533.06 786.2,-540.61"/>
<polygon fill="#9a32cd" stroke="#9a32cd" points="594.25,-640.78 595.26,-651.33 601.05,-642.46 594.25,-640.78"/>
<text text-anchor="middle" x="705" y="-554.5" font-family="Helvetica,sans-Serif" font-size="10.00"> GLContext</text>
</g>
<!-- Node8 -->
<g id="node8" class="node">
<title>Node8</title>
<g id="a_node8"><a xlink:href="class_c_lighting.html" target="_top" xlink:title=" ">
<polygon fill="white" stroke="#bfbfbf" points="853,-1099 795,-1099 795,-1080 853,-1080 853,-1099"/>
<text text-anchor="middle" x="824" y="-1087" font-family="Helvetica,sans-Serif" font-size="10.00">CLighting</text>
</a>
</g>
</g>
<!-- Node3&#45;&gt;Node8 -->
<g id="edge11" class="edge">
<title>Node3&#45;&gt;Node8</title>
<path fill="none" stroke="#9a32cd" stroke-dasharray="5,2" d="M593.8,-683.59C596.78,-750.74 609.47,-957.91 654,-1004.5 686.11,-1038.1 714.87,-1005.87 756,-1027.5 781.25,-1040.78 804.11,-1066.04 815.47,-1079.86"/>
<polygon fill="#9a32cd" stroke="#9a32cd" points="597.31,-683.79 593.4,-673.94 590.32,-684.08 597.31,-683.79"/>
<text text-anchor="middle" x="705" y="-1030.5" font-family="Helvetica,sans-Serif" font-size="10.00"> GLContext</text>
</g>
<!-- Node12 -->
<g id="node12" class="node">
<title>Node12</title>
<g id="a_node12"><a xlink:href="class_c_geom_manager.html" target="_top" xlink:title=" ">
<polygon fill="white" stroke="#bfbfbf" points="867.5,-193 780.5,-193 780.5,-174 867.5,-174 867.5,-193"/>
<text text-anchor="middle" x="824" y="-181" font-family="Helvetica,sans-Serif" font-size="10.00">CGeomManager</text>
</a>
</g>
</g>
<!-- Node3&#45;&gt;Node12 -->
<g id="edge20" class="edge">
<title>Node3&#45;&gt;Node12</title>
<path fill="none" stroke="#9a32cd" stroke-dasharray="5,2" d="M595.89,-641.33C607.18,-558.85 647.98,-263.28 654,-255.5 684.54,-216.02 740.9,-197.9 780.1,-189.78"/>
<polygon fill="#9a32cd" stroke="#9a32cd" points="592.43,-640.77 594.55,-651.16 599.37,-641.72 592.43,-640.77"/>
<text text-anchor="middle" x="705" y="-258.5" font-family="Helvetica,sans-Serif" font-size="10.00"> GLContext</text>
</g>
<!-- Node15 -->
<g id="node15" class="node">
<title>Node15</title>
<g id="a_node15"><a xlink:href="class_c_renderer_manager.html" target="_top" xlink:title=" ">
<polygon fill="white" stroke="#bfbfbf" points="874,-88 774,-88 774,-69 874,-69 874,-88"/>
<text text-anchor="middle" x="824" y="-76" font-family="Helvetica,sans-Serif" font-size="10.00">CRendererManager</text>
</a>
</g>
</g>
<!-- Node3&#45;&gt;Node15 -->
<g id="edge24" class="edge">
<title>Node3&#45;&gt;Node15</title>
<path fill="none" stroke="#9a32cd" stroke-dasharray="5,2" d="M596.41,-641.45C604.32,-592.01 624.14,-464.58 636,-357.5 638.74,-332.79 638.65,-154.05 654,-134.5 669.03,-115.36 729.54,-98.57 773.87,-88.49"/>
<polygon fill="#9a32cd" stroke="#9a32cd" points="593,-640.6 594.87,-651.03 599.91,-641.71 593,-640.6"/>
<text text-anchor="middle" x="705" y="-137.5" font-family="Helvetica,sans-Serif" font-size="10.00"> GLContext</text>
</g>
<!-- Node23 -->
<g id="node23" class="node">
<title>Node23</title>
<g id="a_node23"><a xlink:href="class_c_material_manager.html" target="_top" xlink:title=" ">
<polygon fill="white" stroke="#bfbfbf" points="1291,-861 1196,-861 1196,-842 1291,-842 1291,-861"/>
<text text-anchor="middle" x="1243.5" y="-849" font-family="Helvetica,sans-Serif" font-size="10.00">CMaterialManager</text>
</a>
</g>
</g>
<!-- Node3&#45;&gt;Node23 -->
<g id="edge37" class="edge">
<title>Node3&#45;&gt;Node23</title>
<path fill="none" stroke="#9a32cd" stroke-dasharray="5,2" d="M595.89,-683.65C603.04,-732.42 623.22,-850.36 654,-873.5 738.68,-937.17 1071.96,-883.33 1195.82,-860.52"/>
<polygon fill="#9a32cd" stroke="#9a32cd" points="599.37,-683.26 594.5,-673.85 592.44,-684.24 599.37,-683.26"/>
<text text-anchor="middle" x="931.5" y="-903.5" font-family="Helvetica,sans-Serif" font-size="10.00"> GLContext</text>
</g>
<!-- Node25 -->
<g id="node25" class="node">
<title>Node25</title>
<g id="a_node25"><a xlink:href="class_c_material.html" target="_top" xlink:title=" ">
<polygon fill="white" stroke="#bfbfbf" points="853,-825 795,-825 795,-806 853,-806 853,-825"/>
<text text-anchor="middle" x="824" y="-813" font-family="Helvetica,sans-Serif" font-size="10.00">CMaterial</text>
</a>
</g>
</g>
<!-- Node3&#45;&gt;Node25 -->
<g id="edge40" class="edge">
<title>Node3&#45;&gt;Node25</title>
<path fill="none" stroke="#9a32cd" stroke-dasharray="5,2" d="M601.59,-682.71C611.36,-703.27 629.21,-734.57 654,-752.5 692.19,-780.12 714.32,-759.49 756,-781.5 765.21,-786.36 765.03,-791.21 774,-796.5 780.37,-800.25 787.61,-803.53 794.54,-806.26"/>
<polygon fill="#9a32cd" stroke="#9a32cd" points="604.82,-681.35 597.52,-673.67 598.44,-684.23 604.82,-681.35"/>
<text text-anchor="middle" x="705" y="-784.5" font-family="Helvetica,sans-Serif" font-size="10.00"> GLContext</text>
</g>
<!-- Node28 -->
<g id="node28" class="node">
<title>Node28</title>
<g id="a_node28"><a xlink:href="class_c_tex_manager.html" target="_top" xlink:title=" ">
<polygon fill="white" stroke="#bfbfbf" points="862.5,-357 785.5,-357 785.5,-338 862.5,-338 862.5,-357"/>
<text text-anchor="middle" x="824" y="-345" font-family="Helvetica,sans-Serif" font-size="10.00">CTexManager</text>
</a>
</g>
</g>
<!-- Node3&#45;&gt;Node28 -->
<g id="edge47" class="edge">
<title>Node3&#45;&gt;Node28</title>
<path fill="none" stroke="#9a32cd" stroke-dasharray="5,2" d="M595.13,-641.48C601.14,-586.32 620.07,-439.4 654,-406.5 687.23,-374.28 712.67,-401.78 756,-385.5 775.28,-378.26 795.61,-365.98 808.75,-357.34"/>
<polygon fill="#9a32cd" stroke="#9a32cd" points="591.68,-640.79 594.11,-651.1 598.64,-641.52 591.68,-640.79"/>
<text text-anchor="middle" x="705" y="-409.5" font-family="Helvetica,sans-Serif" font-size="10.00"> GLContext</text>
</g>
<!-- Node34 -->
<g id="node34" class="node">
<title>Node34</title>
<g id="a_node34"><a xlink:href="class_c_draw_context.html" target="_top" xlink:title=" ">
<polygon fill="white" stroke="#bfbfbf" points="863.5,-703 784.5,-703 784.5,-684 863.5,-684 863.5,-703"/>
<text text-anchor="middle" x="824" y="-691" font-family="Helvetica,sans-Serif" font-size="10.00">CDrawContext</text>
</a>
</g>
</g>
<!-- Node3&#45;&gt;Node34 -->
<g id="edge54" class="edge">
<title>Node3&#45;&gt;Node34</title>
<path fill="none" stroke="#9a32cd" stroke-dasharray="5,2" d="M638.49,-666.52C671.25,-669.66 716.47,-674.49 756,-680.5 765.14,-681.89 774.93,-683.64 784.12,-685.4"/>
<polygon fill="#9a32cd" stroke="#9a32cd" points="639.24,-663.07 628.96,-665.62 638.58,-670.04 639.24,-663.07"/>
<text text-anchor="middle" x="705" y="-683.5" font-family="Helvetica,sans-Serif" font-size="10.00"> GLContext</text>
</g>
<!-- Node37 -->
<g id="node37" class="node">
<title>Node37</title>
<g id="a_node37"><a xlink:href="class_c_display_context.html" target="_top" xlink:title=" ">
<polygon fill="white" stroke="#bfbfbf" points="868,-862 780,-862 780,-843 868,-843 868,-862"/>
<text text-anchor="middle" x="824" y="-850" font-family="Helvetica,sans-Serif" font-size="10.00">CDisplayContext</text>
</a>
</g>
</g>
<!-- Node3&#45;&gt;Node37 -->
<g id="edge60" class="edge">
<title>Node3&#45;&gt;Node37</title>
<path fill="none" stroke="#9a32cd" stroke-dasharray="5,2" d="M594.02,-683.46C597,-719.52 608.62,-792.96 654,-829.5 689.17,-857.82 742.41,-860.56 779.71,-858.15"/>
<polygon fill="#9a32cd" stroke="#9a32cd" points="597.54,-683.64 593.39,-673.89 590.56,-684.1 597.54,-683.64"/>
<text text-anchor="middle" x="705" y="-861.5" font-family="Helvetica,sans-Serif" font-size="10.00"> GLContext</text>
</g>
<!-- Node4 -->
<g id="node4" class="node">
<title>Node4</title>
<g id="a_node4"><a xlink:href="class_c_imm_matrix_stack.html" target="_top" xlink:title=" ">
<polygon fill="white" stroke="#bfbfbf" points="1091.5,-592 996.5,-592 996.5,-573 1091.5,-573 1091.5,-592"/>
<text text-anchor="middle" x="1044" y="-580" font-family="Helvetica,sans-Serif" font-size="10.00">CImmMatrixStack</text>
</a>
</g>
</g>
<!-- Node4&#45;&gt;Node3 -->
<g id="edge3" class="edge">
<title>Node4&#45;&gt;Node3</title>
<path fill="none" stroke="#9a32cd" stroke-dasharray="5,2" d="M984.86,-592.84C889.74,-609.75 703.76,-642.81 627.19,-656.42"/>
<polygon fill="#9a32cd" stroke="#9a32cd" points="985.28,-596.32 994.51,-591.12 984.05,-589.42 985.28,-596.32"/>
<text text-anchor="middle" x="824" y="-643.5" font-family="Helvetica,sans-Serif" font-size="10.00"> ModelViewMatStack</text>
<text text-anchor="middle" x="824" y="-632.5" font-family="Helvetica,sans-Serif" font-size="10.00">ProjectionMatStack</text>
</g>
<!-- Node5&#45;&gt;Node3 -->
<g id="edge8" class="edge">
<title>Node5&#45;&gt;Node3</title>
<path fill="none" stroke="#9a32cd" stroke-dasharray="5,2" d="M775.11,-559.59C727,-568.84 659.22,-582.28 654,-585.5 626.71,-602.33 606.6,-635.97 597.85,-652.65"/>
<polygon fill="#9a32cd" stroke="#9a32cd" points="775.62,-563.05 784.78,-557.73 774.3,-556.18 775.62,-563.05"/>
<text text-anchor="middle" x="705" y="-599.5" font-family="Helvetica,sans-Serif" font-size="10.00"> CurMatrixStack</text>
<text text-anchor="middle" x="705" y="-588.5" font-family="Helvetica,sans-Serif" font-size="10.00">SavedCurMatStack</text>
</g>
<!-- Node5&#45;&gt;Node4 -->
<g id="edge4" class="edge">
<title>Node5&#45;&gt;Node4</title>
<path fill="none" stroke="#63b8ff" d="M872.9,-557.53C909.6,-562.92 959.94,-570.31 996.33,-575.65"/>
<polygon fill="#63b8ff" stroke="#63b8ff" points="873.88,-554.14 863.48,-556.15 872.86,-561.06 873.88,-554.14"/>
</g>
<!-- Node6 -->
<g id="node6" class="node">
<title>Node6</title>
<g id="a_node6"><a xlink:href="class_c_d_list_matrix_stack.html" target="_top" xlink:title=" ">
<polygon fill="white" stroke="#bfbfbf" points="1093,-535 995,-535 995,-516 1093,-516 1093,-535"/>
<text text-anchor="middle" x="1044" y="-523" font-family="Helvetica,sans-Serif" font-size="10.00">CDListMatrixStack</text>
</a>
</g>
</g>
<!-- Node5&#45;&gt;Node6 -->
<g id="edge7" class="edge">
<title>Node5&#45;&gt;Node6</title>
<path fill="none" stroke="#63b8ff" d="M873.22,-544.97C909.36,-540.83 958.59,-535.18 994.74,-531.03"/>
<polygon fill="#63b8ff" stroke="#63b8ff" points="873.02,-541.47 863.48,-546.09 873.82,-548.42 873.02,-541.47"/>
</g>
<!-- Node6&#45;&gt;Node3 -->
<g id="edge6" class="edge">
<title>Node6&#45;&gt;Node3</title>
<path fill="none" stroke="#9a32cd" stroke-dasharray="5,2" d="M983.45,-518.52C887.8,-508.59 705.42,-495.32 654,-531.5 611.73,-561.24 597.99,-627.94 594.24,-652.86"/>
<polygon fill="#9a32cd" stroke="#9a32cd" points="982.86,-521.98 993.17,-519.55 983.6,-515.02 982.86,-521.98"/>
<text text-anchor="middle" x="824" y="-513.5" font-family="Helvetica,sans-Serif" font-size="10.00"> DListMatStack</text>
</g>
<!-- Node7&#45;&gt;Node3 -->
<g id="edge9" class="edge">
<title>Node7&#45;&gt;Node3</title>
<path fill="none" stroke="#9a32cd" stroke-dasharray="5,2" d="M415.06,-1104.25C446.99,-1024.09 563.93,-730.48 587.02,-672.49"/>
<polygon fill="#9a32cd" stroke="#9a32cd" points="411.85,-1102.86 411.4,-1113.44 418.35,-1105.45 411.85,-1102.86"/>
<text text-anchor="middle" x="498" y="-977.5" font-family="Helvetica,sans-Serif" font-size="10.00"> ImmLighting</text>
</g>
<!-- Node8&#45;&gt;Node3 -->
<g id="edge17" class="edge">
<title>Node8&#45;&gt;Node3</title>
<path fill="none" stroke="#9a32cd" stroke-dasharray="5,2" d="M783.12,-1088.92C744.21,-1086.08 686.3,-1075.38 654,-1038.5 604.11,-981.54 594.67,-725.61 593.23,-672.26"/>
<polygon fill="#9a32cd" stroke="#9a32cd" points="782.84,-1092.41 793.03,-1089.49 783.24,-1085.42 782.84,-1092.41"/>
<text text-anchor="middle" x="705" y="-1087.5" font-family="Helvetica,sans-Serif" font-size="10.00"> CurLighting</text>
</g>
<!-- Node8&#45;&gt;Node7 -->
<g id="edge10" class="edge">
<title>Node8&#45;&gt;Node7</title>
<path fill="none" stroke="#63b8ff" d="M783.63,-1096.6C774.58,-1098.05 764.97,-1099.46 756,-1100.5 643.19,-1113.61 508.97,-1120.37 444.81,-1123.07"/>
<polygon fill="#63b8ff" stroke="#63b8ff" points="783.94,-1100.09 793.23,-1095 782.79,-1093.19 783.94,-1100.09"/>
</g>
<!-- Node9 -->
<g id="node9" class="node">
<title>Node9</title>
<g id="a_node9"><a xlink:href="class_c_d_list_lighting.html" target="_top" xlink:title=" ">
<polygon fill="white" stroke="#bfbfbf" points="1284,-1009 1203,-1009 1203,-990 1284,-990 1284,-1009"/>
<text text-anchor="middle" x="1243.5" y="-997" font-family="Helvetica,sans-Serif" font-size="10.00">CDListLighting</text>
</a>
</g>
</g>
<!-- Node8&#45;&gt;Node9 -->
<g id="edge14" class="edge">
<title>Node8&#45;&gt;Node9</title>
<path fill="none" stroke="#63b8ff" d="M864,-1102.6C932.37,-1123.08 1076.26,-1154.94 1178,-1099.5 1214.1,-1079.83 1233.05,-1030.31 1239.7,-1009.24"/>
<polygon fill="#63b8ff" stroke="#63b8ff" points="865.33,-1099.35 854.75,-1099.75 863.27,-1106.04 865.33,-1099.35"/>
</g>
<!-- Node9&#45;&gt;Node3 -->
<g id="edge13" class="edge">
<title>Node9&#45;&gt;Node3</title>
<path fill="none" stroke="#9a32cd" stroke-dasharray="5,2" d="M1191.57,-994.86C1052.26,-981.97 673.95,-945.46 654,-927.5 614.71,-892.12 597.47,-715.76 593.78,-672.23"/>
<polygon fill="#9a32cd" stroke="#9a32cd" points="1190.95,-998.32 1201.23,-995.75 1191.59,-991.35 1190.95,-998.32"/>
<text text-anchor="middle" x="931.5" y="-975.5" font-family="Helvetica,sans-Serif" font-size="10.00"> DListLighting</text>
</g>
<!-- Node10&#45;&gt;Node9 -->
<g id="edge15" class="edge">
<title>Node10&#45;&gt;Node9</title>
<path fill="none" stroke="#9a32cd" stroke-dasharray="5,2" d="M1089.53,-1001.69C1098.62,-1001.22 1108.11,-1000.78 1117,-1000.5 1145.64,-999.59 1177.97,-999.35 1202.64,-999.33"/>
<polygon fill="#9a32cd" stroke="#9a32cd" points="1089.62,-998.18 1079.83,-1002.23 1090.01,-1005.17 1089.62,-998.18"/>
<text text-anchor="middle" x="1147.5" y="-1091.5" font-family="Helvetica,sans-Serif" font-size="10.00"> Light0</text>
<text text-anchor="middle" x="1147.5" y="-1080.5" font-family="Helvetica,sans-Serif" font-size="10.00">Light1</text>
<text text-anchor="middle" x="1147.5" y="-1069.5" font-family="Helvetica,sans-Serif" font-size="10.00">Light2</text>
<text text-anchor="middle" x="1147.5" y="-1058.5" font-family="Helvetica,sans-Serif" font-size="10.00">Light3</text>
<text text-anchor="middle" x="1147.5" y="-1047.5" font-family="Helvetica,sans-Serif" font-size="10.00">Light4</text>
<text text-anchor="middle" x="1147.5" y="-1036.5" font-family="Helvetica,sans-Serif" font-size="10.00">Light5</text>
<text text-anchor="middle" x="1147.5" y="-1025.5" font-family="Helvetica,sans-Serif" font-size="10.00">Light6</text>
<text text-anchor="middle" x="1147.5" y="-1014.5" font-family="Helvetica,sans-Serif" font-size="10.00">Light7</text>
<text text-anchor="middle" x="1147.5" y="-1003.5" font-family="Helvetica,sans-Serif" font-size="10.00">Lights</text>
</g>
<!-- Node11 -->
<g id="node11" class="node">
<title>Node11</title>
<g id="a_node11"><a xlink:href="class_c_imm_geom_manager.html" target="_top" xlink:title=" ">
<polygon fill="white" stroke="#bfbfbf" points="1097.5,-188 990.5,-188 990.5,-169 1097.5,-169 1097.5,-188"/>
<text text-anchor="middle" x="1044" y="-176" font-family="Helvetica,sans-Serif" font-size="10.00">CImmGeomManager</text>
</a>
</g>
</g>
<!-- Node11&#45;&gt;Node3 -->
<g id="edge18" class="edge">
<title>Node11&#45;&gt;Node3</title>
<path fill="none" stroke="#9a32cd" stroke-dasharray="5,2" d="M1023.36,-195.82C1009.48,-207.39 990.02,-222.3 971,-232.5 938.17,-250.1 916,-232.01 892,-260.5 861.5,-296.71 903.14,-328.18 874,-365.5 844.11,-403.77 807.88,-374.72 774,-409.5 759.26,-424.63 771.81,-439.49 756,-453.5 720.82,-484.68 688.18,-449.22 654,-481.5 602.89,-529.77 594.6,-622.22 593.26,-652.57"/>
<polygon fill="#9a32cd" stroke="#9a32cd" points="1025.52,-198.57 1030.86,-189.42 1020.98,-193.25 1025.52,-198.57"/>
<text text-anchor="middle" x="824" y="-412.5" font-family="Helvetica,sans-Serif" font-size="10.00"> ImmGManager</text>
</g>
<!-- Node12&#45;&gt;Node3 -->
<g id="edge35" class="edge">
<title>Node12&#45;&gt;Node3</title>
<path fill="none" stroke="#9a32cd" stroke-dasharray="5,2" d="M796.29,-200.06C787.84,-206.63 779.33,-214.92 774,-224.5 746.3,-274.33 795.04,-309.95 756,-351.5 724.31,-385.23 686.8,-339.84 654,-372.5 612.99,-413.34 596.95,-606.41 593.66,-652.57"/>
<polygon fill="#9a32cd" stroke="#9a32cd" points="798.29,-202.93 804.39,-194.27 794.22,-197.23 798.29,-202.93"/>
<text text-anchor="middle" x="705" y="-375.5" font-family="Helvetica,sans-Serif" font-size="10.00"> CurGManager</text>
</g>
<!-- Node12&#45;&gt;Node11 -->
<g id="edge19" class="edge">
<title>Node12&#45;&gt;Node11</title>
<path fill="none" stroke="#63b8ff" d="M879.23,-177.35C883.55,-177.01 887.84,-176.72 892,-176.5 924.6,-174.8 961.2,-175.23 990.21,-176.11"/>
<polygon fill="#63b8ff" stroke="#63b8ff" points="879,-173.86 869.35,-178.22 879.62,-180.83 879,-173.86"/>
</g>
<!-- Node20 -->
<g id="node20" class="node">
<title>Node20</title>
<g id="a_node20"><a xlink:href="class_c_d_list_geom_manager.html" target="_top" xlink:title=" ">
<polygon fill="white" stroke="#bfbfbf" points="1099,-302 989,-302 989,-283 1099,-283 1099,-302"/>
<text text-anchor="middle" x="1044" y="-290" font-family="Helvetica,sans-Serif" font-size="10.00">CDListGeomManager</text>
</a>
</g>
</g>
<!-- Node12&#45;&gt;Node20 -->
<g id="edge30" class="edge">
<title>Node12&#45;&gt;Node20</title>
<path fill="none" stroke="#63b8ff" d="M855.47,-198.35C885.06,-212.8 931.21,-235.47 971,-255.5 988.95,-264.54 1009.31,-275.02 1023.79,-282.52"/>
<polygon fill="#63b8ff" stroke="#63b8ff" points="857.25,-195.32 846.73,-194.08 854.18,-201.61 857.25,-195.32"/>
</g>
<!-- Node13 -->
<g id="node13" class="node">
<title>Node13</title>
<g id="a_node13"><a xlink:href="class_c_vert_array.html" target="_top" xlink:title=" ">
<polygon fill="white" stroke="#bfbfbf" points="624,-189 560,-189 560,-170 624,-170 624,-189"/>
<text text-anchor="middle" x="592" y="-177" font-family="Helvetica,sans-Serif" font-size="10.00">CVertArray</text>
</a>
</g>
</g>
<!-- Node13&#45;&gt;Node12 -->
<g id="edge21" class="edge">
<title>Node13&#45;&gt;Node12</title>
<path fill="none" stroke="#9a32cd" stroke-dasharray="5,2" d="M635.71,-179.31C668.6,-179.28 715.18,-179.46 756,-180.5 763.8,-180.7 772.1,-181 780.12,-181.33"/>
<polygon fill="#9a32cd" stroke="#9a32cd" points="635.76,-175.81 625.77,-179.33 635.77,-182.81 635.76,-175.81"/>
<text text-anchor="middle" x="705" y="-183.5" font-family="Helvetica,sans-Serif" font-size="10.00"> VertArray</text>
</g>
<!-- Node14 -->
<g id="node14" class="node">
<title>Node14</title>
<g id="a_node14"><a xlink:href="structt_user_prim_entry.html" target="_top" xlink:title=" ">
<polygon fill="white" stroke="#bfbfbf" points="633.5,-152 550.5,-152 550.5,-133 633.5,-133 633.5,-152"/>
<text text-anchor="middle" x="592" y="-140" font-family="Helvetica,sans-Serif" font-size="10.00">tUserPrimEntry</text>
</a>
</g>
</g>
<!-- Node14&#45;&gt;Node12 -->
<g id="edge22" class="edge">
<title>Node14&#45;&gt;Node12</title>
<path fill="none" stroke="#9a32cd" stroke-dasharray="5,2" d="M645.17,-147.63C677.32,-151.26 719.28,-156.85 756,-164.5 767.72,-166.94 780.39,-170.33 791.53,-173.58"/>
<polygon fill="#9a32cd" stroke="#9a32cd" points="645.63,-144.16 635.3,-146.55 644.86,-151.12 645.63,-144.16"/>
<text text-anchor="middle" x="705" y="-167.5" font-family="Helvetica,sans-Serif" font-size="10.00"> UserPrimTypes</text>
</g>
<!-- Node15&#45;&gt;Node11 -->
<g id="edge23" class="edge">
<title>Node15&#45;&gt;Node11</title>
<path fill="none" stroke="#9a32cd" stroke-dasharray="5,2" d="M857.06,-93.21C902.09,-113.86 982.85,-150.91 1021.39,-168.59"/>
<polygon fill="#9a32cd" stroke="#9a32cd" points="858.62,-90.07 848.08,-89.09 855.71,-96.44 858.62,-90.07"/>
<text text-anchor="middle" x="931.5" y="-146.5" font-family="Helvetica,sans-Serif" font-size="10.00"> RendererManager</text>
</g>
<!-- Node16 -->
<g id="node16" class="node">
<title>Node16</title>
<g id="a_node16"><a xlink:href="class_c_renderer_props.html" target="_top" xlink:title=" ">
<polygon fill="white" stroke="#bfbfbf" points="636,-19 548,-19 548,0 636,0 636,-19"/>
<text text-anchor="middle" x="592" y="-7" font-family="Helvetica,sans-Serif" font-size="10.00">CRendererProps</text>
</a>
</g>
</g>
<!-- Node16&#45;&gt;Node15 -->
<g id="edge25" class="edge">
<title>Node16&#45;&gt;Node15</title>
<path fill="none" stroke="#9a32cd" stroke-dasharray="5,2" d="M647.62,-6.22C680.2,-6.18 721.76,-9.56 756,-23.5 780.53,-33.48 803,-55.74 814.65,-68.67"/>
<polygon fill="#9a32cd" stroke="#9a32cd" points="647.96,-2.72 638.01,-6.35 648.05,-9.72 647.96,-2.72"/>
<text text-anchor="middle" x="705" y="-26.5" font-family="Helvetica,sans-Serif" font-size="10.00"> RendererRequirements</text>
</g>
<!-- Node17 -->
<g id="node17" class="node">
<title>Node17</title>
<g id="a_node17"><a xlink:href="structt_renderer.html" target="_top" xlink:title=" ">
<polygon fill="white" stroke="#bfbfbf" points="621.5,-56 562.5,-56 562.5,-37 621.5,-37 621.5,-56"/>
<text text-anchor="middle" x="592" y="-44" font-family="Helvetica,sans-Serif" font-size="10.00">tRenderer</text>
</a>
</g>
</g>
<!-- Node17&#45;&gt;Node15 -->
<g id="edge26" class="edge">
<title>Node17&#45;&gt;Node15</title>
<path fill="none" stroke="#9a32cd" stroke-dasharray="5,2" d="M632.84,-41.13C666.2,-37.85 714.83,-35.91 756,-45.5 775.07,-49.94 794.95,-60.62 808.06,-68.64"/>
<polygon fill="#9a32cd" stroke="#9a32cd" points="632.79,-37.62 623.22,-42.17 633.54,-44.58 632.79,-37.62"/>
<text text-anchor="middle" x="705" y="-81.5" font-family="Helvetica,sans-Serif" font-size="10.00"> CurrentRenderer</text>
<text text-anchor="middle" x="705" y="-70.5" font-family="Helvetica,sans-Serif" font-size="10.00">DefaultRenderers</text>
<text text-anchor="middle" x="705" y="-59.5" font-family="Helvetica,sans-Serif" font-size="10.00">NewRenderer</text>
<text text-anchor="middle" x="705" y="-48.5" font-family="Helvetica,sans-Serif" font-size="10.00">UserRenderers</text>
</g>
<!-- Node18 -->
<g id="node18" class="node">
<title>Node18</title>
<g id="a_node18"><a xlink:href="class_c_renderer.html" target="_top" xlink:title=" ">
<polygon fill="white" stroke="#666666" points="437,-56 375,-56 375,-37 437,-37 437,-56"/>
<text text-anchor="middle" x="406" y="-44" font-family="Helvetica,sans-Serif" font-size="10.00">CRenderer</text>
</a>
</g>
</g>
<!-- Node18&#45;&gt;Node17 -->
<g id="edge27" class="edge">
<title>Node18&#45;&gt;Node17</title>
<path fill="none" stroke="#9a32cd" stroke-dasharray="5,2" d="M448.55,-46.5C483.16,-46.5 531.56,-46.5 562.09,-46.5"/>
<polygon fill="#9a32cd" stroke="#9a32cd" points="448.9,-43 438.9,-46.5 448.9,-50 448.9,-43"/>
<text text-anchor="middle" x="498" y="-49.5" font-family="Helvetica,sans-Serif" font-size="10.00"> renderer</text>
</g>
<!-- Node19 -->
<g id="node19" class="node">
<title>Node19</title>
<g id="a_node19"><a xlink:href="class_c_geometry_block.html" target="_top" xlink:title=" ">
<polygon fill="white" stroke="#bfbfbf" points="869,-253 779,-253 779,-234 869,-234 869,-253"/>
<text text-anchor="middle" x="824" y="-241" font-family="Helvetica,sans-Serif" font-size="10.00">CGeometryBlock</text>
</a>
</g>
</g>
<!-- Node19&#45;&gt;Node11 -->
<g id="edge28" class="edge">
<title>Node19&#45;&gt;Node11</title>
<path fill="none" stroke="#9a32cd" stroke-dasharray="5,2" d="M865.12,-230.04C873.95,-227.15 883.28,-224.17 892,-221.5 930.96,-209.56 975.91,-196.9 1006.57,-188.44"/>
<polygon fill="#9a32cd" stroke="#9a32cd" points="864.11,-226.68 855.71,-233.13 866.3,-233.33 864.11,-226.68"/>
<text text-anchor="middle" x="931.5" y="-224.5" font-family="Helvetica,sans-Serif" font-size="10.00"> Geometry</text>
</g>
<!-- Node19&#45;&gt;Node20 -->
<g id="edge34" class="edge">
<title>Node19&#45;&gt;Node20</title>
<path fill="none" stroke="#9a32cd" stroke-dasharray="5,2" d="M880.39,-255.95C917.06,-264.19 964.52,-274.86 998.68,-282.54"/>
<polygon fill="#9a32cd" stroke="#9a32cd" points="881.38,-252.59 870.86,-253.81 879.84,-259.41 881.38,-252.59"/>
<text text-anchor="middle" x="931.5" y="-278.5" font-family="Helvetica,sans-Serif" font-size="10.00"> Geometry</text>
</g>
<!-- Node20&#45;&gt;Node3 -->
<g id="edge29" class="edge">
<title>Node20&#45;&gt;Node3</title>
<path fill="none" stroke="#9a32cd" stroke-dasharray="5,2" d="M1023.84,-309.92C993.6,-336.83 932.24,-389.1 874,-424.5 824.71,-454.46 810.21,-458.8 756,-478.5 711.82,-494.56 688.94,-475.05 654,-506.5 608.83,-547.17 596.76,-625.41 593.85,-652.77"/>
<polygon fill="#9a32cd" stroke="#9a32cd" points="1025.96,-312.72 1031.07,-303.44 1021.29,-307.51 1025.96,-312.72"/>
<text text-anchor="middle" x="824" y="-475.5" font-family="Helvetica,sans-Serif" font-size="10.00"> DListGManager</text>
</g>
<!-- Node21 -->
<g id="node21" class="node">
<title>Node21</title>
<g id="a_node21"><a xlink:href="class_c_d_list.html" target="_top" xlink:title=" ">
<polygon fill="white" stroke="#bfbfbf" points="249,-251 202,-251 202,-232 249,-232 249,-251"/>
<text text-anchor="middle" x="225.5" y="-239" font-family="Helvetica,sans-Serif" font-size="10.00">CDList</text>
</a>
</g>
</g>
<!-- Node21&#45;&gt;Node20 -->
<g id="edge31" class="edge">
<title>Node21&#45;&gt;Node20</title>
<path fill="none" stroke="#9a32cd" stroke-dasharray="5,2" d="M260.58,-237.8C371.11,-226.12 714.82,-192.35 756,-219.5 772.95,-230.68 758.51,-248.36 774,-261.5 815.19,-296.43 838.43,-283.65 892,-290.5 923.86,-294.57 959.8,-295.2 988.63,-294.76"/>
<polygon fill="#9a32cd" stroke="#9a32cd" points="260.54,-234.29 250.96,-238.83 261.28,-241.25 260.54,-234.29"/>
<text text-anchor="middle" x="592" y="-216.5" font-family="Helvetica,sans-Serif" font-size="10.00"> CurDList</text>
</g>
<!-- Node27 -->
<g id="node27" class="node">
<title>Node27</title>
<g id="a_node27"><a xlink:href="class_c_d_list_manager.html" target="_top" xlink:title=" ">
<polygon fill="white" stroke="#bfbfbf" points="448,-519 364,-519 364,-500 448,-500 448,-519"/>
<text text-anchor="middle" x="406" y="-507" font-family="Helvetica,sans-Serif" font-size="10.00">CDListManager</text>
</a>
</g>
</g>
<!-- Node21&#45;&gt;Node27 -->
<g id="edge45" class="edge">
<title>Node21&#45;&gt;Node27</title>
<path fill="none" stroke="#9a32cd" stroke-dasharray="5,2" d="M239.45,-260.94C274.8,-314.01 372.08,-460.08 398.38,-499.55"/>
<polygon fill="#9a32cd" stroke="#9a32cd" points="242.36,-259 233.9,-252.62 236.53,-262.88 242.36,-259"/>
<text text-anchor="middle" x="311" y="-440.5" font-family="Helvetica,sans-Serif" font-size="10.00"> Lists</text>
<text text-anchor="middle" x="311" y="-429.5" font-family="Helvetica,sans-Serif" font-size="10.00">ListsToBeFreed</text>
<text text-anchor="middle" x="311" y="-418.5" font-family="Helvetica,sans-Serif" font-size="10.00">OpenList</text>
</g>
<!-- Node22 -->
<g id="node22" class="node">
<title>Node22</title>
<g id="a_node22"><a xlink:href="class_c_d_list_cmd_block.html" target="_top" xlink:title=" ">
<polygon fill="white" stroke="#bfbfbf" points="92,-251 0,-251 0,-232 92,-232 92,-251"/>
<text text-anchor="middle" x="46" y="-239" font-family="Helvetica,sans-Serif" font-size="10.00">CDListCmdBlock</text>
</a>
</g>
</g>
<!-- Node22&#45;&gt;Node21 -->
<g id="edge32" class="edge">
<title>Node22&#45;&gt;Node21</title>
<path fill="none" stroke="#9a32cd" stroke-dasharray="5,2" d="M103.66,-241.5C136.84,-241.5 176.94,-241.5 201.58,-241.5"/>
<polygon fill="#9a32cd" stroke="#9a32cd" points="103.76,-238 93.76,-241.5 103.76,-245 103.76,-238"/>
<text text-anchor="middle" x="142.5" y="-255.5" font-family="Helvetica,sans-Serif" font-size="10.00"> CurCmdBlock</text>
<text text-anchor="middle" x="142.5" y="-244.5" font-family="Helvetica,sans-Serif" font-size="10.00">FirstCmdBlock</text>
</g>
<!-- Node22&#45;&gt;Node22 -->
<g id="edge33" class="edge">
<title>Node22&#45;&gt;Node22</title>
<path fill="none" stroke="#9a32cd" stroke-dasharray="5,2" d="M28.87,-262.43C31.01,-266.29 36.72,-269 46,-269 62.96,-269 68,-259.94 61.11,-251.37"/>
<polygon fill="#9a32cd" stroke="#9a32cd" points="32.27,-263.32 30.62,-252.86 25.38,-262.07 32.27,-263.32"/>
<text text-anchor="middle" x="46" y="-272" font-family="Helvetica,sans-Serif" font-size="10.00"> NextBlock</text>
</g>
<!-- Node23&#45;&gt;Node3 -->
<g id="edge36" class="edge">
<title>Node23&#45;&gt;Node3</title>
<path fill="none" stroke="#9a32cd" stroke-dasharray="5,2" d="M1226.94,-869.61C1214.99,-882.05 1197.31,-897.53 1178,-904.5 1123.23,-924.26 699.85,-940.38 654,-904.5 616.04,-874.79 597.99,-713.92 593.91,-672.32"/>
<polygon fill="#9a32cd" stroke="#9a32cd" points="1229.39,-872.12 1233.55,-862.37 1224.22,-867.4 1229.39,-872.12"/>
<text text-anchor="middle" x="931.5" y="-928.5" font-family="Helvetica,sans-Serif" font-size="10.00"> MaterialManager</text>
</g>
<!-- Node24 -->
<g id="node24" class="node">
<title>Node24</title>
<g id="a_node24"><a xlink:href="class_c_imm_material.html" target="_top" xlink:title=" ">
<polygon fill="white" stroke="#bfbfbf" points="1082.5,-815 1005.5,-815 1005.5,-796 1082.5,-796 1082.5,-815"/>
<text text-anchor="middle" x="1044" y="-803" font-family="Helvetica,sans-Serif" font-size="10.00">CImmMaterial</text>
</a>
</g>
</g>
<!-- Node24&#45;&gt;Node23 -->
<g id="edge38" class="edge">
<title>Node24&#45;&gt;Node23</title>
<path fill="none" stroke="#9a32cd" stroke-dasharray="5,2" d="M1094.18,-810.72C1119.5,-814.05 1150.69,-819.14 1178,-826.5 1192.38,-830.37 1207.96,-836.36 1220.21,-841.5"/>
<polygon fill="#9a32cd" stroke="#9a32cd" points="1094.86,-807.28 1084.5,-809.51 1093.99,-814.23 1094.86,-807.28"/>
<text text-anchor="middle" x="1147.5" y="-829.5" font-family="Helvetica,sans-Serif" font-size="10.00"> ImmMaterial</text>
</g>
<!-- Node25&#45;&gt;Node23 -->
<g id="edge43" class="edge">
<title>Node25&#45;&gt;Node23</title>
<path fill="none" stroke="#9a32cd" stroke-dasharray="5,2" d="M864.39,-821.88C873.44,-823.2 883.04,-824.5 892,-825.5 1000.4,-837.59 1128.3,-845.47 1195.63,-849.13"/>
<polygon fill="#9a32cd" stroke="#9a32cd" points="865.21,-818.46 854.8,-820.43 864.16,-825.38 865.21,-818.46"/>
<text text-anchor="middle" x="1044" y="-845.5" font-family="Helvetica,sans-Serif" font-size="10.00"> CurMaterial</text>
</g>
<!-- Node25&#45;&gt;Node24 -->
<g id="edge39" class="edge">
<title>Node25&#45;&gt;Node24</title>
<path fill="none" stroke="#63b8ff" d="M864.7,-814.02C894.07,-812.89 935.03,-811.24 971,-809.5 982.13,-808.96 994.22,-808.31 1005.26,-807.7"/>
<polygon fill="#63b8ff" stroke="#63b8ff" points="864.64,-810.52 854.78,-814.4 864.91,-817.52 864.64,-810.52"/>
</g>
<!-- Node26 -->
<g id="node26" class="node">
<title>Node26</title>
<g id="a_node26"><a xlink:href="class_c_d_list_material.html" target="_top" xlink:title=" ">
<polygon fill="white" stroke="#bfbfbf" points="1084.5,-778 1003.5,-778 1003.5,-759 1084.5,-759 1084.5,-778"/>
<text text-anchor="middle" x="1044" y="-766" font-family="Helvetica,sans-Serif" font-size="10.00">CDListMaterial</text>
</a>
</g>
</g>
<!-- Node25&#45;&gt;Node26 -->
<g id="edge42" class="edge">
<title>Node25&#45;&gt;Node26</title>
<path fill="none" stroke="#63b8ff" d="M864.32,-807.26C893.72,-801.07 934.9,-792.34 971,-784.5 981.39,-782.24 992.61,-779.77 1003.03,-777.45"/>
<polygon fill="#63b8ff" stroke="#63b8ff" points="863.83,-803.78 854.76,-809.27 865.27,-810.63 863.83,-803.78"/>
</g>
<!-- Node26&#45;&gt;Node23 -->
<g id="edge41" class="edge">
<title>Node26&#45;&gt;Node23</title>
<path fill="none" stroke="#9a32cd" stroke-dasharray="5,2" d="M1096.28,-774.93C1121.77,-779.48 1152.5,-787.06 1178,-799.5 1200.24,-810.34 1221.71,-830.09 1233.41,-841.88"/>
<polygon fill="#9a32cd" stroke="#9a32cd" points="1096.91,-771.49 1086.47,-773.29 1095.76,-778.39 1096.91,-771.49"/>
<text text-anchor="middle" x="1147.5" y="-802.5" font-family="Helvetica,sans-Serif" font-size="10.00"> DListMaterial</text>
</g>
<!-- Node27&#45;&gt;Node3 -->
<g id="edge44" class="edge">
<title>Node27&#45;&gt;Node3</title>
<path fill="none" stroke="#9a32cd" stroke-dasharray="5,2" d="M427.61,-526.64C466.23,-558.75 548.35,-627.03 579.07,-652.58"/>
<polygon fill="#9a32cd" stroke="#9a32cd" points="429.88,-523.97 419.95,-520.27 425.41,-529.36 429.88,-523.97"/>
<text text-anchor="middle" x="498" y="-612.5" font-family="Helvetica,sans-Serif" font-size="10.00"> DListManager</text>
</g>
<!-- Node28&#45;&gt;Node3 -->
<g id="edge46" class="edge">
<title>Node28&#45;&gt;Node3</title>
<path fill="none" stroke="#9a32cd" stroke-dasharray="5,2" d="M798.89,-364.26C790.4,-370.88 781.19,-378.95 774,-387.5 763.5,-399.99 769.09,-409.75 756,-419.5 718.73,-447.26 687.65,-410.45 654,-442.5 591.72,-501.82 591.19,-618.65 592.48,-652.87"/>
<polygon fill="#9a32cd" stroke="#9a32cd" points="800.89,-367.14 806.82,-358.35 796.71,-361.52 800.89,-367.14"/>
<text text-anchor="middle" x="705" y="-445.5" font-family="Helvetica,sans-Serif" font-size="10.00"> TexManager</text>
</g>
<!-- Node29 -->
<g id="node29" class="node">
<title>Node29</title>
<g id="a_node29"><a xlink:href="class_c_m_m_texture.html" target="_top" xlink:title=" ">
<polygon fill="white" stroke="#bfbfbf" points="628,-282 556,-282 556,-263 628,-263 628,-282"/>
<text text-anchor="middle" x="592" y="-270" font-family="Helvetica,sans-Serif" font-size="10.00">CMMTexture</text>
</a>
</g>
</g>
<!-- Node29&#45;&gt;Node28 -->
<g id="edge48" class="edge">
<title>Node29&#45;&gt;Node28</title>
<path fill="none" stroke="#9a32cd" stroke-dasharray="5,2" d="M639.83,-269.93C673.6,-269.87 719.48,-273.6 756,-290.5 765.99,-295.12 765.73,-300.24 774,-307.5 786.05,-318.08 800.29,-329.6 810.31,-337.55"/>
<polygon fill="#9a32cd" stroke="#9a32cd" points="639.89,-266.43 629.94,-270.07 639.99,-273.43 639.89,-266.43"/>
<text text-anchor="middle" x="705" y="-326.5" font-family="Helvetica,sans-Serif" font-size="10.00"> CurTexture</text>
<text text-anchor="middle" x="705" y="-315.5" font-family="Helvetica,sans-Serif" font-size="10.00">DefaultTex</text>
<text text-anchor="middle" x="705" y="-304.5" font-family="Helvetica,sans-Serif" font-size="10.00">LastTexSent</text>
<text text-anchor="middle" x="705" y="-293.5" font-family="Helvetica,sans-Serif" font-size="10.00">TexNames</text>
</g>
<!-- Node30 -->
<g id="node30" class="node">
<title>Node30</title>
<g id="a_node30"><a xlink:title=" ">
<polygon fill="white" stroke="#bfbfbf" points="443,-282 369,-282 369,-263 443,-263 443,-282"/>
<text text-anchor="middle" x="406" y="-270" font-family="Helvetica,sans-Serif" font-size="10.00">GS::CTexture</text>
</a>
</g>
</g>
<!-- Node30&#45;&gt;Node29 -->
<g id="edge49" class="edge">
<title>Node30&#45;&gt;Node29</title>
<path fill="none" stroke="#63b8ff" d="M454.54,-272.5C486.13,-272.5 526.93,-272.5 555.66,-272.5"/>
<polygon fill="#63b8ff" stroke="#63b8ff" points="454.87,-269 444.87,-272.5 454.87,-276 454.87,-269"/>
</g>
<!-- Node31 -->
<g id="node31" class="node">
<title>Node31</title>
<g id="a_node31"><a xlink:href="class_c_m_m_clut.html" target="_top" xlink:title=" ">
<polygon fill="white" stroke="#666666" points="620.5,-349 563.5,-349 563.5,-330 620.5,-330 620.5,-349"/>
<text text-anchor="middle" x="592" y="-337" font-family="Helvetica,sans-Serif" font-size="10.00">CMMClut</text>
</a>
</g>
</g>
<!-- Node31&#45;&gt;Node28 -->
<g id="edge50" class="edge">
<title>Node31&#45;&gt;Node28</title>
<path fill="none" stroke="#9a32cd" stroke-dasharray="5,2" d="M632.14,-338.67C665.18,-338.22 713.72,-338.17 756,-340.5 765.46,-341.02 775.64,-341.91 785.14,-342.89"/>
<polygon fill="#9a32cd" stroke="#9a32cd" points="632.17,-335.17 622.23,-338.82 632.28,-342.16 632.17,-335.17"/>
<text text-anchor="middle" x="705" y="-343.5" font-family="Helvetica,sans-Serif" font-size="10.00"> CurClut</text>
</g>
<!-- Node32 -->
<g id="node32" class="node">
<title>Node32</title>
<g id="a_node32"><a xlink:title=" ">
<polygon fill="white" stroke="#bfbfbf" points="435.5,-349 376.5,-349 376.5,-330 435.5,-330 435.5,-349"/>
<text text-anchor="middle" x="406" y="-337" font-family="Helvetica,sans-Serif" font-size="10.00">GS::CClut</text>
</a>
</g>
</g>
<!-- Node32&#45;&gt;Node31 -->
<g id="edge51" class="edge">
<title>Node32&#45;&gt;Node31</title>
<path fill="none" stroke="#63b8ff" d="M447.02,-339.5C482.08,-339.5 532.14,-339.5 563.05,-339.5"/>
<polygon fill="#63b8ff" stroke="#63b8ff" points="447.26,-336 437.26,-339.5 447.26,-343 447.26,-336"/>
</g>
<!-- Node33 -->
<g id="node33" class="node">
<title>Node33</title>
<g id="a_node33"><a xlink:href="class_c_imm_draw_context.html" target="_top" xlink:title=" ">
<polygon fill="white" stroke="#bfbfbf" points="1093,-741 995,-741 995,-722 1093,-722 1093,-741"/>
<text text-anchor="middle" x="1044" y="-729" font-family="Helvetica,sans-Serif" font-size="10.00">CImmDrawContext</text>
</a>
</g>
</g>
<!-- Node33&#45;&gt;Node3 -->
<g id="edge52" class="edge">
<title>Node33&#45;&gt;Node3</title>
<path fill="none" stroke="#9a32cd" stroke-dasharray="5,2" d="M983.29,-733.82C889.43,-736.68 712.1,-738.62 654,-715.5 631.06,-706.37 610.83,-684.74 600.43,-672.12"/>
<polygon fill="#9a32cd" stroke="#9a32cd" points="983.18,-737.33 993.07,-733.51 982.96,-730.33 983.18,-737.33"/>
<text text-anchor="middle" x="824" y="-738.5" font-family="Helvetica,sans-Serif" font-size="10.00"> ImmDrawContext</text>
</g>
<!-- Node34&#45;&gt;Node3 -->
<g id="edge58" class="edge">
<title>Node34&#45;&gt;Node3</title>
<path fill="none" stroke="#9a32cd" stroke-dasharray="5,2" d="M773.13,-698.47C739.11,-700.51 693.29,-700.61 654,-691.5 637.78,-687.74 620.78,-679.23 608.87,-672.39"/>
<polygon fill="#9a32cd" stroke="#9a32cd" points="772.93,-701.99 782.67,-697.82 772.45,-695.01 772.93,-701.99"/>
<text text-anchor="middle" x="705" y="-703.5" font-family="Helvetica,sans-Serif" font-size="10.00"> CurDrawContext</text>
</g>
<!-- Node34&#45;&gt;Node33 -->
<g id="edge53" class="edge">
<title>Node34&#45;&gt;Node33</title>
<path fill="none" stroke="#63b8ff" d="M875.19,-702.25C911.17,-708.52 959.34,-716.92 994.84,-723.11"/>
<polygon fill="#63b8ff" stroke="#63b8ff" points="875.92,-698.82 865.47,-700.55 874.72,-705.72 875.92,-698.82"/>
</g>
<!-- Node36 -->
<g id="node36" class="node">
<title>Node36</title>
<g id="a_node36"><a xlink:href="class_c_d_list_draw_context.html" target="_top" xlink:title=" ">
<polygon fill="white" stroke="#bfbfbf" points="1095,-678 993,-678 993,-659 1095,-659 1095,-678"/>
<text text-anchor="middle" x="1044" y="-666" font-family="Helvetica,sans-Serif" font-size="10.00">CDListDrawContext</text>
</a>
</g>
</g>
<!-- Node34&#45;&gt;Node36 -->
<g id="edge57" class="edge">
<title>Node34&#45;&gt;Node36</title>
<path fill="none" stroke="#63b8ff" d="M875,-687.77C910.33,-683.71 957.49,-678.31 992.85,-674.25"/>
<polygon fill="#63b8ff" stroke="#63b8ff" points="875.01,-684.24 865.48,-688.86 875.81,-691.2 875.01,-684.24"/>
</g>
<!-- Node35 -->
<g id="node35" class="node">
<title>Node35</title>
<g id="a_node35"><a xlink:href="class_c_clear_env.html" target="_top" xlink:title=" ">
<polygon fill="white" stroke="#bfbfbf" points="855,-788 793,-788 793,-769 855,-769 855,-788"/>
<text text-anchor="middle" x="824" y="-776" font-family="Helvetica,sans-Serif" font-size="10.00">CClearEnv</text>
</a>
</g>
</g>
<!-- Node35&#45;&gt;Node33 -->
<g id="edge55" class="edge">
<title>Node35&#45;&gt;Node33</title>
<path fill="none" stroke="#9a32cd" stroke-dasharray="5,2" d="M866.39,-771.34C895.7,-766.08 935.9,-758.49 971,-750.5 982.85,-747.8 995.7,-744.53 1007.23,-741.46"/>
<polygon fill="#9a32cd" stroke="#9a32cd" points="866.05,-767.85 856.82,-773.04 867.27,-774.74 866.05,-767.85"/>
<text text-anchor="middle" x="931.5" y="-769.5" font-family="Helvetica,sans-Serif" font-size="10.00"> ClearEnv</text>
</g>
<!-- Node36&#45;&gt;Node3 -->
<g id="edge56" class="edge">
<title>Node36&#45;&gt;Node3</title>
<path fill="none" stroke="#9a32cd" stroke-dasharray="5,2" d="M981.3,-666.29C949.29,-665.24 909.55,-664.09 874,-663.5 784.98,-662.02 680.07,-662.14 627.17,-662.34"/>
<polygon fill="#9a32cd" stroke="#9a32cd" points="981.1,-669.78 991.21,-666.62 981.33,-662.79 981.1,-669.78"/>
<text text-anchor="middle" x="824" y="-666.5" font-family="Helvetica,sans-Serif" font-size="10.00"> DListDrawContext</text>
</g>
<!-- Node37&#45;&gt;Node3 -->
<g id="edge59" class="edge">
<title>Node37&#45;&gt;Node3</title>
<path fill="none" stroke="#9a32cd" stroke-dasharray="5,2" d="M780.25,-837.92C778.1,-836.84 776,-835.7 774,-834.5 764.82,-829 765.45,-823.52 756,-818.5 714.68,-796.56 690.06,-822.31 654,-792.5 614.8,-760.09 599.34,-696.78 594.68,-672.4"/>
<polygon fill="#9a32cd" stroke="#9a32cd" points="778.63,-841.03 789.19,-841.93 781.5,-834.64 778.63,-841.03"/>
<text text-anchor="middle" x="705" y="-821.5" font-family="Helvetica,sans-Serif" font-size="10.00"> DisplayContext</text>
</g>
</g>
</svg>
