<?xml version="1.0" encoding="UTF-8" standalone="no"?>
<!DOCTYPE svg PUBLIC "-//W3C//DTD SVG 1.1//EN"
 "http://www.w3.org/Graphics/SVG/1.1/DTD/svg11.dtd">
<!-- Generated by graphviz version 7.0.5 (20221223.1930)
 -->
<!-- Title: CImmMaterial Pages: 1 -->
<svg width="1288pt" height="1159pt"
 viewBox="0.00 0.00 1288.00 1158.50" xmlns="http://www.w3.org/2000/svg" xmlns:xlink="http://www.w3.org/1999/xlink">
<g id="graph0" class="graph" transform="scale(1 1) rotate(0) translate(4 1154.5)">
<title>CImmMaterial</title>
<!-- Node1 -->
<g id="node1" class="node">
<title>Node1</title>
<g id="a_node1"><a xlink:title=" ">
<polygon fill="#999999" stroke="#666666" points="270,-1150.5 193,-1150.5 193,-1131.5 270,-1131.5 270,-1150.5"/>
<text text-anchor="middle" x="231.5" y="-1138.5" font-family="Helvetica,sans-Serif" font-size="10.00">CImmMaterial</text>
</a>
</g>
</g>
<!-- Node25 -->
<g id="node25" class="node">
<title>Node25</title>
<g id="a_node25"><a xlink:href="class_c_material_manager.html" target="_top" xlink:title=" ">
<polygon fill="white" stroke="#bfbfbf" points="471,-1087.5 376,-1087.5 376,-1068.5 471,-1068.5 471,-1087.5"/>
<text text-anchor="middle" x="423.5" y="-1075.5" font-family="Helvetica,sans-Serif" font-size="10.00">CMaterialManager</text>
</a>
</g>
</g>
<!-- Node1&#45;&gt;Node25 -->
<g id="edge40" class="edge">
<title>Node1&#45;&gt;Node25</title>
<path fill="none" stroke="#9a32cd" stroke-dasharray="5,2" d="M273.19,-1127.51C309.01,-1115.63 360.35,-1098.61 392.53,-1087.94"/>
<polygon fill="#9a32cd" stroke="#9a32cd" points="272.43,-1124.07 264.04,-1130.54 274.64,-1130.72 272.43,-1124.07"/>
<text text-anchor="middle" x="323" y="-1125" font-family="Helvetica,sans-Serif" font-size="10.00"> ImmMaterial</text>
</g>
<!-- Node2 -->
<g id="node2" class="node">
<title>Node2</title>
<g id="a_node2"><a xlink:href="class_c_material.html" target="_top" xlink:title=" ">
<polygon fill="white" stroke="#bfbfbf" points="887,-1131.5 829,-1131.5 829,-1112.5 887,-1112.5 887,-1131.5"/>
<text text-anchor="middle" x="858" y="-1119.5" font-family="Helvetica,sans-Serif" font-size="10.00">CMaterial</text>
</a>
</g>
</g>
<!-- Node2&#45;&gt;Node1 -->
<g id="edge1" class="edge">
<title>Node2&#45;&gt;Node1</title>
<path fill="none" stroke="#63b8ff" d="M817.31,-1127.4C808.34,-1128.43 798.86,-1129.39 790,-1130 594.92,-1143.54 360.59,-1142.56 270.41,-1141.55"/>
<polygon fill="#63b8ff" stroke="#63b8ff" points="817.69,-1130.88 827.19,-1126.19 816.84,-1123.93 817.69,-1130.88"/>
</g>
<!-- Node2&#45;&gt;Node25 -->
<g id="edge43" class="edge">
<title>Node2&#45;&gt;Node25</title>
<path fill="none" stroke="#9a32cd" stroke-dasharray="5,2" d="M817.33,-1120.49C749.66,-1117.53 607.73,-1109.65 489,-1092 481.75,-1090.92 474.09,-1089.51 466.68,-1087.99"/>
<polygon fill="#9a32cd" stroke="#9a32cd" points="817.04,-1123.98 827.18,-1120.91 817.34,-1116.99 817.04,-1123.98"/>
<text text-anchor="middle" x="626" y="-1114" font-family="Helvetica,sans-Serif" font-size="10.00"> CurMaterial</text>
</g>
<!-- Node26 -->
<g id="node26" class="node">
<title>Node26</title>
<g id="a_node26"><a xlink:href="class_c_d_list_material.html" target="_top" xlink:title=" ">
<polygon fill="white" stroke="#bfbfbf" points="1118.5,-1110.5 1037.5,-1110.5 1037.5,-1091.5 1118.5,-1091.5 1118.5,-1110.5"/>
<text text-anchor="middle" x="1078" y="-1098.5" font-family="Helvetica,sans-Serif" font-size="10.00">CDListMaterial</text>
</a>
</g>
</g>
<!-- Node2&#45;&gt;Node26 -->
<g id="edge42" class="edge">
<title>Node2&#45;&gt;Node26</title>
<path fill="none" stroke="#63b8ff" d="M898.73,-1118.17C937.98,-1114.39 997.69,-1108.64 1037.02,-1104.85"/>
<polygon fill="#63b8ff" stroke="#63b8ff" points="898.62,-1114.67 889.01,-1119.11 899.3,-1121.63 898.62,-1114.67"/>
</g>
<!-- Node3 -->
<g id="node3" class="node">
<title>Node3</title>
<g id="a_node3"><a xlink:href="class_c_g_l_context.html" target="_top" xlink:title=" ">
<polygon fill="white" stroke="#bfbfbf" points="661,-675.5 591,-675.5 591,-656.5 661,-656.5 661,-675.5"/>
<text text-anchor="middle" x="626" y="-663.5" font-family="Helvetica,sans-Serif" font-size="10.00">CGLContext</text>
</a>
</g>
</g>
<!-- Node3&#45;&gt;Node2 -->
<g id="edge2" class="edge">
<title>Node3&#45;&gt;Node2</title>
<path fill="none" stroke="#9a32cd" stroke-dasharray="5,2" d="M627.62,-687.15C630.07,-756.42 641.43,-974.9 688,-1024 719.98,-1057.72 749.94,-1023.44 790,-1047 818.14,-1063.55 840.92,-1095.94 851.16,-1112.2"/>
<polygon fill="#9a32cd" stroke="#9a32cd" points="631.12,-687.09 627.29,-677.21 624.12,-687.32 631.12,-687.09"/>
<text text-anchor="middle" x="739" y="-1050" font-family="Helvetica,sans-Serif" font-size="10.00"> GLContext</text>
</g>
<!-- Node5 -->
<g id="node5" class="node">
<title>Node5</title>
<g id="a_node5"><a xlink:href="class_c_matrix_stack.html" target="_top" xlink:title=" ">
<polygon fill="white" stroke="#bfbfbf" points="895.5,-777.5 820.5,-777.5 820.5,-758.5 895.5,-758.5 895.5,-777.5"/>
<text text-anchor="middle" x="858" y="-765.5" font-family="Helvetica,sans-Serif" font-size="10.00">CMatrixStack</text>
</a>
</g>
</g>
<!-- Node3&#45;&gt;Node5 -->
<g id="edge5" class="edge">
<title>Node3&#45;&gt;Node5</title>
<path fill="none" stroke="#9a32cd" stroke-dasharray="5,2" d="M632.82,-686.38C640.87,-710.3 657.91,-748.87 688,-766 728.55,-789.08 783.92,-784.26 820.06,-777.3"/>
<polygon fill="#9a32cd" stroke="#9a32cd" points="636.26,-685.64 629.94,-677.13 629.57,-687.72 636.26,-685.64"/>
<text text-anchor="middle" x="739" y="-786" font-family="Helvetica,sans-Serif" font-size="10.00"> GLContext</text>
</g>
<!-- Node8 -->
<g id="node8" class="node">
<title>Node8</title>
<g id="a_node8"><a xlink:href="class_c_lighting.html" target="_top" xlink:title=" ">
<polygon fill="white" stroke="#bfbfbf" points="994.5,-933.5 936.5,-933.5 936.5,-914.5 994.5,-914.5 994.5,-933.5"/>
<text text-anchor="middle" x="965.5" y="-921.5" font-family="Helvetica,sans-Serif" font-size="10.00">CLighting</text>
</a>
</g>
</g>
<!-- Node3&#45;&gt;Node8 -->
<g id="edge11" class="edge">
<title>Node3&#45;&gt;Node8</title>
<path fill="none" stroke="#9a32cd" stroke-dasharray="5,2" d="M626.78,-687.02C627.55,-728.15 635.49,-819.36 688,-867 697.23,-875.37 895.81,-908.38 908,-911 917.15,-912.97 927.11,-915.22 936.08,-917.29"/>
<polygon fill="#9a32cd" stroke="#9a32cd" points="630.28,-687.26 626.73,-677.28 623.28,-687.29 630.28,-687.26"/>
<text text-anchor="middle" x="739" y="-892" font-family="Helvetica,sans-Serif" font-size="10.00"> GLContext</text>
</g>
<!-- Node10 -->
<g id="node10" class="node">
<title>Node10</title>
<g id="a_node10"><a xlink:href="class_c_light.html" target="_top" xlink:title=" ">
<polygon fill="white" stroke="#bfbfbf" points="880.5,-938.5 835.5,-938.5 835.5,-919.5 880.5,-919.5 880.5,-938.5"/>
<text text-anchor="middle" x="858" y="-926.5" font-family="Helvetica,sans-Serif" font-size="10.00">CLight</text>
</a>
</g>
</g>
<!-- Node3&#45;&gt;Node10 -->
<g id="edge14" class="edge">
<title>Node3&#45;&gt;Node10</title>
<path fill="none" stroke="#9a32cd" stroke-dasharray="5,2" d="M629.4,-687.12C635.85,-739.95 655.31,-875.68 688,-905 709.29,-924.09 794.53,-928.04 835.2,-928.82"/>
<polygon fill="#9a32cd" stroke="#9a32cd" points="632.89,-686.87 628.25,-677.35 625.94,-687.69 632.89,-686.87"/>
<text text-anchor="middle" x="739" y="-929" font-family="Helvetica,sans-Serif" font-size="10.00"> GLContext</text>
</g>
<!-- Node14 -->
<g id="node14" class="node">
<title>Node14</title>
<g id="a_node14"><a xlink:href="class_c_geom_manager.html" target="_top" xlink:title=" ">
<polygon fill="white" stroke="#bfbfbf" points="901.5,-389.5 814.5,-389.5 814.5,-370.5 901.5,-370.5 901.5,-389.5"/>
<text text-anchor="middle" x="858" y="-377.5" font-family="Helvetica,sans-Serif" font-size="10.00">CGeomManager</text>
</a>
</g>
</g>
<!-- Node3&#45;&gt;Node14 -->
<g id="edge22" class="edge">
<title>Node3&#45;&gt;Node14</title>
<path fill="none" stroke="#9a32cd" stroke-dasharray="5,2" d="M629.66,-644.76C636.61,-592.82 656.91,-461.51 688,-432 721.57,-400.13 747.29,-428.83 790,-411 798.87,-407.3 799.47,-403.43 808,-399 814.4,-395.68 821.51,-392.6 828.29,-389.92"/>
<polygon fill="#9a32cd" stroke="#9a32cd" points="626.2,-644.27 628.38,-654.64 633.14,-645.17 626.2,-644.27"/>
<text text-anchor="middle" x="739" y="-435" font-family="Helvetica,sans-Serif" font-size="10.00"> GLContext</text>
</g>
<!-- Node17 -->
<g id="node17" class="node">
<title>Node17</title>
<g id="a_node17"><a xlink:href="class_c_renderer_manager.html" target="_top" xlink:title=" ">
<polygon fill="white" stroke="#bfbfbf" points="908,-427.5 808,-427.5 808,-408.5 908,-408.5 908,-427.5"/>
<text text-anchor="middle" x="858" y="-415.5" font-family="Helvetica,sans-Serif" font-size="10.00">CRendererManager</text>
</a>
</g>
</g>
<!-- Node3&#45;&gt;Node17 -->
<g id="edge26" class="edge">
<title>Node3&#45;&gt;Node17</title>
<path fill="none" stroke="#9a32cd" stroke-dasharray="5,2" d="M626.99,-645.13C628.17,-604.67 636.79,-515.41 688,-468 722.1,-436.43 745.64,-458.84 790,-445 805.32,-440.22 822.07,-433.47 834.99,-427.91"/>
<polygon fill="#9a32cd" stroke="#9a32cd" points="623.49,-644.87 626.85,-654.92 630.49,-644.97 623.49,-644.87"/>
<text text-anchor="middle" x="739" y="-471" font-family="Helvetica,sans-Serif" font-size="10.00"> GLContext</text>
</g>
<!-- Node3&#45;&gt;Node25 -->
<g id="edge39" class="edge">
<title>Node3&#45;&gt;Node25</title>
<path fill="none" stroke="#9a32cd" stroke-dasharray="5,2" d="M624.02,-687.34C621.04,-734.57 609.31,-850.4 564,-934 531.33,-994.29 466.33,-1047.06 438.11,-1068.19"/>
<polygon fill="#9a32cd" stroke="#9a32cd" points="627.51,-687.6 624.56,-677.43 620.52,-687.22 627.51,-687.6"/>
<text text-anchor="middle" x="526.5" y="-1028" font-family="Helvetica,sans-Serif" font-size="10.00"> GLContext</text>
</g>
<!-- Node28 -->
<g id="node28" class="node">
<title>Node28</title>
<g id="a_node28"><a xlink:href="class_c_tex_manager.html" target="_top" xlink:title=" ">
<polygon fill="white" stroke="#bfbfbf" points="896.5,-147.5 819.5,-147.5 819.5,-128.5 896.5,-128.5 896.5,-147.5"/>
<text text-anchor="middle" x="858" y="-135.5" font-family="Helvetica,sans-Serif" font-size="10.00">CTexManager</text>
</a>
</g>
</g>
<!-- Node3&#45;&gt;Node28 -->
<g id="edge47" class="edge">
<title>Node3&#45;&gt;Node28</title>
<path fill="none" stroke="#9a32cd" stroke-dasharray="5,2" d="M629.43,-644.88C639.08,-561.95 674.72,-262.3 688,-247 718.97,-211.31 750.39,-242.77 790,-217 818.34,-198.56 841.19,-164.6 851.33,-147.86"/>
<polygon fill="#9a32cd" stroke="#9a32cd" points="625.99,-644.23 628.31,-654.56 632.94,-645.03 625.99,-644.23"/>
<text text-anchor="middle" x="739" y="-250" font-family="Helvetica,sans-Serif" font-size="10.00"> GLContext</text>
</g>
<!-- Node34 -->
<g id="node34" class="node">
<title>Node34</title>
<g id="a_node34"><a xlink:href="class_c_draw_context.html" target="_top" xlink:title=" ">
<polygon fill="white" stroke="#bfbfbf" points="897.5,-634.5 818.5,-634.5 818.5,-615.5 897.5,-615.5 897.5,-634.5"/>
<text text-anchor="middle" x="858" y="-622.5" font-family="Helvetica,sans-Serif" font-size="10.00">CDrawContext</text>
</a>
</g>
</g>
<!-- Node3&#45;&gt;Node34 -->
<g id="edge54" class="edge">
<title>Node3&#45;&gt;Node34</title>
<path fill="none" stroke="#9a32cd" stroke-dasharray="5,2" d="M672.67,-656.89C677.84,-655.9 683.03,-654.92 688,-654 732.5,-645.81 783.74,-637.12 818.02,-631.41"/>
<polygon fill="#9a32cd" stroke="#9a32cd" points="672.12,-653.43 662.98,-658.77 673.46,-660.3 672.12,-653.43"/>
<text text-anchor="middle" x="739" y="-657" font-family="Helvetica,sans-Serif" font-size="10.00"> GLContext</text>
</g>
<!-- Node37 -->
<g id="node37" class="node">
<title>Node37</title>
<g id="a_node37"><a xlink:href="class_c_display_context.html" target="_top" xlink:title=" ">
<polygon fill="white" stroke="#bfbfbf" points="902,-512.5 814,-512.5 814,-493.5 902,-493.5 902,-512.5"/>
<text text-anchor="middle" x="858" y="-500.5" font-family="Helvetica,sans-Serif" font-size="10.00">CDisplayContext</text>
</a>
</g>
</g>
<!-- Node3&#45;&gt;Node37 -->
<g id="edge60" class="edge">
<title>Node3&#45;&gt;Node37</title>
<path fill="none" stroke="#9a32cd" stroke-dasharray="5,2" d="M629.63,-644.76C634.77,-613.12 649.25,-554.21 688,-525 707.2,-510.53 770.12,-505.56 813.52,-503.87"/>
<polygon fill="#9a32cd" stroke="#9a32cd" points="626.17,-644.24 628.22,-654.63 633.1,-645.23 626.17,-644.24"/>
<text text-anchor="middle" x="739" y="-528" font-family="Helvetica,sans-Serif" font-size="10.00"> GLContext</text>
</g>
<!-- Node4 -->
<g id="node4" class="node">
<title>Node4</title>
<g id="a_node4"><a xlink:href="class_c_imm_matrix_stack.html" target="_top" xlink:title=" ">
<polygon fill="white" stroke="#bfbfbf" points="1125.5,-734.5 1030.5,-734.5 1030.5,-715.5 1125.5,-715.5 1125.5,-734.5"/>
<text text-anchor="middle" x="1078" y="-722.5" font-family="Helvetica,sans-Serif" font-size="10.00">CImmMatrixStack</text>
</a>
</g>
</g>
<!-- Node4&#45;&gt;Node3 -->
<g id="edge3" class="edge">
<title>Node4&#45;&gt;Node3</title>
<path fill="none" stroke="#9a32cd" stroke-dasharray="5,2" d="M1018.85,-719.81C942.6,-712.63 804.79,-698.31 688,-679 679.35,-677.57 670.06,-675.74 661.41,-673.91"/>
<polygon fill="#9a32cd" stroke="#9a32cd" points="1018.31,-723.28 1028.59,-720.72 1018.96,-716.31 1018.31,-723.28"/>
<text text-anchor="middle" x="858" y="-722" font-family="Helvetica,sans-Serif" font-size="10.00"> ModelViewMatStack</text>
<text text-anchor="middle" x="858" y="-711" font-family="Helvetica,sans-Serif" font-size="10.00">ProjectionMatStack</text>
</g>
<!-- Node5&#45;&gt;Node3 -->
<g id="edge8" class="edge">
<title>Node5&#45;&gt;Node3</title>
<path fill="none" stroke="#9a32cd" stroke-dasharray="5,2" d="M825.8,-753.35C814.69,-748.57 801.96,-743.57 790,-740 745.81,-726.81 729.34,-741.43 688,-721 665.76,-710.01 645.57,-688.55 634.92,-675.93"/>
<polygon fill="#9a32cd" stroke="#9a32cd" points="824.35,-756.53 834.91,-757.39 827.19,-750.14 824.35,-756.53"/>
<text text-anchor="middle" x="739" y="-754" font-family="Helvetica,sans-Serif" font-size="10.00"> CurMatrixStack</text>
<text text-anchor="middle" x="739" y="-743" font-family="Helvetica,sans-Serif" font-size="10.00">SavedCurMatStack</text>
</g>
<!-- Node5&#45;&gt;Node4 -->
<g id="edge4" class="edge">
<title>Node5&#45;&gt;Node4</title>
<path fill="none" stroke="#63b8ff" d="M906.9,-758.55C943.6,-751.31 993.94,-741.38 1030.33,-734.21"/>
<polygon fill="#63b8ff" stroke="#63b8ff" points="906.6,-755.04 897.47,-760.41 907.95,-761.91 906.6,-755.04"/>
</g>
<!-- Node6 -->
<g id="node6" class="node">
<title>Node6</title>
<g id="a_node6"><a xlink:href="class_c_d_list_matrix_stack.html" target="_top" xlink:title=" ">
<polygon fill="white" stroke="#bfbfbf" points="1127,-779.5 1029,-779.5 1029,-760.5 1127,-760.5 1127,-779.5"/>
<text text-anchor="middle" x="1078" y="-767.5" font-family="Helvetica,sans-Serif" font-size="10.00">CDListMatrixStack</text>
</a>
</g>
</g>
<!-- Node5&#45;&gt;Node6 -->
<g id="edge7" class="edge">
<title>Node5&#45;&gt;Node6</title>
<path fill="none" stroke="#63b8ff" d="M907.22,-768.44C943.36,-768.77 992.59,-769.23 1028.74,-769.56"/>
<polygon fill="#63b8ff" stroke="#63b8ff" points="907.53,-764.95 897.49,-768.35 907.46,-771.94 907.53,-764.95"/>
</g>
<!-- Node6&#45;&gt;Node3 -->
<g id="edge6" class="edge">
<title>Node6&#45;&gt;Node3</title>
<path fill="none" stroke="#9a32cd" stroke-dasharray="5,2" d="M1020.02,-782.25C925.54,-801.24 741.51,-832.22 688,-798 644.19,-769.98 631.39,-701.58 628.06,-675.93"/>
<polygon fill="#9a32cd" stroke="#9a32cd" points="1020.5,-785.72 1029.6,-780.3 1019.11,-778.86 1020.5,-785.72"/>
<text text-anchor="middle" x="858" y="-815" font-family="Helvetica,sans-Serif" font-size="10.00"> DListMatStack</text>
</g>
<!-- Node7 -->
<g id="node7" class="node">
<title>Node7</title>
<g id="a_node7"><a xlink:href="class_c_imm_lighting.html" target="_top" xlink:title=" ">
<polygon fill="white" stroke="#bfbfbf" points="1278,-993.5 1201,-993.5 1201,-974.5 1278,-974.5 1278,-993.5"/>
<text text-anchor="middle" x="1239.5" y="-981.5" font-family="Helvetica,sans-Serif" font-size="10.00">CImmLighting</text>
</a>
</g>
</g>
<!-- Node7&#45;&gt;Node3 -->
<g id="edge9" class="edge">
<title>Node7&#45;&gt;Node3</title>
<path fill="none" stroke="#9a32cd" stroke-dasharray="5,2" d="M1233.3,-1004.73C1226.06,-1028.69 1210.38,-1067.01 1181,-1084 1156.84,-1097.98 707.55,-1006.92 688,-987 643,-941.15 629.88,-725.15 627.45,-675.98"/>
<polygon fill="#9a32cd" stroke="#9a32cd" points="1236.66,-1005.73 1235.95,-995.16 1229.91,-1003.86 1236.66,-1005.73"/>
<text text-anchor="middle" x="965.5" y="-1064" font-family="Helvetica,sans-Serif" font-size="10.00"> ImmLighting</text>
</g>
<!-- Node8&#45;&gt;Node3 -->
<g id="edge19" class="edge">
<title>Node8&#45;&gt;Node3</title>
<path fill="none" stroke="#9a32cd" stroke-dasharray="5,2" d="M933.41,-938.33C877.16,-961.87 757.86,-1000.49 688,-941 646.21,-905.41 630.8,-720.75 627.65,-675.85"/>
<polygon fill="#9a32cd" stroke="#9a32cd" points="934.6,-941.63 942.4,-934.46 931.83,-935.2 934.6,-941.63"/>
<text text-anchor="middle" x="739" y="-975" font-family="Helvetica,sans-Serif" font-size="10.00"> CurLighting</text>
</g>
<!-- Node8&#45;&gt;Node7 -->
<g id="edge10" class="edge">
<title>Node8&#45;&gt;Node7</title>
<path fill="none" stroke="#63b8ff" d="M1005.97,-932.71C1058.13,-944.21 1149.39,-964.34 1200.7,-975.66"/>
<polygon fill="#63b8ff" stroke="#63b8ff" points="1006.84,-929.31 996.32,-930.58 1005.33,-936.15 1006.84,-929.31"/>
</g>
<!-- Node11 -->
<g id="node11" class="node">
<title>Node11</title>
<g id="a_node11"><a xlink:href="class_c_d_list_lighting.html" target="_top" xlink:title=" ">
<polygon fill="white" stroke="#bfbfbf" points="1280,-821.5 1199,-821.5 1199,-802.5 1280,-802.5 1280,-821.5"/>
<text text-anchor="middle" x="1239.5" y="-809.5" font-family="Helvetica,sans-Serif" font-size="10.00">CDListLighting</text>
</a>
</g>
</g>
<!-- Node8&#45;&gt;Node11 -->
<g id="edge16" class="edge">
<title>Node8&#45;&gt;Node11</title>
<path fill="none" stroke="#63b8ff" d="M1005.86,-926.17C1059.65,-928.41 1152.68,-929.46 1181,-912 1214.75,-891.19 1230.69,-842.75 1236.18,-821.87"/>
<polygon fill="#63b8ff" stroke="#63b8ff" points="1006.36,-922.69 996.21,-925.74 1006.04,-929.68 1006.36,-922.69"/>
</g>
<!-- Node9 -->
<g id="node9" class="node">
<title>Node9</title>
<g id="a_node9"><a xlink:href="class_c_imm_light.html" target="_top" xlink:title=" ">
<polygon fill="white" stroke="#bfbfbf" points="1110.5,-998.5 1045.5,-998.5 1045.5,-979.5 1110.5,-979.5 1110.5,-998.5"/>
<text text-anchor="middle" x="1078" y="-986.5" font-family="Helvetica,sans-Serif" font-size="10.00">CImmLight</text>
</a>
</g>
</g>
<!-- Node9&#45;&gt;Node7 -->
<g id="edge12" class="edge">
<title>Node9&#45;&gt;Node7</title>
<path fill="none" stroke="#9a32cd" stroke-dasharray="5,2" d="M1122.14,-986.29C1131.64,-985.78 1141.66,-985.31 1151,-985 1167.25,-984.46 1185.2,-984.19 1200.59,-984.07"/>
<polygon fill="#9a32cd" stroke="#9a32cd" points="1122.18,-982.78 1112.4,-986.84 1122.58,-989.77 1122.18,-982.78"/>
<text text-anchor="middle" x="1166" y="-1076" font-family="Helvetica,sans-Serif" font-size="10.00"> Light0</text>
<text text-anchor="middle" x="1166" y="-1065" font-family="Helvetica,sans-Serif" font-size="10.00">Light1</text>
<text text-anchor="middle" x="1166" y="-1054" font-family="Helvetica,sans-Serif" font-size="10.00">Light2</text>
<text text-anchor="middle" x="1166" y="-1043" font-family="Helvetica,sans-Serif" font-size="10.00">Light3</text>
<text text-anchor="middle" x="1166" y="-1032" font-family="Helvetica,sans-Serif" font-size="10.00">Light4</text>
<text text-anchor="middle" x="1166" y="-1021" font-family="Helvetica,sans-Serif" font-size="10.00">Light5</text>
<text text-anchor="middle" x="1166" y="-1010" font-family="Helvetica,sans-Serif" font-size="10.00">Light6</text>
<text text-anchor="middle" x="1166" y="-999" font-family="Helvetica,sans-Serif" font-size="10.00">Light7</text>
<text text-anchor="middle" x="1166" y="-988" font-family="Helvetica,sans-Serif" font-size="10.00">Lights</text>
</g>
<!-- Node10&#45;&gt;Node9 -->
<g id="edge13" class="edge">
<title>Node10&#45;&gt;Node9</title>
<path fill="none" stroke="#63b8ff" d="M891.55,-937.96C933.01,-949.37 1004.18,-968.96 1045.25,-980.26"/>
<polygon fill="#63b8ff" stroke="#63b8ff" points="892.73,-934.65 882.16,-935.37 890.87,-941.4 892.73,-934.65"/>
</g>
<!-- Node12 -->
<g id="node12" class="node">
<title>Node12</title>
<g id="a_node12"><a xlink:href="class_c_d_list_light.html" target="_top" xlink:title=" ">
<polygon fill="white" stroke="#bfbfbf" points="1112,-881.5 1044,-881.5 1044,-862.5 1112,-862.5 1112,-881.5"/>
<text text-anchor="middle" x="1078" y="-869.5" font-family="Helvetica,sans-Serif" font-size="10.00">CDListLight</text>
</a>
</g>
</g>
<!-- Node10&#45;&gt;Node12 -->
<g id="edge18" class="edge">
<title>Node10&#45;&gt;Node12</title>
<path fill="none" stroke="#63b8ff" d="M891.69,-920.45C932.66,-909.74 1002.49,-891.48 1043.73,-880.7"/>
<polygon fill="#63b8ff" stroke="#63b8ff" points="890.95,-917.03 882.16,-922.94 892.72,-923.8 890.95,-917.03"/>
</g>
<!-- Node11&#45;&gt;Node3 -->
<g id="edge15" class="edge">
<title>Node11&#45;&gt;Node3</title>
<path fill="none" stroke="#9a32cd" stroke-dasharray="5,2" d="M1187.6,-800.8C1185.38,-800.49 1183.17,-800.22 1181,-800 1167.74,-798.63 1164.31,-799.26 1151,-800 945.36,-811.39 854.54,-940.17 688,-819 639.44,-783.67 629.5,-703.35 627.5,-675.62"/>
<polygon fill="#9a32cd" stroke="#9a32cd" points="1186.84,-804.22 1197.27,-802.36 1187.95,-797.31 1186.84,-804.22"/>
<text text-anchor="middle" x="965.5" y="-855" font-family="Helvetica,sans-Serif" font-size="10.00"> DListLighting</text>
</g>
<!-- Node12&#45;&gt;Node11 -->
<g id="edge17" class="edge">
<title>Node12&#45;&gt;Node11</title>
<path fill="none" stroke="#9a32cd" stroke-dasharray="5,2" d="M1113.84,-856.88C1120.65,-852.97 1127.41,-848.33 1133,-843 1144.25,-832.27 1137.51,-820.74 1151,-813 1165.23,-804.83 1183.03,-803.38 1198.85,-804.43"/>
<polygon fill="#9a32cd" stroke="#9a32cd" points="1112.5,-853.63 1105.28,-861.38 1115.76,-859.82 1112.5,-853.63"/>
<text text-anchor="middle" x="1166" y="-904" font-family="Helvetica,sans-Serif" font-size="10.00"> Light0</text>
<text text-anchor="middle" x="1166" y="-893" font-family="Helvetica,sans-Serif" font-size="10.00">Light1</text>
<text text-anchor="middle" x="1166" y="-882" font-family="Helvetica,sans-Serif" font-size="10.00">Light2</text>
<text text-anchor="middle" x="1166" y="-871" font-family="Helvetica,sans-Serif" font-size="10.00">Light3</text>
<text text-anchor="middle" x="1166" y="-860" font-family="Helvetica,sans-Serif" font-size="10.00">Light4</text>
<text text-anchor="middle" x="1166" y="-849" font-family="Helvetica,sans-Serif" font-size="10.00">Light5</text>
<text text-anchor="middle" x="1166" y="-838" font-family="Helvetica,sans-Serif" font-size="10.00">Light6</text>
<text text-anchor="middle" x="1166" y="-827" font-family="Helvetica,sans-Serif" font-size="10.00">Light7</text>
<text text-anchor="middle" x="1166" y="-816" font-family="Helvetica,sans-Serif" font-size="10.00">Lights</text>
</g>
<!-- Node13 -->
<g id="node13" class="node">
<title>Node13</title>
<g id="a_node13"><a xlink:href="class_c_imm_geom_manager.html" target="_top" xlink:title=" ">
<polygon fill="white" stroke="#bfbfbf" points="1131.5,-430.5 1024.5,-430.5 1024.5,-411.5 1131.5,-411.5 1131.5,-430.5"/>
<text text-anchor="middle" x="1078" y="-418.5" font-family="Helvetica,sans-Serif" font-size="10.00">CImmGeomManager</text>
</a>
</g>
</g>
<!-- Node13&#45;&gt;Node3 -->
<g id="edge20" class="edge">
<title>Node13&#45;&gt;Node3</title>
<path fill="none" stroke="#9a32cd" stroke-dasharray="5,2" d="M1014.68,-433.12C1011.41,-433.76 1008.16,-434.39 1005,-435 917.46,-451.95 894.26,-450.41 808,-473 799.84,-475.14 798.07,-476.55 790,-479 745.02,-492.66 722.84,-475.43 688,-507 642.21,-548.49 630.53,-628.21 627.78,-656.09"/>
<polygon fill="#9a32cd" stroke="#9a32cd" points="1015.23,-436.58 1024.38,-431.24 1013.9,-429.71 1015.23,-436.58"/>
<text text-anchor="middle" x="858" y="-476" font-family="Helvetica,sans-Serif" font-size="10.00"> ImmGManager</text>
</g>
<!-- Node14&#45;&gt;Node3 -->
<g id="edge37" class="edge">
<title>Node14&#45;&gt;Node3</title>
<path fill="none" stroke="#9a32cd" stroke-dasharray="5,2" d="M802.77,-379.14C759.89,-379.64 704.57,-383.28 688,-398 648.05,-433.5 631.31,-612.06 627.75,-656.15"/>
<polygon fill="#9a32cd" stroke="#9a32cd" points="802.72,-382.64 812.7,-379.08 802.68,-375.64 802.72,-382.64"/>
<text text-anchor="middle" x="739" y="-401" font-family="Helvetica,sans-Serif" font-size="10.00"> CurGManager</text>
</g>
<!-- Node14&#45;&gt;Node13 -->
<g id="edge21" class="edge">
<title>Node14&#45;&gt;Node13</title>
<path fill="none" stroke="#63b8ff" d="M912.93,-390.14C946.89,-396.53 990.54,-404.74 1024.27,-411.08"/>
<polygon fill="#63b8ff" stroke="#63b8ff" points="913.77,-386.74 903.3,-388.33 912.48,-393.62 913.77,-386.74"/>
</g>
<!-- Node22 -->
<g id="node22" class="node">
<title>Node22</title>
<g id="a_node22"><a xlink:href="class_c_d_list_geom_manager.html" target="_top" xlink:title=" ">
<polygon fill="white" stroke="#bfbfbf" points="1133,-312.5 1023,-312.5 1023,-293.5 1133,-293.5 1133,-312.5"/>
<text text-anchor="middle" x="1078" y="-300.5" font-family="Helvetica,sans-Serif" font-size="10.00">CDListGeomManager</text>
</a>
</g>
</g>
<!-- Node14&#45;&gt;Node22 -->
<g id="edge32" class="edge">
<title>Node14&#45;&gt;Node22</title>
<path fill="none" stroke="#63b8ff" d="M913.26,-382.63C941.64,-382.1 976.33,-378.36 1005,-366 1032.76,-354.03 1057.44,-327.24 1069.39,-312.75"/>
<polygon fill="#63b8ff" stroke="#63b8ff" points="913.42,-379.13 903.44,-382.67 913.45,-386.13 913.42,-379.13"/>
</g>
<!-- Node15 -->
<g id="node15" class="node">
<title>Node15</title>
<g id="a_node15"><a xlink:href="class_c_vert_array.html" target="_top" xlink:title=" ">
<polygon fill="white" stroke="#bfbfbf" points="658,-144.5 594,-144.5 594,-125.5 658,-125.5 658,-144.5"/>
<text text-anchor="middle" x="626" y="-132.5" font-family="Helvetica,sans-Serif" font-size="10.00">CVertArray</text>
</a>
</g>
</g>
<!-- Node15&#45;&gt;Node14 -->
<g id="edge23" class="edge">
<title>Node15&#45;&gt;Node14</title>
<path fill="none" stroke="#9a32cd" stroke-dasharray="5,2" d="M669.8,-129.03C712.19,-124.17 773.16,-120.4 790,-136 825.5,-168.88 781.69,-312.39 808,-353 812.81,-360.42 820.39,-365.97 828.16,-370.05"/>
<polygon fill="#9a32cd" stroke="#9a32cd" points="669.39,-125.55 659.89,-130.23 670.23,-132.5 669.39,-125.55"/>
<text text-anchor="middle" x="739" y="-139" font-family="Helvetica,sans-Serif" font-size="10.00"> VertArray</text>
</g>
<!-- Node16 -->
<g id="node16" class="node">
<title>Node16</title>
<g id="a_node16"><a xlink:href="structt_user_prim_entry.html" target="_top" xlink:title=" ">
<polygon fill="white" stroke="#bfbfbf" points="667.5,-181.5 584.5,-181.5 584.5,-162.5 667.5,-162.5 667.5,-181.5"/>
<text text-anchor="middle" x="626" y="-169.5" font-family="Helvetica,sans-Serif" font-size="10.00">tUserPrimEntry</text>
</a>
</g>
</g>
<!-- Node16&#45;&gt;Node14 -->
<g id="edge24" class="edge">
<title>Node16&#45;&gt;Node14</title>
<path fill="none" stroke="#9a32cd" stroke-dasharray="5,2" d="M665.39,-158.92C702.13,-149.08 756.73,-141.88 790,-172 819.96,-199.13 785.74,-319.26 808,-353 812.87,-360.38 820.47,-365.92 828.24,-370"/>
<polygon fill="#9a32cd" stroke="#9a32cd" points="664.7,-155.47 656.06,-161.6 666.64,-162.2 664.7,-155.47"/>
<text text-anchor="middle" x="739" y="-175" font-family="Helvetica,sans-Serif" font-size="10.00"> UserPrimTypes</text>
</g>
<!-- Node17&#45;&gt;Node13 -->
<g id="edge25" class="edge">
<title>Node17&#45;&gt;Node13</title>
<path fill="none" stroke="#9a32cd" stroke-dasharray="5,2" d="M919.76,-418.84C952.61,-419.29 992.79,-419.84 1024.3,-420.27"/>
<polygon fill="#9a32cd" stroke="#9a32cd" points="920.03,-415.34 909.98,-418.7 919.93,-422.34 920.03,-415.34"/>
<text text-anchor="middle" x="965.5" y="-423" font-family="Helvetica,sans-Serif" font-size="10.00"> RendererManager</text>
</g>
<!-- Node18 -->
<g id="node18" class="node">
<title>Node18</title>
<g id="a_node18"><a xlink:href="class_c_renderer_props.html" target="_top" xlink:title=" ">
<polygon fill="white" stroke="#bfbfbf" points="670,-282.5 582,-282.5 582,-263.5 670,-263.5 670,-282.5"/>
<text text-anchor="middle" x="626" y="-270.5" font-family="Helvetica,sans-Serif" font-size="10.00">CRendererProps</text>
</a>
</g>
</g>
<!-- Node18&#45;&gt;Node17 -->
<g id="edge27" class="edge">
<title>Node18&#45;&gt;Node17</title>
<path fill="none" stroke="#9a32cd" stroke-dasharray="5,2" d="M681.36,-262.91C716.78,-259.66 761.53,-262.35 790,-289 825.84,-322.56 777.38,-359.62 808,-398 811.32,-402.17 815.66,-405.47 820.37,-408.09"/>
<polygon fill="#9a32cd" stroke="#9a32cd" points="681.28,-259.4 671.73,-263.98 682.06,-266.35 681.28,-259.4"/>
<text text-anchor="middle" x="739" y="-292" font-family="Helvetica,sans-Serif" font-size="10.00"> RendererRequirements</text>
</g>
<!-- Node19 -->
<g id="node19" class="node">
<title>Node19</title>
<g id="a_node19"><a xlink:href="structt_renderer.html" target="_top" xlink:title=" ">
<polygon fill="white" stroke="#bfbfbf" points="655.5,-319.5 596.5,-319.5 596.5,-300.5 655.5,-300.5 655.5,-319.5"/>
<text text-anchor="middle" x="626" y="-307.5" font-family="Helvetica,sans-Serif" font-size="10.00">tRenderer</text>
</a>
</g>
</g>
<!-- Node19&#45;&gt;Node17 -->
<g id="edge28" class="edge">
<title>Node19&#45;&gt;Node17</title>
<path fill="none" stroke="#9a32cd" stroke-dasharray="5,2" d="M667.09,-304.3C703.53,-301.49 756.57,-303.65 790,-333 812.53,-352.78 788.08,-375.6 808,-398 811.66,-402.12 816.3,-405.41 821.25,-408.03"/>
<polygon fill="#9a32cd" stroke="#9a32cd" points="667.02,-300.8 657.39,-305.22 667.68,-307.76 667.02,-300.8"/>
<text text-anchor="middle" x="739" y="-369" font-family="Helvetica,sans-Serif" font-size="10.00"> CurrentRenderer</text>
<text text-anchor="middle" x="739" y="-358" font-family="Helvetica,sans-Serif" font-size="10.00">DefaultRenderers</text>
<text text-anchor="middle" x="739" y="-347" font-family="Helvetica,sans-Serif" font-size="10.00">NewRenderer</text>
<text text-anchor="middle" x="739" y="-336" font-family="Helvetica,sans-Serif" font-size="10.00">UserRenderers</text>
</g>
<!-- Node20 -->
<g id="node20" class="node">
<title>Node20</title>
<g id="a_node20"><a xlink:href="class_c_renderer.html" target="_top" xlink:title=" ">
<polygon fill="white" stroke="#666666" points="454.5,-319.5 392.5,-319.5 392.5,-300.5 454.5,-300.5 454.5,-319.5"/>
<text text-anchor="middle" x="423.5" y="-307.5" font-family="Helvetica,sans-Serif" font-size="10.00">CRenderer</text>
</a>
</g>
</g>
<!-- Node20&#45;&gt;Node19 -->
<g id="edge29" class="edge">
<title>Node20&#45;&gt;Node19</title>
<path fill="none" stroke="#9a32cd" stroke-dasharray="5,2" d="M466.4,-310C505.31,-310 562.2,-310 596.22,-310"/>
<polygon fill="#9a32cd" stroke="#9a32cd" points="466.47,-306.5 456.47,-310 466.47,-313.5 466.47,-306.5"/>
<text text-anchor="middle" x="526.5" y="-313" font-family="Helvetica,sans-Serif" font-size="10.00"> renderer</text>
</g>
<!-- Node21 -->
<g id="node21" class="node">
<title>Node21</title>
<g id="a_node21"><a xlink:href="class_c_geometry_block.html" target="_top" xlink:title=" ">
<polygon fill="white" stroke="#bfbfbf" points="903,-344.5 813,-344.5 813,-325.5 903,-325.5 903,-344.5"/>
<text text-anchor="middle" x="858" y="-332.5" font-family="Helvetica,sans-Serif" font-size="10.00">CGeometryBlock</text>
</a>
</g>
</g>
<!-- Node21&#45;&gt;Node13 -->
<g id="edge30" class="edge">
<title>Node21&#45;&gt;Node13</title>
<path fill="none" stroke="#9a32cd" stroke-dasharray="5,2" d="M912.3,-347.82C940.44,-355.39 975.21,-366.04 1005,-379 1025.83,-388.06 1048.19,-401.81 1062.37,-411.08"/>
<polygon fill="#9a32cd" stroke="#9a32cd" points="913.49,-344.52 902.93,-345.36 911.71,-351.29 913.49,-344.52"/>
<text text-anchor="middle" x="965.5" y="-382" font-family="Helvetica,sans-Serif" font-size="10.00"> Geometry</text>
</g>
<!-- Node21&#45;&gt;Node22 -->
<g id="edge36" class="edge">
<title>Node21&#45;&gt;Node22</title>
<path fill="none" stroke="#9a32cd" stroke-dasharray="5,2" d="M914.33,-323.05C918.27,-322.31 922.19,-321.62 926,-321 957.92,-315.77 993.86,-311.43 1022.68,-308.32"/>
<polygon fill="#9a32cd" stroke="#9a32cd" points="913.87,-319.57 904.71,-324.9 915.2,-326.44 913.87,-319.57"/>
<text text-anchor="middle" x="965.5" y="-324" font-family="Helvetica,sans-Serif" font-size="10.00"> Geometry</text>
</g>
<!-- Node22&#45;&gt;Node3 -->
<g id="edge31" class="edge">
<title>Node22&#45;&gt;Node3</title>
<path fill="none" stroke="#9a32cd" stroke-dasharray="5,2" d="M1035.19,-289.95C978.31,-274.94 875.86,-257.95 808,-305 789.62,-317.75 806.57,-336.98 790,-352 755.17,-383.58 720.27,-345.81 688,-380 648.8,-421.54 631.38,-610.99 627.74,-656.26"/>
<polygon fill="#9a32cd" stroke="#9a32cd" points="1034.24,-293.32 1044.81,-292.6 1036.1,-286.57 1034.24,-293.32"/>
<text text-anchor="middle" x="858" y="-308" font-family="Helvetica,sans-Serif" font-size="10.00"> DListGManager</text>
</g>
<!-- Node23 -->
<g id="node23" class="node">
<title>Node23</title>
<g id="a_node23"><a xlink:href="class_c_d_list.html" target="_top" xlink:title=" ">
<polygon fill="white" stroke="#bfbfbf" points="255,-145.5 208,-145.5 208,-126.5 255,-126.5 255,-145.5"/>
<text text-anchor="middle" x="231.5" y="-133.5" font-family="Helvetica,sans-Serif" font-size="10.00">CDList</text>
</a>
</g>
</g>
<!-- Node23&#45;&gt;Node22 -->
<g id="edge33" class="edge">
<title>Node23&#45;&gt;Node22</title>
<path fill="none" stroke="#9a32cd" stroke-dasharray="5,2" d="M245.63,-117.34C273.54,-80.08 342.81,0 422.5,0 422.5,0 422.5,0 859,0 1007.08,0 1064.49,-241.4 1075.12,-293.26"/>
<polygon fill="#9a32cd" stroke="#9a32cd" points="243.11,-114.85 240.05,-125 248.77,-118.98 243.11,-114.85"/>
<text text-anchor="middle" x="626" y="-3" font-family="Helvetica,sans-Serif" font-size="10.00"> CurDList</text>
</g>
<!-- Node27 -->
<g id="node27" class="node">
<title>Node27</title>
<g id="a_node27"><a xlink:href="class_c_d_list_manager.html" target="_top" xlink:title=" ">
<polygon fill="white" stroke="#bfbfbf" points="465.5,-540.5 381.5,-540.5 381.5,-521.5 465.5,-521.5 465.5,-540.5"/>
<text text-anchor="middle" x="423.5" y="-528.5" font-family="Helvetica,sans-Serif" font-size="10.00">CDListManager</text>
</a>
</g>
</g>
<!-- Node23&#45;&gt;Node27 -->
<g id="edge45" class="edge">
<title>Node23&#45;&gt;Node27</title>
<path fill="none" stroke="#9a32cd" stroke-dasharray="5,2" d="M242.17,-156.1C276.66,-227.8 392.94,-469.54 417.8,-521.22"/>
<polygon fill="#9a32cd" stroke="#9a32cd" points="245.34,-154.62 237.85,-147.13 239.03,-157.66 245.34,-154.62"/>
<text text-anchor="middle" x="323" y="-417" font-family="Helvetica,sans-Serif" font-size="10.00"> Lists</text>
<text text-anchor="middle" x="323" y="-406" font-family="Helvetica,sans-Serif" font-size="10.00">ListsToBeFreed</text>
<text text-anchor="middle" x="323" y="-395" font-family="Helvetica,sans-Serif" font-size="10.00">OpenList</text>
</g>
<!-- Node24 -->
<g id="node24" class="node">
<title>Node24</title>
<g id="a_node24"><a xlink:href="class_c_d_list_cmd_block.html" target="_top" xlink:title=" ">
<polygon fill="white" stroke="#bfbfbf" points="92,-145.5 0,-145.5 0,-126.5 92,-126.5 92,-145.5"/>
<text text-anchor="middle" x="46" y="-133.5" font-family="Helvetica,sans-Serif" font-size="10.00">CDListCmdBlock</text>
</a>
</g>
</g>
<!-- Node24&#45;&gt;Node23 -->
<g id="edge34" class="edge">
<title>Node24&#45;&gt;Node23</title>
<path fill="none" stroke="#9a32cd" stroke-dasharray="5,2" d="M103.47,-136C138.68,-136 182.06,-136 207.93,-136"/>
<polygon fill="#9a32cd" stroke="#9a32cd" points="103.87,-132.5 93.87,-136 103.87,-139.5 103.87,-132.5"/>
<text text-anchor="middle" x="142.5" y="-150" font-family="Helvetica,sans-Serif" font-size="10.00"> CurCmdBlock</text>
<text text-anchor="middle" x="142.5" y="-139" font-family="Helvetica,sans-Serif" font-size="10.00">FirstCmdBlock</text>
</g>
<!-- Node24&#45;&gt;Node24 -->
<g id="edge35" class="edge">
<title>Node24&#45;&gt;Node24</title>
<path fill="none" stroke="#9a32cd" stroke-dasharray="5,2" d="M28.87,-156.93C31.01,-160.79 36.72,-163.5 46,-163.5 62.96,-163.5 68,-154.44 61.11,-145.87"/>
<polygon fill="#9a32cd" stroke="#9a32cd" points="32.27,-157.82 30.62,-147.36 25.38,-156.57 32.27,-157.82"/>
<text text-anchor="middle" x="46" y="-166.5" font-family="Helvetica,sans-Serif" font-size="10.00"> NextBlock</text>
</g>
<!-- Node25&#45;&gt;Node3 -->
<g id="edge38" class="edge">
<title>Node25&#45;&gt;Node3</title>
<path fill="none" stroke="#9a32cd" stroke-dasharray="5,2" d="M432.4,-1057.32C444.01,-1027.36 466.72,-970.27 489,-923 535.5,-824.37 600.35,-709.22 619.48,-675.64"/>
<polygon fill="#9a32cd" stroke="#9a32cd" points="429.13,-1056.07 428.81,-1066.66 435.67,-1058.58 429.13,-1056.07"/>
<text text-anchor="middle" x="526.5" y="-926" font-family="Helvetica,sans-Serif" font-size="10.00"> MaterialManager</text>
</g>
<!-- Node26&#45;&gt;Node25 -->
<g id="edge41" class="edge">
<title>Node26&#45;&gt;Node25</title>
<path fill="none" stroke="#9a32cd" stroke-dasharray="5,2" d="M1025.93,-1099.2C902.68,-1094.86 590.32,-1083.84 471.43,-1079.65"/>
<polygon fill="#9a32cd" stroke="#9a32cd" points="1025.63,-1102.69 1035.74,-1099.55 1025.87,-1095.7 1025.63,-1102.69"/>
<text text-anchor="middle" x="739" y="-1093" font-family="Helvetica,sans-Serif" font-size="10.00"> DListMaterial</text>
</g>
<!-- Node27&#45;&gt;Node3 -->
<g id="edge44" class="edge">
<title>Node27&#45;&gt;Node3</title>
<path fill="none" stroke="#9a32cd" stroke-dasharray="5,2" d="M448.7,-547.3C490.72,-575.59 575.96,-632.98 610.24,-656.06"/>
<polygon fill="#9a32cd" stroke="#9a32cd" points="450.75,-544.45 440.5,-541.77 446.84,-550.26 450.75,-544.45"/>
<text text-anchor="middle" x="526.5" y="-626" font-family="Helvetica,sans-Serif" font-size="10.00"> DListManager</text>
</g>
<!-- Node28&#45;&gt;Node3 -->
<g id="edge46" class="edge">
<title>Node28&#45;&gt;Node3</title>
<path fill="none" stroke="#9a32cd" stroke-dasharray="5,2" d="M836.64,-154.59C823.93,-164.18 806.82,-175.76 790,-183 747.32,-201.38 719.35,-171.7 688,-206 684.03,-210.34 636.55,-589.46 628.24,-656.07"/>
<polygon fill="#9a32cd" stroke="#9a32cd" points="838.51,-157.57 844.24,-148.67 834.2,-152.05 838.51,-157.57"/>
<text text-anchor="middle" x="739" y="-209" font-family="Helvetica,sans-Serif" font-size="10.00"> TexManager</text>
</g>
<!-- Node29 -->
<g id="node29" class="node">
<title>Node29</title>
<g id="a_node29"><a xlink:href="class_c_m_m_texture.html" target="_top" xlink:title=" ">
<polygon fill="white" stroke="#bfbfbf" points="662,-85.5 590,-85.5 590,-66.5 662,-66.5 662,-85.5"/>
<text text-anchor="middle" x="626" y="-73.5" font-family="Helvetica,sans-Serif" font-size="10.00">CMMTexture</text>
</a>
</g>
</g>
<!-- Node29&#45;&gt;Node28 -->
<g id="edge48" class="edge">
<title>Node29&#45;&gt;Node28</title>
<path fill="none" stroke="#9a32cd" stroke-dasharray="5,2" d="M673.12,-64.75C706.8,-58.83 752.87,-55.62 790,-71 818.27,-82.71 840.83,-112.77 851.05,-128.34"/>
<polygon fill="#9a32cd" stroke="#9a32cd" points="672.85,-61.24 663.69,-66.55 674.17,-68.11 672.85,-61.24"/>
<text text-anchor="middle" x="739" y="-107" font-family="Helvetica,sans-Serif" font-size="10.00"> CurTexture</text>
<text text-anchor="middle" x="739" y="-96" font-family="Helvetica,sans-Serif" font-size="10.00">DefaultTex</text>
<text text-anchor="middle" x="739" y="-85" font-family="Helvetica,sans-Serif" font-size="10.00">LastTexSent</text>
<text text-anchor="middle" x="739" y="-74" font-family="Helvetica,sans-Serif" font-size="10.00">TexNames</text>
</g>
<!-- Node30 -->
<g id="node30" class="node">
<title>Node30</title>
<g id="a_node30"><a xlink:title=" ">
<polygon fill="white" stroke="#bfbfbf" points="460.5,-85.5 386.5,-85.5 386.5,-66.5 460.5,-66.5 460.5,-85.5"/>
<text text-anchor="middle" x="423.5" y="-73.5" font-family="Helvetica,sans-Serif" font-size="10.00">GS::CTexture</text>
</a>
</g>
</g>
<!-- Node30&#45;&gt;Node29 -->
<g id="edge49" class="edge">
<title>Node30&#45;&gt;Node29</title>
<path fill="none" stroke="#63b8ff" d="M472.04,-76C508.13,-76 556.95,-76 589.63,-76"/>
<polygon fill="#63b8ff" stroke="#63b8ff" points="472.32,-72.5 462.32,-76 472.32,-79.5 472.32,-72.5"/>
</g>
<!-- Node31 -->
<g id="node31" class="node">
<title>Node31</title>
<g id="a_node31"><a xlink:href="class_c_m_m_clut.html" target="_top" xlink:title=" ">
<polygon fill="white" stroke="#666666" points="654.5,-48.5 597.5,-48.5 597.5,-29.5 654.5,-29.5 654.5,-48.5"/>
<text text-anchor="middle" x="626" y="-36.5" font-family="Helvetica,sans-Serif" font-size="10.00">CMMClut</text>
</a>
</g>
</g>
<!-- Node31&#45;&gt;Node28 -->
<g id="edge50" class="edge">
<title>Node31&#45;&gt;Node28</title>
<path fill="none" stroke="#9a32cd" stroke-dasharray="5,2" d="M665.95,-31.26C700.62,-26.41 751.65,-24.46 790,-45 824.38,-63.41 845.39,-108.15 853.35,-128.1"/>
<polygon fill="#9a32cd" stroke="#9a32cd" points="665.7,-27.76 656.35,-32.75 666.77,-34.67 665.7,-27.76"/>
<text text-anchor="middle" x="739" y="-48" font-family="Helvetica,sans-Serif" font-size="10.00"> CurClut</text>
</g>
<!-- Node32 -->
<g id="node32" class="node">
<title>Node32</title>
<g id="a_node32"><a xlink:title=" ">
<polygon fill="white" stroke="#bfbfbf" points="453,-48.5 394,-48.5 394,-29.5 453,-29.5 453,-48.5"/>
<text text-anchor="middle" x="423.5" y="-36.5" font-family="Helvetica,sans-Serif" font-size="10.00">GS::CClut</text>
</a>
</g>
</g>
<!-- Node32&#45;&gt;Node31 -->
<g id="edge51" class="edge">
<title>Node32&#45;&gt;Node31</title>
<path fill="none" stroke="#63b8ff" d="M464.51,-39C503.85,-39 562.86,-39 597.29,-39"/>
<polygon fill="#63b8ff" stroke="#63b8ff" points="464.74,-35.5 454.74,-39 464.74,-42.5 464.74,-35.5"/>
</g>
<!-- Node33 -->
<g id="node33" class="node">
<title>Node33</title>
<g id="a_node33"><a xlink:href="class_c_imm_draw_context.html" target="_top" xlink:title=" ">
<polygon fill="white" stroke="#bfbfbf" points="1127,-595.5 1029,-595.5 1029,-576.5 1127,-576.5 1127,-595.5"/>
<text text-anchor="middle" x="1078" y="-583.5" font-family="Helvetica,sans-Serif" font-size="10.00">CImmDrawContext</text>
</a>
</g>
</g>
<!-- Node33&#45;&gt;Node3 -->
<g id="edge52" class="edge">
<title>Node33&#45;&gt;Node3</title>
<path fill="none" stroke="#9a32cd" stroke-dasharray="5,2" d="M1017.35,-584.08C923.16,-581.92 744.85,-581.65 688,-608 664.4,-618.94 644.13,-642.71 633.97,-656.17"/>
<polygon fill="#9a32cd" stroke="#9a32cd" points="1017.08,-587.57 1027.17,-584.32 1017.26,-580.57 1017.08,-587.57"/>
<text text-anchor="middle" x="858" y="-590" font-family="Helvetica,sans-Serif" font-size="10.00"> ImmDrawContext</text>
</g>
<!-- Node34&#45;&gt;Node3 -->
<g id="edge58" class="edge">
<title>Node34&#45;&gt;Node3</title>
<path fill="none" stroke="#9a32cd" stroke-dasharray="5,2" d="M807.17,-615.2C772.82,-610.51 726.57,-608.31 688,-621 667,-627.91 647.29,-645.13 636.22,-656.15"/>
<polygon fill="#9a32cd" stroke="#9a32cd" points="806.43,-618.63 816.84,-616.65 807.47,-611.71 806.43,-618.63"/>
<text text-anchor="middle" x="739" y="-624" font-family="Helvetica,sans-Serif" font-size="10.00"> CurDrawContext</text>
</g>
<!-- Node34&#45;&gt;Node33 -->
<g id="edge53" class="edge">
<title>Node34&#45;&gt;Node33</title>
<path fill="none" stroke="#63b8ff" d="M908.97,-616.73C937.19,-611.99 973.09,-605.83 1005,-600 1012.64,-598.6 1020.73,-597.08 1028.62,-595.56"/>
<polygon fill="#63b8ff" stroke="#63b8ff" points="908.55,-613.25 899.27,-618.35 909.71,-620.15 908.55,-613.25"/>
</g>
<!-- Node36 -->
<g id="node36" class="node">
<title>Node36</title>
<g id="a_node36"><a xlink:href="class_c_d_list_draw_context.html" target="_top" xlink:title=" ">
<polygon fill="white" stroke="#bfbfbf" points="1129,-667.5 1027,-667.5 1027,-648.5 1129,-648.5 1129,-667.5"/>
<text text-anchor="middle" x="1078" y="-655.5" font-family="Helvetica,sans-Serif" font-size="10.00">CDListDrawContext</text>
</a>
</g>
</g>
<!-- Node34&#45;&gt;Node36 -->
<g id="edge57" class="edge">
<title>Node34&#45;&gt;Node36</title>
<path fill="none" stroke="#63b8ff" d="M909,-632.57C944.33,-637.92 991.49,-645.06 1026.85,-650.41"/>
<polygon fill="#63b8ff" stroke="#63b8ff" points="909.88,-629.16 899.47,-631.13 908.83,-636.08 909.88,-629.16"/>
</g>
<!-- Node35 -->
<g id="node35" class="node">
<title>Node35</title>
<g id="a_node35"><a xlink:href="class_c_clear_env.html" target="_top" xlink:title=" ">
<polygon fill="white" stroke="#bfbfbf" points="889,-549.5 827,-549.5 827,-530.5 889,-530.5 889,-549.5"/>
<text text-anchor="middle" x="858" y="-537.5" font-family="Helvetica,sans-Serif" font-size="10.00">CClearEnv</text>
</a>
</g>
</g>
<!-- Node35&#45;&gt;Node33 -->
<g id="edge55" class="edge">
<title>Node35&#45;&gt;Node33</title>
<path fill="none" stroke="#9a32cd" stroke-dasharray="5,2" d="M900.35,-543.82C929.81,-547.05 970.18,-552.53 1005,-561 1020.94,-564.88 1038.33,-570.86 1052.03,-576.01"/>
<polygon fill="#9a32cd" stroke="#9a32cd" points="901.06,-540.37 890.74,-542.8 900.32,-547.33 901.06,-540.37"/>
<text text-anchor="middle" x="965.5" y="-564" font-family="Helvetica,sans-Serif" font-size="10.00"> ClearEnv</text>
</g>
<!-- Node36&#45;&gt;Node3 -->
<g id="edge56" class="edge">
<title>Node36&#45;&gt;Node3</title>
<path fill="none" stroke="#9a32cd" stroke-dasharray="5,2" d="M1015.53,-659.82C957.42,-661.47 867.79,-663.81 790,-665 745.58,-665.68 694.33,-665.9 661.35,-665.97"/>
<polygon fill="#9a32cd" stroke="#9a32cd" points="1015.31,-663.33 1025.2,-659.55 1015.11,-656.33 1015.31,-663.33"/>
<text text-anchor="middle" x="858" y="-667" font-family="Helvetica,sans-Serif" font-size="10.00"> DListDrawContext</text>
</g>
<!-- Node37&#45;&gt;Node3 -->
<g id="edge59" class="edge">
<title>Node37&#45;&gt;Node3</title>
<path fill="none" stroke="#9a32cd" stroke-dasharray="5,2" d="M813.86,-517.69C811.84,-518.73 809.88,-519.84 808,-521 798.64,-526.79 799.71,-532.83 790,-538 748.98,-559.84 725.46,-533.5 688,-561 654.35,-585.7 636.26,-635 629.79,-656.08"/>
<polygon fill="#9a32cd" stroke="#9a32cd" points="815.23,-520.91 822.86,-513.56 812.31,-514.55 815.23,-520.91"/>
<text text-anchor="middle" x="739" y="-564" font-family="Helvetica,sans-Serif" font-size="10.00"> DisplayContext</text>
</g>
</g>
</svg>
