<?xml version="1.0" encoding="UTF-8" standalone="no"?>
<!DOCTYPE svg PUBLIC "-//W3C//DTD SVG 1.1//EN"
 "http://www.w3.org/Graphics/SVG/1.1/DTD/svg11.dtd">
<!-- Generated by graphviz version 7.0.5 (20221223.1930)
 -->
<!-- Title: CGLContext Pages: 1 -->
<svg width="1281pt" height="1177pt"
 viewBox="0.00 0.00 1281.00 1176.50" xmlns="http://www.w3.org/2000/svg" xmlns:xlink="http://www.w3.org/1999/xlink">
<g id="graph0" class="graph" transform="scale(1 1) rotate(0) translate(4 1172.5)">
<title>CGLContext</title>
<!-- Node1 -->
<g id="node1" class="node">
<title>Node1</title>
<g id="a_node1"><a xlink:title=" ">
<polygon fill="#999999" stroke="#666666" points="609,-571 539,-571 539,-552 609,-552 609,-571"/>
<text text-anchor="middle" x="574" y="-559" font-family="Helvetica,sans-Serif" font-size="10.00">CGLContext</text>
</a>
</g>
</g>
<!-- Node3 -->
<g id="node3" class="node">
<title>Node3</title>
<g id="a_node3"><a xlink:href="class_c_matrix_stack.html" target="_top" xlink:title=" ">
<polygon fill="white" stroke="#bfbfbf" points="843.5,-686 768.5,-686 768.5,-667 843.5,-667 843.5,-686"/>
<text text-anchor="middle" x="806" y="-674" font-family="Helvetica,sans-Serif" font-size="10.00">CMatrixStack</text>
</a>
</g>
</g>
<!-- Node1&#45;&gt;Node3 -->
<g id="edge3" class="edge">
<title>Node1&#45;&gt;Node3</title>
<path fill="none" stroke="#9a32cd" stroke-dasharray="5,2" d="M587.14,-580.59C598.04,-596.15 615.47,-617.45 636,-629.5 676.08,-653.02 693.38,-639.53 738,-652.5 751.88,-656.53 767.07,-661.89 779.47,-666.53"/>
<polygon fill="#9a32cd" stroke="#9a32cd" points="590.26,-578.97 581.79,-572.61 584.45,-582.86 590.26,-578.97"/>
<text text-anchor="middle" x="687" y="-655.5" font-family="Helvetica,sans-Serif" font-size="10.00"> GLContext</text>
</g>
<!-- Node6 -->
<g id="node6" class="node">
<title>Node6</title>
<g id="a_node6"><a xlink:href="class_c_lighting.html" target="_top" xlink:title=" ">
<polygon fill="white" stroke="#bfbfbf" points="942.5,-582 884.5,-582 884.5,-563 942.5,-563 942.5,-582"/>
<text text-anchor="middle" x="913.5" y="-570" font-family="Helvetica,sans-Serif" font-size="10.00">CLighting</text>
</a>
</g>
</g>
<!-- Node1&#45;&gt;Node6 -->
<g id="edge9" class="edge">
<title>Node1&#45;&gt;Node6</title>
<path fill="none" stroke="#9a32cd" stroke-dasharray="5,2" d="M620.41,-562.98C691.11,-565.28 825.44,-569.66 884.01,-571.57"/>
<polygon fill="#9a32cd" stroke="#9a32cd" points="620.84,-559.49 610.73,-562.66 620.61,-566.49 620.84,-559.49"/>
<text text-anchor="middle" x="687" y="-569.5" font-family="Helvetica,sans-Serif" font-size="10.00"> GLContext</text>
</g>
<!-- Node8 -->
<g id="node8" class="node">
<title>Node8</title>
<g id="a_node8"><a xlink:href="class_c_light.html" target="_top" xlink:title=" ">
<polygon fill="white" stroke="#bfbfbf" points="828.5,-771 783.5,-771 783.5,-752 828.5,-752 828.5,-771"/>
<text text-anchor="middle" x="806" y="-759" font-family="Helvetica,sans-Serif" font-size="10.00">CLight</text>
</a>
</g>
</g>
<!-- Node1&#45;&gt;Node8 -->
<g id="edge12" class="edge">
<title>Node1&#45;&gt;Node8</title>
<path fill="none" stroke="#9a32cd" stroke-dasharray="5,2" d="M575.69,-582.84C578.15,-620.3 588.99,-697.61 636,-736.5 658,-754.7 742.47,-759.66 783.02,-761.01"/>
<polygon fill="#9a32cd" stroke="#9a32cd" points="579.19,-582.71 575.2,-572.89 572.2,-583.05 579.19,-582.71"/>
<text text-anchor="middle" x="687" y="-760.5" font-family="Helvetica,sans-Serif" font-size="10.00"> GLContext</text>
</g>
<!-- Node12 -->
<g id="node12" class="node">
<title>Node12</title>
<g id="a_node12"><a xlink:href="class_c_geom_manager.html" target="_top" xlink:title=" ">
<polygon fill="white" stroke="#bfbfbf" points="849.5,-1006 762.5,-1006 762.5,-987 849.5,-987 849.5,-1006"/>
<text text-anchor="middle" x="806" y="-994" font-family="Helvetica,sans-Serif" font-size="10.00">CGeomManager</text>
</a>
</g>
</g>
<!-- Node1&#45;&gt;Node12 -->
<g id="edge20" class="edge">
<title>Node1&#45;&gt;Node12</title>
<path fill="none" stroke="#9a32cd" stroke-dasharray="5,2" d="M577.85,-582.62C588.21,-658.82 623.92,-915.71 636,-928.5 667.91,-962.28 696.32,-930.94 738,-951.5 747.34,-956.11 747.54,-960.43 756,-966.5 766.05,-973.71 777.86,-980.97 787.37,-986.55"/>
<polygon fill="#9a32cd" stroke="#9a32cd" points="581.33,-582.24 576.52,-572.8 574.39,-583.18 581.33,-582.24"/>
<text text-anchor="middle" x="687" y="-954.5" font-family="Helvetica,sans-Serif" font-size="10.00"> GLContext</text>
</g>
<!-- Node15 -->
<g id="node15" class="node">
<title>Node15</title>
<g id="a_node15"><a xlink:href="class_c_renderer_manager.html" target="_top" xlink:title=" ">
<polygon fill="white" stroke="#bfbfbf" points="856,-901 756,-901 756,-882 856,-882 856,-901"/>
<text text-anchor="middle" x="806" y="-889" font-family="Helvetica,sans-Serif" font-size="10.00">CRendererManager</text>
</a>
</g>
</g>
<!-- Node1&#45;&gt;Node15 -->
<g id="edge24" class="edge">
<title>Node1&#45;&gt;Node15</title>
<path fill="none" stroke="#9a32cd" stroke-dasharray="5,2" d="M577.27,-582.66C583.71,-638.92 603.72,-790.48 636,-827.5 636.62,-828.21 731.37,-863.85 778.71,-881.63"/>
<polygon fill="#9a32cd" stroke="#9a32cd" points="580.77,-582.4 576.18,-572.85 573.81,-583.17 580.77,-582.4"/>
<text text-anchor="middle" x="687" y="-868.5" font-family="Helvetica,sans-Serif" font-size="10.00"> GLContext</text>
</g>
<!-- Node23 -->
<g id="node23" class="node">
<title>Node23</title>
<g id="a_node23"><a xlink:href="class_c_material_manager.html" target="_top" xlink:title=" ">
<polygon fill="white" stroke="#bfbfbf" points="1273,-420 1178,-420 1178,-401 1273,-401 1273,-420"/>
<text text-anchor="middle" x="1225.5" y="-408" font-family="Helvetica,sans-Serif" font-size="10.00">CMaterialManager</text>
</a>
</g>
</g>
<!-- Node1&#45;&gt;Node23 -->
<g id="edge37" class="edge">
<title>Node1&#45;&gt;Node23</title>
<path fill="none" stroke="#9a32cd" stroke-dasharray="5,2" d="M577.52,-540.68C582.57,-508.49 597.01,-446.96 636,-414.5 712.88,-350.49 981.97,-332.38 1081,-346.5 1117.2,-351.66 1126.68,-354.43 1160,-369.5 1178.86,-378.03 1198.69,-391.39 1211.3,-400.52"/>
<polygon fill="#9a32cd" stroke="#9a32cd" points="574.09,-539.93 576.18,-550.31 581.02,-540.89 574.09,-539.93"/>
<text text-anchor="middle" x="913.5" y="-350.5" font-family="Helvetica,sans-Serif" font-size="10.00"> GLContext</text>
</g>
<!-- Node25 -->
<g id="node25" class="node">
<title>Node25</title>
<g id="a_node25"><a xlink:href="class_c_material.html" target="_top" xlink:title=" ">
<polygon fill="white" stroke="#bfbfbf" points="835,-438 777,-438 777,-419 835,-419 835,-438"/>
<text text-anchor="middle" x="806" y="-426" font-family="Helvetica,sans-Serif" font-size="10.00">CMaterial</text>
</a>
</g>
</g>
<!-- Node1&#45;&gt;Node25 -->
<g id="edge40" class="edge">
<title>Node1&#45;&gt;Node25</title>
<path fill="none" stroke="#9a32cd" stroke-dasharray="5,2" d="M579.12,-540.38C585.78,-512.51 601.78,-464.34 636,-441.5 678.34,-413.23 740.63,-417.23 776.58,-422.8"/>
<polygon fill="#9a32cd" stroke="#9a32cd" points="575.71,-539.59 577.01,-550.11 582.55,-541.08 575.71,-539.59"/>
<text text-anchor="middle" x="687" y="-444.5" font-family="Helvetica,sans-Serif" font-size="10.00"> GLContext</text>
</g>
<!-- Node28 -->
<g id="node28" class="node">
<title>Node28</title>
<g id="a_node28"><a xlink:href="class_c_tex_manager.html" target="_top" xlink:title=" ">
<polygon fill="white" stroke="#bfbfbf" points="844.5,-89 767.5,-89 767.5,-70 844.5,-70 844.5,-89"/>
<text text-anchor="middle" x="806" y="-77" font-family="Helvetica,sans-Serif" font-size="10.00">CTexManager</text>
</a>
</g>
</g>
<!-- Node1&#45;&gt;Node28 -->
<g id="edge47" class="edge">
<title>Node1&#45;&gt;Node28</title>
<path fill="none" stroke="#9a32cd" stroke-dasharray="5,2" d="M575.08,-540.57C575.79,-464.7 582.18,-205.54 636,-147.5 667.6,-113.42 695.32,-142.88 738,-124.5 759.11,-115.41 780.67,-99.5 793.44,-89.24"/>
<polygon fill="#9a32cd" stroke="#9a32cd" points="571.58,-540.29 575.01,-550.31 578.58,-540.33 571.58,-540.29"/>
<text text-anchor="middle" x="687" y="-150.5" font-family="Helvetica,sans-Serif" font-size="10.00"> GLContext</text>
</g>
<!-- Node34 -->
<g id="node34" class="node">
<title>Node34</title>
<g id="a_node34"><a xlink:href="class_c_draw_context.html" target="_top" xlink:title=" ">
<polygon fill="white" stroke="#bfbfbf" points="845.5,-295 766.5,-295 766.5,-276 845.5,-276 845.5,-295"/>
<text text-anchor="middle" x="806" y="-283" font-family="Helvetica,sans-Serif" font-size="10.00">CDrawContext</text>
</a>
</g>
</g>
<!-- Node1&#45;&gt;Node34 -->
<g id="edge54" class="edge">
<title>Node1&#45;&gt;Node34</title>
<path fill="none" stroke="#9a32cd" stroke-dasharray="5,2" d="M577.26,-540.45C583.49,-486.52 602.69,-345.49 636,-314.5 645.43,-305.73 719.29,-295.57 766.2,-289.9"/>
<polygon fill="#9a32cd" stroke="#9a32cd" points="573.81,-539.81 576.18,-550.13 580.77,-540.58 573.81,-539.81"/>
<text text-anchor="middle" x="687" y="-317.5" font-family="Helvetica,sans-Serif" font-size="10.00"> GLContext</text>
</g>
<!-- Node37 -->
<g id="node37" class="node">
<title>Node37</title>
<g id="a_node37"><a xlink:href="class_c_display_context.html" target="_top" xlink:title=" ">
<polygon fill="white" stroke="#bfbfbf" points="850,-221 762,-221 762,-202 850,-202 850,-221"/>
<text text-anchor="middle" x="806" y="-209" font-family="Helvetica,sans-Serif" font-size="10.00">CDisplayContext</text>
</a>
</g>
</g>
<!-- Node1&#45;&gt;Node37 -->
<g id="edge60" class="edge">
<title>Node1&#45;&gt;Node37</title>
<path fill="none" stroke="#9a32cd" stroke-dasharray="5,2" d="M576.07,-540.26C579.76,-476.18 594.07,-286.54 636,-244.5 638.25,-242.24 712.47,-228.36 761.79,-219.33"/>
<polygon fill="#9a32cd" stroke="#9a32cd" points="572.59,-539.95 575.54,-550.12 579.58,-540.32 572.59,-539.95"/>
<text text-anchor="middle" x="687" y="-247.5" font-family="Helvetica,sans-Serif" font-size="10.00"> GLContext</text>
</g>
<!-- Node2 -->
<g id="node2" class="node">
<title>Node2</title>
<g id="a_node2"><a xlink:href="class_c_imm_matrix_stack.html" target="_top" xlink:title=" ">
<polygon fill="white" stroke="#bfbfbf" points="1073.5,-651 978.5,-651 978.5,-632 1073.5,-632 1073.5,-651"/>
<text text-anchor="middle" x="1026" y="-639" font-family="Helvetica,sans-Serif" font-size="10.00">CImmMatrixStack</text>
</a>
</g>
</g>
<!-- Node2&#45;&gt;Node1 -->
<g id="edge1" class="edge">
<title>Node2&#45;&gt;Node1</title>
<path fill="none" stroke="#9a32cd" stroke-dasharray="5,2" d="M966.82,-635.54C890.27,-627.01 751.83,-609.23 636,-581.5 624.73,-578.8 612.55,-575 602.06,-571.43"/>
<polygon fill="#9a32cd" stroke="#9a32cd" points="966.29,-639 976.61,-636.61 967.05,-632.04 966.29,-639"/>
<text text-anchor="middle" x="806" y="-634.5" font-family="Helvetica,sans-Serif" font-size="10.00"> ModelViewMatStack</text>
<text text-anchor="middle" x="806" y="-623.5" font-family="Helvetica,sans-Serif" font-size="10.00">ProjectionMatStack</text>
</g>
<!-- Node3&#45;&gt;Node1 -->
<g id="edge6" class="edge">
<title>Node3&#45;&gt;Node1</title>
<path fill="none" stroke="#9a32cd" stroke-dasharray="5,2" d="M756.89,-684.02C720.95,-687.13 672.01,-685.79 636,-663.5 601.09,-641.89 583.59,-592.24 577.53,-571.2"/>
<polygon fill="#9a32cd" stroke="#9a32cd" points="756.98,-687.53 766.57,-683.04 756.27,-680.57 756.98,-687.53"/>
<text text-anchor="middle" x="687" y="-698.5" font-family="Helvetica,sans-Serif" font-size="10.00"> CurMatrixStack</text>
<text text-anchor="middle" x="687" y="-687.5" font-family="Helvetica,sans-Serif" font-size="10.00">SavedCurMatStack</text>
</g>
<!-- Node3&#45;&gt;Node2 -->
<g id="edge2" class="edge">
<title>Node3&#45;&gt;Node2</title>
<path fill="none" stroke="#63b8ff" d="M854.9,-668.81C891.6,-662.92 941.94,-654.84 978.33,-648.99"/>
<polygon fill="#63b8ff" stroke="#63b8ff" points="854.79,-665.28 845.48,-670.32 855.9,-672.19 854.79,-665.28"/>
</g>
<!-- Node4 -->
<g id="node4" class="node">
<title>Node4</title>
<g id="a_node4"><a xlink:href="class_c_d_list_matrix_stack.html" target="_top" xlink:title=" ">
<polygon fill="white" stroke="#bfbfbf" points="1075,-704 977,-704 977,-685 1075,-685 1075,-704"/>
<text text-anchor="middle" x="1026" y="-692" font-family="Helvetica,sans-Serif" font-size="10.00">CDListMatrixStack</text>
</a>
</g>
</g>
<!-- Node3&#45;&gt;Node4 -->
<g id="edge5" class="edge">
<title>Node3&#45;&gt;Node4</title>
<path fill="none" stroke="#63b8ff" d="M855.22,-680.48C891.36,-683.47 940.59,-687.53 976.74,-690.52"/>
<polygon fill="#63b8ff" stroke="#63b8ff" points="855.74,-677.01 845.49,-679.68 855.17,-683.99 855.74,-677.01"/>
</g>
<!-- Node4&#45;&gt;Node1 -->
<g id="edge4" class="edge">
<title>Node4&#45;&gt;Node1</title>
<path fill="none" stroke="#9a32cd" stroke-dasharray="5,2" d="M965.65,-704.85C870.29,-720.15 688.32,-743.43 636,-708.5 587.97,-676.43 577.71,-598.75 575.56,-571.3"/>
<polygon fill="#9a32cd" stroke="#9a32cd" points="966.04,-708.33 975.35,-703.27 964.91,-701.43 966.04,-708.33"/>
<text text-anchor="middle" x="806" y="-729.5" font-family="Helvetica,sans-Serif" font-size="10.00"> DListMatStack</text>
</g>
<!-- Node5 -->
<g id="node5" class="node">
<title>Node5</title>
<g id="a_node5"><a xlink:href="class_c_imm_lighting.html" target="_top" xlink:title=" ">
<polygon fill="white" stroke="#bfbfbf" points="1264,-573 1187,-573 1187,-554 1264,-554 1264,-573"/>
<text text-anchor="middle" x="1225.5" y="-561" font-family="Helvetica,sans-Serif" font-size="10.00">CImmLighting</text>
</a>
</g>
</g>
<!-- Node5&#45;&gt;Node1 -->
<g id="edge7" class="edge">
<title>Node5&#45;&gt;Node1</title>
<path fill="none" stroke="#9a32cd" stroke-dasharray="5,2" d="M1175.41,-559C1121.07,-554.22 1030.86,-546.91 953,-543.5 857.53,-539.32 833.56,-541.17 738,-540.5 692.67,-540.18 680.71,-533.02 636,-540.5 623.08,-542.66 609.22,-547.23 597.99,-551.56"/>
<polygon fill="#9a32cd" stroke="#9a32cd" points="1174.99,-562.48 1185.26,-559.87 1175.61,-555.5 1174.99,-562.48"/>
<text text-anchor="middle" x="913.5" y="-546.5" font-family="Helvetica,sans-Serif" font-size="10.00"> ImmLighting</text>
</g>
<!-- Node6&#45;&gt;Node1 -->
<g id="edge17" class="edge">
<title>Node6&#45;&gt;Node1</title>
<path fill="none" stroke="#9a32cd" stroke-dasharray="5,2" d="M873.14,-563.92C819.46,-553.36 720.33,-537.95 636,-547.5 627.25,-548.49 617.94,-550.26 609.28,-552.21"/>
<polygon fill="#9a32cd" stroke="#9a32cd" points="872.22,-567.3 882.71,-565.85 873.6,-560.44 872.22,-567.3"/>
<text text-anchor="middle" x="687" y="-550.5" font-family="Helvetica,sans-Serif" font-size="10.00"> CurLighting</text>
</g>
<!-- Node6&#45;&gt;Node5 -->
<g id="edge8" class="edge">
<title>Node6&#45;&gt;Node5</title>
<path fill="none" stroke="#63b8ff" d="M954.1,-571.35C1014.16,-569.61 1127.53,-566.32 1186.58,-564.6"/>
<polygon fill="#63b8ff" stroke="#63b8ff" points="954.24,-567.84 944.35,-571.63 954.44,-574.84 954.24,-567.84"/>
</g>
<!-- Node9 -->
<g id="node9" class="node">
<title>Node9</title>
<g id="a_node9"><a xlink:href="class_c_d_list_lighting.html" target="_top" xlink:title=" ">
<polygon fill="white" stroke="#bfbfbf" points="1266,-766 1185,-766 1185,-747 1266,-747 1266,-766"/>
<text text-anchor="middle" x="1225.5" y="-754" font-family="Helvetica,sans-Serif" font-size="10.00">CDListLighting</text>
</a>
</g>
</g>
<!-- Node6&#45;&gt;Node9 -->
<g id="edge14" class="edge">
<title>Node6&#45;&gt;Node9</title>
<path fill="none" stroke="#63b8ff" d="M954.25,-579.55C959.87,-580.54 965.58,-581.55 971,-582.5 1054.98,-597.26 1092.5,-563.4 1160,-615.5 1204.11,-649.55 1219.06,-720.72 1223.16,-746.72"/>
<polygon fill="#63b8ff" stroke="#63b8ff" points="954.9,-576.11 944.44,-577.81 953.68,-583 954.9,-576.11"/>
</g>
<!-- Node7 -->
<g id="node7" class="node">
<title>Node7</title>
<g id="a_node7"><a xlink:href="class_c_imm_light.html" target="_top" xlink:title=" ">
<polygon fill="white" stroke="#bfbfbf" points="1058.5,-743 993.5,-743 993.5,-724 1058.5,-724 1058.5,-743"/>
<text text-anchor="middle" x="1026" y="-731" font-family="Helvetica,sans-Serif" font-size="10.00">CImmLight</text>
</a>
</g>
</g>
<!-- Node7&#45;&gt;Node5 -->
<g id="edge10" class="edge">
<title>Node7&#45;&gt;Node5</title>
<path fill="none" stroke="#9a32cd" stroke-dasharray="5,2" d="M1068.93,-722.64C1073.41,-720.19 1077.57,-717.18 1081,-713.5 1100.54,-692.49 1082.31,-674.84 1099,-651.5 1125.78,-614.06 1173.68,-587.03 1201.92,-573.44"/>
<polygon fill="#9a32cd" stroke="#9a32cd" points="1067.86,-719.29 1060.16,-726.57 1070.72,-725.68 1067.86,-719.29"/>
<text text-anchor="middle" x="1129.5" y="-742.5" font-family="Helvetica,sans-Serif" font-size="10.00"> Light0</text>
<text text-anchor="middle" x="1129.5" y="-731.5" font-family="Helvetica,sans-Serif" font-size="10.00">Light1</text>
<text text-anchor="middle" x="1129.5" y="-720.5" font-family="Helvetica,sans-Serif" font-size="10.00">Light2</text>
<text text-anchor="middle" x="1129.5" y="-709.5" font-family="Helvetica,sans-Serif" font-size="10.00">Light3</text>
<text text-anchor="middle" x="1129.5" y="-698.5" font-family="Helvetica,sans-Serif" font-size="10.00">Light4</text>
<text text-anchor="middle" x="1129.5" y="-687.5" font-family="Helvetica,sans-Serif" font-size="10.00">Light5</text>
<text text-anchor="middle" x="1129.5" y="-676.5" font-family="Helvetica,sans-Serif" font-size="10.00">Light6</text>
<text text-anchor="middle" x="1129.5" y="-665.5" font-family="Helvetica,sans-Serif" font-size="10.00">Light7</text>
<text text-anchor="middle" x="1129.5" y="-654.5" font-family="Helvetica,sans-Serif" font-size="10.00">Lights</text>
</g>
<!-- Node8&#45;&gt;Node7 -->
<g id="edge11" class="edge">
<title>Node8&#45;&gt;Node7</title>
<path fill="none" stroke="#63b8ff" d="M840.09,-757.25C881.62,-751.92 952.35,-742.83 993.25,-737.58"/>
<polygon fill="#63b8ff" stroke="#63b8ff" points="839.67,-753.77 830.2,-758.52 840.57,-760.72 839.67,-753.77"/>
</g>
<!-- Node10 -->
<g id="node10" class="node">
<title>Node10</title>
<g id="a_node10"><a xlink:href="class_c_d_list_light.html" target="_top" xlink:title=" ">
<polygon fill="white" stroke="#bfbfbf" points="1060,-781 992,-781 992,-762 1060,-762 1060,-781"/>
<text text-anchor="middle" x="1026" y="-769" font-family="Helvetica,sans-Serif" font-size="10.00">CDListLight</text>
</a>
</g>
</g>
<!-- Node8&#45;&gt;Node10 -->
<g id="edge16" class="edge">
<title>Node8&#45;&gt;Node10</title>
<path fill="none" stroke="#63b8ff" d="M839.95,-763.01C880.95,-764.89 950.58,-768.09 991.73,-769.97"/>
<polygon fill="#63b8ff" stroke="#63b8ff" points="840.36,-759.53 830.21,-762.56 840.04,-766.52 840.36,-759.53"/>
</g>
<!-- Node9&#45;&gt;Node1 -->
<g id="edge13" class="edge">
<title>Node9&#45;&gt;Node1</title>
<path fill="none" stroke="#9a32cd" stroke-dasharray="5,2" d="M1218.03,-776.98C1209.21,-801 1190.88,-839.67 1160,-856.5 1136.19,-869.47 1126,-858.93 1099,-856.5 1046.93,-851.81 674.81,-807.54 636,-772.5 574.87,-717.3 573.47,-605.04 574.52,-571.3"/>
<polygon fill="#9a32cd" stroke="#9a32cd" points="1221.29,-778.27 1221.21,-767.67 1214.67,-776 1221.29,-778.27"/>
<text text-anchor="middle" x="913.5" y="-841.5" font-family="Helvetica,sans-Serif" font-size="10.00"> DListLighting</text>
</g>
<!-- Node10&#45;&gt;Node9 -->
<g id="edge15" class="edge">
<title>Node10&#45;&gt;Node9</title>
<path fill="none" stroke="#9a32cd" stroke-dasharray="5,2" d="M1071.36,-761.55C1080.46,-759.88 1090,-758.4 1099,-757.5 1127.51,-754.64 1159.84,-754.45 1184.55,-754.95"/>
<polygon fill="#9a32cd" stroke="#9a32cd" points="1070.78,-758.1 1061.63,-763.44 1072.12,-764.97 1070.78,-758.1"/>
<text text-anchor="middle" x="1129.5" y="-848.5" font-family="Helvetica,sans-Serif" font-size="10.00"> Light0</text>
<text text-anchor="middle" x="1129.5" y="-837.5" font-family="Helvetica,sans-Serif" font-size="10.00">Light1</text>
<text text-anchor="middle" x="1129.5" y="-826.5" font-family="Helvetica,sans-Serif" font-size="10.00">Light2</text>
<text text-anchor="middle" x="1129.5" y="-815.5" font-family="Helvetica,sans-Serif" font-size="10.00">Light3</text>
<text text-anchor="middle" x="1129.5" y="-804.5" font-family="Helvetica,sans-Serif" font-size="10.00">Light4</text>
<text text-anchor="middle" x="1129.5" y="-793.5" font-family="Helvetica,sans-Serif" font-size="10.00">Light5</text>
<text text-anchor="middle" x="1129.5" y="-782.5" font-family="Helvetica,sans-Serif" font-size="10.00">Light6</text>
<text text-anchor="middle" x="1129.5" y="-771.5" font-family="Helvetica,sans-Serif" font-size="10.00">Light7</text>
<text text-anchor="middle" x="1129.5" y="-760.5" font-family="Helvetica,sans-Serif" font-size="10.00">Lights</text>
</g>
<!-- Node11 -->
<g id="node11" class="node">
<title>Node11</title>
<g id="a_node11"><a xlink:href="class_c_imm_geom_manager.html" target="_top" xlink:title=" ">
<polygon fill="white" stroke="#bfbfbf" points="1079.5,-926 972.5,-926 972.5,-907 1079.5,-907 1079.5,-926"/>
<text text-anchor="middle" x="1026" y="-914" font-family="Helvetica,sans-Serif" font-size="10.00">CImmGeomManager</text>
</a>
</g>
</g>
<!-- Node11&#45;&gt;Node1 -->
<g id="edge18" class="edge">
<title>Node11&#45;&gt;Node1</title>
<path fill="none" stroke="#9a32cd" stroke-dasharray="5,2" d="M989.59,-902.52C978.01,-898.14 965.02,-893.42 953,-889.5 910.45,-875.63 899.14,-874.39 856,-862.5 855.24,-862.29 636.55,-803.06 636,-802.5 602.44,-768.32 581.21,-612.18 576.17,-571.31"/>
<polygon fill="#9a32cd" stroke="#9a32cd" points="988.19,-905.73 998.79,-906.05 990.7,-899.2 988.19,-905.73"/>
<text text-anchor="middle" x="806" y="-865.5" font-family="Helvetica,sans-Serif" font-size="10.00"> ImmGManager</text>
</g>
<!-- Node12&#45;&gt;Node1 -->
<g id="edge35" class="edge">
<title>Node12&#45;&gt;Node1</title>
<path fill="none" stroke="#9a32cd" stroke-dasharray="5,2" d="M751.14,-986.04C702.06,-976.45 637.03,-963.58 636,-962.5 628.95,-955.11 584.58,-631.78 576.32,-571.22"/>
<polygon fill="#9a32cd" stroke="#9a32cd" points="750.31,-989.44 760.79,-987.92 751.65,-982.57 750.31,-989.44"/>
<text text-anchor="middle" x="687" y="-985.5" font-family="Helvetica,sans-Serif" font-size="10.00"> CurGManager</text>
</g>
<!-- Node12&#45;&gt;Node11 -->
<g id="edge19" class="edge">
<title>Node12&#45;&gt;Node11</title>
<path fill="none" stroke="#63b8ff" d="M861.34,-998.33C889.73,-997.39 924.43,-993.19 953,-980.5 980.82,-968.15 1005.47,-941.01 1017.4,-926.35"/>
<polygon fill="#63b8ff" stroke="#63b8ff" points="861.44,-994.83 851.5,-998.52 861.57,-1001.83 861.44,-994.83"/>
</g>
<!-- Node20 -->
<g id="node20" class="node">
<title>Node20</title>
<g id="a_node20"><a xlink:href="class_c_d_list_geom_manager.html" target="_top" xlink:title=" ">
<polygon fill="white" stroke="#bfbfbf" points="1081,-1041 971,-1041 971,-1022 1081,-1022 1081,-1041"/>
<text text-anchor="middle" x="1026" y="-1029" font-family="Helvetica,sans-Serif" font-size="10.00">CDListGeomManager</text>
</a>
</g>
</g>
<!-- Node12&#45;&gt;Node20 -->
<g id="edge30" class="edge">
<title>Node12&#45;&gt;Node20</title>
<path fill="none" stroke="#63b8ff" d="M860.77,-1005.13C894.22,-1010.5 937.11,-1017.39 970.67,-1022.78"/>
<polygon fill="#63b8ff" stroke="#63b8ff" points="861.73,-1001.74 851.3,-1003.61 860.62,-1008.65 861.73,-1001.74"/>
</g>
<!-- Node13 -->
<g id="node13" class="node">
<title>Node13</title>
<g id="a_node13"><a xlink:href="class_c_vert_array.html" target="_top" xlink:title=" ">
<polygon fill="white" stroke="#bfbfbf" points="606,-1121 542,-1121 542,-1102 606,-1102 606,-1121"/>
<text text-anchor="middle" x="574" y="-1109" font-family="Helvetica,sans-Serif" font-size="10.00">CVertArray</text>
</a>
</g>
</g>
<!-- Node13&#45;&gt;Node12 -->
<g id="edge21" class="edge">
<title>Node13&#45;&gt;Node12</title>
<path fill="none" stroke="#9a32cd" stroke-dasharray="5,2" d="M617.6,-1113.73C653.9,-1113.3 705.25,-1106.81 738,-1077.5 757.16,-1060.35 739.44,-1042.18 756,-1022.5 761.71,-1015.72 769.64,-1010.46 777.46,-1006.49"/>
<polygon fill="#9a32cd" stroke="#9a32cd" points="617.92,-1110.24 607.9,-1113.69 617.89,-1117.24 617.92,-1110.24"/>
<text text-anchor="middle" x="687" y="-1115.5" font-family="Helvetica,sans-Serif" font-size="10.00"> VertArray</text>
</g>
<!-- Node14 -->
<g id="node14" class="node">
<title>Node14</title>
<g id="a_node14"><a xlink:href="structt_user_prim_entry.html" target="_top" xlink:title=" ">
<polygon fill="white" stroke="#bfbfbf" points="615.5,-1084 532.5,-1084 532.5,-1065 615.5,-1065 615.5,-1084"/>
<text text-anchor="middle" x="574" y="-1072" font-family="Helvetica,sans-Serif" font-size="10.00">tUserPrimEntry</text>
</a>
</g>
</g>
<!-- Node14&#45;&gt;Node12 -->
<g id="edge22" class="edge">
<title>Node14&#45;&gt;Node12</title>
<path fill="none" stroke="#9a32cd" stroke-dasharray="5,2" d="M627.06,-1065.58C659.72,-1058.98 702.26,-1048.5 738,-1033.5 746.64,-1029.87 747.86,-1027.14 756,-1022.5 765.7,-1016.97 776.68,-1011.11 785.77,-1006.36"/>
<polygon fill="#9a32cd" stroke="#9a32cd" points="626.58,-1062.11 617.44,-1067.47 627.92,-1068.98 626.58,-1062.11"/>
<text text-anchor="middle" x="687" y="-1065.5" font-family="Helvetica,sans-Serif" font-size="10.00"> UserPrimTypes</text>
</g>
<!-- Node15&#45;&gt;Node11 -->
<g id="edge23" class="edge">
<title>Node15&#45;&gt;Node11</title>
<path fill="none" stroke="#9a32cd" stroke-dasharray="5,2" d="M867.52,-893.78C893.87,-895.26 925.05,-897.65 953,-901.5 962.49,-902.81 972.59,-904.64 982.15,-906.57"/>
<polygon fill="#9a32cd" stroke="#9a32cd" points="867.85,-890.3 857.68,-893.27 867.49,-897.29 867.85,-890.3"/>
<text text-anchor="middle" x="913.5" y="-904.5" font-family="Helvetica,sans-Serif" font-size="10.00"> RendererManager</text>
</g>
<!-- Node16 -->
<g id="node16" class="node">
<title>Node16</title>
<g id="a_node16"><a xlink:href="class_c_renderer_props.html" target="_top" xlink:title=" ">
<polygon fill="white" stroke="#bfbfbf" points="618,-1028 530,-1028 530,-1009 618,-1009 618,-1028"/>
<text text-anchor="middle" x="574" y="-1016" font-family="Helvetica,sans-Serif" font-size="10.00">CRendererProps</text>
</a>
</g>
</g>
<!-- Node16&#45;&gt;Node15 -->
<g id="edge25" class="edge">
<title>Node16&#45;&gt;Node15</title>
<path fill="none" stroke="#9a32cd" stroke-dasharray="5,2" d="M629.66,-1017.48C670.62,-1015.58 722.21,-1010.39 738,-996.5 761.16,-976.14 738.93,-955.18 756,-929.5 763.87,-917.67 776.65,-907.93 787.19,-901.28"/>
<polygon fill="#9a32cd" stroke="#9a32cd" points="629.52,-1013.98 619.67,-1017.88 629.8,-1020.98 629.52,-1013.98"/>
<text text-anchor="middle" x="687" y="-1019.5" font-family="Helvetica,sans-Serif" font-size="10.00"> RendererRequirements</text>
</g>
<!-- Node17 -->
<g id="node17" class="node">
<title>Node17</title>
<g id="a_node17"><a xlink:href="structt_renderer.html" target="_top" xlink:title=" ">
<polygon fill="white" stroke="#bfbfbf" points="603.5,-893 544.5,-893 544.5,-874 603.5,-874 603.5,-893"/>
<text text-anchor="middle" x="574" y="-881" font-family="Helvetica,sans-Serif" font-size="10.00">tRenderer</text>
</a>
</g>
</g>
<!-- Node17&#45;&gt;Node15 -->
<g id="edge26" class="edge">
<title>Node17&#45;&gt;Node15</title>
<path fill="none" stroke="#9a32cd" stroke-dasharray="5,2" d="M615.33,-882.65C648.34,-882.22 696.23,-882.2 738,-884.5 743.72,-884.82 749.71,-885.27 755.65,-885.79"/>
<polygon fill="#9a32cd" stroke="#9a32cd" points="615.34,-879.15 605.39,-882.8 615.45,-886.15 615.34,-879.15"/>
<text text-anchor="middle" x="687" y="-920.5" font-family="Helvetica,sans-Serif" font-size="10.00"> CurrentRenderer</text>
<text text-anchor="middle" x="687" y="-909.5" font-family="Helvetica,sans-Serif" font-size="10.00">DefaultRenderers</text>
<text text-anchor="middle" x="687" y="-898.5" font-family="Helvetica,sans-Serif" font-size="10.00">NewRenderer</text>
<text text-anchor="middle" x="687" y="-887.5" font-family="Helvetica,sans-Serif" font-size="10.00">UserRenderers</text>
</g>
<!-- Node18 -->
<g id="node18" class="node">
<title>Node18</title>
<g id="a_node18"><a xlink:href="class_c_renderer.html" target="_top" xlink:title=" ">
<polygon fill="white" stroke="#666666" points="419,-893 357,-893 357,-874 419,-874 419,-893"/>
<text text-anchor="middle" x="388" y="-881" font-family="Helvetica,sans-Serif" font-size="10.00">CRenderer</text>
</a>
</g>
</g>
<!-- Node18&#45;&gt;Node17 -->
<g id="edge27" class="edge">
<title>Node18&#45;&gt;Node17</title>
<path fill="none" stroke="#9a32cd" stroke-dasharray="5,2" d="M430.55,-883.5C465.16,-883.5 513.56,-883.5 544.09,-883.5"/>
<polygon fill="#9a32cd" stroke="#9a32cd" points="430.9,-880 420.9,-883.5 430.9,-887 430.9,-880"/>
<text text-anchor="middle" x="480" y="-886.5" font-family="Helvetica,sans-Serif" font-size="10.00"> renderer</text>
</g>
<!-- Node19 -->
<g id="node19" class="node">
<title>Node19</title>
<g id="a_node19"><a xlink:href="class_c_geometry_block.html" target="_top" xlink:title=" ">
<polygon fill="white" stroke="#bfbfbf" points="851,-957 761,-957 761,-938 851,-938 851,-957"/>
<text text-anchor="middle" x="806" y="-945" font-family="Helvetica,sans-Serif" font-size="10.00">CGeometryBlock</text>
</a>
</g>
</g>
<!-- Node19&#45;&gt;Node11 -->
<g id="edge28" class="edge">
<title>Node19&#45;&gt;Node11</title>
<path fill="none" stroke="#9a32cd" stroke-dasharray="5,2" d="M862.36,-937.35C866.29,-936.7 870.21,-936.08 874,-935.5 906.52,-930.55 943.12,-925.92 972.15,-922.47"/>
<polygon fill="#9a32cd" stroke="#9a32cd" points="862.04,-933.86 852.77,-938.98 863.21,-940.76 862.04,-933.86"/>
<text text-anchor="middle" x="913.5" y="-938.5" font-family="Helvetica,sans-Serif" font-size="10.00"> Geometry</text>
</g>
<!-- Node19&#45;&gt;Node20 -->
<g id="edge34" class="edge">
<title>Node19&#45;&gt;Node20</title>
<path fill="none" stroke="#9a32cd" stroke-dasharray="5,2" d="M857.71,-960.47C886.2,-968.41 922.13,-979.53 953,-992.5 972.92,-1000.87 994.57,-1013.05 1008.87,-1021.56"/>
<polygon fill="#9a32cd" stroke="#9a32cd" points="858.82,-957.14 848.25,-957.88 856.97,-963.89 858.82,-957.14"/>
<text text-anchor="middle" x="913.5" y="-995.5" font-family="Helvetica,sans-Serif" font-size="10.00"> Geometry</text>
</g>
<!-- Node20&#45;&gt;Node1 -->
<g id="edge29" class="edge">
<title>Node20&#45;&gt;Node1</title>
<path fill="none" stroke="#9a32cd" stroke-dasharray="5,2" d="M959.36,-1041.38C860.99,-1054.57 681.95,-1071.82 636,-1030.5 608.57,-1005.84 622.58,-902.1 618,-865.5 603.49,-749.67 582.34,-609.54 576.53,-571.46"/>
<polygon fill="#9a32cd" stroke="#9a32cd" points="959.72,-1044.86 969.15,-1040.04 958.77,-1037.93 959.72,-1044.86"/>
<text text-anchor="middle" x="806" y="-1058.5" font-family="Helvetica,sans-Serif" font-size="10.00"> DListGManager</text>
</g>
<!-- Node21 -->
<g id="node21" class="node">
<title>Node21</title>
<g id="a_node21"><a xlink:href="class_c_d_list.html" target="_top" xlink:title=" ">
<polygon fill="white" stroke="#bfbfbf" points="240,-938 193,-938 193,-919 240,-919 240,-938"/>
<text text-anchor="middle" x="216.5" y="-926" font-family="Helvetica,sans-Serif" font-size="10.00">CDList</text>
</a>
</g>
</g>
<!-- Node21&#45;&gt;Node20 -->
<g id="edge31" class="edge">
<title>Node21&#45;&gt;Node20</title>
<path fill="none" stroke="#9a32cd" stroke-dasharray="5,2" d="M222.24,-949.43C236.41,-1005.96 283.99,-1157.5 387,-1157.5 387,-1157.5 387,-1157.5 807,-1157.5 899.67,-1157.5 988.36,-1071.09 1016.11,-1041.39"/>
<polygon fill="#9a32cd" stroke="#9a32cd" points="225.67,-948.72 219.94,-939.81 218.86,-950.35 225.67,-948.72"/>
<text text-anchor="middle" x="574" y="-1160.5" font-family="Helvetica,sans-Serif" font-size="10.00"> CurDList</text>
</g>
<!-- Node27 -->
<g id="node27" class="node">
<title>Node27</title>
<g id="a_node27"><a xlink:href="class_c_d_list_manager.html" target="_top" xlink:title=" ">
<polygon fill="white" stroke="#bfbfbf" points="430,-709 346,-709 346,-690 430,-690 430,-709"/>
<text text-anchor="middle" x="388" y="-697" font-family="Helvetica,sans-Serif" font-size="10.00">CDListManager</text>
</a>
</g>
</g>
<!-- Node21&#45;&gt;Node27 -->
<g id="edge45" class="edge">
<title>Node21&#45;&gt;Node27</title>
<path fill="none" stroke="#9a32cd" stroke-dasharray="5,2" d="M231.45,-909.66C265.85,-863.17 353.87,-744.26 379.74,-709.3"/>
<polygon fill="#9a32cd" stroke="#9a32cd" points="228.82,-907.32 225.68,-917.44 234.45,-911.49 228.82,-907.32"/>
<text text-anchor="middle" x="293" y="-897.5" font-family="Helvetica,sans-Serif" font-size="10.00"> Lists</text>
<text text-anchor="middle" x="293" y="-886.5" font-family="Helvetica,sans-Serif" font-size="10.00">ListsToBeFreed</text>
<text text-anchor="middle" x="293" y="-875.5" font-family="Helvetica,sans-Serif" font-size="10.00">OpenList</text>
</g>
<!-- Node22 -->
<g id="node22" class="node">
<title>Node22</title>
<g id="a_node22"><a xlink:href="class_c_d_list_cmd_block.html" target="_top" xlink:title=" ">
<polygon fill="white" stroke="#bfbfbf" points="92,-938 0,-938 0,-919 92,-919 92,-938"/>
<text text-anchor="middle" x="46" y="-926" font-family="Helvetica,sans-Serif" font-size="10.00">CDListCmdBlock</text>
</a>
</g>
</g>
<!-- Node22&#45;&gt;Node21 -->
<g id="edge32" class="edge">
<title>Node22&#45;&gt;Node21</title>
<path fill="none" stroke="#9a32cd" stroke-dasharray="5,2" d="M103.57,-928.5C134.14,-928.5 170.19,-928.5 192.95,-928.5"/>
<polygon fill="#9a32cd" stroke="#9a32cd" points="103.67,-925 93.67,-928.5 103.67,-932 103.67,-925"/>
<text text-anchor="middle" x="142.5" y="-942.5" font-family="Helvetica,sans-Serif" font-size="10.00"> CurCmdBlock</text>
<text text-anchor="middle" x="142.5" y="-931.5" font-family="Helvetica,sans-Serif" font-size="10.00">FirstCmdBlock</text>
</g>
<!-- Node22&#45;&gt;Node22 -->
<g id="edge33" class="edge">
<title>Node22&#45;&gt;Node22</title>
<path fill="none" stroke="#9a32cd" stroke-dasharray="5,2" d="M28.87,-949.43C31.01,-953.29 36.72,-956 46,-956 62.96,-956 68,-946.94 61.11,-938.37"/>
<polygon fill="#9a32cd" stroke="#9a32cd" points="32.27,-950.32 30.62,-939.86 25.38,-949.07 32.27,-950.32"/>
<text text-anchor="middle" x="46" y="-959" font-family="Helvetica,sans-Serif" font-size="10.00"> NextBlock</text>
</g>
<!-- Node23&#45;&gt;Node1 -->
<g id="edge36" class="edge">
<title>Node23&#45;&gt;Node1</title>
<path fill="none" stroke="#9a32cd" stroke-dasharray="5,2" d="M1202.17,-426.91C1190.19,-435.04 1174.86,-444.4 1160,-450.5 1126.69,-464.18 1116.41,-461.93 1081,-468.5 884.54,-504.95 827.28,-474.73 636,-532.5 620.62,-537.14 604.23,-545.12 592.32,-551.54"/>
<polygon fill="#9a32cd" stroke="#9a32cd" points="1203.95,-429.94 1210.13,-421.34 1199.93,-424.21 1203.95,-429.94"/>
<text text-anchor="middle" x="913.5" y="-493.5" font-family="Helvetica,sans-Serif" font-size="10.00"> MaterialManager</text>
</g>
<!-- Node24 -->
<g id="node24" class="node">
<title>Node24</title>
<g id="a_node24"><a xlink:href="class_c_imm_material.html" target="_top" xlink:title=" ">
<polygon fill="white" stroke="#bfbfbf" points="1064.5,-459 987.5,-459 987.5,-440 1064.5,-440 1064.5,-459"/>
<text text-anchor="middle" x="1026" y="-447" font-family="Helvetica,sans-Serif" font-size="10.00">CImmMaterial</text>
</a>
</g>
</g>
<!-- Node24&#45;&gt;Node23 -->
<g id="edge38" class="edge">
<title>Node24&#45;&gt;Node23</title>
<path fill="none" stroke="#9a32cd" stroke-dasharray="5,2" d="M1075.99,-440.63C1101.14,-435.99 1132.24,-430.12 1160,-424.5 1166.29,-423.23 1172.91,-421.84 1179.42,-420.45"/>
<polygon fill="#9a32cd" stroke="#9a32cd" points="1075.58,-437.15 1066.38,-442.39 1076.85,-444.03 1075.58,-437.15"/>
<text text-anchor="middle" x="1129.5" y="-438.5" font-family="Helvetica,sans-Serif" font-size="10.00"> ImmMaterial</text>
</g>
<!-- Node25&#45;&gt;Node23 -->
<g id="edge43" class="edge">
<title>Node25&#45;&gt;Node23</title>
<path fill="none" stroke="#9a32cd" stroke-dasharray="5,2" d="M846.5,-426.47C879.72,-424.79 928.46,-422.38 971,-420.5 1043.16,-417.32 1126.9,-414.11 1177.77,-412.21"/>
<polygon fill="#9a32cd" stroke="#9a32cd" points="846.76,-422.95 836.95,-426.96 847.11,-429.94 846.76,-422.95"/>
<text text-anchor="middle" x="1026" y="-423.5" font-family="Helvetica,sans-Serif" font-size="10.00"> CurMaterial</text>
</g>
<!-- Node25&#45;&gt;Node24 -->
<g id="edge39" class="edge">
<title>Node25&#45;&gt;Node24</title>
<path fill="none" stroke="#63b8ff" d="M846.95,-432.35C886.98,-436.2 948.15,-442.1 987.35,-445.87"/>
<polygon fill="#63b8ff" stroke="#63b8ff" points="847.3,-428.87 837.01,-431.39 846.62,-435.83 847.3,-428.87"/>
</g>
<!-- Node26 -->
<g id="node26" class="node">
<title>Node26</title>
<g id="a_node26"><a xlink:href="class_c_d_list_material.html" target="_top" xlink:title=" ">
<polygon fill="white" stroke="#bfbfbf" points="1066.5,-374 985.5,-374 985.5,-355 1066.5,-355 1066.5,-374"/>
<text text-anchor="middle" x="1026" y="-362" font-family="Helvetica,sans-Serif" font-size="10.00">CDListMaterial</text>
</a>
</g>
</g>
<!-- Node25&#45;&gt;Node26 -->
<g id="edge42" class="edge">
<title>Node25&#45;&gt;Node26</title>
<path fill="none" stroke="#63b8ff" d="M838.81,-413.97C849.81,-409.28 862.31,-404.31 874,-400.5 911.03,-388.44 954.36,-378.52 985.09,-372.17"/>
<polygon fill="#63b8ff" stroke="#63b8ff" points="837.54,-410.7 829.78,-417.91 840.34,-417.12 837.54,-410.7"/>
</g>
<!-- Node26&#45;&gt;Node23 -->
<g id="edge41" class="edge">
<title>Node26&#45;&gt;Node23</title>
<path fill="none" stroke="#9a32cd" stroke-dasharray="5,2" d="M1078.16,-369.99C1103.11,-373.32 1133.4,-378.33 1160,-385.5 1174.38,-389.37 1189.96,-395.36 1202.21,-400.5"/>
<polygon fill="#9a32cd" stroke="#9a32cd" points="1078.61,-366.51 1068.25,-368.72 1077.72,-373.46 1078.61,-366.51"/>
<text text-anchor="middle" x="1129.5" y="-388.5" font-family="Helvetica,sans-Serif" font-size="10.00"> DListMaterial</text>
</g>
<!-- Node27&#45;&gt;Node1 -->
<g id="edge44" class="edge">
<title>Node27&#45;&gt;Node1</title>
<path fill="none" stroke="#9a32cd" stroke-dasharray="5,2" d="M411.16,-682.88C449.88,-653.84 528.71,-594.72 559.89,-571.33"/>
<polygon fill="#9a32cd" stroke="#9a32cd" points="409.34,-679.87 403.44,-688.67 413.54,-685.47 409.34,-679.87"/>
<text text-anchor="middle" x="480" y="-657.5" font-family="Helvetica,sans-Serif" font-size="10.00"> DListManager</text>
</g>
<!-- Node28&#45;&gt;Node1 -->
<g id="edge46" class="edge">
<title>Node28&#45;&gt;Node1</title>
<path fill="none" stroke="#9a32cd" stroke-dasharray="5,2" d="M755.89,-87.95C707.5,-96.5 640.17,-109.06 636,-113.5 573.82,-179.74 574.21,-492.53 574.86,-551.8"/>
<polygon fill="#9a32cd" stroke="#9a32cd" points="756.39,-91.42 765.63,-86.24 755.18,-84.52 756.39,-91.42"/>
<text text-anchor="middle" x="687" y="-116.5" font-family="Helvetica,sans-Serif" font-size="10.00"> TexManager</text>
</g>
<!-- Node29 -->
<g id="node29" class="node">
<title>Node29</title>
<g id="a_node29"><a xlink:href="class_c_m_m_texture.html" target="_top" xlink:title=" ">
<polygon fill="white" stroke="#bfbfbf" points="610,-56 538,-56 538,-37 610,-37 610,-56"/>
<text text-anchor="middle" x="574" y="-44" font-family="Helvetica,sans-Serif" font-size="10.00">CMMTexture</text>
</a>
</g>
</g>
<!-- Node29&#45;&gt;Node28 -->
<g id="edge48" class="edge">
<title>Node29&#45;&gt;Node28</title>
<path fill="none" stroke="#9a32cd" stroke-dasharray="5,2" d="M621.31,-40.96C654.29,-38.36 699.42,-37.51 738,-46.5 757.07,-50.94 776.95,-61.62 790.06,-69.64"/>
<polygon fill="#9a32cd" stroke="#9a32cd" points="621.34,-37.45 611.69,-41.81 621.96,-44.42 621.34,-37.45"/>
<text text-anchor="middle" x="687" y="-82.5" font-family="Helvetica,sans-Serif" font-size="10.00"> CurTexture</text>
<text text-anchor="middle" x="687" y="-71.5" font-family="Helvetica,sans-Serif" font-size="10.00">DefaultTex</text>
<text text-anchor="middle" x="687" y="-60.5" font-family="Helvetica,sans-Serif" font-size="10.00">LastTexSent</text>
<text text-anchor="middle" x="687" y="-49.5" font-family="Helvetica,sans-Serif" font-size="10.00">TexNames</text>
</g>
<!-- Node30 -->
<g id="node30" class="node">
<title>Node30</title>
<g id="a_node30"><a xlink:title=" ">
<polygon fill="white" stroke="#bfbfbf" points="425,-56 351,-56 351,-37 425,-37 425,-56"/>
<text text-anchor="middle" x="388" y="-44" font-family="Helvetica,sans-Serif" font-size="10.00">GS::CTexture</text>
</a>
</g>
</g>
<!-- Node30&#45;&gt;Node29 -->
<g id="edge49" class="edge">
<title>Node30&#45;&gt;Node29</title>
<path fill="none" stroke="#63b8ff" d="M436.54,-46.5C468.13,-46.5 508.93,-46.5 537.66,-46.5"/>
<polygon fill="#63b8ff" stroke="#63b8ff" points="436.87,-43 426.87,-46.5 436.87,-50 436.87,-43"/>
</g>
<!-- Node31 -->
<g id="node31" class="node">
<title>Node31</title>
<g id="a_node31"><a xlink:href="class_c_m_m_clut.html" target="_top" xlink:title=" ">
<polygon fill="white" stroke="#666666" points="602.5,-19 545.5,-19 545.5,0 602.5,0 602.5,-19"/>
<text text-anchor="middle" x="574" y="-7" font-family="Helvetica,sans-Serif" font-size="10.00">CMMClut</text>
</a>
</g>
</g>
<!-- Node31&#45;&gt;Node28 -->
<g id="edge50" class="edge">
<title>Node31&#45;&gt;Node28</title>
<path fill="none" stroke="#9a32cd" stroke-dasharray="5,2" d="M614.32,-6.79C648.32,-5.89 698.14,-8.14 738,-24.5 762.5,-34.56 784.98,-56.78 796.64,-69.69"/>
<polygon fill="#9a32cd" stroke="#9a32cd" points="614.36,-3.28 604.5,-7.16 614.63,-10.28 614.36,-3.28"/>
<text text-anchor="middle" x="687" y="-27.5" font-family="Helvetica,sans-Serif" font-size="10.00"> CurClut</text>
</g>
<!-- Node32 -->
<g id="node32" class="node">
<title>Node32</title>
<g id="a_node32"><a xlink:title=" ">
<polygon fill="white" stroke="#bfbfbf" points="417.5,-19 358.5,-19 358.5,0 417.5,0 417.5,-19"/>
<text text-anchor="middle" x="388" y="-7" font-family="Helvetica,sans-Serif" font-size="10.00">GS::CClut</text>
</a>
</g>
</g>
<!-- Node32&#45;&gt;Node31 -->
<g id="edge51" class="edge">
<title>Node32&#45;&gt;Node31</title>
<path fill="none" stroke="#63b8ff" d="M429.02,-9.5C464.08,-9.5 514.14,-9.5 545.05,-9.5"/>
<polygon fill="#63b8ff" stroke="#63b8ff" points="429.26,-6 419.26,-9.5 429.26,-13 429.26,-6"/>
</g>
<!-- Node33 -->
<g id="node33" class="node">
<title>Node33</title>
<g id="a_node33"><a xlink:href="class_c_imm_draw_context.html" target="_top" xlink:title=" ">
<polygon fill="white" stroke="#bfbfbf" points="1075,-247 977,-247 977,-228 1075,-228 1075,-247"/>
<text text-anchor="middle" x="1026" y="-235" font-family="Helvetica,sans-Serif" font-size="10.00">CImmDrawContext</text>
</a>
</g>
</g>
<!-- Node33&#45;&gt;Node1 -->
<g id="edge52" class="edge">
<title>Node33&#45;&gt;Node1</title>
<path fill="none" stroke="#9a32cd" stroke-dasharray="5,2" d="M992.08,-223.08C958.58,-209.26 904.8,-189.37 856,-181.5 807.72,-173.71 672.46,-154.9 636,-187.5 579.84,-237.71 575.34,-497.36 575.02,-551.57"/>
<polygon fill="#9a32cd" stroke="#9a32cd" points="990.65,-226.28 1001.23,-226.93 993.36,-219.83 990.65,-226.28"/>
<text text-anchor="middle" x="806" y="-184.5" font-family="Helvetica,sans-Serif" font-size="10.00"> ImmDrawContext</text>
</g>
<!-- Node34&#45;&gt;Node1 -->
<g id="edge58" class="edge">
<title>Node34&#45;&gt;Node1</title>
<path fill="none" stroke="#9a32cd" stroke-dasharray="5,2" d="M770.06,-271.82C732.64,-259.7 673.58,-248.16 636,-278.5 592.01,-314.02 578.22,-505.71 575.53,-551.62"/>
<polygon fill="#9a32cd" stroke="#9a32cd" points="768.9,-275.13 779.5,-275.07 771.18,-268.51 768.9,-275.13"/>
<text text-anchor="middle" x="687" y="-281.5" font-family="Helvetica,sans-Serif" font-size="10.00"> CurDrawContext</text>
</g>
<!-- Node34&#45;&gt;Node33 -->
<g id="edge53" class="edge">
<title>Node34&#45;&gt;Node33</title>
<path fill="none" stroke="#63b8ff" d="M857.03,-274.48C894.08,-266.33 944.15,-255.3 979.96,-247.42"/>
<polygon fill="#63b8ff" stroke="#63b8ff" points="856.47,-271.02 847.45,-276.59 857.97,-277.86 856.47,-271.02"/>
</g>
<!-- Node36 -->
<g id="node36" class="node">
<title>Node36</title>
<g id="a_node36"><a xlink:href="class_c_d_list_draw_context.html" target="_top" xlink:title=" ">
<polygon fill="white" stroke="#bfbfbf" points="1077,-298 975,-298 975,-279 1077,-279 1077,-298"/>
<text text-anchor="middle" x="1026" y="-286" font-family="Helvetica,sans-Serif" font-size="10.00">CDListDrawContext</text>
</a>
</g>
</g>
<!-- Node34&#45;&gt;Node36 -->
<g id="edge57" class="edge">
<title>Node34&#45;&gt;Node36</title>
<path fill="none" stroke="#63b8ff" d="M857.46,-286.19C892.74,-286.68 939.65,-287.33 974.85,-287.81"/>
<polygon fill="#63b8ff" stroke="#63b8ff" points="857.53,-282.7 847.49,-286.06 857.44,-289.69 857.53,-282.7"/>
</g>
<!-- Node35 -->
<g id="node35" class="node">
<title>Node35</title>
<g id="a_node35"><a xlink:href="class_c_clear_env.html" target="_top" xlink:title=" ">
<polygon fill="white" stroke="#bfbfbf" points="837,-258 775,-258 775,-239 837,-239 837,-258"/>
<text text-anchor="middle" x="806" y="-246" font-family="Helvetica,sans-Serif" font-size="10.00">CClearEnv</text>
</a>
</g>
</g>
<!-- Node35&#45;&gt;Node33 -->
<g id="edge55" class="edge">
<title>Node35&#45;&gt;Node33</title>
<path fill="none" stroke="#9a32cd" stroke-dasharray="5,2" d="M848.42,-241.38C856.86,-240.2 865.7,-239.14 874,-238.5 908.24,-235.84 946.98,-235.65 976.64,-236.08"/>
<polygon fill="#9a32cd" stroke="#9a32cd" points="848.12,-237.89 838.74,-242.83 849.15,-244.81 848.12,-237.89"/>
<text text-anchor="middle" x="913.5" y="-241.5" font-family="Helvetica,sans-Serif" font-size="10.00"> ClearEnv</text>
</g>
<!-- Node36&#45;&gt;Node1 -->
<g id="edge56" class="edge">
<title>Node36&#45;&gt;Node1</title>
<path fill="none" stroke="#9a32cd" stroke-dasharray="5,2" d="M963.49,-298.83C854.61,-317.18 639.06,-353.78 636,-356.5 576.09,-409.83 573.85,-519.11 574.61,-551.96"/>
<polygon fill="#9a32cd" stroke="#9a32cd" points="963.86,-302.32 973.14,-297.21 962.7,-295.42 963.86,-302.32"/>
<text text-anchor="middle" x="806" y="-336.5" font-family="Helvetica,sans-Serif" font-size="10.00"> DListDrawContext</text>
</g>
<!-- Node37&#45;&gt;Node1 -->
<g id="edge59" class="edge">
<title>Node37&#45;&gt;Node1</title>
<path fill="none" stroke="#9a32cd" stroke-dasharray="5,2" d="M764.68,-198.53C726.94,-189.14 671.23,-182.71 636,-212.5 582.45,-257.77 575.9,-499.23 575.11,-551.51"/>
<polygon fill="#9a32cd" stroke="#9a32cd" points="763.74,-201.9 774.31,-201.11 765.55,-195.14 763.74,-201.9"/>
<text text-anchor="middle" x="687" y="-215.5" font-family="Helvetica,sans-Serif" font-size="10.00"> DisplayContext</text>
</g>
</g>
</svg>
