<?xml version="1.0" encoding="UTF-8" standalone="no"?>
<!DOCTYPE svg PUBLIC "-//W3C//DTD SVG 1.1//EN"
 "http://www.w3.org/Graphics/SVG/1.1/DTD/svg11.dtd">
<!-- Generated by graphviz version 7.0.5 (20221223.1930)
 -->
<!-- Title: CDrawContext Pages: 1 -->
<svg width="1349pt" height="1004pt"
 viewBox="0.00 0.00 1349.00 1003.50" xmlns="http://www.w3.org/2000/svg" xmlns:xlink="http://www.w3.org/1999/xlink">
<g id="graph0" class="graph" transform="scale(1 1) rotate(0) translate(4 999.5)">
<title>CDrawContext</title>
<!-- Node1 -->
<g id="node1" class="node">
<title>Node1</title>
<g id="a_node1"><a xlink:title=" ">
<polygon fill="#999999" stroke="#666666" points="272,-507 193,-507 193,-488 272,-488 272,-507"/>
<text text-anchor="middle" x="232.5" y="-495" font-family="Helvetica,sans-Serif" font-size="10.00">CDrawContext</text>
</a>
</g>
</g>
<!-- Node2 -->
<g id="node2" class="node">
<title>Node2</title>
<g id="a_node2"><a xlink:href="class_c_g_l_context.html" target="_top" xlink:title=" ">
<polygon fill="white" stroke="#bfbfbf" points="677,-508 607,-508 607,-489 677,-489 677,-508"/>
<text text-anchor="middle" x="642" y="-496" font-family="Helvetica,sans-Serif" font-size="10.00">CGLContext</text>
</a>
</g>
</g>
<!-- Node1&#45;&gt;Node2 -->
<g id="edge58" class="edge">
<title>Node1&#45;&gt;Node2</title>
<path fill="none" stroke="#9a32cd" stroke-dasharray="5,2" d="M283.72,-504.98C285.84,-505.18 287.94,-505.35 290,-505.5 418.57,-514.56 451.32,-512.86 580,-505.5 588.62,-505.01 597.89,-504.13 606.54,-503.15"/>
<polygon fill="#9a32cd" stroke="#9a32cd" points="284.15,-501.51 273.83,-503.89 283.39,-508.47 284.15,-501.51"/>
<text text-anchor="middle" x="429" y="-514.5" font-family="Helvetica,sans-Serif" font-size="10.00"> CurDrawContext</text>
</g>
<!-- Node34 -->
<g id="node34" class="node">
<title>Node34</title>
<g id="a_node34"><a xlink:href="class_c_imm_draw_context.html" target="_top" xlink:title=" ">
<polygon fill="white" stroke="#bfbfbf" points="478,-438 380,-438 380,-419 478,-419 478,-438"/>
<text text-anchor="middle" x="429" y="-426" font-family="Helvetica,sans-Serif" font-size="10.00">CImmDrawContext</text>
</a>
</g>
</g>
<!-- Node1&#45;&gt;Node34 -->
<g id="edge54" class="edge">
<title>Node1&#45;&gt;Node34</title>
<path fill="none" stroke="#63b8ff" d="M256.78,-481.38C266.67,-475.1 278.55,-468.27 290,-463.5 318.74,-451.51 352.62,-442.85 379.62,-437.14"/>
<polygon fill="#63b8ff" stroke="#63b8ff" points="254.98,-478.37 248.55,-486.79 258.83,-484.22 254.98,-478.37"/>
</g>
<!-- Node36 -->
<g id="node36" class="node">
<title>Node36</title>
<g id="a_node36"><a xlink:href="class_c_d_list_draw_context.html" target="_top" xlink:title=" ">
<polygon fill="white" stroke="#bfbfbf" points="480,-570 378,-570 378,-551 480,-551 480,-570"/>
<text text-anchor="middle" x="429" y="-558" font-family="Helvetica,sans-Serif" font-size="10.00">CDListDrawContext</text>
</a>
</g>
</g>
<!-- Node1&#45;&gt;Node36 -->
<g id="edge57" class="edge">
<title>Node1&#45;&gt;Node36</title>
<path fill="none" stroke="#63b8ff" d="M253.73,-514.11C264.01,-521.74 277.05,-530.24 290,-535.5 317.86,-546.81 350.96,-553.03 377.75,-556.43"/>
<polygon fill="#63b8ff" stroke="#63b8ff" points="256.05,-511.48 246,-508.12 251.76,-517.01 256.05,-511.48"/>
</g>
<!-- Node2&#45;&gt;Node1 -->
<g id="edge1" class="edge">
<title>Node2&#45;&gt;Node1</title>
<path fill="none" stroke="#9a32cd" stroke-dasharray="5,2" d="M595.5,-494.92C563.27,-492.57 519.02,-489.71 480,-488.5 434.69,-487.09 423.31,-487.09 378,-488.5 342.2,-489.61 301.48,-492.28 272.41,-494.42"/>
<polygon fill="#9a32cd" stroke="#9a32cd" points="595.05,-498.4 605.29,-495.65 595.57,-491.41 595.05,-498.4"/>
<text text-anchor="middle" x="429" y="-491.5" font-family="Helvetica,sans-Serif" font-size="10.00"> GLContext</text>
</g>
<!-- Node4 -->
<g id="node4" class="node">
<title>Node4</title>
<g id="a_node4"><a xlink:href="class_c_matrix_stack.html" target="_top" xlink:title=" ">
<polygon fill="white" stroke="#bfbfbf" points="911.5,-630 836.5,-630 836.5,-611 911.5,-611 911.5,-630"/>
<text text-anchor="middle" x="874" y="-618" font-family="Helvetica,sans-Serif" font-size="10.00">CMatrixStack</text>
</a>
</g>
</g>
<!-- Node2&#45;&gt;Node4 -->
<g id="edge4" class="edge">
<title>Node2&#45;&gt;Node4</title>
<path fill="none" stroke="#9a32cd" stroke-dasharray="5,2" d="M645.39,-519.79C650.2,-551.38 664.27,-609.7 704,-635.5 749.45,-665.02 816.87,-644.35 851.2,-630.4"/>
<polygon fill="#9a32cd" stroke="#9a32cd" points="648.86,-519.36 644.08,-509.91 641.92,-520.28 648.86,-519.36"/>
<text text-anchor="middle" x="755" y="-653.5" font-family="Helvetica,sans-Serif" font-size="10.00"> GLContext</text>
</g>
<!-- Node7 -->
<g id="node7" class="node">
<title>Node7</title>
<g id="a_node7"><a xlink:href="class_c_lighting.html" target="_top" xlink:title=" ">
<polygon fill="white" stroke="#bfbfbf" points="1010.5,-397 952.5,-397 952.5,-378 1010.5,-378 1010.5,-397"/>
<text text-anchor="middle" x="981.5" y="-385" font-family="Helvetica,sans-Serif" font-size="10.00">CLighting</text>
</a>
</g>
</g>
<!-- Node2&#45;&gt;Node7 -->
<g id="edge10" class="edge">
<title>Node2&#45;&gt;Node7</title>
<path fill="none" stroke="#9a32cd" stroke-dasharray="5,2" d="M656.31,-480.06C667.44,-466.09 684.58,-447.62 704,-437.5 792.06,-391.61 826.37,-416.66 924,-398.5 933.14,-396.8 943.09,-394.88 952.06,-393.13"/>
<polygon fill="#9a32cd" stroke="#9a32cd" points="653.8,-477.58 650.53,-487.65 659.37,-481.82 653.8,-477.58"/>
<text text-anchor="middle" x="755" y="-440.5" font-family="Helvetica,sans-Serif" font-size="10.00"> GLContext</text>
</g>
<!-- Node9 -->
<g id="node9" class="node">
<title>Node9</title>
<g id="a_node9"><a xlink:href="class_c_light.html" target="_top" xlink:title=" ">
<polygon fill="white" stroke="#bfbfbf" points="896.5,-470 851.5,-470 851.5,-451 896.5,-451 896.5,-470"/>
<text text-anchor="middle" x="874" y="-458" font-family="Helvetica,sans-Serif" font-size="10.00">CLight</text>
</a>
</g>
</g>
<!-- Node2&#45;&gt;Node9 -->
<g id="edge13" class="edge">
<title>Node2&#45;&gt;Node9</title>
<path fill="none" stroke="#9a32cd" stroke-dasharray="5,2" d="M663.63,-482.12C674.88,-474.24 689.43,-465.62 704,-461.5 755.1,-447.05 818.43,-452.53 851.14,-456.99"/>
<polygon fill="#9a32cd" stroke="#9a32cd" points="661.87,-479.07 655.91,-487.83 666.03,-484.7 661.87,-479.07"/>
<text text-anchor="middle" x="755" y="-464.5" font-family="Helvetica,sans-Serif" font-size="10.00"> GLContext</text>
</g>
<!-- Node13 -->
<g id="node13" class="node">
<title>Node13</title>
<g id="a_node13"><a xlink:href="class_c_geom_manager.html" target="_top" xlink:title=" ">
<polygon fill="white" stroke="#bfbfbf" points="917.5,-186 830.5,-186 830.5,-167 917.5,-167 917.5,-186"/>
<text text-anchor="middle" x="874" y="-174" font-family="Helvetica,sans-Serif" font-size="10.00">CGeomManager</text>
</a>
</g>
</g>
<!-- Node2&#45;&gt;Node13 -->
<g id="edge21" class="edge">
<title>Node2&#45;&gt;Node13</title>
<path fill="none" stroke="#9a32cd" stroke-dasharray="5,2" d="M642.68,-477.32C643.13,-432.64 650.26,-327.64 704,-264.5 736.12,-226.77 765.5,-248.05 806,-219.5 815.51,-212.8 814.63,-207.39 824,-200.5 831.48,-195 840.41,-190.2 848.59,-186.36"/>
<polygon fill="#9a32cd" stroke="#9a32cd" points="639.18,-477.19 642.7,-487.18 646.18,-477.17 639.18,-477.19"/>
<text text-anchor="middle" x="755" y="-267.5" font-family="Helvetica,sans-Serif" font-size="10.00"> GLContext</text>
</g>
<!-- Node16 -->
<g id="node16" class="node">
<title>Node16</title>
<g id="a_node16"><a xlink:href="class_c_renderer_manager.html" target="_top" xlink:title=" ">
<polygon fill="white" stroke="#bfbfbf" points="924,-100 824,-100 824,-81 924,-81 924,-100"/>
<text text-anchor="middle" x="874" y="-88" font-family="Helvetica,sans-Serif" font-size="10.00">CRendererManager</text>
</a>
</g>
</g>
<!-- Node2&#45;&gt;Node16 -->
<g id="edge25" class="edge">
<title>Node2&#45;&gt;Node16</title>
<path fill="none" stroke="#9a32cd" stroke-dasharray="5,2" d="M646.37,-477.59C657.57,-408.5 693.49,-191.36 704,-180.5 736.33,-147.11 768.91,-185.5 806,-157.5 819.33,-147.43 812.84,-136.93 824,-124.5 832.72,-114.79 844.72,-106.41 854.67,-100.39"/>
<polygon fill="#9a32cd" stroke="#9a32cd" points="642.96,-476.75 644.82,-487.18 649.87,-477.87 642.96,-476.75"/>
<text text-anchor="middle" x="755" y="-183.5" font-family="Helvetica,sans-Serif" font-size="10.00"> GLContext</text>
</g>
<!-- Node24 -->
<g id="node24" class="node">
<title>Node24</title>
<g id="a_node24"><a xlink:href="class_c_material_manager.html" target="_top" xlink:title=" ">
<polygon fill="white" stroke="#bfbfbf" points="1341,-750 1246,-750 1246,-731 1341,-731 1341,-750"/>
<text text-anchor="middle" x="1293.5" y="-738" font-family="Helvetica,sans-Serif" font-size="10.00">CMaterialManager</text>
</a>
</g>
</g>
<!-- Node2&#45;&gt;Node24 -->
<g id="edge38" class="edge">
<title>Node2&#45;&gt;Node24</title>
<path fill="none" stroke="#9a32cd" stroke-dasharray="5,2" d="M644.79,-519.51C650.11,-576.72 667.74,-733.28 704,-767.5 868.57,-922.82 1188.25,-789.5 1272.01,-750.44"/>
<polygon fill="#9a32cd" stroke="#9a32cd" points="648.3,-519.49 643.93,-509.84 641.33,-520.11 648.3,-519.49"/>
<text text-anchor="middle" x="981.5" y="-842.5" font-family="Helvetica,sans-Serif" font-size="10.00"> GLContext</text>
</g>
<!-- Node26 -->
<g id="node26" class="node">
<title>Node26</title>
<g id="a_node26"><a xlink:href="class_c_material.html" target="_top" xlink:title=" ">
<polygon fill="white" stroke="#bfbfbf" points="903,-726 845,-726 845,-707 903,-707 903,-726"/>
<text text-anchor="middle" x="874" y="-714" font-family="Helvetica,sans-Serif" font-size="10.00">CMaterial</text>
</a>
</g>
</g>
<!-- Node2&#45;&gt;Node26 -->
<g id="edge41" class="edge">
<title>Node2&#45;&gt;Node26</title>
<path fill="none" stroke="#9a32cd" stroke-dasharray="5,2" d="M642.69,-519.59C643.34,-560.38 651.09,-650 704,-694.5 743.51,-727.73 807.68,-725.88 844.53,-721.33"/>
<polygon fill="#9a32cd" stroke="#9a32cd" points="646.19,-519.69 642.68,-509.69 639.19,-519.69 646.19,-519.69"/>
<text text-anchor="middle" x="755" y="-726.5" font-family="Helvetica,sans-Serif" font-size="10.00"> GLContext</text>
</g>
<!-- Node29 -->
<g id="node29" class="node">
<title>Node29</title>
<g id="a_node29"><a xlink:href="class_c_tex_manager.html" target="_top" xlink:title=" ">
<polygon fill="white" stroke="#bfbfbf" points="912.5,-911 835.5,-911 835.5,-892 912.5,-892 912.5,-911"/>
<text text-anchor="middle" x="874" y="-899" font-family="Helvetica,sans-Serif" font-size="10.00">CTexManager</text>
</a>
</g>
</g>
<!-- Node2&#45;&gt;Node29 -->
<g id="edge48" class="edge">
<title>Node2&#45;&gt;Node29</title>
<path fill="none" stroke="#9a32cd" stroke-dasharray="5,2" d="M643.92,-519.73C647.21,-585.51 660.61,-784.22 704,-828.5 736.39,-861.56 763.96,-830.14 806,-849.5 829,-860.09 851.34,-879.93 863.52,-891.8"/>
<polygon fill="#9a32cd" stroke="#9a32cd" points="647.42,-519.76 643.46,-509.94 640.43,-520.09 647.42,-519.76"/>
<text text-anchor="middle" x="755" y="-852.5" font-family="Helvetica,sans-Serif" font-size="10.00"> GLContext</text>
</g>
<!-- Node37 -->
<g id="node37" class="node">
<title>Node37</title>
<g id="a_node37"><a xlink:href="class_c_display_context.html" target="_top" xlink:title=" ">
<polygon fill="white" stroke="#bfbfbf" points="918,-593 830,-593 830,-574 918,-574 918,-593"/>
<text text-anchor="middle" x="874" y="-581" font-family="Helvetica,sans-Serif" font-size="10.00">CDisplayContext</text>
</a>
</g>
</g>
<!-- Node2&#45;&gt;Node37 -->
<g id="edge60" class="edge">
<title>Node2&#45;&gt;Node37</title>
<path fill="none" stroke="#9a32cd" stroke-dasharray="5,2" d="M676.01,-512.68C684.98,-516.21 694.77,-519.76 704,-522.5 748.37,-535.69 764.63,-522.75 806,-543.5 815.57,-548.3 815.11,-553.54 824,-559.5 831.87,-564.78 841.06,-569.6 849.35,-573.51"/>
<polygon fill="#9a32cd" stroke="#9a32cd" points="677.54,-509.53 666.96,-509.02 674.92,-516.01 677.54,-509.53"/>
<text text-anchor="middle" x="755" y="-546.5" font-family="Helvetica,sans-Serif" font-size="10.00"> GLContext</text>
</g>
<!-- Node3 -->
<g id="node3" class="node">
<title>Node3</title>
<g id="a_node3"><a xlink:href="class_c_imm_matrix_stack.html" target="_top" xlink:title=" ">
<polygon fill="white" stroke="#bfbfbf" points="1141.5,-630 1046.5,-630 1046.5,-611 1141.5,-611 1141.5,-630"/>
<text text-anchor="middle" x="1094" y="-618" font-family="Helvetica,sans-Serif" font-size="10.00">CImmMatrixStack</text>
</a>
</g>
</g>
<!-- Node3&#45;&gt;Node2 -->
<g id="edge2" class="edge">
<title>Node3&#45;&gt;Node2</title>
<path fill="none" stroke="#9a32cd" stroke-dasharray="5,2" d="M1035.11,-632.01C1030.34,-632.88 1025.59,-633.72 1021,-634.5 944.23,-647.49 744.82,-694.05 704,-665.5 650.38,-628 643.73,-538.08 643.03,-508.28"/>
<polygon fill="#9a32cd" stroke="#9a32cd" points="1035.52,-635.5 1044.71,-630.22 1034.24,-628.61 1035.52,-635.5"/>
<text text-anchor="middle" x="874" y="-682.5" font-family="Helvetica,sans-Serif" font-size="10.00"> ModelViewMatStack</text>
<text text-anchor="middle" x="874" y="-671.5" font-family="Helvetica,sans-Serif" font-size="10.00">ProjectionMatStack</text>
</g>
<!-- Node4&#45;&gt;Node2 -->
<g id="edge7" class="edge">
<title>Node4&#45;&gt;Node2</title>
<path fill="none" stroke="#9a32cd" stroke-dasharray="5,2" d="M825.21,-612.48C776.15,-604.18 706.57,-592.19 704,-590.5 672.91,-570.11 653.91,-527.79 646.53,-508.49"/>
<polygon fill="#9a32cd" stroke="#9a32cd" points="824.33,-615.88 834.77,-614.1 825.5,-608.98 824.33,-615.88"/>
<text text-anchor="middle" x="755" y="-622.5" font-family="Helvetica,sans-Serif" font-size="10.00"> CurMatrixStack</text>
<text text-anchor="middle" x="755" y="-611.5" font-family="Helvetica,sans-Serif" font-size="10.00">SavedCurMatStack</text>
</g>
<!-- Node4&#45;&gt;Node3 -->
<g id="edge3" class="edge">
<title>Node4&#45;&gt;Node3</title>
<path fill="none" stroke="#63b8ff" d="M923.38,-620.5C960.03,-620.5 1010.1,-620.5 1046.33,-620.5"/>
<polygon fill="#63b8ff" stroke="#63b8ff" points="923.49,-617 913.49,-620.5 923.49,-624 923.49,-617"/>
</g>
<!-- Node5 -->
<g id="node5" class="node">
<title>Node5</title>
<g id="a_node5"><a xlink:href="class_c_d_list_matrix_stack.html" target="_top" xlink:title=" ">
<polygon fill="white" stroke="#bfbfbf" points="1143,-568 1045,-568 1045,-549 1143,-549 1143,-568"/>
<text text-anchor="middle" x="1094" y="-556" font-family="Helvetica,sans-Serif" font-size="10.00">CDListMatrixStack</text>
</a>
</g>
</g>
<!-- Node4&#45;&gt;Node5 -->
<g id="edge6" class="edge">
<title>Node4&#45;&gt;Node5</title>
<path fill="none" stroke="#63b8ff" d="M921.06,-607.4C961.98,-595.76 1020.91,-579 1058.06,-568.44"/>
<polygon fill="#63b8ff" stroke="#63b8ff" points="920.14,-604.02 911.48,-610.12 922.06,-610.76 920.14,-604.02"/>
</g>
<!-- Node5&#45;&gt;Node2 -->
<g id="edge5" class="edge">
<title>Node5&#45;&gt;Node2</title>
<path fill="none" stroke="#9a32cd" stroke-dasharray="5,2" d="M1033.39,-550.55C937.83,-537.81 753.37,-513.22 677.19,-503.06"/>
<polygon fill="#9a32cd" stroke="#9a32cd" points="1032.71,-553.99 1043.09,-551.85 1033.64,-547.05 1032.71,-553.99"/>
<text text-anchor="middle" x="874" y="-537.5" font-family="Helvetica,sans-Serif" font-size="10.00"> DListMatStack</text>
</g>
<!-- Node6 -->
<g id="node6" class="node">
<title>Node6</title>
<g id="a_node6"><a xlink:href="class_c_imm_lighting.html" target="_top" xlink:title=" ">
<polygon fill="white" stroke="#bfbfbf" points="1332,-437 1255,-437 1255,-418 1332,-418 1332,-437"/>
<text text-anchor="middle" x="1293.5" y="-425" font-family="Helvetica,sans-Serif" font-size="10.00">CImmLighting</text>
</a>
</g>
</g>
<!-- Node6&#45;&gt;Node2 -->
<g id="edge8" class="edge">
<title>Node6&#45;&gt;Node2</title>
<path fill="none" stroke="#9a32cd" stroke-dasharray="5,2" d="M1286.03,-447.98C1277.21,-472 1258.88,-510.67 1228,-527.5 1207.38,-538.74 829.46,-503.6 806,-502.5 761.61,-500.42 710.36,-499.39 677.36,-498.9"/>
<polygon fill="#9a32cd" stroke="#9a32cd" points="1289.29,-449.27 1289.21,-438.67 1282.67,-447 1289.29,-449.27"/>
<text text-anchor="middle" x="981.5" y="-522.5" font-family="Helvetica,sans-Serif" font-size="10.00"> ImmLighting</text>
</g>
<!-- Node7&#45;&gt;Node2 -->
<g id="edge18" class="edge">
<title>Node7&#45;&gt;Node2</title>
<path fill="none" stroke="#9a32cd" stroke-dasharray="5,2" d="M941.19,-377.08C884.45,-364.39 778.28,-349.67 704,-393.5 667.69,-414.93 650.88,-466.96 645.27,-488.7"/>
<polygon fill="#9a32cd" stroke="#9a32cd" points="940.18,-380.44 950.71,-379.31 941.77,-373.62 940.18,-380.44"/>
<text text-anchor="middle" x="755" y="-396.5" font-family="Helvetica,sans-Serif" font-size="10.00"> CurLighting</text>
</g>
<!-- Node7&#45;&gt;Node6 -->
<g id="edge9" class="edge">
<title>Node7&#45;&gt;Node6</title>
<path fill="none" stroke="#63b8ff" d="M1022.1,-392.61C1082.16,-400.36 1195.53,-414.99 1254.58,-422.61"/>
<polygon fill="#63b8ff" stroke="#63b8ff" points="1022.7,-389.16 1012.33,-391.35 1021.8,-396.1 1022.7,-389.16"/>
</g>
<!-- Node10 -->
<g id="node10" class="node">
<title>Node10</title>
<g id="a_node10"><a xlink:href="class_c_d_list_lighting.html" target="_top" xlink:title=" ">
<polygon fill="white" stroke="#bfbfbf" points="1334,-257 1253,-257 1253,-238 1334,-238 1334,-257"/>
<text text-anchor="middle" x="1293.5" y="-245" font-family="Helvetica,sans-Serif" font-size="10.00">CDListLighting</text>
</a>
</g>
</g>
<!-- Node7&#45;&gt;Node10 -->
<g id="edge15" class="edge">
<title>Node7&#45;&gt;Node10</title>
<path fill="none" stroke="#63b8ff" d="M1009.71,-370.95C1013.88,-367.55 1017.85,-363.7 1021,-359.5 1035.18,-340.61 1022.41,-326.31 1039,-309.5 1095.97,-251.78 1197.21,-244.46 1252.96,-245.29"/>
<polygon fill="#63b8ff" stroke="#63b8ff" points="1007.72,-368.07 1001.68,-376.77 1011.83,-373.73 1007.72,-368.07"/>
</g>
<!-- Node8 -->
<g id="node8" class="node">
<title>Node8</title>
<g id="a_node8"><a xlink:href="class_c_imm_light.html" target="_top" xlink:title=" ">
<polygon fill="white" stroke="#bfbfbf" points="1126.5,-457 1061.5,-457 1061.5,-438 1126.5,-438 1126.5,-457"/>
<text text-anchor="middle" x="1094" y="-445" font-family="Helvetica,sans-Serif" font-size="10.00">CImmLight</text>
</a>
</g>
</g>
<!-- Node8&#45;&gt;Node6 -->
<g id="edge11" class="edge">
<title>Node8&#45;&gt;Node6</title>
<path fill="none" stroke="#9a32cd" stroke-dasharray="5,2" d="M1136.94,-434.55C1146.71,-432.06 1157.15,-429.82 1167,-428.5 1196.26,-424.59 1229.71,-424.53 1254.71,-425.35"/>
<polygon fill="#9a32cd" stroke="#9a32cd" points="1136.05,-431.17 1127.31,-437.15 1137.87,-437.92 1136.05,-431.17"/>
<text text-anchor="middle" x="1197.5" y="-519.5" font-family="Helvetica,sans-Serif" font-size="10.00"> Light0</text>
<text text-anchor="middle" x="1197.5" y="-508.5" font-family="Helvetica,sans-Serif" font-size="10.00">Light1</text>
<text text-anchor="middle" x="1197.5" y="-497.5" font-family="Helvetica,sans-Serif" font-size="10.00">Light2</text>
<text text-anchor="middle" x="1197.5" y="-486.5" font-family="Helvetica,sans-Serif" font-size="10.00">Light3</text>
<text text-anchor="middle" x="1197.5" y="-475.5" font-family="Helvetica,sans-Serif" font-size="10.00">Light4</text>
<text text-anchor="middle" x="1197.5" y="-464.5" font-family="Helvetica,sans-Serif" font-size="10.00">Light5</text>
<text text-anchor="middle" x="1197.5" y="-453.5" font-family="Helvetica,sans-Serif" font-size="10.00">Light6</text>
<text text-anchor="middle" x="1197.5" y="-442.5" font-family="Helvetica,sans-Serif" font-size="10.00">Light7</text>
<text text-anchor="middle" x="1197.5" y="-431.5" font-family="Helvetica,sans-Serif" font-size="10.00">Lights</text>
</g>
<!-- Node9&#45;&gt;Node8 -->
<g id="edge12" class="edge">
<title>Node9&#45;&gt;Node8</title>
<path fill="none" stroke="#63b8ff" d="M908.09,-458.53C949.62,-456.05 1020.35,-451.83 1061.25,-449.39"/>
<polygon fill="#63b8ff" stroke="#63b8ff" points="907.98,-455.03 898.21,-459.12 908.4,-462.01 907.98,-455.03"/>
</g>
<!-- Node11 -->
<g id="node11" class="node">
<title>Node11</title>
<g id="a_node11"><a xlink:href="class_c_d_list_light.html" target="_top" xlink:title=" ">
<polygon fill="white" stroke="#bfbfbf" points="1128,-338 1060,-338 1060,-319 1128,-319 1128,-338"/>
<text text-anchor="middle" x="1094" y="-326" font-family="Helvetica,sans-Serif" font-size="10.00">CDListLight</text>
</a>
</g>
</g>
<!-- Node9&#45;&gt;Node11 -->
<g id="edge17" class="edge">
<title>Node9&#45;&gt;Node11</title>
<path fill="none" stroke="#63b8ff" d="M908.01,-452.4C938.98,-443.79 985.68,-428.12 1021,-404.5 1048.95,-385.81 1074.11,-354.44 1085.91,-338.48"/>
<polygon fill="#63b8ff" stroke="#63b8ff" points="907.19,-449 898.43,-454.97 909,-455.76 907.19,-449"/>
</g>
<!-- Node10&#45;&gt;Node2 -->
<g id="edge14" class="edge">
<title>Node10&#45;&gt;Node2</title>
<path fill="none" stroke="#9a32cd" stroke-dasharray="5,2" d="M1273.15,-230.28C1247.11,-208.38 1198.33,-171.69 1149,-157.5 1079.59,-137.54 885.87,-120.25 824,-157.5 809.35,-166.32 819.34,-180.8 806,-191.5 769.33,-220.91 736.35,-185.4 704,-219.5 665.7,-259.88 647.66,-444 643.8,-488.7"/>
<polygon fill="#9a32cd" stroke="#9a32cd" points="1270.66,-232.76 1280.53,-236.62 1275.23,-227.45 1270.66,-232.76"/>
<text text-anchor="middle" x="981.5" y="-141.5" font-family="Helvetica,sans-Serif" font-size="10.00"> DListLighting</text>
</g>
<!-- Node11&#45;&gt;Node10 -->
<g id="edge16" class="edge">
<title>Node11&#45;&gt;Node10</title>
<path fill="none" stroke="#9a32cd" stroke-dasharray="5,2" d="M1116.67,-311.77C1130.45,-301.8 1149.02,-289.56 1167,-281.5 1194.5,-269.17 1227.45,-260.46 1252.68,-254.94"/>
<polygon fill="#9a32cd" stroke="#9a32cd" points="1114.71,-308.86 1108.77,-317.63 1118.89,-314.48 1114.71,-308.86"/>
<text text-anchor="middle" x="1197.5" y="-372.5" font-family="Helvetica,sans-Serif" font-size="10.00"> Light0</text>
<text text-anchor="middle" x="1197.5" y="-361.5" font-family="Helvetica,sans-Serif" font-size="10.00">Light1</text>
<text text-anchor="middle" x="1197.5" y="-350.5" font-family="Helvetica,sans-Serif" font-size="10.00">Light2</text>
<text text-anchor="middle" x="1197.5" y="-339.5" font-family="Helvetica,sans-Serif" font-size="10.00">Light3</text>
<text text-anchor="middle" x="1197.5" y="-328.5" font-family="Helvetica,sans-Serif" font-size="10.00">Light4</text>
<text text-anchor="middle" x="1197.5" y="-317.5" font-family="Helvetica,sans-Serif" font-size="10.00">Light5</text>
<text text-anchor="middle" x="1197.5" y="-306.5" font-family="Helvetica,sans-Serif" font-size="10.00">Light6</text>
<text text-anchor="middle" x="1197.5" y="-295.5" font-family="Helvetica,sans-Serif" font-size="10.00">Light7</text>
<text text-anchor="middle" x="1197.5" y="-284.5" font-family="Helvetica,sans-Serif" font-size="10.00">Lights</text>
</g>
<!-- Node12 -->
<g id="node12" class="node">
<title>Node12</title>
<g id="a_node12"><a xlink:href="class_c_imm_geom_manager.html" target="_top" xlink:title=" ">
<polygon fill="white" stroke="#bfbfbf" points="1147.5,-186 1040.5,-186 1040.5,-167 1147.5,-167 1147.5,-186"/>
<text text-anchor="middle" x="1094" y="-174" font-family="Helvetica,sans-Serif" font-size="10.00">CImmGeomManager</text>
</a>
</g>
</g>
<!-- Node12&#45;&gt;Node2 -->
<g id="edge19" class="edge">
<title>Node12&#45;&gt;Node2</title>
<path fill="none" stroke="#9a32cd" stroke-dasharray="5,2" d="M1031.28,-188.7C952.45,-204.33 825.88,-229.67 824,-231.5 798.53,-256.34 830.4,-283.61 806,-309.5 773.59,-343.89 738.73,-307.45 704,-339.5 658.59,-381.41 646.67,-460.86 643.82,-488.63"/>
<polygon fill="#9a32cd" stroke="#9a32cd" points="1031.93,-192.14 1041.06,-186.76 1030.57,-185.27 1031.93,-192.14"/>
<text text-anchor="middle" x="874" y="-234.5" font-family="Helvetica,sans-Serif" font-size="10.00"> ImmGManager</text>
</g>
<!-- Node13&#45;&gt;Node2 -->
<g id="edge36" class="edge">
<title>Node13&#45;&gt;Node2</title>
<path fill="none" stroke="#9a32cd" stroke-dasharray="5,2" d="M832.68,-192.31C829.44,-194.69 826.47,-197.41 824,-200.5 802.57,-227.25 830.41,-251.43 806,-275.5 772.91,-308.13 738.06,-266.88 704,-298.5 646.8,-351.6 642.65,-456.58 642.79,-488.84"/>
<polygon fill="#9a32cd" stroke="#9a32cd" points="834.33,-195.4 841.05,-187.21 830.69,-189.42 834.33,-195.4"/>
<text text-anchor="middle" x="755" y="-301.5" font-family="Helvetica,sans-Serif" font-size="10.00"> CurGManager</text>
</g>
<!-- Node13&#45;&gt;Node12 -->
<g id="edge20" class="edge">
<title>Node13&#45;&gt;Node12</title>
<path fill="none" stroke="#63b8ff" d="M928.93,-176.5C962.89,-176.5 1006.54,-176.5 1040.27,-176.5"/>
<polygon fill="#63b8ff" stroke="#63b8ff" points="929.32,-173 919.32,-176.5 929.32,-180 929.32,-173"/>
</g>
<!-- Node21 -->
<g id="node21" class="node">
<title>Node21</title>
<g id="a_node21"><a xlink:href="class_c_d_list_geom_manager.html" target="_top" xlink:title=" ">
<polygon fill="white" stroke="#bfbfbf" points="1149,-223 1039,-223 1039,-204 1149,-204 1149,-223"/>
<text text-anchor="middle" x="1094" y="-211" font-family="Helvetica,sans-Serif" font-size="10.00">CDListGeomManager</text>
</a>
</g>
</g>
<!-- Node13&#45;&gt;Node21 -->
<g id="edge31" class="edge">
<title>Node13&#45;&gt;Node21</title>
<path fill="none" stroke="#63b8ff" d="M928.77,-185.63C962.22,-191.3 1005.11,-198.58 1038.67,-204.28"/>
<polygon fill="#63b8ff" stroke="#63b8ff" points="929.75,-182.24 919.3,-184.02 928.58,-189.14 929.75,-182.24"/>
</g>
<!-- Node14 -->
<g id="node14" class="node">
<title>Node14</title>
<g id="a_node14"><a xlink:href="class_c_vert_array.html" target="_top" xlink:title=" ">
<polygon fill="white" stroke="#bfbfbf" points="674,-158 610,-158 610,-139 674,-139 674,-158"/>
<text text-anchor="middle" x="642" y="-146" font-family="Helvetica,sans-Serif" font-size="10.00">CVertArray</text>
</a>
</g>
</g>
<!-- Node14&#45;&gt;Node13 -->
<g id="edge22" class="edge">
<title>Node14&#45;&gt;Node13</title>
<path fill="none" stroke="#9a32cd" stroke-dasharray="5,2" d="M685.48,-142.89C718.67,-139.72 765.77,-137.9 806,-146.5 824.07,-150.36 843.17,-159.47 856.33,-166.65"/>
<polygon fill="#9a32cd" stroke="#9a32cd" points="685.44,-139.37 675.86,-143.89 686.16,-146.33 685.44,-139.37"/>
<text text-anchor="middle" x="755" y="-149.5" font-family="Helvetica,sans-Serif" font-size="10.00"> VertArray</text>
</g>
<!-- Node15 -->
<g id="node15" class="node">
<title>Node15</title>
<g id="a_node15"><a xlink:href="structt_user_prim_entry.html" target="_top" xlink:title=" ">
<polygon fill="white" stroke="#bfbfbf" points="683.5,-121 600.5,-121 600.5,-102 683.5,-102 683.5,-121"/>
<text text-anchor="middle" x="642" y="-109" font-family="Helvetica,sans-Serif" font-size="10.00">tUserPrimEntry</text>
</a>
</g>
</g>
<!-- Node15&#45;&gt;Node13 -->
<g id="edge23" class="edge">
<title>Node15&#45;&gt;Node13</title>
<path fill="none" stroke="#9a32cd" stroke-dasharray="5,2" d="M695.11,-108.67C727.95,-108.64 770.68,-111.88 806,-125.5 829.46,-134.55 851.64,-154.46 863.67,-166.55"/>
<polygon fill="#9a32cd" stroke="#9a32cd" points="695.4,-105.17 685.44,-108.79 695.48,-112.17 695.4,-105.17"/>
<text text-anchor="middle" x="755" y="-128.5" font-family="Helvetica,sans-Serif" font-size="10.00"> UserPrimTypes</text>
</g>
<!-- Node16&#45;&gt;Node12 -->
<g id="edge24" class="edge">
<title>Node16&#45;&gt;Node12</title>
<path fill="none" stroke="#9a32cd" stroke-dasharray="5,2" d="M935.54,-87.79C962.79,-88.77 994.68,-93.1 1021,-105.5 1050.54,-119.42 1075.16,-150.59 1086.42,-166.6"/>
<polygon fill="#9a32cd" stroke="#9a32cd" points="935.76,-84.29 925.69,-87.59 935.61,-91.29 935.76,-84.29"/>
<text text-anchor="middle" x="981.5" y="-108.5" font-family="Helvetica,sans-Serif" font-size="10.00"> RendererManager</text>
</g>
<!-- Node17 -->
<g id="node17" class="node">
<title>Node17</title>
<g id="a_node17"><a xlink:href="class_c_renderer_props.html" target="_top" xlink:title=" ">
<polygon fill="white" stroke="#bfbfbf" points="686,-84 598,-84 598,-65 686,-65 686,-84"/>
<text text-anchor="middle" x="642" y="-72" font-family="Helvetica,sans-Serif" font-size="10.00">CRendererProps</text>
</a>
</g>
</g>
<!-- Node17&#45;&gt;Node16 -->
<g id="edge26" class="edge">
<title>Node17&#45;&gt;Node16</title>
<path fill="none" stroke="#9a32cd" stroke-dasharray="5,2" d="M697.61,-73.76C729.33,-73.85 770.01,-74.86 806,-78.5 811.76,-79.08 817.77,-79.88 823.72,-80.79"/>
<polygon fill="#9a32cd" stroke="#9a32cd" points="697.87,-70.26 687.87,-73.77 697.87,-77.26 697.87,-70.26"/>
<text text-anchor="middle" x="755" y="-81.5" font-family="Helvetica,sans-Serif" font-size="10.00"> RendererRequirements</text>
</g>
<!-- Node18 -->
<g id="node18" class="node">
<title>Node18</title>
<g id="a_node18"><a xlink:href="structt_renderer.html" target="_top" xlink:title=" ">
<polygon fill="white" stroke="#bfbfbf" points="671.5,-19 612.5,-19 612.5,0 671.5,0 671.5,-19"/>
<text text-anchor="middle" x="642" y="-7" font-family="Helvetica,sans-Serif" font-size="10.00">tRenderer</text>
</a>
</g>
</g>
<!-- Node18&#45;&gt;Node16 -->
<g id="edge27" class="edge">
<title>Node18&#45;&gt;Node16</title>
<path fill="none" stroke="#9a32cd" stroke-dasharray="5,2" d="M683.27,-6.63C717.48,-5.8 767.08,-8.5 806,-26.5 832.57,-38.79 855.23,-65.95 866.1,-80.63"/>
<polygon fill="#9a32cd" stroke="#9a32cd" points="683.24,-3.13 673.37,-6.99 683.49,-10.12 683.24,-3.13"/>
<text text-anchor="middle" x="755" y="-62.5" font-family="Helvetica,sans-Serif" font-size="10.00"> CurrentRenderer</text>
<text text-anchor="middle" x="755" y="-51.5" font-family="Helvetica,sans-Serif" font-size="10.00">DefaultRenderers</text>
<text text-anchor="middle" x="755" y="-40.5" font-family="Helvetica,sans-Serif" font-size="10.00">NewRenderer</text>
<text text-anchor="middle" x="755" y="-29.5" font-family="Helvetica,sans-Serif" font-size="10.00">UserRenderers</text>
</g>
<!-- Node19 -->
<g id="node19" class="node">
<title>Node19</title>
<g id="a_node19"><a xlink:href="class_c_renderer.html" target="_top" xlink:title=" ">
<polygon fill="white" stroke="#666666" points="460,-19 398,-19 398,0 460,0 460,-19"/>
<text text-anchor="middle" x="429" y="-7" font-family="Helvetica,sans-Serif" font-size="10.00">CRenderer</text>
</a>
</g>
</g>
<!-- Node19&#45;&gt;Node18 -->
<g id="edge28" class="edge">
<title>Node19&#45;&gt;Node18</title>
<path fill="none" stroke="#9a32cd" stroke-dasharray="5,2" d="M471.6,-9.5C513.13,-9.5 575.85,-9.5 612.18,-9.5"/>
<polygon fill="#9a32cd" stroke="#9a32cd" points="471.74,-6 461.74,-9.5 471.74,-13 471.74,-6"/>
<text text-anchor="middle" x="539" y="-12.5" font-family="Helvetica,sans-Serif" font-size="10.00"> renderer</text>
</g>
<!-- Node20 -->
<g id="node20" class="node">
<title>Node20</title>
<g id="a_node20"><a xlink:href="class_c_geometry_block.html" target="_top" xlink:title=" ">
<polygon fill="white" stroke="#bfbfbf" points="919,-271 829,-271 829,-252 919,-252 919,-271"/>
<text text-anchor="middle" x="874" y="-259" font-family="Helvetica,sans-Serif" font-size="10.00">CGeometryBlock</text>
</a>
</g>
</g>
<!-- Node20&#45;&gt;Node12 -->
<g id="edge29" class="edge">
<title>Node20&#45;&gt;Node12</title>
<path fill="none" stroke="#9a32cd" stroke-dasharray="5,2" d="M930.02,-248.99C969.78,-239.77 1017.17,-228.37 1021,-225.5 1033.75,-215.94 1026.64,-204.56 1039,-194.5 1042.99,-191.26 1047.58,-188.59 1052.37,-186.39"/>
<polygon fill="#9a32cd" stroke="#9a32cd" points="929.48,-245.52 920.52,-251.18 931.05,-252.34 929.48,-245.52"/>
<text text-anchor="middle" x="981.5" y="-248.5" font-family="Helvetica,sans-Serif" font-size="10.00"> Geometry</text>
</g>
<!-- Node20&#45;&gt;Node21 -->
<g id="edge35" class="edge">
<title>Node20&#45;&gt;Node21</title>
<path fill="none" stroke="#9a32cd" stroke-dasharray="5,2" d="M930.73,-271.52C959.08,-274.01 993.31,-272.86 1021,-259.5 1032.38,-254.01 1028.96,-245.16 1039,-237.5 1046.5,-231.78 1055.59,-227.07 1064.15,-223.38"/>
<polygon fill="#9a32cd" stroke="#9a32cd" points="931.2,-268.05 920.88,-270.46 930.46,-275.01 931.2,-268.05"/>
<text text-anchor="middle" x="981.5" y="-276.5" font-family="Helvetica,sans-Serif" font-size="10.00"> Geometry</text>
</g>
<!-- Node21&#45;&gt;Node2 -->
<g id="edge30" class="edge">
<title>Node21&#45;&gt;Node2</title>
<path fill="none" stroke="#9a32cd" stroke-dasharray="5,2" d="M1062.57,-229.43C1053.84,-235.32 1045.06,-242.73 1039,-251.5 1020.74,-277.93 1045.07,-300.23 1021,-321.5 967.78,-368.54 761.02,-320.14 704,-362.5 661.21,-394.29 647.79,-462.98 644.17,-488.6"/>
<polygon fill="#9a32cd" stroke="#9a32cd" points="1064.3,-232.48 1070.97,-224.24 1060.62,-226.52 1064.3,-232.48"/>
<text text-anchor="middle" x="874" y="-347.5" font-family="Helvetica,sans-Serif" font-size="10.00"> DListGManager</text>
</g>
<!-- Node22 -->
<g id="node22" class="node">
<title>Node22</title>
<g id="a_node22"><a xlink:href="class_c_d_list.html" target="_top" xlink:title=" ">
<polygon fill="white" stroke="#bfbfbf" points="256,-289 209,-289 209,-270 256,-270 256,-289"/>
<text text-anchor="middle" x="232.5" y="-277" font-family="Helvetica,sans-Serif" font-size="10.00">CDList</text>
</a>
</g>
</g>
<!-- Node22&#45;&gt;Node21 -->
<g id="edge32" class="edge">
<title>Node22&#45;&gt;Node21</title>
<path fill="none" stroke="#9a32cd" stroke-dasharray="5,2" d="M266.66,-265.3C359.79,-227.82 628.55,-136.22 806,-244.5 820.93,-253.61 809.43,-269.83 824,-279.5 867.82,-308.59 889.44,-286.5 942,-288.5 977.09,-289.84 991.23,-307.12 1021,-288.5 1036.5,-278.8 1027.15,-265.43 1039,-251.5 1048.81,-239.98 1062.86,-230.23 1074.17,-223.5"/>
<polygon fill="#9a32cd" stroke="#9a32cd" points="265.52,-261.99 257.59,-269.02 268.17,-268.47 265.52,-261.99"/>
<text text-anchor="middle" x="642" y="-203.5" font-family="Helvetica,sans-Serif" font-size="10.00"> CurDList</text>
</g>
<!-- Node28 -->
<g id="node28" class="node">
<title>Node28</title>
<g id="a_node28"><a xlink:href="class_c_d_list_manager.html" target="_top" xlink:title=" ">
<polygon fill="white" stroke="#bfbfbf" points="471,-377 387,-377 387,-358 471,-358 471,-377"/>
<text text-anchor="middle" x="429" y="-365" font-family="Helvetica,sans-Serif" font-size="10.00">CDListManager</text>
</a>
</g>
</g>
<!-- Node22&#45;&gt;Node28 -->
<g id="edge46" class="edge">
<title>Node22&#45;&gt;Node28</title>
<path fill="none" stroke="#9a32cd" stroke-dasharray="5,2" d="M265.89,-294.16C305.64,-312.14 371.96,-342.15 406.15,-357.61"/>
<polygon fill="#9a32cd" stroke="#9a32cd" points="267.37,-290.98 256.81,-290.05 264.48,-297.36 267.37,-290.98"/>
<text text-anchor="middle" x="325" y="-362.5" font-family="Helvetica,sans-Serif" font-size="10.00"> Lists</text>
<text text-anchor="middle" x="325" y="-351.5" font-family="Helvetica,sans-Serif" font-size="10.00">ListsToBeFreed</text>
<text text-anchor="middle" x="325" y="-340.5" font-family="Helvetica,sans-Serif" font-size="10.00">OpenList</text>
</g>
<!-- Node23 -->
<g id="node23" class="node">
<title>Node23</title>
<g id="a_node23"><a xlink:href="class_c_d_list_cmd_block.html" target="_top" xlink:title=" ">
<polygon fill="white" stroke="#bfbfbf" points="92,-289 0,-289 0,-270 92,-270 92,-289"/>
<text text-anchor="middle" x="46" y="-277" font-family="Helvetica,sans-Serif" font-size="10.00">CDListCmdBlock</text>
</a>
</g>
</g>
<!-- Node23&#45;&gt;Node22 -->
<g id="edge33" class="edge">
<title>Node23&#45;&gt;Node22</title>
<path fill="none" stroke="#9a32cd" stroke-dasharray="5,2" d="M103.31,-279.5C138.74,-279.5 182.54,-279.5 208.69,-279.5"/>
<polygon fill="#9a32cd" stroke="#9a32cd" points="103.65,-276 93.65,-279.5 103.65,-283 103.65,-276"/>
<text text-anchor="middle" x="142.5" y="-293.5" font-family="Helvetica,sans-Serif" font-size="10.00"> CurCmdBlock</text>
<text text-anchor="middle" x="142.5" y="-282.5" font-family="Helvetica,sans-Serif" font-size="10.00">FirstCmdBlock</text>
</g>
<!-- Node23&#45;&gt;Node23 -->
<g id="edge34" class="edge">
<title>Node23&#45;&gt;Node23</title>
<path fill="none" stroke="#9a32cd" stroke-dasharray="5,2" d="M28.87,-300.43C31.01,-304.29 36.72,-307 46,-307 62.96,-307 68,-297.94 61.11,-289.37"/>
<polygon fill="#9a32cd" stroke="#9a32cd" points="32.27,-301.32 30.62,-290.86 25.38,-300.07 32.27,-301.32"/>
<text text-anchor="middle" x="46" y="-310" font-family="Helvetica,sans-Serif" font-size="10.00"> NextBlock</text>
</g>
<!-- Node24&#45;&gt;Node2 -->
<g id="edge37" class="edge">
<title>Node24&#45;&gt;Node2</title>
<path fill="none" stroke="#9a32cd" stroke-dasharray="5,2" d="M1234.55,-749.02C1102.5,-767.1 784.45,-802.62 704,-738.5 666.6,-708.69 648.13,-549.4 643.94,-508.22"/>
<polygon fill="#9a32cd" stroke="#9a32cd" points="1234.69,-752.54 1244.11,-747.7 1233.73,-745.6 1234.69,-752.54"/>
<text text-anchor="middle" x="981.5" y="-777.5" font-family="Helvetica,sans-Serif" font-size="10.00"> MaterialManager</text>
</g>
<!-- Node25 -->
<g id="node25" class="node">
<title>Node25</title>
<g id="a_node25"><a xlink:href="class_c_imm_material.html" target="_top" xlink:title=" ">
<polygon fill="white" stroke="#bfbfbf" points="1132.5,-667 1055.5,-667 1055.5,-648 1132.5,-648 1132.5,-667"/>
<text text-anchor="middle" x="1094" y="-655" font-family="Helvetica,sans-Serif" font-size="10.00">CImmMaterial</text>
</a>
</g>
</g>
<!-- Node25&#45;&gt;Node24 -->
<g id="edge39" class="edge">
<title>Node25&#45;&gt;Node24</title>
<path fill="none" stroke="#9a32cd" stroke-dasharray="5,2" d="M1144.01,-663.53C1169.93,-668.03 1201.73,-675.69 1228,-688.5 1250.24,-699.34 1271.71,-719.09 1283.41,-730.88"/>
<polygon fill="#9a32cd" stroke="#9a32cd" points="1144.85,-660.12 1134.42,-661.97 1143.73,-667.03 1144.85,-660.12"/>
<text text-anchor="middle" x="1197.5" y="-691.5" font-family="Helvetica,sans-Serif" font-size="10.00"> ImmMaterial</text>
</g>
<!-- Node26&#45;&gt;Node24 -->
<g id="edge44" class="edge">
<title>Node26&#45;&gt;Node24</title>
<path fill="none" stroke="#9a32cd" stroke-dasharray="5,2" d="M914.51,-718.77C991.81,-723.21 1162.71,-733.04 1245.59,-737.8"/>
<polygon fill="#9a32cd" stroke="#9a32cd" points="915.06,-715.3 904.88,-718.22 914.66,-722.29 915.06,-715.3"/>
<text text-anchor="middle" x="1094" y="-734.5" font-family="Helvetica,sans-Serif" font-size="10.00"> CurMaterial</text>
</g>
<!-- Node26&#45;&gt;Node25 -->
<g id="edge40" class="edge">
<title>Node26&#45;&gt;Node25</title>
<path fill="none" stroke="#63b8ff" d="M914.5,-705.81C954.79,-694.91 1016.8,-678.12 1056.12,-667.48"/>
<polygon fill="#63b8ff" stroke="#63b8ff" points="913.7,-702.4 904.96,-708.39 915.53,-709.16 913.7,-702.4"/>
</g>
<!-- Node27 -->
<g id="node27" class="node">
<title>Node27</title>
<g id="a_node27"><a xlink:href="class_c_d_list_material.html" target="_top" xlink:title=" ">
<polygon fill="white" stroke="#bfbfbf" points="1134.5,-704 1053.5,-704 1053.5,-685 1134.5,-685 1134.5,-704"/>
<text text-anchor="middle" x="1094" y="-692" font-family="Helvetica,sans-Serif" font-size="10.00">CDListMaterial</text>
</a>
</g>
</g>
<!-- Node26&#45;&gt;Node27 -->
<g id="edge43" class="edge">
<title>Node26&#45;&gt;Node27</title>
<path fill="none" stroke="#63b8ff" d="M914.73,-712.49C953.98,-708.53 1013.69,-702.5 1053.02,-698.53"/>
<polygon fill="#63b8ff" stroke="#63b8ff" points="914.6,-708.99 905.01,-713.47 915.31,-715.95 914.6,-708.99"/>
</g>
<!-- Node27&#45;&gt;Node24 -->
<g id="edge42" class="edge">
<title>Node27&#45;&gt;Node24</title>
<path fill="none" stroke="#9a32cd" stroke-dasharray="5,2" d="M1146.16,-699.99C1171.11,-703.32 1201.4,-708.33 1228,-715.5 1242.38,-719.37 1257.96,-725.36 1270.21,-730.5"/>
<polygon fill="#9a32cd" stroke="#9a32cd" points="1146.61,-696.51 1136.25,-698.72 1145.72,-703.46 1146.61,-696.51"/>
<text text-anchor="middle" x="1197.5" y="-718.5" font-family="Helvetica,sans-Serif" font-size="10.00"> DListMaterial</text>
</g>
<!-- Node28&#45;&gt;Node2 -->
<g id="edge45" class="edge">
<title>Node28&#45;&gt;Node2</title>
<path fill="none" stroke="#9a32cd" stroke-dasharray="5,2" d="M482.21,-376.31C512.84,-383.39 551.08,-395.7 580,-416.5 607.23,-436.08 627.5,-471.44 636.25,-488.61"/>
<polygon fill="#9a32cd" stroke="#9a32cd" points="483.29,-372.96 472.78,-374.25 481.8,-379.8 483.29,-372.96"/>
<text text-anchor="middle" x="539" y="-419.5" font-family="Helvetica,sans-Serif" font-size="10.00"> DListManager</text>
</g>
<!-- Node29&#45;&gt;Node2 -->
<g id="edge47" class="edge">
<title>Node29&#45;&gt;Node2</title>
<path fill="none" stroke="#9a32cd" stroke-dasharray="5,2" d="M824.07,-893.05C777.18,-884.51 712.32,-871.34 704,-862.5 653.83,-809.19 644.62,-561.05 643.22,-508.35"/>
<polygon fill="#9a32cd" stroke="#9a32cd" points="823.31,-896.47 833.77,-894.8 824.55,-889.58 823.31,-896.47"/>
<text text-anchor="middle" x="755" y="-891.5" font-family="Helvetica,sans-Serif" font-size="10.00"> TexManager</text>
</g>
<!-- Node30 -->
<g id="node30" class="node">
<title>Node30</title>
<g id="a_node30"><a xlink:href="class_c_m_m_texture.html" target="_top" xlink:title=" ">
<polygon fill="white" stroke="#bfbfbf" points="678,-928 606,-928 606,-909 678,-909 678,-928"/>
<text text-anchor="middle" x="642" y="-916" font-family="Helvetica,sans-Serif" font-size="10.00">CMMTexture</text>
</a>
</g>
</g>
<!-- Node30&#45;&gt;Node29 -->
<g id="edge49" class="edge">
<title>Node30&#45;&gt;Node29</title>
<path fill="none" stroke="#9a32cd" stroke-dasharray="5,2" d="M689.7,-915.05C732.61,-911.88 795.41,-907.24 835.23,-904.29"/>
<polygon fill="#9a32cd" stroke="#9a32cd" points="689.66,-911.54 679.94,-915.77 690.17,-918.52 689.66,-911.54"/>
<text text-anchor="middle" x="755" y="-949.5" font-family="Helvetica,sans-Serif" font-size="10.00"> CurTexture</text>
<text text-anchor="middle" x="755" y="-938.5" font-family="Helvetica,sans-Serif" font-size="10.00">DefaultTex</text>
<text text-anchor="middle" x="755" y="-927.5" font-family="Helvetica,sans-Serif" font-size="10.00">LastTexSent</text>
<text text-anchor="middle" x="755" y="-916.5" font-family="Helvetica,sans-Serif" font-size="10.00">TexNames</text>
</g>
<!-- Node31 -->
<g id="node31" class="node">
<title>Node31</title>
<g id="a_node31"><a xlink:title=" ">
<polygon fill="white" stroke="#bfbfbf" points="466,-928 392,-928 392,-909 466,-909 466,-928"/>
<text text-anchor="middle" x="429" y="-916" font-family="Helvetica,sans-Serif" font-size="10.00">GS::CTexture</text>
</a>
</g>
</g>
<!-- Node31&#45;&gt;Node30 -->
<g id="edge50" class="edge">
<title>Node31&#45;&gt;Node30</title>
<path fill="none" stroke="#63b8ff" d="M477.3,-918.5C516.16,-918.5 570.35,-918.5 605.55,-918.5"/>
<polygon fill="#63b8ff" stroke="#63b8ff" points="477.79,-915 467.79,-918.5 477.79,-922 477.79,-915"/>
</g>
<!-- Node32 -->
<g id="node32" class="node">
<title>Node32</title>
<g id="a_node32"><a xlink:href="class_c_m_m_clut.html" target="_top" xlink:title=" ">
<polygon fill="white" stroke="#666666" points="670.5,-995 613.5,-995 613.5,-976 670.5,-976 670.5,-995"/>
<text text-anchor="middle" x="642" y="-983" font-family="Helvetica,sans-Serif" font-size="10.00">CMMClut</text>
</a>
</g>
</g>
<!-- Node32&#45;&gt;Node29 -->
<g id="edge51" class="edge">
<title>Node32&#45;&gt;Node29</title>
<path fill="none" stroke="#9a32cd" stroke-dasharray="5,2" d="M682.31,-985.97C716.5,-984.96 766.61,-979.96 806,-961.5 831.45,-949.57 854.23,-924.76 865.52,-911.07"/>
<polygon fill="#9a32cd" stroke="#9a32cd" points="682.37,-982.47 672.43,-986.15 682.49,-989.47 682.37,-982.47"/>
<text text-anchor="middle" x="755" y="-987.5" font-family="Helvetica,sans-Serif" font-size="10.00"> CurClut</text>
</g>
<!-- Node33 -->
<g id="node33" class="node">
<title>Node33</title>
<g id="a_node33"><a xlink:title=" ">
<polygon fill="white" stroke="#bfbfbf" points="458.5,-995 399.5,-995 399.5,-976 458.5,-976 458.5,-995"/>
<text text-anchor="middle" x="429" y="-983" font-family="Helvetica,sans-Serif" font-size="10.00">GS::CClut</text>
</a>
</g>
</g>
<!-- Node33&#45;&gt;Node32 -->
<g id="edge52" class="edge">
<title>Node33&#45;&gt;Node32</title>
<path fill="none" stroke="#63b8ff" d="M470.33,-985.5C512.19,-985.5 576.57,-985.5 613.12,-985.5"/>
<polygon fill="#63b8ff" stroke="#63b8ff" points="470.41,-982 460.41,-985.5 470.41,-989 470.41,-982"/>
</g>
<!-- Node34&#45;&gt;Node2 -->
<g id="edge53" class="edge">
<title>Node34&#45;&gt;Node2</title>
<path fill="none" stroke="#9a32cd" stroke-dasharray="5,2" d="M489.74,-429.56C518.06,-431.87 551.78,-437.31 580,-449.5 601.2,-458.66 621.14,-477.26 632.15,-488.73"/>
<polygon fill="#9a32cd" stroke="#9a32cd" points="490.1,-426.08 479.88,-428.88 489.62,-433.06 490.1,-426.08"/>
<text text-anchor="middle" x="539" y="-452.5" font-family="Helvetica,sans-Serif" font-size="10.00"> ImmDrawContext</text>
</g>
<!-- Node35 -->
<g id="node35" class="node">
<title>Node35</title>
<g id="a_node35"><a xlink:href="class_c_clear_env.html" target="_top" xlink:title=" ">
<polygon fill="white" stroke="#bfbfbf" points="263.5,-433 201.5,-433 201.5,-414 263.5,-414 263.5,-433"/>
<text text-anchor="middle" x="232.5" y="-421" font-family="Helvetica,sans-Serif" font-size="10.00">CClearEnv</text>
</a>
</g>
</g>
<!-- Node35&#45;&gt;Node34 -->
<g id="edge55" class="edge">
<title>Node35&#45;&gt;Node34</title>
<path fill="none" stroke="#9a32cd" stroke-dasharray="5,2" d="M275.4,-423.3C300.04,-423.31 331.8,-423.56 360,-424.5 366.38,-424.71 373.1,-425.01 379.72,-425.36"/>
<polygon fill="#9a32cd" stroke="#9a32cd" points="275.44,-419.8 265.44,-423.31 275.44,-426.8 275.44,-419.8"/>
<text text-anchor="middle" x="325" y="-427.5" font-family="Helvetica,sans-Serif" font-size="10.00"> ClearEnv</text>
</g>
<!-- Node36&#45;&gt;Node2 -->
<g id="edge56" class="edge">
<title>Node36&#45;&gt;Node2</title>
<path fill="none" stroke="#9a32cd" stroke-dasharray="5,2" d="M491.34,-555.6C519.05,-552.05 551.83,-545.95 580,-535.5 597.88,-528.87 616.33,-516.82 628.18,-508.28"/>
<polygon fill="#9a32cd" stroke="#9a32cd" points="491.22,-552.09 481.7,-556.75 492.05,-559.04 491.22,-552.09"/>
<text text-anchor="middle" x="539" y="-556.5" font-family="Helvetica,sans-Serif" font-size="10.00"> DListDrawContext</text>
</g>
<!-- Node37&#45;&gt;Node2 -->
<g id="edge59" class="edge">
<title>Node37&#45;&gt;Node2</title>
<path fill="none" stroke="#9a32cd" stroke-dasharray="5,2" d="M818.35,-578.31C776.84,-573.71 723.66,-566.22 704,-556.5 680.68,-544.97 660.3,-521.43 650.04,-508.16"/>
<polygon fill="#9a32cd" stroke="#9a32cd" points="817.89,-581.78 828.2,-579.37 818.63,-574.82 817.89,-581.78"/>
<text text-anchor="middle" x="755" y="-579.5" font-family="Helvetica,sans-Serif" font-size="10.00"> DisplayContext</text>
</g>
</g>
</svg>
