<?xml version="1.0" encoding="UTF-8" standalone="no"?>
<!DOCTYPE svg PUBLIC "-//W3C//DTD SVG 1.1//EN"
 "http://www.w3.org/Graphics/SVG/1.1/DTD/svg11.dtd">
<!-- Generated by graphviz version 7.0.5 (20221223.1930)
 -->
<!-- Title: gs memory management Pages: 1 -->
<svg width="352pt" height="64pt"
 viewBox="0.00 0.00 352.00 64.00" xmlns="http://www.w3.org/2000/svg" xmlns:xlink="http://www.w3.org/1999/xlink">
<g id="graph0" class="graph" transform="scale(1 1) rotate(0) translate(4 60)">
<title>gs memory management</title>
<!-- Node1 -->
<g id="node1" class="node">
<title>Node1</title>
<g id="a_node1"><a xlink:title=" ">
<polygon fill="#999999" stroke="#666666" points="210,-37 88,-37 88,-18 210,-18 210,-37"/>
<text text-anchor="middle" x="149" y="-25" font-family="Helvetica,sans-Serif" font-size="10.00">gs memory management</text>
</a>
</g>
</g>
<!-- Node4 -->
<g id="node2" class="node">
<title>Node4</title>
<g id="a_node2"><a xlink:href="group__gs__mem__areas.html" target="_top" xlink:title=" ">
<polygon fill="white" stroke="#666666" points="344,-56 246,-56 246,-37 344,-37 344,-56"/>
<text text-anchor="middle" x="295" y="-44" font-family="Helvetica,sans-Serif" font-size="10.00">GS memory &#39;areas&#39;</text>
</a>
</g>
</g>
<!-- Node1&#45;&gt;Node4 -->
<g id="edge3" class="edge">
<title>Node1&#45;&gt;Node4</title>
<path fill="none" stroke="black" d="M221.45,-36.93C229.71,-38.02 237.98,-39.11 245.82,-40.14"/>
<polygon fill="black" stroke="black" points="222.11,-33.48 211.74,-35.65 221.19,-40.42 222.11,-33.48"/>
</g>
<!-- Node3 -->
<g id="node3" class="node">
<title>Node3</title>
<g id="a_node3"><a xlink:href="group__gs__mem__slots.html" target="_top" xlink:title=" ">
<polygon fill="white" stroke="#666666" points="342.5,-19 247.5,-19 247.5,0 342.5,0 342.5,-19"/>
<text text-anchor="middle" x="295" y="-7" font-family="Helvetica,sans-Serif" font-size="10.00">GS memory &#39;slots&#39;</text>
</a>
</g>
</g>
<!-- Node1&#45;&gt;Node3 -->
<g id="edge2" class="edge">
<title>Node1&#45;&gt;Node3</title>
<path fill="none" stroke="black" d="M221.6,-18.55C230.27,-17.47 238.96,-16.38 247.15,-15.36"/>
<polygon fill="black" stroke="black" points="221.23,-15.07 211.74,-19.78 222.09,-22.02 221.23,-15.07"/>
</g>
<!-- Node2 -->
<g id="node4" class="node">
<title>Node2</title>
<g id="a_node4"><a xlink:href="group__pgl__api.html" target="_top" xlink:title=" ">
<polygon fill="white" stroke="#666666" points="52,-37 0,-37 0,-18 52,-18 52,-37"/>
<text text-anchor="middle" x="26" y="-25" font-family="Helvetica,sans-Serif" font-size="10.00">pgl* API</text>
</a>
</g>
</g>
<!-- Node2&#45;&gt;Node1 -->
<g id="edge1" class="edge">
<title>Node2&#45;&gt;Node1</title>
<path fill="none" stroke="black" d="M63.75,-27.5C71.36,-27.5 79.57,-27.5 87.77,-27.5"/>
<polygon fill="black" stroke="black" points="63.88,-24 53.88,-27.5 63.88,-31 63.88,-24"/>
</g>
</g>
</svg>
