<?xml version="1.0" encoding="UTF-8" standalone="no"?>
<!DOCTYPE svg PUBLIC "-//W3C//DTD SVG 1.1//EN"
 "http://www.w3.org/Graphics/SVG/1.1/DTD/svg11.dtd">
<!-- Generated by graphviz version 7.0.5 (20221223.1930)
 -->
<!-- Title: pgl* API Pages: 1 -->
<svg width="226pt" height="76pt"
 viewBox="0.00 0.00 226.00 75.50" xmlns="http://www.w3.org/2000/svg" xmlns:xlink="http://www.w3.org/1999/xlink">
<g id="graph0" class="graph" transform="scale(1 1) rotate(0) translate(4 71.5)">
<title>pgl* API</title>
<!-- Node3 -->
<g id="node1" class="node">
<title>Node3</title>
<g id="a_node1"><a xlink:href="group__custom__renderers__prims__state.html" target="_top" xlink:title=" ">
<polygon fill="white" stroke="#666666" points="218,-67.5 88,-67.5 88,-37.5 218,-37.5 218,-67.5"/>
<text text-anchor="start" x="96" y="-55.5" font-family="Helvetica,sans-Serif" font-size="10.00">defining custom renderers,</text>
<text text-anchor="middle" x="153" y="-44.5" font-family="Helvetica,sans-Serif" font-size="10.00"> primitive types, and state</text>
</a>
</g>
</g>
<!-- Node2 -->
<g id="node2" class="node">
<title>Node2</title>
<g id="a_node2"><a xlink:href="group__gs__mem.html" target="_top" xlink:title=" ">
<polygon fill="white" stroke="#666666" points="214,-19 92,-19 92,0 214,0 214,-19"/>
<text text-anchor="middle" x="153" y="-7" font-family="Helvetica,sans-Serif" font-size="10.00">gs memory management</text>
</a>
</g>
</g>
<!-- Node1 -->
<g id="node3" class="node">
<title>Node1</title>
<g id="a_node3"><a xlink:title=" ">
<polygon fill="#999999" stroke="#666666" points="52,-40 0,-40 0,-21 52,-21 52,-40"/>
<text text-anchor="middle" x="26" y="-28" font-family="Helvetica,sans-Serif" font-size="10.00">pgl* API</text>
</a>
</g>
</g>
<!-- Node1&#45;&gt;Node3 -->
<g id="edge2" class="edge">
<title>Node1&#45;&gt;Node3</title>
<path fill="none" stroke="black" d="M63.37,-36.9C71.04,-38.25 79.35,-39.71 87.7,-41.18"/>
<polygon fill="black" stroke="black" points="64.24,-33.5 53.79,-35.21 63.03,-40.39 64.24,-33.5"/>
</g>
<!-- Node1&#45;&gt;Node2 -->
<g id="edge1" class="edge">
<title>Node1&#45;&gt;Node2</title>
<path fill="none" stroke="black" d="M63.36,-24.39C72.55,-22.85 82.65,-21.15 92.65,-19.47"/>
<polygon fill="black" stroke="black" points="63.07,-20.89 53.79,-26 64.23,-27.79 63.07,-20.89"/>
</g>
</g>
</svg>
