<?xml version="1.0" encoding="UTF-8" standalone="no"?>
<!DOCTYPE svg PUBLIC "-//W3C//DTD SVG 1.1//EN"
 "http://www.w3.org/Graphics/SVG/1.1/DTD/svg11.dtd">
<!-- Generated by graphviz version 7.0.5 (20221223.1930)
 -->
<!-- Title: Graphical Class Hierarchy Pages: 1 -->
<svg width="323pt" height="64pt"
 viewBox="0.00 0.00 323.00 64.00" xmlns="http://www.w3.org/2000/svg" xmlns:xlink="http://www.w3.org/1999/xlink">
<g id="graph0" class="graph" transform="scale(1 1) rotate(0) translate(4 60)">
<title>Graphical Class Hierarchy</title>
<!-- Node0 -->
<g id="node1" class="node">
<title>Node0</title>
<g id="a_node1"><a xlink:href="class_c_renderer.html" target="_top" xlink:title=" ">
<polygon fill="white" stroke="#666666" points="62,-37 0,-37 0,-18 62,-18 62,-37"/>
<text text-anchor="middle" x="31" y="-25" font-family="Helvetica,sans-Serif" font-size="10.00">CRenderer</text>
</a>
</g>
</g>
<!-- Node1 -->
<g id="node2" class="node">
<title>Node1</title>
<g id="a_node2"><a xlink:href="class_c_base_renderer.html" target="_top" xlink:title=" ">
<polygon fill="white" stroke="#666666" points="183,-37 98,-37 98,-18 183,-18 183,-37"/>
<text text-anchor="middle" x="140.5" y="-25" font-family="Helvetica,sans-Serif" font-size="10.00">CBaseRenderer</text>
</a>
</g>
</g>
<!-- Node0&#45;&gt;Node1 -->
<g id="edge1" class="edge">
<title>Node0&#45;&gt;Node1</title>
<path fill="none" stroke="#63b8ff" d="M73.56,-27.5C81.53,-27.5 89.89,-27.5 97.87,-27.5"/>
<polygon fill="#63b8ff" stroke="#63b8ff" points="73.74,-24 63.74,-27.5 73.74,-31 73.74,-24"/>
</g>
<!-- Node2 -->
<g id="node3" class="node">
<title>Node2</title>
<g id="a_node3"><a xlink:href="class_c_indexed_renderer.html" target="_top" xlink:title=" ">
<polygon fill="white" stroke="#666666" points="315,-56 219,-56 219,-37 315,-37 315,-56"/>
<text text-anchor="middle" x="267" y="-44" font-family="Helvetica,sans-Serif" font-size="10.00">CIndexedRenderer</text>
</a>
</g>
</g>
<!-- Node1&#45;&gt;Node2 -->
<g id="edge2" class="edge">
<title>Node1&#45;&gt;Node2</title>
<path fill="none" stroke="#63b8ff" d="M194.42,-35.58C202.42,-36.8 210.63,-38.05 218.51,-39.25"/>
<polygon fill="#63b8ff" stroke="#63b8ff" points="195.21,-32.16 184.8,-34.11 194.16,-39.08 195.21,-32.16"/>
</g>
<!-- Node3 -->
<g id="node4" class="node">
<title>Node3</title>
<g id="a_node4"><a xlink:href="class_c_linear_renderer.html" target="_top" xlink:title=" ">
<polygon fill="white" stroke="#666666" points="311.5,-19 222.5,-19 222.5,0 311.5,0 311.5,-19"/>
<text text-anchor="middle" x="267" y="-7" font-family="Helvetica,sans-Serif" font-size="10.00">CLinearRenderer</text>
</a>
</g>
</g>
<!-- Node1&#45;&gt;Node3 -->
<g id="edge3" class="edge">
<title>Node1&#45;&gt;Node3</title>
<path fill="none" stroke="#63b8ff" d="M194.46,-19.84C203.78,-18.5 213.37,-17.11 222.39,-15.8"/>
<polygon fill="#63b8ff" stroke="#63b8ff" points="194.2,-16.34 184.8,-21.24 195.2,-23.27 194.2,-16.34"/>
</g>
</g>
</svg>
